<?xml version="1.0" encoding="UTF-8"?>
<!--Generator: Apple Native CoreSVG 175-->
<!DOCTYPE svg
PUBLIC "-//W3C//DTD SVG 1.1//EN"
       "http://www.w3.org/Graphics/SVG/1.1/DTD/svg11.dtd">
<svg version="1.1" xmlns="http://www.w3.org/2000/svg" xmlns:xlink="http://www.w3.org/1999/xlink" width="3300" height="2200">
 <!--glyph: "uni100597.medium", point size: 100.0, font version: "17.1d1e1", template writer version: "65.1"-->
 <g id="Notes">
  <rect height="2200" id="artboard" style="fill:white;opacity:1" width="3300" x="0" y="0"/>
  <line style="fill:none;stroke:black;opacity:1;stroke-width:0.5;" x1="263" x2="3036" y1="292" y2="292"/>
  <text style="stroke:none;fill:black;font-family:sans-serif;font-size:13;font-weight:bold;" transform="matrix(1 0 0 1 263 322)">Weight/Scale Variations</text>
  <text style="stroke:none;fill:black;font-family:sans-serif;font-size:13;text-anchor:middle;" transform="matrix(1 0 0 1 559.711 322)">Ultralight</text>
  <text style="stroke:none;fill:black;font-family:sans-serif;font-size:13;text-anchor:middle;" transform="matrix(1 0 0 1 856.422 322)">Thin</text>
  <text style="stroke:none;fill:black;font-family:sans-serif;font-size:13;text-anchor:middle;" transform="matrix(1 0 0 1 1153.13 322)">Light</text>
  <text style="stroke:none;fill:black;font-family:sans-serif;font-size:13;text-anchor:middle;" transform="matrix(1 0 0 1 1449.84 322)">Regular</text>
  <text style="stroke:none;fill:black;font-family:sans-serif;font-size:13;text-anchor:middle;" transform="matrix(1 0 0 1 1746.56 322)">Medium</text>
  <text style="stroke:none;fill:black;font-family:sans-serif;font-size:13;text-anchor:middle;" transform="matrix(1 0 0 1 2043.27 322)">Semibold</text>
  <text style="stroke:none;fill:black;font-family:sans-serif;font-size:13;text-anchor:middle;" transform="matrix(1 0 0 1 2339.98 322)">Bold</text>
  <text style="stroke:none;fill:black;font-family:sans-serif;font-size:13;text-anchor:middle;" transform="matrix(1 0 0 1 2636.69 322)">Heavy</text>
  <text style="stroke:none;fill:black;font-family:sans-serif;font-size:13;text-anchor:middle;" transform="matrix(1 0 0 1 2933.4 322)">Black</text>
  <line style="fill:none;stroke:black;opacity:1;stroke-width:0.5;" x1="263" x2="3036" y1="1903" y2="1903"/>
  <g transform="matrix(1 0 0 1 263 1933)">
   <path d="M9.24805 0.830078Q10.8691 0.830078 12.2949 0.214844Q13.7207-0.400391 14.8096-1.49414Q15.8984-2.58789 16.5186-4.01367Q17.1387-5.43945 17.1387-7.05078Q17.1387-8.66211 16.5186-10.0879Q15.8984-11.5137 14.8047-12.6074Q13.7109-13.7012 12.2852-14.3164Q10.8594-14.9316 9.23828-14.9316Q7.62695-14.9316 6.20117-14.3164Q4.77539-13.7012 3.69141-12.6074Q2.60742-11.5137 1.9873-10.0879Q1.36719-8.66211 1.36719-7.05078Q1.36719-5.43945 1.9873-4.01367Q2.60742-2.58789 3.69629-1.49414Q4.78516-0.400391 6.21094 0.214844Q7.63672 0.830078 9.24805 0.830078ZM9.24805-0.654297Q7.91992-0.654297 6.7627-1.14746Q5.60547-1.64062 4.73145-2.51953Q3.85742-3.39844 3.36426-4.56055Q2.87109-5.72266 2.87109-7.05078Q2.87109-8.37891 3.35938-9.54102Q3.84766-10.7031 4.72168-11.582Q5.5957-12.4609 6.75293-12.9541Q7.91016-13.4473 9.23828-13.4473Q10.5762-13.4473 11.7334-12.9541Q12.8906-12.4609 13.7695-11.582Q14.6484-10.7031 15.1465-9.54102Q15.6445-8.37891 15.6445-7.05078Q15.6445-5.72266 15.1514-4.56055Q14.6582-3.39844 13.7842-2.51953Q12.9102-1.64062 11.748-1.14746Q10.5859-0.654297 9.24805-0.654297ZM5.6543-7.05078Q5.6543-6.72852 5.85938-6.52832Q6.06445-6.32812 6.40625-6.32812L8.51562-6.32812L8.51562-4.20898Q8.51562-3.88672 8.71094-3.67676Q8.90625-3.4668 9.23828-3.4668Q9.56055-3.4668 9.77051-3.67676Q9.98047-3.88672 9.98047-4.20898L9.98047-6.32812L12.0898-6.32812Q12.4219-6.32812 12.627-6.52832Q12.832-6.72852 12.832-7.05078Q12.832-7.38281 12.627-7.58789Q12.4219-7.79297 12.0898-7.79297L9.98047-7.79297L9.98047-9.90234Q9.98047-10.2344 9.77051-10.4443Q9.56055-10.6543 9.23828-10.6543Q8.90625-10.6543 8.71094-10.4443Q8.51562-10.2344 8.51562-9.90234L8.51562-7.79297L6.40625-7.79297Q6.06445-7.79297 5.85938-7.58789Q5.6543-7.38281 5.6543-7.05078Z"/>
  </g>
  <g transform="matrix(1 0 0 1 281.867 1933)">
   <path d="M11.709 2.91016Q13.75 2.91016 15.5518 2.12891Q17.3535 1.34766 18.7305-0.0292969Q20.1074-1.40625 20.8887-3.20801Q21.6699-5.00977 21.6699-7.05078Q21.6699-9.0918 20.8887-10.8936Q20.1074-12.6953 18.7305-14.0723Q17.3535-15.4492 15.5469-16.2305Q13.7402-17.0117 11.6992-17.0117Q9.6582-17.0117 7.85645-16.2305Q6.05469-15.4492 4.68262-14.0723Q3.31055-12.6953 2.5293-10.8936Q1.74805-9.0918 1.74805-7.05078Q1.74805-5.00977 2.5293-3.20801Q3.31055-1.40625 4.6875-0.0292969Q6.06445 1.34766 7.86621 2.12891Q9.66797 2.91016 11.709 2.91016ZM11.709 1.25Q9.98047 1.25 8.47656 0.605469Q6.97266-0.0390625 5.83496-1.17676Q4.69727-2.31445 4.05762-3.81836Q3.41797-5.32227 3.41797-7.05078Q3.41797-8.7793 4.05762-10.2832Q4.69727-11.7871 5.83008-12.9297Q6.96289-14.0723 8.4668-14.7119Q9.9707-15.3516 11.6992-15.3516Q13.4277-15.3516 14.9316-14.7119Q16.4355-14.0723 17.5781-12.9297Q18.7207-11.7871 19.3652-10.2832Q20.0098-8.7793 20.0098-7.05078Q20.0098-5.32227 19.3701-3.81836Q18.7305-2.31445 17.5928-1.17676Q16.4551-0.0390625 14.9463 0.605469Q13.4375 1.25 11.709 1.25ZM7.17773-7.05078Q7.17773-6.69922 7.41211-6.47461Q7.64648-6.25 8.01758-6.25L10.8887-6.25L10.8887-3.36914Q10.8887-2.99805 11.1133-2.76855Q11.3379-2.53906 11.6895-2.53906Q12.0605-2.53906 12.29-2.76855Q12.5195-2.99805 12.5195-3.36914L12.5195-6.25L15.4004-6.25Q15.7715-6.25 16.001-6.47461Q16.2305-6.69922 16.2305-7.05078Q16.2305-7.42188 16.001-7.65137Q15.7715-7.88086 15.4004-7.88086L12.5195-7.88086L12.5195-10.752Q12.5195-11.1328 12.29-11.3623Q12.0605-11.5918 11.6895-11.5918Q11.3379-11.5918 11.1133-11.3574Q10.8887-11.123 10.8887-10.752L10.8887-7.88086L8.01758-7.88086Q7.63672-7.88086 7.40723-7.65137Q7.17773-7.42188 7.17773-7.05078Z"/>
  </g>
  <g transform="matrix(1 0 0 1 305.646 1933)">
   <path d="M14.9707 5.66406Q17.0605 5.66406 18.96 5.01465Q20.8594 4.36523 22.4512 3.19336Q24.043 2.02148 25.2197 0.429688Q26.3965-1.16211 27.0459-3.06641Q27.6953-4.9707 27.6953-7.05078Q27.6953-9.14062 27.0459-11.04Q26.3965-12.9395 25.2197-14.5312Q24.043-16.123 22.4512-17.2998Q20.8594-18.4766 18.9551-19.126Q17.0508-19.7754 14.9609-19.7754Q12.8711-19.7754 10.9717-19.126Q9.07227-18.4766 7.48535-17.2998Q5.89844-16.123 4.72168-14.5312Q3.54492-12.9395 2.90039-11.04Q2.25586-9.14062 2.25586-7.05078Q2.25586-4.9707 2.90527-3.06641Q3.55469-1.16211 4.72656 0.429688Q5.89844 2.02148 7.49023 3.19336Q9.08203 4.36523 10.9814 5.01465Q12.8809 5.66406 14.9707 5.66406ZM14.9707 3.84766Q13.1641 3.84766 11.5283 3.2959Q9.89258 2.74414 8.53516 1.74805Q7.17773 0.751953 6.17676-0.610352Q5.17578-1.97266 4.62891-3.6084Q4.08203-5.24414 4.08203-7.05078Q4.08203-8.86719 4.62891-10.5029Q5.17578-12.1387 6.17188-13.501Q7.16797-14.8633 8.52539-15.8594Q9.88281-16.8555 11.5186-17.4023Q13.1543-17.9492 14.9609-17.9492Q16.7773-17.9492 18.4131-17.4023Q20.0488-16.8555 21.4111-15.8594Q22.7734-14.8633 23.7695-13.501Q24.7656-12.1387 25.3174-10.5029Q25.8691-8.86719 25.8691-7.05078Q25.8789-5.24414 25.332-3.6084Q24.7852-1.97266 23.7842-0.610352Q22.7832 0.751953 21.4209 1.74805Q20.0586 2.74414 18.4229 3.2959Q16.7871 3.84766 14.9707 3.84766ZM9.19922-7.05078Q9.19922-6.66992 9.45801-6.4209Q9.7168-6.17188 10.1172-6.17188L14.0625-6.17188L14.0625-2.2168Q14.0625-1.81641 14.3115-1.55762Q14.5605-1.29883 14.9512-1.29883Q15.3516-1.29883 15.6104-1.55273Q15.8691-1.80664 15.8691-2.2168L15.8691-6.17188L19.8242-6.17188Q20.2246-6.17188 20.4785-6.4209Q20.7324-6.66992 20.7324-7.05078Q20.7324-7.46094 20.4785-7.71484Q20.2246-7.96875 19.8242-7.96875L15.8691-7.96875L15.8691-11.9141Q15.8691-12.3242 15.6104-12.583Q15.3516-12.8418 14.9512-12.8418Q14.5605-12.8418 14.3115-12.583Q14.0625-12.3242 14.0625-11.9141L14.0625-7.96875L10.1172-7.96875Q9.70703-7.96875 9.45312-7.71484Q9.19922-7.46094 9.19922-7.05078Z"/>
  </g>
  <text style="stroke:none;fill:black;font-family:sans-serif;font-size:13;font-weight:bold;" transform="matrix(1 0 0 1 263 1953)">Design Variations</text>
  <text style="stroke:none;fill:black;font-family:sans-serif;font-size:13;" transform="matrix(1 0 0 1 263 1971)">Symbols are supported in up to nine weights and three scales.</text>
  <text style="stroke:none;fill:black;font-family:sans-serif;font-size:13;" transform="matrix(1 0 0 1 263 1989)">For optimal layout with text and other symbols, vertically align</text>
  <text style="stroke:none;fill:black;font-family:sans-serif;font-size:13;" transform="matrix(1 0 0 1 263 2007)">symbols with the adjacent text.</text>
  <line style="fill:none;stroke:#00AEEF;stroke-width:0.5;opacity:1.0;" x1="776" x2="776" y1="1919" y2="1933"/>
  <g transform="matrix(1 0 0 1 776 1933)">
   <path d="M3.31055 0.15625Q3.70117 0.15625 3.91602-0.00976562Q4.13086-0.175781 4.26758-0.585938L5.52734-4.0332L11.2891-4.0332L12.5488-0.585938Q12.6855-0.175781 12.9004-0.00976562Q13.1152 0.15625 13.4961 0.15625Q13.8867 0.15625 14.1162-0.0585938Q14.3457-0.273438 14.3457-0.644531Q14.3457-0.869141 14.2383-1.17188L9.6582-13.3691Q9.48242-13.8184 9.17969-14.043Q8.87695-14.2676 8.4082-14.2676Q7.5-14.2676 7.17773-13.3789L2.59766-1.16211Q2.49023-0.859375 2.49023-0.634766Q2.49023-0.263672 2.70996-0.0537109Q2.92969 0.15625 3.31055 0.15625ZM6.00586-5.51758L8.37891-12.0898L8.42773-12.0898L10.8008-5.51758Z"/>
  </g>
  <line style="fill:none;stroke:#00AEEF;stroke-width:0.5;opacity:1.0;" x1="793.197" x2="793.197" y1="1919" y2="1933"/>
  <text style="stroke:none;fill:black;font-family:sans-serif;font-size:13;font-weight:bold;" transform="matrix(1 0 0 1 776 1953)">Margins</text>
  <text style="stroke:none;fill:black;font-family:sans-serif;font-size:13;" transform="matrix(1 0 0 1 776 1971)">Leading and trailing margins on the left and right side of each symbol</text>
  <text style="stroke:none;fill:black;font-family:sans-serif;font-size:13;" transform="matrix(1 0 0 1 776 1989)">can be adjusted by modifying the x-location of the margin guidelines.</text>
  <text style="stroke:none;fill:black;font-family:sans-serif;font-size:13;" transform="matrix(1 0 0 1 776 2007)">Modifications are automatically applied proportionally to all</text>
  <text style="stroke:none;fill:black;font-family:sans-serif;font-size:13;" transform="matrix(1 0 0 1 776 2025)">scales and weights.</text>
  <g transform="matrix(1 0 0 1 1289 1933)">
   <path d="M2.8418 1.86523L4.54102 3.57422Q5.18555 4.22852 5.90332 4.17969Q6.62109 4.13086 7.31445 3.35938L18.0078-8.42773L17.041-9.4043L6.42578 2.27539Q6.16211 2.57812 5.89355 2.61719Q5.625 2.65625 5.27344 2.30469L4.10156 1.14258Q3.75 0.791016 3.79395 0.522461Q3.83789 0.253906 4.14062-0.0195312L15.6152-10.8203L14.6387-11.7871L3.04688-0.898438Q2.30469-0.214844 2.25098 0.498047Q2.19727 1.21094 2.8418 1.86523ZM9.25781-16.3281Q8.94531-16.0254 8.90625-15.6348Q8.86719-15.2441 9.04297-14.9512Q9.21875-14.6777 9.55566-14.541Q9.89258-14.4043 10.3809-14.5215Q11.4746-14.7754 12.5977-14.7314Q13.7207-14.6875 14.7949-13.9844L14.209-12.5293Q13.9551-11.9043 14.0674-11.4404Q14.1797-10.9766 14.5801-10.5664L16.875-8.25195Q17.2363-7.88086 17.5781-7.82227Q17.9199-7.76367 18.3398-7.8418L19.4043-8.03711L20.0684-7.36328L20.0293-6.80664Q20-6.43555 20.1221-6.12305Q20.2441-5.81055 20.6055-5.44922L21.3672-4.70703Q21.7285-4.3457 22.1533-4.33105Q22.5781-4.31641 22.9297-4.66797L25.8398-7.58789Q26.1914-7.93945 26.1816-8.35449Q26.1719-8.76953 25.8105-9.13086L25.0391-9.89258Q24.6875-10.2539 24.3799-10.3857Q24.0723-10.5176 23.7109-10.4883L23.1348-10.4395L22.4902-11.0742L22.7344-12.1973Q22.832-12.6172 22.6953-12.9834Q22.5586-13.3496 22.1191-13.7891L19.9219-15.9766Q18.6719-17.2168 17.2607-17.8369Q15.8496-18.457 14.4189-18.4814Q12.9883-18.5059 11.665-17.959Q10.3418-17.4121 9.25781-16.3281ZM10.752-15.957Q11.6602-16.6211 12.7002-16.9043Q13.7402-17.1875 14.8047-17.085Q15.8691-16.9824 16.8701-16.5137Q17.8711-16.0449 18.7012-15.2051L21.1328-12.793Q21.3086-12.6172 21.3525-12.4512Q21.3965-12.2852 21.3379-12.0312L21.0156-10.5469L22.5195-9.0625L23.5059-9.12109Q23.6914-9.13086 23.7891-9.09668Q23.8867-9.0625 24.0332-8.91602L24.6094-8.33984L22.168-5.89844L21.5918-6.47461Q21.4453-6.62109 21.4062-6.71875Q21.3672-6.81641 21.377-7.01172L21.4453-7.98828L19.9512-9.47266L18.4277-9.21875Q18.1836-9.16992 18.042-9.2041Q17.9004-9.23828 17.7148-9.41406L15.7129-11.416Q15.5176-11.5918 15.4932-11.7529Q15.4688-11.9141 15.5859-12.1875L16.4648-14.2773Q15.293-15.3711 13.8281-15.791Q12.3633-16.2109 10.8398-15.7617Q10.7227-15.7324 10.6885-15.8057Q10.6543-15.8789 10.752-15.957Z"/>
  </g>
  <text style="stroke:none;fill:black;font-family:sans-serif;font-size:13;font-weight:bold;" transform="matrix(1 0 0 1 1289 1953)">Exporting</text>
  <text style="stroke:none;fill:black;font-family:sans-serif;font-size:13;" transform="matrix(1 0 0 1 1289 1971)">Symbols should be outlined when exporting to ensure the</text>
  <text style="stroke:none;fill:black;font-family:sans-serif;font-size:13;" transform="matrix(1 0 0 1 1289 1989)">design is preserved when submitting to Xcode.</text>
  <text id="template-version" style="stroke:none;fill:black;font-family:sans-serif;font-size:13;text-anchor:end;" transform="matrix(1 0 0 1 3036 1933)">Template v.3.0</text>
  <text style="stroke:none;fill:black;font-family:sans-serif;font-size:13;text-anchor:end;" transform="matrix(1 0 0 1 3036 1951)">Requires Xcode 13 or greater</text>
  <text id="descriptive-name" style="stroke:none;fill:black;font-family:sans-serif;font-size:13;text-anchor:end;" transform="matrix(1 0 0 1 3036 1969)">Generated from dollarsign.circle</text>
  <text style="stroke:none;fill:black;font-family:sans-serif;font-size:13;text-anchor:end;" transform="matrix(1 0 0 1 3036 1987)">Typeset at 100 points</text>
  <text style="stroke:none;fill:black;font-family:sans-serif;font-size:13;" transform="matrix(1 0 0 1 263 726)">Small</text>
  <text style="stroke:none;fill:black;font-family:sans-serif;font-size:13;" transform="matrix(1 0 0 1 263 1156)">Medium</text>
  <text style="stroke:none;fill:black;font-family:sans-serif;font-size:13;" transform="matrix(1 0 0 1 263 1586)">Large</text>
 </g>
 <g id="Guides">
  <g id="H-reference" style="fill:#27AAE1;stroke:none;" transform="matrix(1 0 0 1 339 696)">
   <path d="M0.993347 0L3.6377 0L29.3282-67.1326L30.0301-67.1326L30.0301-70.459L28.1227-70.459ZM11.6882-24.4797L46.9818-24.4797L46.2311-26.7288L12.4382-26.7288ZM55.1193 0L57.7637 0L30.6381-70.459L29.4327-70.459L29.4327-67.1326Z"/>
  </g>
  <line id="Baseline-S" style="fill:none;stroke:#27AAE1;opacity:1;stroke-width:0.5;" x1="263" x2="3036" y1="696" y2="696"/>
  <line id="Capline-S" style="fill:none;stroke:#27AAE1;opacity:1;stroke-width:0.5;" x1="263" x2="3036" y1="625.541" y2="625.541"/>
  <g id="H-reference" style="fill:#27AAE1;stroke:none;" transform="matrix(1 0 0 1 339 1126)">
   <path d="M0.993347 0L3.6377 0L29.3282-67.1326L30.0301-67.1326L30.0301-70.459L28.1227-70.459ZM11.6882-24.4797L46.9818-24.4797L46.2311-26.7288L12.4382-26.7288ZM55.1193 0L57.7637 0L30.6381-70.459L29.4327-70.459L29.4327-67.1326Z"/>
  </g>
  <line id="Baseline-M" style="fill:none;stroke:#27AAE1;opacity:1;stroke-width:0.5;" x1="263" x2="3036" y1="1126" y2="1126"/>
  <line id="Capline-M" style="fill:none;stroke:#27AAE1;opacity:1;stroke-width:0.5;" x1="263" x2="3036" y1="1055.54" y2="1055.54"/>
  <g id="H-reference" style="fill:#27AAE1;stroke:none;" transform="matrix(1 0 0 1 339 1556)">
   <path d="M0.993347 0L3.6377 0L29.3282-67.1326L30.0301-67.1326L30.0301-70.459L28.1227-70.459ZM11.6882-24.4797L46.9818-24.4797L46.2311-26.7288L12.4382-26.7288ZM55.1193 0L57.7637 0L30.6381-70.459L29.4327-70.459L29.4327-67.1326Z"/>
  </g>
  <line id="Baseline-L" style="fill:none;stroke:#27AAE1;opacity:1;stroke-width:0.5;" x1="263" x2="3036" y1="1556" y2="1556"/>
  <line id="Capline-L" style="fill:none;stroke:#27AAE1;opacity:1;stroke-width:0.5;" x1="263" x2="3036" y1="1485.54" y2="1485.54"/>
  <line id="left-margin-Regular-M" style="fill:none;stroke:#00AEEF;stroke-width:0.5;opacity:1.0;" x1="1391.32" x2="1391.32" y1="1030.79" y2="1150.12"/>
  <line id="right-margin-Regular-M" style="fill:none;stroke:#00AEEF;stroke-width:0.5;opacity:1.0;" x1="1508.37" x2="1508.37" y1="1030.79" y2="1150.12"/>
 </g>
 <g id="Symbols">
  <g id="Black-L" transform="matrix(1 0 0 1 2854.19 1556)">
   <path d="M79.1953 32.7252Q93.2356 32.7252 105.521 27.4303Q117.806 22.1354 127.174 12.7571Q136.542 3.37874 141.848-8.90649Q147.154-21.1917 147.154-35.2113Q147.154-49.2309 141.848-61.5161Q136.542-73.8013 127.164-83.1796Q117.785-92.558 105.5-97.8529Q93.2149-103.148 79.1746-103.148Q65.1563-103.148 52.8704-97.8529Q40.5846-92.558 31.2276-83.1796Q21.8707-73.8013 16.5647-61.5161Q11.2588-49.2309 11.2588-35.2113Q11.2588-21.1917 16.5647-8.90649Q21.8707 3.37874 31.238 12.7571Q40.6053 22.1354 52.8912 27.4303Q65.177 32.7252 79.1953 32.7252ZM79.1953 12.5777Q69.2941 12.5777 60.6256 8.86047Q51.9572 5.14327 45.4197-1.40458Q38.8822-7.95243 35.1644-16.6312Q31.4465-25.3101 31.4465-35.2113Q31.4465-45.1125 35.154-53.7913Q38.8615-62.4702 45.399-69.018Q51.9365-75.5659 60.6049-79.2831Q69.2734-83.0003 79.1746-83.0003Q89.0966-83.0003 97.7657-79.2831Q106.435-75.5659 112.982-69.018Q119.529-62.4702 123.257-53.7913Q126.986-45.1125 126.986-35.2113Q126.986-25.3101 123.268-16.6312Q119.551-7.95243 113.014-1.40458Q106.476 5.14327 97.7974 8.86047Q89.1186 12.5777 79.1953 12.5777ZM79.1953-1.69459Q81.7452-1.69459 81.7452-4.38073L81.7452-8.01595Q90.5106-8.67618 95.8354-13.2078Q101.16-17.7394 101.16-25.0578Q101.16-31.5758 97.0918-35.2951Q93.0235-39.0144 84.748-40.6788L81.7452-41.2913L81.7452-51.2622Q83.5886-50.8551 84.9032-49.8498Q86.2178-48.8445 87.0012-47.2333Q89.4406-43.2961 93.5234-43.2961Q96.4064-43.2961 98.0476-44.7731Q99.6889-46.2501 99.6889-48.6684Q99.6889-49.382 99.5507-50.0962Q99.4125-50.8104 99.1946-51.4876Q97.8546-55.6559 93.4023-58.7779Q88.95-61.8998 81.7452-62.5004L81.7452-66.3394Q81.7452-69.0048 79.1953-69.0048Q76.626-69.0048 76.626-66.3394L76.626-62.5004Q68.2655-61.9946 62.9605-57.5338Q57.6556-53.0729 57.6556-45.9085Q57.6556-39.3838 61.809-35.5812Q65.9624-31.7787 73.7813-30.0861L76.626-29.4775L76.626-19.1386Q74.1757-19.486 72.736-20.5982Q71.2963-21.7104 70.5933-23.2711Q69.5501-25.2585 68.0373-26.3307Q66.5245-27.403 64.2476-27.403Q61.1517-27.403 59.4715-25.7514Q57.7914-24.0998 57.7914-21.4673Q57.7914-20.7914 57.9295-20.048Q58.0677-19.3046 58.4025-18.5106Q59.7852-14.8149 64.2568-11.6398Q68.7283-8.46457 76.626-7.97956L76.626-4.38073Q76.626-1.69459 79.1953-1.69459ZM76.626-42.5194L76.2045-42.6206Q73.7905-43.2467 72.5652-44.335Q71.34-45.4234 71.34-47.0842Q71.34-48.8098 72.7629-49.987Q74.1859-51.1641 76.626-51.4375ZM81.7452-28.3285L82.4115-28.182Q85.1704-27.5559 86.3432-26.5027Q87.516-25.4494 87.516-23.6849Q87.516-21.7726 86.0198-20.6183Q84.5235-19.464 81.7452-19.1386Z"/>
  </g>
  <g id="Heavy-L" transform="matrix(1 0 0 1 2558.42 1556)">
   <path d="M78.2511 31.7672Q92.088 31.7672 104.202 26.5464Q116.316 21.3256 125.559 12.0677Q134.802 2.8099 140.04-9.30402Q145.279-21.4179 145.279-35.2251Q145.279-49.0322 140.04-61.1461Q134.802-73.2601 125.544-82.5179Q116.286-91.7758 104.172-96.9966Q92.0582-102.217 78.2213-102.217Q64.4202-102.217 52.3033-96.9966Q40.1863-91.7758 30.9613-82.5179Q21.7362-73.2601 16.4975-61.1461Q11.2588-49.0322 11.2588-35.2251Q11.2588-21.4179 16.4975-9.30402Q21.7362 2.8099 30.9761 12.0677Q40.2161 21.3256 52.333 26.5464Q64.45 31.7672 78.2511 31.7672ZM78.2511 14.0252Q68.0447 14.0252 59.1149 10.2016Q50.1851 6.37791 43.4463-0.375708Q36.7076-7.12933 32.8809-16.074Q29.0543-25.0188 29.0543-35.2251Q29.0543-45.4314 32.8661-54.3761Q36.6778-63.3208 43.4166-70.0745Q50.1553-76.8281 59.0851-80.6517Q68.015-84.4754 78.2213-84.4754Q88.4574-84.4754 97.3902-80.6517Q106.323-76.8281 113.074-70.0745Q119.824-63.3208 123.666-54.3761Q127.507-45.4314 127.507-35.2251Q127.507-25.0188 123.684-16.074Q119.86-7.12933 113.121-0.375708Q106.383 6.37791 97.4379 10.2016Q88.4932 14.0252 78.2511 14.0252ZM78.2511-1.15598Q80.8623-1.15598 80.8623-3.88022L80.8623-7.72406Q89.3026-8.37907 94.5487-12.8256Q99.7948-17.2722 99.7948-24.5236Q99.7948-30.9889 95.7206-34.7415Q91.6463-38.4941 83.3992-40.1085L80.8623-40.6207L80.8623-52.4894Q83.1144-52.0366 84.6937-50.7885Q86.2729-49.5403 87.0739-47.5275Q89.1807-43.8183 92.9252-43.8183Q95.4935-43.8183 96.9727-45.1816Q98.4519-46.5448 98.4519-48.7683Q98.4519-49.4172 98.3299-50.0692Q98.2079-50.7211 98.0084-51.3612Q96.7012-55.7491 92.2558-58.9124Q87.8104-62.0758 80.8623-62.6802L80.8623-66.657Q80.8623-69.3515 78.2511-69.3515Q75.6161-69.3515 75.6161-66.657L75.6161-62.6802Q67.5369-62.1292 62.404-57.738Q57.2712-53.3467 57.2712-46.3724Q57.2712-39.9969 61.387-36.225Q65.5029-32.4531 73.3213-30.7196L75.6161-30.2255L75.6161-17.8316Q72.7029-18.2338 70.9819-19.6192Q69.2609-21.0047 68.5403-22.9825Q67.6268-24.8578 66.2578-25.8536Q64.8888-26.8493 62.829-26.8493Q60.1119-26.8493 58.5985-25.3552Q57.0851-23.8612 57.0851-21.4829Q57.0851-20.8489 57.2072-20.1746Q57.3292-19.5003 57.6179-18.771Q58.9906-14.6708 63.533-11.4536Q68.0754-8.23638 75.6161-7.71523L75.6161-3.88022Q75.6161-1.15598 78.2511-1.15598ZM75.6161-41.9159L75.1902-42.0261Q72.3125-42.8043 70.8824-44.0982Q69.4524-45.3921 69.4524-47.3542Q69.4524-49.3911 71.1151-50.8179Q72.7777-52.2448 75.6161-52.6232ZM80.8623-29.0047L81.694-28.8169Q84.9353-28.0387 86.2879-26.7476Q87.6405-25.4565 87.6405-23.3721Q87.6405-21.094 85.8972-19.646Q84.1539-18.198 80.8623-17.8316Z"/>
  </g>
  <g id="Bold-L" transform="matrix(1 0 0 1 2262.89 1556)">
   <path d="M77.0653 30.566Q90.6516 30.566 102.549 25.4396Q114.447 20.3133 123.533 11.2089Q132.619 2.10448 137.771-9.79333Q142.923-21.6912 142.923-35.2405Q142.923-48.7898 137.771-60.6877Q132.619-72.5855 123.515-81.6899Q114.41-90.7942 102.512-95.9206Q90.6146-101.047 77.0283-101.047Q63.4932-101.047 51.5882-95.9206Q39.6833-90.7942 30.623-81.6899Q21.5627-72.5855 16.4108-60.6877Q11.2588-48.7898 11.2588-35.2405Q11.2588-21.6912 16.4108-9.79333Q21.5627 2.10448 30.6415 11.2089Q39.7203 20.3133 51.6252 25.4396Q63.5301 30.566 77.0653 30.566ZM77.0653 15.8201Q66.4831 15.8201 57.2278 11.8629Q47.9725 7.90583 40.9827 0.897553Q33.9929-6.11072 30.0287-15.3845Q26.0645-24.6583 26.0645-35.2405Q26.0645-45.8227 30.0102-55.0965Q33.9559-64.3703 40.9457-71.3786Q47.9355-78.3868 57.1908-82.3439Q66.4461-86.3011 77.0283-86.3011Q87.6474-86.3011 96.9099-82.3439Q106.172-78.3868 113.173-71.3786Q120.175-64.3703 124.157-55.0965Q128.14-45.8227 128.14-35.2405Q128.14-24.6583 124.183-15.3845Q120.226-6.11072 113.236 0.897553Q106.246 7.90583 96.9725 11.8629Q87.6986 15.8201 77.0653 15.8201ZM77.0653-0.619652Q79.6905-0.619652 79.6905-3.32609L79.6905-7.43782Q87.7872-8.07549 92.9353-12.4254Q98.0834-16.7754 98.0834-23.903Q98.0834-30.269 94.0197-34.0373Q89.956-37.8056 81.7581-39.3757L79.6905-39.79L79.6905-53.9542Q82.4803-53.4561 84.4075-51.9061Q86.3346-50.3561 87.1409-47.8595Q88.841-44.4602 92.1523-44.4602Q94.3284-44.4602 95.6033-45.6731Q96.8782-46.8859 96.8782-48.8569Q96.8782-49.4278 96.7757-50.0058Q96.6732-50.5838 96.4974-51.1767Q95.2384-55.793 90.8007-59.0026Q86.363-62.2122 79.6905-62.8064L79.6905-66.9375Q79.6905-69.6069 77.0653-69.6069Q74.4172-69.6069 74.4172-66.9375L74.4172-62.8064Q66.6729-62.2194 61.7282-57.9189Q56.7835-53.6185 56.7835-46.8885Q56.7835-40.7201 60.843-36.9969Q64.9025-33.2737 72.7118-31.5031L74.4172-31.1314L74.4172-16.2459Q70.923-16.7006 68.8254-18.432Q66.7279-20.1634 66.002-22.677Q65.2538-24.3924 64.07-25.2896Q62.8862-26.1868 61.0924-26.1868Q58.8365-26.1868 57.5356-24.8934Q56.2347-23.6 56.2347-21.535Q56.2347-20.9563 56.3372-20.3637Q56.4397-19.7711 56.6739-19.1198Q58.0212-14.5643 62.6356-11.2871Q67.25-8.0099 74.4172-7.45983L74.4172-3.32609Q74.4172-0.619652 77.0653-0.619652ZM74.4172-41.1257L73.9924-41.2431Q70.5152-42.2001 68.8071-43.7441Q67.0991-45.2881 67.0991-47.6361Q67.0991-50.0845 69.0875-51.8209Q71.0759-53.5573 74.4172-54.0418ZM79.6905-29.8619L80.7072-29.6278Q84.5715-28.6709 86.18-27.0907Q87.7884-25.5104 87.7884-23.0165Q87.7884-20.2743 85.7026-18.4618Q83.6167-16.6494 79.6905-16.2459Z"/>
  </g>
  <g id="Semibold-L" transform="matrix(1 0 0 1 1966.99 1556)">
   <path d="M76.2478 29.7379Q89.6614 29.7379 101.41 24.6766Q113.159 19.6153 122.137 10.6168Q131.114 1.61818 136.206-10.1307Q141.299-21.8795 141.299-35.2511Q141.299-48.6228 136.206-60.3716Q131.114-72.1204 122.116-81.119Q113.117-90.1176 101.368-95.1789Q89.6194-100.24 76.2058-100.24Q62.854-100.24 51.0953-95.1789Q39.3365-90.1176 30.3898-81.119Q21.4432-72.1204 16.351-60.3716Q11.2588-48.6228 11.2588-35.2511Q11.2588-21.8795 16.351-10.1307Q21.4432 1.61818 30.4108 10.6168Q39.3785 19.6153 51.1372 24.6766Q62.896 29.7379 76.2478 29.7379ZM76.2478 17.0574Q65.4065 17.0574 55.9268 13.0083Q46.4471 8.95916 39.2843 1.77533Q32.1214-5.4085 28.0624-14.9092Q24.0033-24.4099 24.0033-35.2511Q24.0033-46.0924 28.0414-55.5931Q32.0795-65.0938 39.2423-72.2776Q46.4052-79.4614 55.8848-83.5105Q65.3645-87.5597 76.2058-87.5597Q87.089-87.5597 96.5787-83.5105Q106.068-79.4614 113.242-72.2776Q120.416-65.0938 124.496-55.5931Q128.576-46.0924 128.576-35.2511Q128.576-24.4099 124.527-14.9092Q120.478-5.4085 113.315 1.77533Q106.152 8.95916 96.6516 13.0083Q87.1509 17.0574 76.2478 17.0574ZM76.2478-0.249913Q78.8827-0.249913 78.8827-2.94407L78.8827-7.24049Q86.7425-7.86621 91.823-12.1495Q96.9035-16.4329 96.9035-23.4751Q96.9035-29.7728 92.8471-33.5518Q88.7907-37.3309 80.6267-38.8704L78.8827-39.2174L78.8827-54.964Q82.0432-54.4347 84.2102-52.6766Q86.3771-50.9185 87.1871-48.0884Q88.6068-44.9026 91.6195-44.9026Q93.5252-44.9026 94.6593-46.0119Q95.7934-47.1211 95.7934-48.9181Q95.7934-49.4351 95.7043-49.9621Q95.6152-50.4891 95.4557-51.0495Q94.2299-55.8232 89.7975-59.0647Q85.3651-62.3062 78.8827-62.8935L78.8827-67.1308Q78.8827-69.783 76.2478-69.783Q73.5908-69.783 73.5908-67.1308L73.5908-62.8935Q66.0773-62.2815 61.2624-58.0437Q56.4474-53.8058 56.4474-47.2443Q56.4474-41.2187 60.468-37.529Q64.4886-33.8394 72.2916-32.0432L73.5908-31.7559L73.5908-15.1527Q69.6959-15.6436 67.3388-17.6135Q64.9816-19.5834 64.2521-22.4664Q63.6178-24.0715 62.5618-24.9008Q61.5057-25.73 59.8953-25.73Q57.9572-25.73 56.8028-24.575Q55.6484-23.4199 55.6484-21.5708Q55.6484-21.0304 55.7374-20.4941Q55.8265-19.9578 56.0232-19.3603Q57.3528-14.4909 62.0169-11.1723Q66.681-7.85376 73.5908-7.28377L73.5908-2.94407Q73.5908-0.249913 76.2478-0.249913ZM73.5908-40.581L73.1666-40.7034Q69.2762-41.7835 67.3765-43.4999Q65.4768-45.2163 65.4768-47.8304Q65.4768-50.5625 67.6897-52.5123Q69.9026-54.4622 73.5908-55.0197ZM78.8827-30.4528L80.027-30.1869Q84.3208-29.1067 86.1056-27.3272Q87.8904-25.5476 87.8904-22.7714Q87.8904-19.7093 85.5684-17.6455Q83.2463-15.5817 78.8827-15.1527Z"/>
  </g>
  <g id="Medium-L" transform="matrix(1 0 0 1 1670.9 1556)">
   <path d="M75.6279 29.11Q88.9106 29.11 100.546 24.0981Q112.182 19.0862 121.078 10.1678Q129.973 1.24944 135.02-10.3864Q140.067-22.0223 140.067-35.2592Q140.067-48.4961 135.02-60.1319Q129.973-71.7678 121.055-80.6862Q112.137-89.6045 100.501-94.6164Q88.8648-99.6283 75.5822-99.6283Q62.3695-99.6283 50.7215-94.6164Q39.0736-89.6045 30.213-80.6862Q21.3525-71.7678 16.3056-60.1319Q11.2588-48.4961 11.2588-35.2592Q11.2588-22.0223 16.3056-10.3864Q21.3525 1.24944 30.2359 10.1678Q39.1193 19.0862 50.7673 24.0981Q62.4152 29.11 75.6279 29.11ZM75.6279 17.9956Q64.5902 17.9956 54.9404 13.8767Q45.2905 9.75784 37.9965 2.4409Q30.7024-4.87605 26.5714-14.5488Q22.4405-24.2215 22.4405-35.2592Q22.4405-46.2969 26.5486-55.9696Q30.6567-65.6423 37.9507-72.9593Q45.2448-80.2762 54.8946-84.3951Q64.5445-88.514 75.5822-88.514Q86.6657-88.514 96.3276-84.3951Q105.989-80.2762 113.294-72.9593Q120.599-65.6423 124.753-55.9696Q128.907-46.2969 128.907-35.2592Q128.907-24.2215 124.788-14.5488Q120.669-4.87605 113.375 2.4409Q106.081 9.75784 96.4083 13.8767Q86.7356 17.9956 75.6279 17.9956ZM75.6279 0.030439Q78.2702 0.030439 78.2702-2.65441L78.2702-7.09087Q85.9504-7.70752 90.9796-11.9404Q96.0088-16.1732 96.0088-23.1507Q96.0088-29.3965 91.958-33.1837Q87.9071-36.971 79.7688-38.4873L78.2702-38.7831L78.2702-55.7297Q81.7117-55.1767 84.0606-53.2608Q86.4094-51.3449 87.2221-48.2619Q88.4292-45.2381 91.2155-45.2381Q92.9162-45.2381 93.9435-46.2688Q94.9708-47.2995 94.9708-48.9644Q94.9708-49.4407 94.8919-49.929Q94.813-50.4174 94.6658-50.953Q93.4652-55.8461 89.0369-59.1118Q84.6085-62.3775 78.2702-62.9595L78.2702-67.2774Q78.2702-69.9165 75.6279-69.9165Q72.9641-69.9165 72.9641-67.2774L72.9641-62.9595Q65.6257-62.3286 60.9091-58.1383Q56.1925-53.9479 56.1925-47.514Q56.1925-41.5968 60.1836-37.9325Q64.1748-34.2683 71.973-32.4528L72.9641-32.2294L72.9641-14.3238Q68.7655-14.8421 66.2115-16.9929Q63.6575-19.1436 62.9252-22.3067Q62.3773-23.8282 61.4181-24.6059Q60.4589-25.3837 58.9875-25.3837Q57.2905-25.3837 56.2472-24.3336Q55.2038-23.2834 55.2038-21.598Q55.2038-21.0865 55.2827-20.5929Q55.3615-20.0993 55.5298-19.5426Q56.846-14.4352 61.5478-11.0853Q66.2495-7.73537 72.9641-7.15026L72.9641-2.65441Q72.9641 0.030439 75.6279 0.030439ZM72.9641-40.1679L72.5404-40.2941Q68.3367-41.4677 66.2916-43.3148Q64.2466-45.1619 64.2466-47.9778Q64.2466-50.9249 66.6298-53.0366Q69.013-55.1483 72.9641-55.7612ZM78.2702-30.9009L79.5111-30.6108Q84.1306-29.4371 86.0492-27.5065Q87.9678-25.5758 87.9678-22.5855Q87.9678-19.2809 85.4666-17.0265Q82.9655-14.7722 78.2702-14.3238Z"/>
  </g>
  <g id="Regular-L" transform="matrix(1 0 0 1 1374.99 1556)">
   <path d="M74.8194 28.2909Q87.9312 28.2909 99.4198 23.3434Q110.908 18.3959 119.697 9.58221Q128.485 0.768476 133.473-10.7201Q138.46-22.2086 138.46-35.2697Q138.46-48.3308 133.473-59.8193Q128.485-71.3079 119.671-80.1216Q110.858-88.9353 99.3691-93.8828Q87.8805-98.8303 74.7687-98.8303Q61.7374-98.8303 50.234-93.8828Q38.7306-88.9353 29.9824-80.1216Q21.2342-71.3079 16.2465-59.8193Q11.2588-48.3308 11.2588-35.2697Q11.2588-22.2086 16.2465-10.7201Q21.2342 0.768476 30.0077 9.58221Q38.7813 18.3959 50.2847 23.3434Q61.7881 28.2909 74.8194 28.2909ZM74.8194 19.2194Q63.5255 19.2194 53.6537 15.0095Q43.7819 10.7996 36.3167 3.30903Q28.8515-4.18154 24.6267-14.0786Q20.402-23.9757 20.402-35.2697Q20.402-46.5637 24.6014-56.4608Q28.8008-66.3579 36.266-73.8484Q43.7313-81.339 53.603-85.5489Q63.4748-89.7588 74.7687-89.7588Q86.1134-89.7588 96-85.5489Q105.887-81.339 113.362-73.8484Q120.838-66.3579 125.088-56.4608Q129.338-46.5637 129.338-35.2697Q129.338-23.9757 125.128-14.0786Q120.918-4.18154 113.453 3.30903Q105.988 10.7996 96.0909 15.0095Q86.1938 19.2194 74.8194 19.2194ZM74.8194 0.396115Q77.4712 0.396115 77.4712-2.27659L77.4712-6.89571Q84.9172-7.50054 89.8795-11.6675Q94.8419-15.8345 94.8419-22.7275Q94.8419-28.9056 90.7983-32.7036Q86.7547-36.5016 78.6498-37.9876L77.4712-38.2168L77.4712-56.7284Q81.2794-56.1445 83.8654-54.0228Q86.4514-51.9011 87.2678-48.4883Q88.1976-45.6757 90.6885-45.6757Q92.1219-45.6757 93.0098-46.6039Q93.8978-47.5321 93.8978-49.0249Q93.8978-49.4479 93.8322-49.8858Q93.7667-50.3237 93.6356-50.8272Q92.4678-55.8761 88.0447-59.1733Q83.6216-62.4705 77.4712-63.0456L77.4712-67.4687Q77.4712-70.0907 74.8194-70.0907Q72.1467-70.0907 72.1467-67.4687L72.1467-63.0456Q65.0367-62.3901 60.4483-58.2616Q55.86-54.1332 55.86-47.8659Q55.86-42.0899 59.8127-38.4589Q63.7655-34.8278 71.5574-32.9869L72.1467-32.8471L72.1467-13.2426Q67.5519-13.7967 64.7412-16.1834Q61.9305-18.57 61.1945-22.0984Q60.7593-23.5108 59.9265-24.2214Q59.0936-24.932 57.8035-24.932Q56.4209-24.932 55.5224-24.0187Q54.624-23.1054 54.624-21.6335Q54.624-21.1598 54.6895-20.7219Q54.7551-20.284 54.8862-19.7805Q56.185-14.3626 60.9359-10.9718Q65.6867-7.58096 72.1467-6.97613L72.1467-2.27659Q72.1467 0.396115 74.8194 0.396115ZM72.1467-39.6291L71.7237-39.7602Q67.1113-41.0557 64.8767-43.0734Q62.6421-45.091 62.6421-48.17Q62.6421-51.3977 65.2474-53.7204Q67.8526-56.0432 72.1467-56.7284ZM77.4712-31.4854L78.8383-31.1637Q83.8826-29.8682 85.9756-27.7404Q88.0686-25.6126 88.0686-22.343Q88.0686-18.722 85.3339-16.2192Q82.5992-13.7163 77.4712-13.2426Z"/>
  </g>
  <g id="Light-L" transform="matrix(1 0 0 1 1079.2 1556)">
   <path d="M73.8959 27.3674Q86.8436 27.3674 98.1577 22.502Q109.472 17.6366 118.137 8.95629Q126.802 0.275949 131.708-11.0381Q136.614-22.3522 136.614-35.2697Q136.614-48.1872 131.708-59.5013Q126.802-70.8154 118.122-79.4957Q109.442-88.176 98.1275-93.0414Q86.8134-97.9069 73.8658-97.9069Q60.9986-97.9069 49.6594-93.0414Q38.3201-88.176 29.6951-79.4957Q21.07-70.8154 16.1644-59.5013Q11.2588-48.1872 11.2588-35.2697Q11.2588-22.3522 16.1644-11.0381Q21.07 0.275949 29.7102 8.95629Q38.3503 17.6366 49.6895 22.502Q61.0287 27.3674 73.8959 27.3674ZM73.8959 20.4712Q62.3557 20.4712 52.2479 16.1587Q42.1402 11.8462 34.4903 4.18122Q26.8403-3.48379 22.5027-13.6066Q18.1651-23.7295 18.1651-35.2697Q18.1651-46.8099 22.4876-56.9328Q26.8102-67.0556 34.4601-74.7206Q42.11-82.3856 52.2178-86.6981Q62.3255-91.0106 73.8658-91.0106Q85.4362-91.0106 95.5691-86.6981Q105.702-82.3856 113.342-74.7206Q120.982-67.0556 125.334-56.9328Q129.687-46.8099 129.687-35.2697Q129.687-23.7295 125.375-13.6066Q121.062-3.48379 113.412 4.18122Q105.762 11.8462 95.6394 16.1587Q85.5166 20.4712 73.8959 20.4712ZM73.8959-0.0758902Q76.1578-0.0758902 76.1578-2.31764L76.1578-7.18302Q83.7474-7.70575 88.6379-11.8625Q93.5285-16.0192 93.5285-22.5634Q93.5285-28.4542 89.608-32.0982Q85.6875-35.7422 77.7058-37.3104L76.1578-37.6421L76.1578-57.3851Q80.5406-56.8423 83.496-54.5051Q86.4514-52.1679 87.1652-48.5088Q87.8487-46.0861 89.9498-46.0861Q91.0958-46.0861 91.8196-46.8501Q92.5434-47.6142 92.5434-48.8607Q92.5434-49.2427 92.4881-49.6498Q92.4328-50.0569 92.3222-50.5194Q91.2365-55.4451 86.8134-58.7423Q82.3903-62.0395 76.1578-62.512L76.1578-66.9351Q76.1578-69.1467 73.8959-69.1467Q71.6542-69.1467 71.6542-66.9351L71.6542-62.512Q64.6878-61.9591 60.0687-57.923Q55.4496-53.8869 55.4496-47.8454Q55.4496-42.3567 59.2997-38.8282Q63.1498-35.2998 70.8802-33.5205L71.6542-33.3396L71.6542-12.3602Q66.6079-12.8527 63.3559-15.5267Q60.104-18.2006 59.4707-22.2216Q59.1792-23.3877 58.5207-24.0059Q57.8622-24.6241 56.7364-24.6241Q55.6205-24.6241 54.9068-23.8853Q54.193-23.1464 54.193-21.8798Q54.193-21.4676 54.2483-21.0605Q54.3036-20.6533 54.4142-20.1909Q55.6104-14.7525 60.31-11.2694Q65.0095-7.78617 71.6542-7.26344L71.6542-2.31764Q71.6542-0.0758902 73.8959-0.0758902ZM71.6542-38.8083L71.2722-38.9188Q66.0852-40.2759 63.5017-42.4372Q60.9183-44.5985 60.9183-48.0263Q60.9183-51.7055 63.934-54.2437Q66.9497-56.782 71.6542-57.3851ZM76.1578-32.2036L77.5249-31.8819Q83.1643-30.5249 85.6472-28.2329Q88.1302-25.941 88.1302-22.302Q88.1302-18.2911 84.9235-15.5317Q81.7168-12.7723 76.1578-12.3602Z"/>
  </g>
  <g id="Thin-L" transform="matrix(1 0 0 1 783.716 1556)">
   <path d="M72.6746 26.1461Q85.405 26.1461 96.4884 21.3892Q107.572 16.6324 116.074 8.12846Q124.577-0.375458 129.374-11.4588Q134.171-22.5422 134.171-35.2697Q134.171-47.9972 129.374-59.0806Q124.577-70.1639 116.073-78.6679Q107.569-87.1718 96.4854-91.9286Q85.402-96.6855 72.6715-96.6855Q60.0215-96.6855 48.8994-91.9286Q37.7773-87.1718 29.3151-78.6679Q20.8529-70.1639 16.0558-59.0806Q11.2588-47.9972 11.2588-35.2697Q11.2588-22.5422 16.0558-11.4588Q20.8529-0.375458 29.3166 8.12846Q37.7803 16.6324 48.9024 21.3892Q60.0245 26.1461 72.6746 26.1461ZM72.6746 22.1269Q60.8086 22.1269 50.3887 17.6787Q39.9688 13.2305 32.0746 5.33475Q24.1804-2.56097 19.6935-12.9824Q15.2066-23.4038 15.2066-35.2697Q15.2066-47.1356 19.692-57.557Q24.1774-67.9784 32.0716-75.8742Q39.9658-83.7699 50.3857-88.2181Q60.8056-92.6663 72.6715-92.6663Q84.5405-92.6663 94.9991-88.2181Q105.458-83.7699 113.315-75.8742Q121.172-67.9784 125.66-57.557Q130.149-47.1356 130.149-35.2697Q130.149-23.4038 125.7-12.9824Q121.252-2.56097 113.358 5.33475Q105.464 13.2305 95.0423 17.6787Q84.6209 22.1269 72.6746 22.1269ZM72.6746-0.700155Q74.4207-0.700155 74.4207-2.37192L74.4207-7.56301Q82.2003-7.97717 86.9959-12.1203Q91.7914-16.2634 91.7914-22.3462Q91.7914-27.857 88.0338-31.2975Q84.2761-34.738 76.4573-36.4147L74.4207-36.8822L74.4207-58.2537Q79.5635-57.7651 83.0075-55.1429Q86.4514-52.5208 87.0294-48.536Q87.3873-46.629 88.9726-46.629Q89.7387-46.629 90.2453-47.1759Q90.752-47.7227 90.752-48.6435Q90.752-48.9713 90.7103-49.3377Q90.6685-49.7041 90.5851-50.1122Q89.608-54.8751 85.1849-58.1723Q80.7618-61.4695 74.4207-61.8063L74.4207-66.2294Q74.4207-67.8982 72.6746-67.8982Q71.0028-67.8982 71.0028-66.2294L71.0028-61.8063Q64.2264-61.3891 59.5666-57.4752Q54.9067-53.5612 54.9067-47.8182Q54.9067-42.7095 58.6211-39.3168Q62.3355-35.9241 69.9845-34.2262L71.0028-33.991L71.0028-11.1931Q65.3594-11.6042 61.5239-14.6581Q57.6884-17.7121 57.1908-22.3844Q57.0892-23.2248 56.6615-23.7209Q56.2337-24.217 55.325-24.217Q54.562-24.217 54.0925-23.7088Q53.623-23.2007 53.623-22.2055Q53.623-21.8747 53.6648-21.5083Q53.7065-21.1419 53.7899-20.7338Q54.8505-15.2682 59.4821-11.6629Q64.1138-8.05759 71.0028-7.64343L71.0028-2.37192Q71.0028-0.700155 72.6746-0.700155ZM71.0028-37.7226L70.6751-37.806Q64.7281-39.2445 61.6832-41.5958Q58.6383-43.9471 58.6383-47.8363Q58.6383-52.1126 62.1969-54.9358Q65.7554-57.7591 71.0028-58.2537ZM74.4207-33.1536L75.7878-32.8319Q82.2143-31.3934 85.213-28.8843Q88.2116-26.3752 88.2116-22.2477Q88.2116-17.7211 84.3806-14.6224Q80.5497-11.5238 74.4207-11.1931Z"/>
  </g>
  <g id="Ultralight-L" transform="matrix(1 0 0 1 487.631 1556)">
   <path d="M72.049 25.5205Q84.6682 25.5205 95.6335 20.8192Q106.599 16.118 115.018 7.70445Q123.437-0.709105 128.178-11.6743Q132.92-22.6395 132.92-35.2697Q132.92-47.8999 128.178-58.8651Q123.437-69.8303 115.023-78.2439Q106.61-86.6574 95.6443-91.3586Q84.6791-96.0599 72.0598-96.0599Q59.521-96.0599 48.5101-91.3586Q37.4993-86.6574 29.1205-78.2439Q20.7417-69.8303 16.0002-58.8651Q11.2588-47.8999 11.2588-35.2697Q11.2588-22.6395 16.0002-11.6743Q20.7417-0.709105 29.115 7.70445Q37.4884 16.118 48.4992 20.8192Q59.5101 25.5205 72.049 25.5205ZM72.049 22.9749Q60.0162 22.9749 49.4364 18.4572Q38.8567 13.9395 30.8374 5.92558Q22.818-2.0883 18.2546-12.6626Q13.6913-23.2369 13.6913-35.2697Q13.6913-47.3025 18.2601-57.8768Q22.8289-68.4511 30.8482-76.465Q38.8676-84.4789 49.4473-88.9966Q60.0271-93.5143 72.0598-93.5143Q84.0817-93.5143 94.7071-88.9966Q105.333-84.4789 113.301-76.465Q121.269-68.4511 125.827-57.8768Q130.385-47.3025 130.385-35.2697Q130.385-23.2369 125.867-12.6626Q121.349-2.0883 113.33 5.92558Q105.311 13.9395 94.7365 18.4572Q84.1621 22.9749 72.049 22.9749ZM72.049-1.0199Q73.531-1.0199 73.531-2.39972L73.531-7.75763Q81.4079-8.11619 86.1548-12.2524Q90.9017-16.3886 90.9017-22.235Q90.9017-27.5512 87.2275-30.8874Q83.5532-34.2236 75.8178-35.956L73.531-36.4929L73.531-58.6985Q79.063-58.2378 82.7572-55.4696Q86.4514-52.7015 86.9599-48.5499Q87.151-46.907 88.4722-46.907Q89.0436-46.907 89.439-47.3427Q89.8345-47.7783 89.8345-48.5323Q89.8345-48.8322 89.7997-49.1778Q89.7649-49.5234 89.6954-49.9037Q88.7739-54.5832 84.3508-57.8804Q79.9277-61.1776 73.531-61.4449L73.531-65.868Q73.531-67.2587 72.049-67.2587Q70.6691-67.2587 70.6691-65.868L70.6691-61.4449Q63.9901-61.0972 59.3094-57.2458Q54.6287-53.3944 54.6287-47.8043Q54.6287-42.8903 58.2736-39.567Q61.9185-36.2438 69.5257-34.5877L70.6691-34.3246L70.6691-10.5953Q64.7199-10.9647 60.5855-14.2133Q56.4511-17.4618 56.023-22.4678Q56.0188-23.1414 55.7092-23.5749Q55.3996-24.0085 54.6021-24.0085Q54.0198-24.0085 53.6754-23.6185Q53.3311-23.2285 53.3311-22.3723Q53.3311-22.0833 53.3659-21.7377Q53.4006-21.3921 53.4702-21.0118Q54.4612-15.5324 59.0581-11.8645Q63.6551-8.19661 70.6691-7.83805L70.6691-2.39972Q70.6691-1.0199 72.049-1.0199ZM70.6691-37.1665L70.3692-37.236Q64.033-38.7162 60.7518-41.1648Q57.4706-43.6134 57.4706-47.739Q57.4706-52.3212 61.3071-55.2903Q65.1437-58.2595 70.6691-58.6985ZM73.531-33.6402L74.8981-33.3185Q81.7278-31.8383 84.9905-29.218Q88.2533-26.5977 88.2533-22.2199Q88.2533-17.4292 84.1026-14.1567Q79.9519-10.8843 73.531-10.5953Z"/>
  </g>
  <g id="Black-M" transform="matrix(1 0 0 1 2871.36 1126)">
   <path d="M62.0423 18.1161Q73.0725 18.1161 82.714 13.9613Q92.3555 9.80654 99.704 2.45531Q107.052-4.89592 111.21-14.5374Q115.367-24.1789 115.367-35.2035Q115.367-46.2282 111.21-55.8697Q107.052-65.5112 99.7012-72.8624Q92.35-80.2136 82.7085-84.3684Q73.067-88.5232 62.0368-88.5232Q51.0119-88.5232 41.3705-84.3684Q31.7292-80.2136 24.3833-72.8624Q17.0375-65.5112 12.8801-55.8697Q8.72266-46.2282 8.72266-35.2035Q8.72266-24.1789 12.8801-14.5374Q17.0375-4.89592 24.3861 2.45531Q31.7347 9.80654 41.376 13.9613Q51.0174 18.1161 62.0423 18.1161ZM62.0423 0.734266Q54.6003 0.734266 48.0771-2.06802Q41.554-4.87031 36.637-9.78999Q31.7201-14.7097 28.918-21.2356Q26.1159-27.7615 26.1159-35.2035Q26.1159-42.6456 28.9152-49.1715Q31.7146-55.6974 36.6315-60.6171Q41.5485-65.5368 48.0716-68.3391Q54.5948-71.1414 62.0368-71.1414Q69.4844-71.1414 76.0074-68.3391Q82.5304-65.5368 87.4502-60.6171Q92.3701-55.6974 95.175-49.1715Q97.9799-42.6456 97.9799-35.2035Q97.9799-27.7615 95.1776-21.2356Q92.3753-14.7097 87.4584-9.78999Q82.5414-4.87031 76.0155-2.06802Q69.4896 0.734266 62.0423 0.734266ZM62.0423-9.77545Q63.9123-9.77545 63.9123-11.7654L63.9123-14.4358Q71.002-14.9407 75.1852-18.5232Q79.3684-22.1058 79.3684-27.7859Q79.3684-32.8421 76.2384-35.6741Q73.1083-38.5062 66.6891-39.8496L63.9123-40.4242L63.9123-46.6851Q65.0671-46.4144 65.9081-45.8151Q66.7492-45.2158 67.327-44.2793Q69.4695-41.0857 72.8706-41.0857Q75.3356-41.0857 76.7242-42.3056Q78.1127-43.5255 78.1127-45.5331Q78.1127-46.136 77.9932-46.7386Q77.8736-47.3413 77.6916-47.8922Q76.6364-50.9161 73.1811-53.2993Q69.7258-55.6825 63.9123-56.1306L63.9123-58.9864Q63.9123-60.9708 62.0423-60.9708Q60.1666-60.9708 60.1666-58.9864L60.1666-56.1306Q53.467-55.7915 49.205-52.2882Q44.943-48.7848 44.943-43.1015Q44.943-37.9572 48.1792-34.9988Q51.4153-32.0404 57.465-30.7726L60.1666-30.197L60.1666-23.7668Q58.6049-23.9807 57.6715-24.6465Q56.738-25.3122 56.2224-26.2295Q55.3222-27.8322 54.0503-28.7162Q52.7784-29.6001 50.8499-29.6001Q48.162-29.6001 46.742-28.2088Q45.322-26.8175 45.322-24.5873Q45.322-24.036 45.4415-23.4048Q45.5611-22.7736 45.8573-22.1085Q46.9232-19.5901 50.3196-17.1538Q53.7161-14.7175 60.1666-14.3839L60.1666-11.7654Q60.1666-9.77545 62.0423-9.77545ZM60.1666-41.2847L59.8493-41.3526Q58.2998-41.7152 57.4793-42.4013Q56.6588-43.0873 56.6588-44.1623Q56.6588-45.2929 57.6108-46.0195Q58.5628-46.746 60.1666-46.8564ZM63.9123-29.3991L64.2863-29.3212Q66.0899-28.9585 66.8968-28.3247Q67.7036-27.6909 67.7036-26.5486Q67.7036-25.3288 66.6928-24.6521Q65.682-23.9755 63.9123-23.7668Z"/>
  </g>
  <g id="Heavy-M" transform="matrix(1 0 0 1 2575.48 1126)">
   <path d="M61.2045 17.2648Q72.0509 17.2648 81.541 13.1749Q91.0312 9.08498 98.2688 1.83921Q105.506-5.40657 109.606-14.8967Q113.705-24.3868 113.705-35.217Q113.705-46.0473 109.606-55.5374Q105.506-65.0275 98.2607-72.2733Q91.0149-79.519 81.5248-83.6089Q72.0347-87.6988 61.1882-87.6988Q50.3604-87.6988 40.8691-83.6089Q31.3778-79.519 24.1495-72.2733Q16.9211-65.0275 12.8219-55.5374Q8.72266-46.0473 8.72266-35.217Q8.72266-24.3868 12.8219-14.8967Q16.9211-5.40657 24.1576 1.83921Q31.394 9.08498 40.8853 13.1749Q50.3767 17.2648 61.2045 17.2648ZM61.2045 2.03385Q53.4869 2.03385 46.73-0.86303Q39.9731-3.75991 34.8765-8.86466Q29.7798-13.9694 26.8817-20.7344Q23.9836-27.4994 23.9836-35.217Q23.9836-42.9346 26.8736-49.6996Q29.7636-56.4646 34.8602-61.5694Q39.9568-66.6741 46.7137-69.571Q53.4706-72.4679 61.1882-72.4679Q68.922-72.4679 75.6802-69.571Q82.4383-66.6741 87.5418-61.5694Q92.6453-56.4646 95.5516-49.6996Q98.4578-42.9346 98.4578-35.217Q98.4578-27.4994 95.5609-20.7344Q92.664-13.9694 87.5674-8.86466Q82.4708-3.75991 75.7057-0.86303Q68.9407 2.03385 61.2045 2.03385ZM61.2045-9.20538Q63.1704-9.20538 63.1704-11.2723L63.1704-14.124Q69.9291-14.6313 74.042-18.1316Q78.1549-21.632 78.1549-27.2788Q78.1549-32.31 75.0077-35.1888Q71.8604-38.0676 65.4577-39.3546L63.1704-39.8217L63.1704-47.8241Q64.6717-47.505 65.7374-46.6882Q66.8031-45.8714 67.4076-44.565Q69.2476-41.5584 72.3539-41.5584Q74.5379-41.5584 75.7832-42.6822Q77.0285-43.806 77.0285-45.6459Q77.0285-46.1893 76.9238-46.734Q76.8191-47.2786 76.6533-47.7971Q75.6226-51.047 72.174-53.4707Q68.7254-55.8943 63.1704-56.3556L63.1704-59.3461Q63.1704-61.3968 61.2045-61.3968Q59.2248-61.3968 59.2248-59.3461L59.2248-56.3556Q52.787-55.9629 48.696-52.519Q44.605-49.0752 44.605-43.5569Q44.605-38.5319 47.814-35.594Q51.0229-32.6561 57.0778-31.3426L59.2248-30.8828L59.2248-22.5706Q57.2522-22.8436 56.0845-23.75Q54.9168-24.6564 54.3745-25.936Q53.5879-27.4519 52.4404-28.2696Q51.2929-29.0873 49.5616-29.0873Q47.2193-29.0873 45.9453-27.8338Q44.6713-26.5804 44.6713-24.5798Q44.6713-24.0638 44.776-23.4973Q44.8807-22.9309 45.1338-22.3251Q46.1994-19.4133 49.6698-16.9444Q53.1403-14.4755 59.2248-14.099L59.2248-11.2723Q59.2248-9.20538 61.2045-9.20538ZM59.2248-40.7705L58.8995-40.8491Q56.9496-41.3548 55.9611-42.2285Q54.9726-43.1022 54.9726-44.4395Q54.9726-45.8327 56.121-46.7835Q57.2695-47.7343 59.2248-47.955ZM63.1704-29.9939L63.7061-29.8756Q65.9263-29.3699 66.873-28.5187Q67.8197-27.6675 67.8197-26.2467Q67.8197-24.7051 66.6109-23.765Q65.4021-22.8249 63.1704-22.5706Z"/>
  </g>
  <g id="Bold-M" transform="matrix(1 0 0 1 2279.69 1126)">
   <path d="M60.2672 16.3124Q70.9082 16.3124 80.2289 12.2951Q89.5497 8.27781 96.6634 1.15Q103.777-5.9778 107.811-15.2986Q111.845-24.6193 111.845-35.2321Q111.845-45.8449 107.811-55.1656Q103.777-64.4864 96.6493-71.6142Q89.5215-78.742 80.2007-82.7593Q70.8799-86.7766 60.2389-86.7766Q49.6317-86.7766 40.3082-82.7593Q30.9846-78.742 23.8878-71.6142Q16.791-64.4864 12.7568-55.1656Q8.72266-45.8449 8.72266-35.2321Q8.72266-24.6193 12.7568-15.2986Q16.791-5.9778 23.902 1.15Q31.0129 8.27781 40.3364 12.2951Q49.6599 16.3124 60.2672 16.3124ZM60.2672 3.48763Q52.2414 3.48763 45.223 0.484927Q38.2046-2.51777 32.907-7.82954Q27.6093-13.1413 24.6039-20.1738Q21.5984-27.2063 21.5984-35.2321Q21.5984-43.2579 24.5897-50.2904Q27.5811-57.3229 32.8787-62.6347Q38.1764-67.9464 45.1948-70.9491Q52.2131-73.9518 60.2389-73.9518Q68.293-73.9518 75.3141-70.9491Q82.3352-67.9464 87.6443-62.6347Q92.9533-57.3229 95.9728-50.2904Q98.9924-43.2579 98.9924-35.2321Q98.9924-27.2063 95.9897-20.1738Q92.987-13.1413 87.6894-7.82954Q82.3917-2.51777 75.3592 0.484927Q68.3267 3.48763 60.2672 3.48763ZM60.2672-8.56766Q62.3404-8.56766 62.3404-10.7207L62.3404-13.7751Q68.7288-14.2852 72.7631-17.6936Q76.7974-21.102 76.7974-26.7116Q76.7974-31.7147 73.6309-34.6458Q70.4644-37.5769 64.0802-38.8009L62.3404-39.1478L62.3404-49.0982Q64.2293-48.725 65.5463-47.6649Q66.8633-46.6047 67.4978-44.8846Q68.9993-42.0872 71.7759-42.0872Q73.6455-42.0872 74.7305-43.1035Q75.8156-44.1198 75.8156-45.772Q75.8156-46.249 75.7275-46.7287Q75.6394-47.2085 75.4917-47.6907Q74.4884-51.1935 71.0474-53.6623Q67.6063-56.1312 62.3404-56.6072L62.3404-59.7485Q62.3404-61.8733 60.2672-61.8733Q58.1712-61.8733 58.1712-59.7485L58.1712-56.6072Q52.0262-56.1545 48.1266-52.7773Q44.227-49.4001 44.227-44.0663Q44.227-39.1749 47.4055-36.2599Q50.584-33.3449 56.6447-31.9803L58.1712-31.65L58.1712-21.2325Q55.7391-21.5716 54.3093-22.7472Q52.8795-23.9227 52.3074-25.6078Q51.6477-27.0264 50.6394-27.77Q49.6311-28.5135 48.1204-28.5135Q46.1648-28.5135 45.0542-27.4144Q43.9435-26.3152 43.9435-24.5715Q43.9435-24.0949 44.0316-23.6008Q44.1197-23.1068 44.3244-22.5675Q45.3898-19.2155 48.943-16.7101Q52.4961-14.2048 58.1712-13.7803L58.1712-10.7207Q58.1712-8.56766 60.2672-8.56766ZM58.1712-40.1953L57.8369-40.2858Q55.4392-40.9515 54.2627-42.0351Q53.0863-43.1188 53.0863-44.7496Q53.0863-46.4366 54.4546-47.6382Q55.8228-48.8398 58.1712-49.1839ZM62.3404-30.6593L63.057-30.4957Q65.7433-29.8301 66.8464-28.7357Q67.9495-27.6413 67.9495-25.9089Q67.9495-24.0074 66.5192-22.7726Q65.089-21.5379 62.3404-21.2325Z"/>
  </g>
  <g id="Semibold-M" transform="matrix(1 0 0 1 1983.62 1126)">
   <path d="M59.621 15.6559Q70.1203 15.6559 79.3244 11.6886Q88.5284 7.72135 95.5566 0.674869Q102.585-6.37161 106.574-15.5756Q110.564-24.7797 110.564-35.2425Q110.564-45.7053 106.574-54.9093Q102.585-64.1134 95.5384-71.1598Q88.4919-78.2063 79.2879-82.1736Q70.0838-86.1408 59.5845-86.1408Q49.1293-86.1408 39.9215-82.1736Q30.7136-78.2063 23.7075-71.1598Q16.7013-64.1134 12.712-54.9093Q8.72266-45.7053 8.72266-35.2425Q8.72266-24.7797 12.712-15.5756Q16.7013-6.37161 23.7257 0.674869Q30.7501 7.72135 39.958 11.6886Q49.1658 15.6559 59.621 15.6559ZM59.621 4.48985Q51.3827 4.48985 44.1841 1.4142Q36.9855-1.66145 31.5492-7.11594Q26.113-12.5704 23.0335-19.7873Q19.954-27.0042 19.954-35.2425Q19.954-43.4808 23.0153-50.6977Q26.0765-57.9145 31.5127-63.369Q36.9489-68.8235 44.1476-71.8992Q51.3462-74.9748 59.5845-74.9748Q67.8593-74.9748 75.0618-71.8992Q82.2642-68.8235 87.7149-63.369Q93.1655-57.9145 96.2633-50.6977Q99.361-43.4808 99.361-35.2425Q99.361-27.0042 96.2853-19.7873Q93.2097-12.5704 87.7735-7.11594Q82.3372-1.66145 75.1203 1.4142Q67.9035 4.48985 59.621 4.48985ZM59.621-8.12802Q61.7683-8.12802 61.7683-10.3405L61.7683-13.5346Q67.9013-14.0466 71.8814-17.3916Q75.8616-20.7366 75.8616-26.3205Q75.8616-31.3044 72.6818-34.2715Q69.5021-37.2387 63.1305-38.4192L61.7683-38.6831L61.7683-49.9766Q63.9244-49.5661 65.4146-48.3382Q66.9049-47.1103 67.5599-45.105Q68.8282-42.4518 71.3774-42.4518Q73.0303-42.4518 74.0048-43.3939Q74.9794-44.3361 74.9794-45.859Q74.9794-46.2901 74.9028-46.7251Q74.8261-47.1601 74.691-47.6173Q73.7065-51.2944 70.2707-53.7945Q66.8348-56.2945 61.7683-56.7807L61.7683-60.0259Q61.7683-62.2019 59.621-62.2019Q57.4449-62.2019 57.4449-60.0259L57.4449-56.7807Q51.5018-56.2866 47.7341-52.9553Q43.9664-49.624 43.9664-44.4175Q43.9664-39.6181 47.1239-36.7189Q50.2814-33.8197 56.3461-32.4199L57.4449-32.1789L57.4449-20.31Q54.6959-20.6947 53.0854-22.0558Q51.475-23.4169 50.8823-25.3815Q50.3102-26.7332 49.3979-27.4256Q48.4856-28.118 47.1269-28.118Q45.4379-28.118 44.4398-27.1252Q43.4418-26.1324 43.4418-24.5658Q43.4418-24.1163 43.5184-23.6722Q43.595-23.2281 43.7665-22.7346Q44.8316-19.0791 48.4418-16.5486Q52.0521-14.0182 57.4449-13.5606L57.4449-10.3405Q57.4449-8.12802 59.621-8.12802ZM57.4449-39.7987L57.1045-39.8976Q54.398-40.6735 53.0919-41.9019Q51.7859-43.1302 51.7859-44.9634Q51.7859-46.8529 53.3057-48.2274Q54.8255-49.602 57.4449-50.0311ZM61.7683-31.118L62.6096-30.9232Q65.6171-30.1473 66.8281-28.8853Q68.039-27.6233 68.039-25.6761Q68.039-23.5264 66.4561-22.0885Q64.8731-20.6506 61.7683-20.31Z"/>
  </g>
  <g id="Medium-M" transform="matrix(1 0 0 1 1687.4 1126)">
   <path d="M59.1311 15.158Q69.523 15.158 78.6385 11.2287Q87.754 7.29942 94.7174 0.314603Q101.681-6.67021 105.636-15.7857Q109.591-24.9012 109.591-35.2504Q109.591-45.5995 105.636-54.715Q101.681-63.8305 94.696-70.8153Q87.7112-77.8002 78.5957-81.7295Q69.4802-85.6588 59.0883-85.6588Q48.7484-85.6588 39.6283-81.7295Q30.5081-77.8002 23.5707-70.8153Q16.6333-63.8305 12.678-54.715Q8.72266-45.5995 8.72266-35.2504Q8.72266-24.9012 12.678-15.7857Q16.6333-6.67021 23.5921 0.314603Q30.5509 7.29942 39.671 11.2287Q48.7912 15.158 59.1311 15.158ZM59.1311 5.24978Q50.7316 5.24978 43.3963 2.11881Q36.061-1.01215 30.5197-6.57486Q24.9784-12.1376 21.8428-19.4943Q18.7072-26.8509 18.7072-35.2504Q18.7072-43.6498 21.8214-51.0065Q24.9356-58.3632 30.4769-63.9259Q36.0183-69.4886 43.3536-72.6195Q50.6889-75.7505 59.0883-75.7505Q67.5305-75.7505 74.8704-72.6195Q82.2103-69.4886 87.7684-63.9259Q93.3265-58.3632 96.4835-51.0065Q99.6405-43.6498 99.6405-35.2504Q99.6405-26.8509 96.5095-19.4943Q93.3785-12.1376 87.8372-6.57486Q82.2959-1.01215 74.9392 2.11881Q67.5825 5.24978 59.1311 5.24978ZM59.1311-7.79467Q61.3345-7.79467 61.3345-10.0522L61.3345-13.3523Q67.2739-13.8657 71.2129-17.1626Q75.152-20.4595 75.152-26.024Q75.152-30.9933 71.9622-33.9877Q68.7724-36.9822 62.4105-38.1298L61.3345-38.3308L61.3345-50.6427Q63.6932-50.2038 65.3148-48.8487Q66.9364-47.4937 67.607-45.272Q68.6985-42.7282 71.0753-42.7282Q72.5638-42.7282 73.4546-43.6141Q74.3454-44.5001 74.3454-45.9249Q74.3454-46.3213 74.2774-46.7224Q74.2095-47.1235 74.0838-47.5617Q73.1137-51.371 69.6818-53.8946Q66.2499-56.4183 61.3345-56.9122L61.3345-60.2362Q61.3345-62.451 59.1311-62.451Q56.8941-62.451 56.8941-60.2362L56.8941-56.9122Q51.1041-56.3868 47.4364-53.0903Q43.7687-49.7938 43.7687-44.6838Q43.7687-39.9542 46.9103-37.0669Q50.0519-34.1797 56.1197-32.7533L56.8941-32.58L56.8941-19.6105Q53.9049-20.0298 52.1575-21.5316Q50.41-23.0334 49.8017-25.2099Q49.2961-26.5108 48.4565-27.1645Q47.6169-27.8181 46.3735-27.8181Q44.8867-27.8181 43.974-26.906Q43.0613-25.9938 43.0613-24.5614Q43.0613-24.1325 43.1293-23.7263Q43.1972-23.3201 43.3434-22.8613Q44.4084-18.9757 48.0619-16.4262Q51.7154-13.8766 56.8941-13.394L56.8941-10.0522Q56.8941-7.79467 59.1311-7.79467ZM56.8941-39.4981L56.5491-39.6031Q53.6084-40.4627 52.2042-41.8008Q50.7999-43.1389 50.7999-45.1255Q50.7999-47.1685 52.4346-48.6742Q54.0692-50.1799 56.8941-50.6735ZM61.3345-31.4658L62.2703-31.2474Q65.5214-30.3879 66.8141-28.9987Q68.1069-27.6096 68.1069-25.4995Q68.1069-23.1617 66.4081-21.5698Q64.7094-19.9778 61.3345-19.6105Z"/>
  </g>
  <g id="Regular-M" transform="matrix(1 0 0 1 1391.32 1126)">
   <path d="M58.492 14.5087Q68.7438 14.5087 77.7439 10.6289Q86.7439 6.74907 93.6228-0.155309Q100.502-7.05969 104.413-16.0597Q108.324-25.0598 108.324-35.2606Q108.324-45.4615 104.413-54.4616Q100.502-63.4616 93.5973-70.366Q86.693-77.2704 77.6929-81.1502Q68.6929-85.03 58.441-85.03Q48.2515-85.03 39.2458-81.1502Q30.2401-77.2704 23.3923-70.366Q16.5446-63.4616 12.6336-54.4616Q8.72266-45.4615 8.72266-35.2606Q8.72266-25.0598 12.6336-16.0597Q16.5446-7.05969 23.4178-0.155309Q30.291 6.74907 39.2968 10.6289Q48.3025 14.5087 58.492 14.5087ZM58.492 6.24099Q49.8824 6.24099 42.3688 3.03788Q34.8553-0.165238 29.1769-5.86909Q23.4985-11.573 20.2897-19.112Q17.0809-26.6511 17.0809-35.2606Q17.0809-43.8702 20.2642-51.4093Q23.4476-58.9483 29.1259-64.6522Q34.8043-70.3561 42.3179-73.5592Q49.8315-76.7623 58.441-76.7623Q67.1016-76.7623 74.6208-73.5592Q82.1401-70.3561 87.8383-64.6522Q93.5364-58.9483 96.7707-51.4093Q100.005-43.8702 100.005-35.2606Q100.005-26.6511 96.8019-19.112Q93.5988-11.573 87.9204-5.86909Q82.242-0.165238 74.7029 3.03788Q67.1639 6.24099 58.492 6.24099ZM58.492-7.35987Q60.7686-7.35987 60.7686-9.67611L60.7686-13.1144Q66.4555-13.6298 70.341-16.8639Q74.2264-20.0981 74.2264-25.6373Q74.2264-30.5874 71.0235-33.6176Q67.8206-36.6477 61.4713-37.7523L60.7686-37.8713L60.7686-51.5114Q63.3916-51.0356 65.1846-49.5147Q66.9775-47.9937 67.6685-45.49Q68.5292-43.0887 70.6812-43.0887Q71.9554-43.0887 72.7369-43.9014Q73.5184-44.714 73.5184-46.0109Q73.5184-46.362 73.4618-46.7188Q73.4051-47.0757 73.2919-47.4891Q72.3404-51.4708 68.9136-54.0253Q65.4869-56.5798 60.7686-57.0838L60.7686-60.5106Q60.7686-62.7759 58.492-62.7759Q56.1758-62.7759 56.1758-60.5106L56.1758-57.0838Q50.5855-56.5175 47.0482-53.2664Q43.511-50.0153 43.511-45.0311Q43.511-40.3925 46.6318-37.5209Q49.7526-34.6493 55.8244-33.188L56.1758-33.103L56.1758-18.6982Q52.8732-19.1626 50.9471-20.8479Q49.0209-22.5332 48.3923-24.9861Q47.9733-26.2207 47.2286-26.8238Q46.4839-27.427 45.3909-27.427Q44.1677-27.427 43.3664-26.62Q42.5651-25.813 42.5651-24.5558Q42.5651-24.1537 42.6217-23.7969Q42.6783-23.4401 42.7916-23.0266Q43.8564-18.8409 47.5663-16.2665Q51.2762-13.6921 56.1758-13.1767L56.1758-9.67611Q56.1758-7.35987 58.492-7.35987ZM56.1758-39.1059L55.8246-39.2191Q52.5786-40.1877 51.0462-41.669Q49.5138-43.1503 49.5138-45.3369Q49.5138-47.5802 51.2983-49.257Q53.0828-50.9337 56.1758-51.5114ZM60.7686-31.9194L61.8278-31.6702Q65.3967-30.7016 66.796-29.1467Q68.1954-27.5918 68.1954-25.2692Q68.1954-22.6861 66.3457-20.8932Q64.4959-19.1003 60.7686-18.6982Z"/>
  </g>
  <g id="Light-M" transform="matrix(1 0 0 1 1095.44 1126)">
   <path d="M57.664 13.6807Q67.7687 13.6807 76.6123 9.87453Q85.456 6.06831 92.2245-0.716478Q98.993-7.50127 102.83-16.3449Q106.668-25.1886 106.668-35.2606Q106.668-45.3327 102.83-54.1764Q98.993-63.02 92.2082-69.8048Q85.4234-76.5896 76.5798-80.3958Q67.7361-84.202 57.6315-84.202Q47.5892-84.202 38.7306-80.3958Q29.8721-76.5896 23.1348-69.8048Q16.3974-63.02 12.56-54.1764Q8.72266-45.3327 8.72266-35.2606Q8.72266-25.1886 12.56-16.3449Q16.3974-7.50127 23.151-0.716478Q29.9047 6.06831 38.7632 9.87453Q47.6217 13.6807 57.664 13.6807ZM57.664 7.36333Q48.8337 7.36333 41.1085 4.06822Q33.3833 0.773111 27.5394-5.08714Q21.6954-10.9474 18.3854-18.6888Q15.0755-26.4303 15.0755-35.2606Q15.0755-44.091 18.3692-51.8325Q21.6629-59.5739 27.5068-65.4342Q33.3508-71.2944 41.076-74.5895Q48.8011-77.8846 57.6315-77.8846Q66.4944-77.8846 74.2345-74.5895Q81.9745-71.2944 87.8199-65.4342Q93.6652-59.5739 96.9915-51.8325Q100.318-44.091 100.318-35.2606Q100.318-26.4303 97.0227-18.6888Q93.7275-10.9474 87.8836-5.08714Q82.0396 0.773111 74.2982 4.06822Q66.5567 7.36333 57.664 7.36333ZM57.664-7.78304Q59.5911-7.78304 59.5911-9.71291L59.5911-13.372Q65.4067-13.8138 69.2278-17.0387Q73.0489-20.2637 73.0489-25.4901Q73.0489-30.1826 69.9564-33.0748Q66.8638-35.9669 60.6249-37.1451L59.5911-37.3561L59.5911-52.1002Q62.7292-51.6612 64.8534-49.947Q66.9775-48.2329 67.5765-45.5084Q68.2164-43.4567 70.0189-43.4567Q71.0354-43.4567 71.6698-44.1222Q72.3041-44.7876 72.3041-45.8637Q72.3041-46.178 72.2566-46.5073Q72.2092-46.8365 72.1143-47.2131Q71.2364-51.0845 67.8097-53.6389Q64.3829-56.1934 59.5911-56.6055L59.5911-60.0322Q59.5911-61.9295 57.664-61.9295Q55.7342-61.9295 55.7342-60.0322L55.7342-56.6055Q50.2727-56.1311 46.7078-52.9628Q43.143-49.7945 43.143-45.0127Q43.143-40.6317 46.1718-37.8521Q49.2006-35.0725 55.2173-33.6664L55.7342-33.5446L55.7342-17.907Q52.0269-18.3162 49.7052-20.2591Q47.3834-22.202 46.8468-25.0965Q46.5566-26.1103 45.9683-26.6307Q45.38-27.151 44.4342-27.151Q43.4501-27.151 42.8144-26.5004Q42.1787-25.8498 42.1787-24.7766Q42.1787-24.4297 42.2261-24.1004Q42.2736-23.7712 42.3684-23.3946Q43.3412-19.1904 47.0051-16.5332Q50.669-13.8761 55.7342-13.4343L55.7342-9.71291Q55.7342-7.78304 57.664-7.78304ZM55.7342-38.3699L55.4198-38.4648Q51.6587-39.4886 49.8135-41.0986Q47.9683-42.7087 47.9683-45.2081Q47.9683-47.8562 50.1208-49.7262Q52.2733-51.5961 55.7342-52.1002ZM59.5911-32.5634L60.6503-32.3142Q64.7527-31.2904 66.5016-29.5883Q68.2506-27.8862 68.2506-25.2324Q68.2506-22.2997 65.9777-20.2768Q63.7048-18.2539 59.5911-17.907Z"/>
  </g>
  <g id="Thin-M" transform="matrix(1 0 0 1 799.828 1126)">
   <path d="M56.569 12.5857Q66.479 12.5857 75.1158 8.87683Q83.7526 5.16794 90.3751-1.45867Q96.9976-8.08529 100.738-16.7221Q104.478-25.3589 104.478-35.2606Q104.478-45.1624 100.738-53.7992Q96.9976-62.436 90.371-69.0626Q83.7444-75.6892 75.1076-79.3981Q66.4707-83.107 56.5608-83.107Q46.7131-83.107 38.0493-79.3981Q29.3854-75.6892 22.7941-69.0626Q16.2027-62.436 12.4627-53.7992Q8.72266-45.1624 8.72266-35.2606Q8.72266-25.3589 12.4627-16.7221Q16.2027-8.08529 22.7982-1.45867Q29.3936 5.16794 38.0575 8.87683Q46.7214 12.5857 56.569 12.5857ZM56.569 8.84771Q47.4466 8.84771 39.4416 5.43093Q31.4366 2.01415 25.3736-4.05293Q19.3107-10.12 15.8668-18.1291Q12.423-26.1383 12.423-35.2606Q12.423-44.383 15.8627-52.3921Q19.3024-60.4013 25.3654-66.4684Q31.4284-72.5354 39.4334-75.9522Q47.4384-79.369 56.5608-79.369Q65.6914-79.369 73.7234-75.9522Q81.7555-72.5354 87.7955-66.4684Q93.8356-60.4013 97.2835-52.3921Q100.731-44.383 100.731-35.2606Q100.731-26.1383 97.3147-18.1291Q93.8979-10.12 87.8349-4.05293Q81.7719 2.01415 73.7628 5.43093Q65.7537 8.84771 56.569 8.84771ZM56.569-8.34273Q58.0337-8.34273 58.0337-9.76157L58.0337-13.7127Q64.0197-14.0571 67.7556-17.2699Q71.4915-20.4827 71.4915-25.2954Q71.4915-29.6473 68.545-32.3569Q65.5985-35.0666 59.5056-36.3421L58.0337-36.6748L58.0337-52.8789Q61.8532-52.4886 64.4154-50.5189Q66.9775-48.5492 67.4548-45.5327Q67.8027-43.9434 69.1428-43.9434Q69.8187-43.9434 70.2584-44.4142Q70.698-44.885 70.698-45.669Q70.698-45.9347 70.6627-46.2274Q70.6275-46.5201 70.5569-46.8481Q69.7764-50.5734 66.3496-53.1279Q62.9229-55.6824 58.0337-55.9728L58.0337-59.3995Q58.0337-60.8101 56.569-60.8101Q55.1502-60.8101 55.1502-59.3995L55.1502-55.9728Q49.859-55.6201 46.2577-52.5613Q42.6563-49.5025 42.6563-44.9884Q42.6563-40.948 45.5635-38.2901Q48.4706-35.6322 54.4142-34.2991L55.1502-34.1286L55.1502-16.8607Q50.9075-17.1969 48.0626-19.4804Q45.2177-21.764 44.8027-25.2425Q44.6828-25.9643 44.3014-26.3751Q43.9199-26.786 43.1688-26.786Q42.5011-26.786 42.0844-26.3422Q41.6677-25.8985 41.6677-25.0686Q41.6677-24.7947 41.7029-24.502Q41.7382-24.2093 41.8087-23.8813Q42.6598-19.6528 46.2629-16.8861Q49.866-14.1194 55.1502-13.775L55.1502-9.76157Q55.1502-8.34273 56.569-8.34273ZM55.1502-37.3965L54.8845-37.4671Q50.442-38.5639 48.1831-40.3443Q45.9242-42.1247 45.9242-45.0378Q45.9242-48.2212 48.5634-50.3467Q51.2026-52.4721 55.1502-52.8789ZM58.0337-33.4151L59.0929-33.1659Q63.901-32.0691 66.1123-30.1723Q68.3236-28.2755 68.3236-25.1837Q68.3236-21.7887 65.491-19.4616Q62.6584-17.1346 58.0337-16.8607Z"/>
  </g>
  <g id="Ultralight-M" transform="matrix(1 0 0 1 503.679 1126)">
   <path d="M56.0081 12.0248Q65.8184 12.0248 74.3492 8.36581Q82.8801 4.70678 89.4278-1.83882Q95.9756-8.38442 99.6657-16.9153Q103.356-25.4462 103.356-35.2606Q103.356-45.0751 99.6657-53.606Q95.9756-62.1369 89.43-68.6825Q82.8844-75.2281 74.3535-78.8871Q65.8226-82.5461 56.0124-82.5461Q46.2644-82.5461 37.7003-78.8871Q29.1361-75.2281 22.6196-68.6825Q16.103-62.1369 12.4128-53.606Q8.72266-45.0751 8.72266-35.2606Q8.72266-25.4462 12.4128-16.9153Q16.103-8.38442 22.6175-1.83882Q29.1319 4.70678 37.6961 8.36581Q46.2602 12.0248 56.0081 12.0248ZM56.0081 9.60801Q46.7362 9.60801 38.5878 6.12891Q30.4395 2.64981 24.2644-3.52322Q18.0892-9.69625 14.5768-17.8425Q11.0645-25.9887 11.0645-35.2606Q11.0645-44.5326 14.579-52.6788Q18.0934-60.825 24.2686-66.9981Q30.4437-73.1711 38.5921-76.6502Q46.7404-80.1293 56.0124-80.1293Q65.2801-80.1293 73.4617-76.6502Q81.6433-73.1711 87.7831-66.9981Q93.9228-60.825 97.4331-52.6788Q100.943-44.5326 100.943-35.2606Q100.943-25.9887 97.4642-17.8425Q93.9851-9.69625 87.81-3.52322Q81.6348 2.64981 73.4886 6.12891Q65.3424 9.60801 56.0081 9.60801ZM56.0081-8.6294Q57.236-8.6294 57.236-9.7865L57.236-13.8872Q63.3092-14.1817 67.0015-17.3883Q70.6938-20.5949 70.6938-25.1957Q70.6938-29.3731 67.8221-31.9892Q64.9503-34.6054 58.9322-35.9308L57.236-36.3258L57.236-53.2777Q61.4045-52.9123 64.191-50.8118Q66.9775-48.7112 67.3925-45.5452Q67.5909-44.1927 68.6941-44.1927Q69.1955-44.1927 69.5355-44.5637Q69.8754-44.9348 69.8754-45.5693Q69.8754-45.8101 69.8464-46.0841Q69.8173-46.3581 69.7593-46.6611Q69.0286-50.3117 65.6018-52.8662Q62.175-55.4207 57.236-55.6487L57.236-59.0755Q57.236-60.2368 56.0081-60.2368Q54.851-60.2368 54.851-59.0755L54.851-55.6487Q49.6471-55.3584 46.0271-52.3557Q42.407-49.353 42.407-44.9759Q42.407-41.1101 45.2519-38.5145Q48.0967-35.9189 54.0029-34.6232L54.851-34.4278L54.851-16.3247Q50.3342-16.6235 47.2213-19.0816Q44.1084-21.5396 43.7558-25.3173Q43.7231-25.8895 43.4476-26.2443Q43.1721-26.599 42.5207-26.599Q42.015-26.599 41.7105-26.2612Q41.4059-25.9234 41.4059-25.2181Q41.4059-24.9816 41.435-24.7076Q41.464-24.4336 41.5221-24.1306Q42.3108-19.8896 45.8828-17.0668Q49.4547-14.244 54.851-13.9495L54.851-9.7865Q54.851-8.6294 56.0081-8.6294ZM54.851-36.898L54.6103-36.956Q49.8188-38.0902 47.348-39.9579Q44.8772-41.8255 44.8772-44.9505Q44.8772-48.4082 47.7657-50.6645Q50.6542-52.9208 54.851-53.2777ZM57.236-33.8513L58.2952-33.6021Q63.4648-32.4679 65.9129-30.4714Q68.361-28.4749 68.361-25.1588Q68.361-21.5269 65.2417-19.0441Q62.1225-16.5612 57.236-16.3247Z"/>
  </g>
  <g id="Black-S" transform="matrix(1 0 0 1 2884.57 696)">
   <path d="M48.8281 6.78711Q57.5195 6.78711 65.1123 3.51562Q72.7051 0.244141 78.4912-5.54199Q84.2773-11.3281 87.5488-18.9209Q90.8203-26.5137 90.8203-35.2051Q90.8203-43.8965 87.5488-51.4893Q84.2773-59.082 78.4912-64.8682Q72.7051-70.6543 65.1123-73.9258Q57.5195-77.1973 48.8281-77.1973Q40.1367-77.1973 32.5439-73.9258Q24.9512-70.6543 19.165-64.8682Q13.3789-59.082 10.1074-51.4893Q6.83594-43.8965 6.83594-35.2051Q6.83594-26.5137 10.1074-18.9209Q13.3789-11.3281 19.165-5.54199Q24.9512 0.244141 32.5439 3.51562Q40.1367 6.78711 48.8281 6.78711ZM48.8281-7.37305Q43.0664-7.37305 38.0127-9.5459Q32.959-11.7188 29.1504-15.5273Q25.3418-19.3359 23.1689-24.3896Q20.9961-29.4434 20.9961-35.2051Q20.9961-40.9668 23.1689-46.0205Q25.3418-51.0742 29.1504-54.8828Q32.959-58.6914 38.0127-60.8643Q43.0664-63.0371 48.8281-63.0371Q54.5898-63.0371 59.6436-60.8643Q64.6973-58.6914 68.5059-54.8828Q72.3145-51.0742 74.4873-46.0205Q76.6602-40.9668 76.6602-35.2051Q76.6602-29.4434 74.4873-24.3896Q72.3145-19.3359 68.5059-15.5273Q64.6973-11.7188 59.6436-9.5459Q54.5898-7.37305 48.8281-7.37305ZM48.8281-15.4785Q50.2441-15.4785 50.2441-16.9922L50.2441-19.043Q55.9082-19.4336 59.2041-22.2656Q62.5-25.0977 62.5-29.541Q62.5-33.4961 60.0586-35.6934Q57.6172-37.8906 52.5879-38.9648L50.2441-39.4531L50.2441-43.8965Q51.0742-43.7012 51.6846-43.2861Q52.2949-42.8711 52.7344-42.2363Q54.4922-39.6973 57.2266-39.6973Q59.2285-39.6973 60.3516-40.6738Q61.4746-41.6504 61.4746-43.2617Q61.4746-43.75 61.377-44.2383Q61.2793-44.7266 61.1328-45.166Q60.3027-47.4609 57.5928-49.3164Q54.8828-51.1719 50.2441-51.5137L50.2441-53.7109Q50.2441-55.2246 48.8281-55.2246Q47.4121-55.2246 47.4121-53.7109L47.4121-51.5137Q42.0898-51.2695 38.6963-48.5107Q35.3027-45.752 35.3027-41.2598Q35.3027-37.207 37.8418-34.8877Q40.3809-32.5684 45.1172-31.5918L47.4121-31.1035L47.4121-26.5625Q46.2891-26.709 45.6055-27.1729Q44.9219-27.6367 44.5312-28.2715Q43.7988-29.541 42.7734-30.249Q41.748-30.957 40.1855-30.957Q37.9883-30.957 36.8408-29.834Q35.6934-28.7109 35.6934-26.9043Q35.6934-26.4648 35.791-25.9521Q35.8887-25.4395 36.1328-24.9023Q36.9629-23.0469 39.5996-21.1426Q42.2363-19.2383 47.4121-18.9941L47.4121-16.9922Q47.4121-15.4785 48.8281-15.4785ZM47.4121-40.0879L47.168-40.1367Q46.0449-40.3809 45.4346-40.8691Q44.8242-41.3574 44.8242-42.1387Q44.8242-42.9688 45.5322-43.4814Q46.2402-43.9941 47.4121-44.043ZM50.2441-30.5176L50.4883-30.4688Q51.8066-30.2246 52.417-29.7852Q53.0273-29.3457 53.0273-28.5156Q53.0273-27.6367 52.2705-27.1729Q51.5137-26.709 50.2441-26.5625Z"/>
  </g>
  <g id="Heavy-S" transform="matrix(1 0 0 1 2588.47 696)">
   <path d="M48.2173 6.16479Q56.7704 6.16479 64.2537 2.9394Q71.737-0.285985 77.4425-5.99721Q83.1479-11.7084 86.3791-19.1917Q89.6102-26.675 89.6102-35.2166Q89.6102-43.7582 86.3791-51.2415Q83.1479-58.7248 77.4367-64.436Q71.7255-70.1472 64.2422-73.3726Q56.7589-76.598 48.2058-76.598Q39.6642-76.598 32.1809-73.3726Q24.6976-70.1472 18.9979-64.436Q13.2982-58.7248 10.0671-51.2415Q6.83594-43.7582 6.83594-35.2166Q6.83594-26.675 10.0671-19.1917Q13.2982-11.7084 19.0037-5.99721Q24.7092-0.285985 32.1924 2.9394Q39.6757 6.16479 48.2173 6.16479ZM48.2173-6.40499Q42.2482-6.40499 37.0216-8.64699Q31.795-10.889 27.8539-14.8359Q23.9128-18.7828 21.6708-24.0151Q19.4288-29.2474 19.4288-35.2166Q19.4288-41.1858 21.665-46.4181Q23.9012-51.6504 27.8424-55.5973Q31.7835-59.5442 37.0101-61.7862Q42.2366-64.0282 48.2058-64.0282Q54.1865-64.0282 59.4131-61.7862Q64.6396-59.5442 68.5865-55.5973Q72.5334-51.6504 74.7812-46.4181Q77.0289-41.1858 77.0289-35.2166Q77.0289-29.2474 74.7869-24.0151Q72.5449-18.7828 68.6038-14.8359Q64.6627-10.889 59.4304-8.64699Q54.198-6.40499 48.2173-6.40499ZM48.2173-14.9369Q49.7601-14.9369 49.7601-16.5658L49.7601-18.7433Q55.1245-19.1455 58.3686-21.9084Q61.6126-24.6713 61.6126-29.1261Q61.6126-33.0927 59.1424-35.3476Q56.6722-37.6025 51.6429-38.6191L49.7601-39.0037L49.7601-44.7954Q50.8207-44.554 51.5809-43.9776Q52.341-43.4012 52.815-42.4783Q54.3424-40.0545 56.8693-40.0545Q58.6638-40.0545 59.6831-40.9677Q60.7025-41.8809 60.7025-43.377Q60.7025-43.8191 60.6163-44.2613Q60.5302-44.7035 60.3952-45.1199Q59.5767-47.6223 56.8725-49.5123Q54.1683-51.4024 49.7601-51.7672L49.7601-54.0797Q49.7601-55.6971 48.2173-55.6971Q46.663-55.6971 46.663-54.0797L46.663-51.7672Q41.5482-51.4654 38.3045-48.747Q35.0607-46.0285 35.0607-41.6516Q35.0607-37.668 37.5883-35.3544Q40.1158-33.0409 44.8636-32.0182L46.663-31.6336L46.663-25.6405Q45.2403-25.8446 44.4069-26.4814Q43.5735-27.1181 43.1483-28.0064Q42.4966-29.2299 41.5576-29.8918Q40.6186-30.5537 39.206-30.5537Q37.2738-30.5537 36.23-29.5286Q35.1863-28.5035 35.1863-26.8697Q35.1863-26.4533 35.2724-25.9925Q35.3585-25.5316 35.5681-25.0406Q36.4097-22.851 39.1156-20.9294Q41.8214-19.0078 46.663-18.7176L46.663-16.5658Q46.663-14.9369 48.2173-14.9369ZM46.663-39.7422L46.4074-39.8025Q45.0077-40.1619 44.2936-40.7942Q43.5796-41.4266 43.5796-42.3922Q43.5796-43.3952 44.4086-44.075Q45.2376-44.7548 46.663-44.9073ZM49.7601-30.944L50.1425-30.8606Q51.749-30.5012 52.4343-29.8946Q53.1195-29.2881 53.1195-28.2621Q53.1195-27.1527 52.2475-26.4929Q51.3754-25.8331 49.7601-25.6405Z"/>
  </g>
  <g id="Bold-S" transform="matrix(1 0 0 1 2292.43 696)">
   <path d="M47.5342 5.46875Q55.9326 5.46875 63.2935 2.29492Q70.6543-0.878906 76.2695-6.50635Q81.8848-12.1338 85.0708-19.4946Q88.2568-26.8555 88.2568-35.2295Q88.2568-43.6035 85.0708-50.9644Q81.8848-58.3252 76.2573-63.9526Q70.6299-69.5801 63.269-72.7539Q55.9082-75.9277 47.5098-75.9277Q39.1357-75.9277 31.7749-72.7539Q24.4141-69.5801 18.811-63.9526Q13.208-58.3252 10.022-50.9644Q6.83594-43.6035 6.83594-35.2295Q6.83594-26.8555 10.022-19.4946Q13.208-12.1338 18.8232-6.50635Q24.4385-0.878906 31.7993 2.29492Q39.1602 5.46875 47.5342 5.46875ZM47.5342-5.32227Q41.333-5.32227 35.9131-7.6416Q30.4932-9.96094 26.4038-14.0625Q22.3145-18.1641 19.9951-23.5962Q17.6758-29.0283 17.6758-35.2295Q17.6758-41.4307 19.9829-46.8628Q22.29-52.2949 26.3794-56.3965Q30.4688-60.498 35.8887-62.8174Q41.3086-65.1367 47.5098-65.1367Q53.7354-65.1367 59.1553-62.8174Q64.5752-60.498 68.6768-56.3965Q72.7783-52.2949 75.1099-46.8628Q77.4414-41.4307 77.4414-35.2295Q77.4414-29.0283 75.1221-23.5962Q72.8027-18.1641 68.7134-14.0625Q64.624-9.96094 59.1919-7.6416Q53.7598-5.32227 47.5342-5.32227ZM47.5342-14.3311Q49.2188-14.3311 49.2188-16.0889L49.2188-18.4082Q54.248-18.8232 57.4341-21.5088Q60.6201-24.1943 60.6201-28.6621Q60.6201-32.6416 58.1177-34.9609Q55.6152-37.2803 50.5859-38.2324L49.2188-38.501L49.2188-45.8008Q50.5371-45.5078 51.4648-44.751Q52.3926-43.9941 52.9053-42.749Q54.1748-40.4541 56.4697-40.4541Q58.0322-40.4541 58.9355-41.2964Q59.8389-42.1387 59.8389-43.5059Q59.8389-43.8965 59.7656-44.2871Q59.6924-44.6777 59.5703-45.0684Q58.7646-47.8027 56.0669-49.7314Q53.3691-51.6602 49.2188-52.0508L49.2188-54.4922Q49.2188-56.2256 47.5342-56.2256Q45.8252-56.2256 45.8252-54.4922L45.8252-52.0508Q40.9424-51.6846 37.8662-49.0112Q34.79-46.3379 34.79-42.0898Q34.79-38.1836 37.3047-35.8765Q39.8193-33.5693 44.5801-32.4951L45.8252-32.2266L45.8252-24.6094Q44.0674-24.8779 43.0664-25.708Q42.0654-26.5381 41.6016-27.71Q41.04-28.8818 40.1978-29.4922Q39.3555-30.1025 38.1104-30.1025Q36.4746-30.1025 35.5469-29.187Q34.6191-28.2715 34.6191-26.8311Q34.6191-26.4404 34.6924-26.0376Q34.7656-25.6348 34.9365-25.1953Q35.791-22.6318 38.5742-20.6909Q41.3574-18.75 45.8252-18.4082L45.8252-16.0889Q45.8252-14.3311 47.5342-14.3311ZM45.8252-39.3555L45.5566-39.4287Q43.8477-39.917 43.0176-40.7104Q42.1875-41.5039 42.1875-42.6758Q42.1875-43.8721 43.1519-44.7388Q44.1162-45.6055 45.8252-45.874ZM49.2188-31.4209L49.7559-31.2988Q51.6846-30.8105 52.4536-30.0171Q53.2227-29.2236 53.2227-27.9785Q53.2227-26.6113 52.2217-25.7324Q51.2207-24.8535 49.2188-24.6094Z"/>
  </g>
  <g id="Semibold-S" transform="matrix(1 0 0 1 1996.19 696)">
   <path d="M47.0632 4.98887Q55.355 4.98887 62.6314 1.85059Q69.9078-1.2877 75.4608-6.85737Q81.0139-12.4271 84.1688-19.7035Q87.3237-26.9799 87.3237-35.2384Q87.3237-43.4969 84.1688-50.7733Q81.0139-58.0497 75.4442-63.6194Q69.8745-69.1891 62.5981-72.3273Q55.3217-75.4656 47.0299-75.4656Q38.7714-75.4656 31.495-72.3273Q24.2186-69.1891 18.6822-63.6194Q13.1458-58.0497 9.99087-50.7733Q6.83594-43.4969 6.83594-35.2384Q6.83594-26.9799 9.99087-19.7035Q13.1458-12.4271 18.6988-6.85737Q24.2519-1.2877 31.5283 1.85059Q38.8047 4.98887 47.0632 4.98887ZM47.0632-4.57578Q40.7021-4.57578 35.1488-6.94844Q29.5956-9.32109 25.4041-13.5293Q21.2125-17.7375 18.8398-23.3074Q16.4672-28.8772 16.4672-35.2384Q16.4672-41.5995 18.8232-47.1694Q21.1792-52.7393 25.3708-56.9475Q29.5623-61.1557 35.1155-63.5283Q40.6688-65.901 47.0299-65.901Q53.4243-65.901 58.9775-63.5283Q64.5308-61.1557 68.739-56.9475Q72.9472-52.7393 75.3365-47.1694Q77.7258-41.5995 77.7258-35.2384Q77.7258-28.8772 75.3531-23.3074Q72.9805-17.7375 68.7889-13.5293Q64.5974-9.32109 59.0275-6.94844Q53.4576-4.57578 47.0632-4.57578ZM47.0632-13.9134Q48.8455-13.9134 48.8455-15.7601L48.8455-18.1771Q53.6437-18.6011 56.7898-21.2333Q59.9358-23.8655 59.9358-28.3422Q59.9358-32.3306 57.4112-34.6943Q54.8865-37.0581 49.8572-37.9658L48.8455-38.1544L48.8455-46.4939Q50.3416-46.1654 51.3849-45.2842Q52.4281-44.4029 52.9675-42.9356Q54.0593-40.7296 56.1942-40.7296Q57.5968-40.7296 58.4201-41.523Q59.2435-42.3164 59.2435-43.5947Q59.2435-43.9498 59.1791-44.3049Q59.1147-44.66 59.0016-45.0328Q58.2048-47.9271 55.5115-49.8825Q52.8182-51.8379 48.8455-52.2463L48.8455-54.7766Q48.8455-56.5899 47.0632-56.5899Q45.2476-56.5899 45.2476-54.7766L45.2476-52.2463Q40.5247-51.8356 37.5641-49.1934Q34.6034-46.5512 34.6034-42.392Q34.6034-38.5391 37.1092-36.2364Q39.6149-33.9337 44.3846-32.8239L45.2476-32.6354L45.2476-23.8984Q43.2587-24.2114 42.1422-25.1748Q41.0257-26.1382 40.5352-27.5056Q40.0358-28.6419 39.2602-29.2167Q38.4846-29.7915 37.355-29.7915Q35.9236-29.7915 35.0759-28.9515Q34.2281-28.1115 34.2281-26.8044Q34.2281-26.4315 34.2925-26.0687Q34.3568-25.7059 34.5011-25.302Q35.3645-22.4808 38.201-20.5265Q41.0375-18.5723 45.2476-18.1949L45.2476-15.7601Q45.2476-13.9134 47.0632-13.9134ZM45.2476-39.0889L44.9701-39.171Q43.0479-39.7481 42.1378-40.6527Q41.2277-41.5572 41.2277-42.8713Q41.2277-44.2009 42.2854-45.1964Q43.3431-46.192 45.2476-46.5405ZM48.8455-31.7497L49.4893-31.601Q51.6401-31.0238 52.4669-30.1015Q53.2938-29.1792 53.2938-27.783Q53.2938-26.2381 52.2039-25.2081Q51.1141-24.1781 48.8455-23.8984Z"/>
  </g>
  <g id="Medium-S" transform="matrix(1 0 0 1 1699.83 696)">
   <path d="M46.7061 4.625Q54.917 4.625 62.1294 1.51367Q69.3418-1.59766 74.8477-7.12354Q80.3535-12.6494 83.4849-19.8618Q86.6162-27.0742 86.6162-35.2451Q86.6162-43.416 83.4849-50.6284Q80.3535-57.8408 74.8276-63.3667Q69.3018-68.8926 62.0894-72.0039Q54.877-75.1152 46.666-75.1152Q38.4951-75.1152 31.2827-72.0039Q24.0703-68.8926 18.5845-63.3667Q13.0986-57.8408 9.96729-50.6284Q6.83594-43.416 6.83594-35.2451Q6.83594-27.0742 9.96729-19.8618Q13.0986-12.6494 18.6045-7.12354Q24.1104-1.59766 31.3228 1.51367Q38.5352 4.625 46.7061 4.625ZM46.7061-4.00977Q40.2236-4.00977 34.5693-6.42285Q28.915-8.83594 24.646-13.125Q20.377-17.4141 17.9639-23.0884Q15.5508-28.7627 15.5508-35.2451Q15.5508-41.7275 17.9438-47.4019Q20.3369-53.0762 24.606-57.3652Q28.875-61.6543 34.5293-64.0674Q40.1836-66.4805 46.666-66.4805Q53.1885-66.4805 58.8428-64.0674Q64.4971-61.6543 68.7861-57.3652Q73.0752-53.0762 75.5083-47.4019Q77.9414-41.7275 77.9414-35.2451Q77.9414-28.7627 75.5283-23.0884Q73.1152-17.4141 68.8462-13.125Q64.5771-8.83594 58.9028-6.42285Q53.2285-4.00977 46.7061-4.00977ZM46.7061-13.5967Q48.5625-13.5967 48.5625-15.5107L48.5625-18.002Q53.1855-18.4326 56.3013-21.0244Q59.417-23.6162 59.417-28.0996Q59.417-32.0947 56.8755-34.4922Q54.334-36.8896 49.3047-37.7637L48.5625-37.8916L48.5625-47.0195Q50.1934-46.6641 51.3242-45.6885Q52.4551-44.7129 53.0146-43.0771Q53.9717-40.9385 55.9854-40.9385Q57.2666-40.9385 58.0293-41.6948Q58.792-42.4512 58.792-43.6621Q58.792-43.9902 58.7344-44.3184Q58.6768-44.6465 58.5703-45.0059Q57.7803-48.0215 55.0903-49.9971Q52.4004-51.9727 48.5625-52.3945L48.5625-54.9922Q48.5625-56.8662 46.7061-56.8662Q44.8096-56.8662 44.8096-54.9922L44.8096-52.3945Q40.208-51.9502 37.335-49.3315Q34.4619-46.7129 34.4619-42.6211Q34.4619-38.8086 36.9609-36.5093Q39.46-34.21 44.2363-33.0732L44.8096-32.9453L44.8096-23.3594Q42.6455-23.7061 41.4414-24.7705Q40.2373-25.835 39.7266-27.3506Q39.2744-28.46 38.5493-29.0078Q37.8242-29.5557 36.7822-29.5557Q35.5059-29.5557 34.7188-28.7729Q33.9316-27.9902 33.9316-26.7842Q33.9316-26.4248 33.9893-26.0923Q34.0469-25.7598 34.1709-25.3828Q35.041-22.3662 37.918-20.4019Q40.7949-18.4375 44.8096-18.0332L44.8096-15.5107Q44.8096-13.5967 46.7061-13.5967ZM44.8096-38.8867L44.5254-38.9756Q42.4414-39.6201 41.4707-40.6089Q40.5-41.5977 40.5-43.0195Q40.5-44.4502 41.6284-45.5435Q42.7568-46.6367 44.8096-47.0459ZM48.5625-31.999L49.2871-31.8301Q51.6064-31.1855 52.4771-30.1655Q53.3477-29.1455 53.3477-27.6348Q53.3477-25.9551 52.1904-24.8105Q51.0332-23.666 48.5625-23.3594Z"/>
  </g>
  <g id="Regular-S" transform="matrix(1 0 0 1 1403.58 696)">
   <path d="M46.2402 4.15039Q54.3457 4.15039 61.4746 1.07422Q68.6035-2.00195 74.0479-7.4707Q79.4922-12.9395 82.5928-20.0684Q85.6934-27.1973 85.6934-35.2539Q85.6934-43.3105 82.5928-50.4395Q79.4922-57.5684 74.0234-63.0371Q68.5547-68.5059 61.4258-71.582Q54.2969-74.6582 46.1914-74.6582Q38.1348-74.6582 31.0059-71.582Q23.877-68.5059 18.457-63.0371Q13.0371-57.5684 9.93652-50.4395Q6.83594-43.3105 6.83594-35.2539Q6.83594-27.1973 9.93652-20.0684Q13.0371-12.9395 18.4814-7.4707Q23.9258-2.00195 31.0547 1.07422Q38.1836 4.15039 46.2402 4.15039ZM46.2402-3.27148Q39.5996-3.27148 33.8135-5.7373Q28.0273-8.20312 23.6572-12.5977Q19.2871-16.9922 16.8213-22.8027Q14.3555-28.6133 14.3555-35.2539Q14.3555-41.8945 16.7969-47.7051Q19.2383-53.5156 23.6084-57.9102Q27.9785-62.3047 33.7646-64.7705Q39.5508-67.2363 46.1914-67.2363Q52.8809-67.2363 58.667-64.7705Q64.4531-62.3047 68.8477-57.9102Q73.2422-53.5156 75.7324-47.7051Q78.2227-41.8945 78.2227-35.2539Q78.2227-28.6133 75.7568-22.8027Q73.291-16.9922 68.9209-12.5977Q64.5508-8.20312 58.7402-5.7373Q52.9297-3.27148 46.2402-3.27148ZM46.2402-13.1836Q48.1934-13.1836 48.1934-15.1855L48.1934-17.7734Q52.5879-18.2129 55.6641-20.752Q58.7402-23.291 58.7402-27.7832Q58.7402-31.7871 56.1768-34.2285Q53.6133-36.6699 48.584-37.5L48.1934-37.5488L48.1934-47.7051Q50-47.3145 51.2451-46.2158Q52.4902-45.1172 53.0762-43.2617Q53.8574-41.2109 55.7129-41.2109Q56.8359-41.2109 57.5195-41.9189Q58.2031-42.627 58.2031-43.75Q58.2031-44.043 58.1543-44.3359Q58.1055-44.6289 58.0078-44.9707Q57.2266-48.1445 54.541-50.1465Q51.8555-52.1484 48.1934-52.5879L48.1934-55.2734Q48.1934-57.2266 46.2402-57.2266Q44.2383-57.2266 44.2383-55.2734L44.2383-52.5879Q39.7949-52.0996 37.0361-49.5117Q34.2773-46.9238 34.2773-42.9199Q34.2773-39.1602 36.7676-36.8652Q39.2578-34.5703 44.043-33.3984L44.2383-33.3496L44.2383-22.6562Q41.8457-23.0469 40.5273-24.2432Q39.209-25.4395 38.6719-27.1484Q38.2812-28.2227 37.6221-28.7354Q36.9629-29.248 36.0352-29.248Q34.9609-29.248 34.2529-28.54Q33.5449-27.832 33.5449-26.7578Q33.5449-26.416 33.5938-26.123Q33.6426-25.8301 33.7402-25.4883Q34.6191-22.2168 37.5488-20.2393Q40.4785-18.2617 44.2383-17.8223L44.2383-15.1855Q44.2383-13.1836 46.2402-13.1836ZM44.2383-38.623L43.9453-38.7207Q41.6504-39.4531 40.6006-40.5518Q39.5508-41.6504 39.5508-43.2129Q39.5508-44.7754 40.7715-45.9961Q41.9922-47.2168 44.2383-47.7051ZM48.1934-32.3242L49.0234-32.1289Q51.5625-31.3965 52.4902-30.249Q53.418-29.1016 53.418-27.4414Q53.418-25.5859 52.1729-24.292Q50.9277-22.998 48.1934-22.6562Z"/>
  </g>
  <g id="Light-S" transform="matrix(1 0 0 1 1107.6 696)">
   <path d="M45.5078 3.41797Q53.4831 3.41797 60.4736 0.406901Q67.4642-2.60417 72.8109-7.96712Q78.1576-13.3301 81.193-20.3206Q84.2285-27.3112 84.2285-35.2539Q84.2285-43.1966 81.193-50.1872Q78.1576-57.1777 72.7946-62.5407Q67.4316-67.9036 60.4411-70.9147Q53.4505-73.9258 45.4753-73.9258Q37.5488-73.9258 30.5501-70.9147Q23.5514-67.9036 18.2292-62.5407Q12.9069-57.1777 9.87142-50.1872Q6.83594-43.1966 6.83594-35.2539Q6.83594-27.3112 9.87142-20.3206Q12.9069-13.3301 18.2454-7.96712Q23.584-2.60417 30.5827 0.406901Q37.5814 3.41797 45.5078 3.41797ZM45.5078-2.27865Q38.6719-2.27865 32.6986-4.82585Q26.7253-7.37305 22.2087-11.9059Q17.6921-16.4388 15.1367-22.4284Q12.5814-28.418 12.5814-35.2539Q12.5814-42.0898 15.1204-48.0794Q17.6595-54.069 22.1761-58.6019Q26.6927-63.1348 32.666-65.682Q38.6393-68.2292 45.4753-68.2292Q52.3438-68.2292 58.3252-65.682Q64.3066-63.1348 68.8314-58.6019Q73.3561-54.069 75.9277-48.0794Q78.4993-42.0898 78.4993-35.2539Q78.4993-28.418 75.9521-22.4284Q73.4049-16.4388 68.8883-11.9059Q64.3717-7.37305 58.3822-4.82585Q52.3926-2.27865 45.5078-2.27865ZM45.5078-13.5579Q47.1517-13.5579 47.1517-15.2181L47.1517-18.0013Q51.6602-18.3757 54.6794-20.9066Q57.6986-23.4375 57.6986-27.653Q57.6986-31.429 55.2327-33.7484Q52.7669-36.0677 47.8353-36.9629L47.1517-37.0931L47.1517-48.2259Q49.4141-47.8678 50.9521-46.5983Q52.4902-45.3288 52.9948-43.278Q53.5807-41.5365 55.127-41.5365Q56.0221-41.5365 56.5755-42.1143Q57.1289-42.6921 57.1289-43.6198Q57.1289-43.8802 57.0882-44.1488Q57.0475-44.4173 56.9661-44.7266Q56.25-47.8027 53.5645-49.8047Q50.8789-51.8066 47.1517-52.1647L47.1517-54.8503Q47.1517-56.4779 45.5078-56.4779Q43.8477-56.4779 43.8477-54.8503L43.8477-52.1647Q39.5182-51.7578 36.735-49.2432Q33.9518-46.7285 33.9518-42.9036Q33.9518-39.3717 36.3607-37.1582Q38.7695-34.9447 43.5059-33.8216L43.8477-33.7402L43.8477-21.9564Q41.097-22.2982 39.4287-23.7223Q37.7604-25.1465 37.3047-27.2461Q37.028-28.125 36.5072-28.5645Q35.9863-29.0039 35.1888-29.0039Q34.3262-29.0039 33.7646-28.4342Q33.2031-27.8646 33.2031-26.9531Q33.2031-26.6602 33.2438-26.3916Q33.2845-26.123 33.3659-25.8138Q34.1634-22.526 37.0524-20.4753Q39.9414-18.4245 43.8477-18.0501L43.8477-15.2181Q43.8477-13.5579 45.5078-13.5579ZM43.8477-37.972L43.5872-38.0534Q40.8366-38.8346 39.5101-40.0472Q38.1836-41.2598 38.1836-43.099Q38.1836-45.0195 39.7298-46.4111Q41.276-47.8027 43.8477-48.2259ZM47.1517-32.8939L47.9818-32.6986Q50.9928-31.9173 52.2298-30.6396Q53.4668-29.362 53.4668-27.4089Q53.4668-25.2441 51.8473-23.7467Q50.2279-22.2493 47.1517-21.9564Z"/>
  </g>
  <g id="Thin-S" transform="matrix(1 0 0 1 811.863 696)">
   <path d="M44.5391 2.44928Q52.3422 2.44928 59.1498-0.47568Q65.9573-3.40064 71.1749-8.62368Q76.3924-13.8467 79.3418-20.6543Q82.2911-27.4619 82.2911-35.2539Q82.2911-43.0459 79.3418-49.8535Q76.3924-56.6611 71.1694-61.8841Q65.9463-67.1072 59.1387-70.0321Q52.3311-72.9571 44.5281-72.9571Q36.7739-72.9571 29.9474-70.0321Q23.1209-67.1072 17.9278-61.8841Q12.7347-56.6611 9.78531-49.8535Q6.83594-43.0459 6.83594-35.2539Q6.83594-27.4619 9.78531-20.6543Q12.7347-13.8467 17.9333-8.62368Q23.1319-3.40064 29.9584-0.47568Q36.7849 2.44928 44.5391 2.44928ZM44.5391-0.965537Q37.4449-0.965537 31.224-3.62037Q25.0032-6.2752 20.2928-10.9911Q15.5825-15.7069 12.9087-21.9333Q10.235-28.1597 10.235-35.2539Q10.235-42.3482 12.9032-48.5745Q15.5714-54.8009 20.2818-59.5168Q24.9921-64.2326 31.213-66.8874Q37.4338-69.5423 44.5281-69.5423Q51.6334-69.5423 57.8731-66.8874Q64.1129-64.2326 68.8099-59.5168Q73.5068-54.8009 76.1861-48.5745Q78.8653-42.3482 78.8653-35.2539Q78.8653-28.1597 76.2105-21.9333Q73.5556-15.7069 68.8453-10.9911Q64.135-6.2752 57.9086-3.62037Q51.6822-0.965537 44.5391-0.965537ZM44.5391-14.053Q45.774-14.053 45.774-15.2612L45.774-18.3027Q50.4332-18.5909 53.377-21.1111Q56.3209-23.6312 56.3209-27.4808Q56.3209-30.9555 53.9842-33.1133Q51.6476-35.2712 46.8451-36.2525L45.774-36.4904L45.774-48.9148Q48.6391-48.5997 50.5647-47.1042Q52.4902-45.6086 52.8872-43.2995Q53.2148-41.967 54.352-41.967Q54.9458-41.967 55.327-42.3726Q55.7082-42.7782 55.7082-43.4476Q55.7082-43.6649 55.6782-43.9012Q55.6483-44.1375 55.5885-44.4037Q54.9584-47.3507 52.2729-49.3526Q49.5873-51.3546 45.774-51.605L45.774-54.2906Q45.774-55.4877 44.5391-55.4877Q43.331-55.4877 43.331-54.2906L43.331-51.605Q39.1523-51.3058 36.3368-48.888Q33.5213-46.4702 33.5213-42.8821Q33.5213-39.6516 35.8225-37.5457Q38.1237-35.4398 42.7955-34.3813L43.331-34.2569L43.331-21.0307Q40.1068-21.308 37.9757-23.0335Q35.8446-24.759 35.4965-27.3753Q35.3705-27.9958 35.0326-28.3384Q34.6947-28.681 34.0694-28.681Q33.4866-28.681 33.1189-28.2943Q32.7511-27.9076 32.7511-27.2114Q32.7511-26.9831 32.781-26.7468Q32.8109-26.5105 32.8708-26.2443Q33.5607-22.935 36.3959-20.7874Q39.231-18.6397 43.331-18.3515L43.331-15.2612Q43.331-14.053 44.5391-14.053ZM43.331-37.111L43.1137-37.1708Q39.7603-38.0166 38.0678-39.3799Q36.3754-40.7431 36.3754-42.9483Q36.3754-45.3424 38.3521-46.9601Q40.3289-48.5777 43.331-48.9148ZM45.774-33.6473L46.6041-33.452Q50.2394-32.6062 51.8854-31.1563Q53.5314-29.7064 53.5314-27.3658Q53.5314-24.7921 51.4168-23.0256Q49.3022-21.2591 45.774-21.0307Z"/>
  </g>
  <g id="Ultralight-S" transform="matrix(1 0 0 1 515.649 696)">
   <path d="M44.043 1.95312Q51.7578 1.95312 58.4717-0.927734Q65.1855-3.80859 70.3369-8.95996Q75.4883-14.1113 78.3936-20.8252Q81.2988-27.5391 81.2988-35.2539Q81.2988-42.9688 78.3936-49.6826Q75.4883-56.3965 70.3369-61.5479Q65.1855-66.6992 58.4717-69.5801Q51.7578-72.4609 44.043-72.4609Q36.377-72.4609 29.6387-69.5801Q22.9004-66.6992 17.7734-61.5479Q12.6465-56.3965 9.74121-49.6826Q6.83594-42.9688 6.83594-35.2539Q6.83594-27.5391 9.74121-20.8252Q12.6465-14.1113 17.7734-8.95996Q22.9004-3.80859 29.6387-0.927734Q36.377 1.95312 44.043 1.95312ZM44.043-0.292969Q36.8164-0.292969 30.4688-3.00293Q24.1211-5.71289 19.3115-10.5225Q14.502-15.332 11.7676-21.6797Q9.0332-28.0273 9.0332-35.2539Q9.0332-42.4805 11.7676-48.8281Q14.502-55.1758 19.3115-59.9854Q24.1211-64.7949 30.4688-67.5049Q36.8164-70.2148 44.043-70.2148Q51.2695-70.2148 57.6416-67.5049Q64.0137-64.7949 68.7988-59.9854Q73.584-55.1758 76.3184-48.8281Q79.0527-42.4805 79.0527-35.2539Q79.0527-28.0273 76.3428-21.6797Q73.6328-15.332 68.8232-10.5225Q64.0137-5.71289 57.666-3.00293Q51.3184-0.292969 44.043-0.292969ZM44.043-14.3066Q45.0684-14.3066 45.0684-15.2832L45.0684-18.457Q49.8047-18.7012 52.71-21.2158Q55.6152-23.7305 55.6152-27.3926Q55.6152-30.7129 53.3447-32.7881Q51.0742-34.8633 46.3379-35.8887L45.0684-36.1816L45.0684-49.2676Q48.2422-48.9746 50.3662-47.3633Q52.4902-45.752 52.832-43.3105Q53.0273-42.1875 53.9551-42.1875Q54.3945-42.1875 54.6875-42.5049Q54.9805-42.8223 54.9805-43.3594Q54.9805-43.5547 54.9561-43.7744Q54.9316-43.9941 54.8828-44.2383Q54.2969-47.1191 51.6113-49.1211Q48.9258-51.123 45.0684-51.3184L45.0684-54.0039Q45.0684-54.9805 44.043-54.9805Q43.0664-54.9805 43.0664-54.0039L43.0664-51.3184Q38.9648-51.0742 36.1328-48.7061Q33.3008-46.3379 33.3008-42.8711Q33.3008-39.7949 35.5469-37.7441Q37.793-35.6934 42.4316-34.668L43.0664-34.5215L43.0664-20.5566Q39.5996-20.8008 37.2314-22.6807Q34.8633-24.5605 34.5703-27.4414Q34.5215-27.9297 34.2773-28.2227Q34.0332-28.5156 33.4961-28.5156Q33.0566-28.5156 32.7881-28.2227Q32.5195-27.9297 32.5195-27.3438Q32.5195-27.1484 32.5439-26.9287Q32.5684-26.709 32.6172-26.4648Q33.252-23.1445 36.0596-20.9473Q38.8672-18.75 43.0664-18.5059L43.0664-15.2832Q43.0664-14.3066 44.043-14.3066ZM43.0664-36.6699L42.8711-36.7188Q39.209-37.5977 37.3291-39.0381Q35.4492-40.4785 35.4492-42.8711Q35.4492-45.5078 37.6465-47.2412Q39.8438-48.9746 43.0664-49.2676ZM45.0684-34.0332L45.8984-33.8379Q49.8535-32.959 51.709-31.4209Q53.5645-29.8828 53.5645-27.3438Q53.5645-24.5605 51.1963-22.6562Q48.8281-20.752 45.0684-20.5566Z"/>
  </g>
 </g>
</svg>
