<?xml version="1.0" encoding="UTF-8"?>
<!--Generator: Apple Native CoreSVG 175-->
<!DOCTYPE svg
PUBLIC "-//W3C//DTD SVG 1.1//EN"
       "http://www.w3.org/Graphics/SVG/1.1/DTD/svg11.dtd">
<svg version="1.1" xmlns="http://www.w3.org/2000/svg" xmlns:xlink="http://www.w3.org/1999/xlink" width="3300" height="2200">
 <!--glyph: "", point size: 100.0, font version: "17.1d1e1", template writer version: "65.1"-->
 <g id="Notes">
  <rect height="2200" id="artboard" style="fill:white;opacity:1" width="3300" x="0" y="0"/>
  <line style="fill:none;stroke:black;opacity:1;stroke-width:0.5;" x1="263" x2="3036" y1="292" y2="292"/>
  <text style="stroke:none;fill:black;font-family:sans-serif;font-size:13;font-weight:bold;" transform="matrix(1 0 0 1 263 322)">Weight/Scale Variations</text>
  <text style="stroke:none;fill:black;font-family:sans-serif;font-size:13;text-anchor:middle;" transform="matrix(1 0 0 1 559.711 322)">Ultralight</text>
  <text style="stroke:none;fill:black;font-family:sans-serif;font-size:13;text-anchor:middle;" transform="matrix(1 0 0 1 856.422 322)">Thin</text>
  <text style="stroke:none;fill:black;font-family:sans-serif;font-size:13;text-anchor:middle;" transform="matrix(1 0 0 1 1153.13 322)">Light</text>
  <text style="stroke:none;fill:black;font-family:sans-serif;font-size:13;text-anchor:middle;" transform="matrix(1 0 0 1 1449.84 322)">Regular</text>
  <text style="stroke:none;fill:black;font-family:sans-serif;font-size:13;text-anchor:middle;" transform="matrix(1 0 0 1 1746.56 322)">Medium</text>
  <text style="stroke:none;fill:black;font-family:sans-serif;font-size:13;text-anchor:middle;" transform="matrix(1 0 0 1 2043.27 322)">Semibold</text>
  <text style="stroke:none;fill:black;font-family:sans-serif;font-size:13;text-anchor:middle;" transform="matrix(1 0 0 1 2339.98 322)">Bold</text>
  <text style="stroke:none;fill:black;font-family:sans-serif;font-size:13;text-anchor:middle;" transform="matrix(1 0 0 1 2636.69 322)">Heavy</text>
  <text style="stroke:none;fill:black;font-family:sans-serif;font-size:13;text-anchor:middle;" transform="matrix(1 0 0 1 2933.4 322)">Black</text>
  <line style="fill:none;stroke:black;opacity:1;stroke-width:0.5;" x1="263" x2="3036" y1="1903" y2="1903"/>
  <g transform="matrix(1 0 0 1 263 1933)">
   <path d="M9.24805 0.830078Q10.8691 0.830078 12.2949 0.214844Q13.7207-0.400391 14.8096-1.49414Q15.8984-2.58789 16.5186-4.01367Q17.1387-5.43945 17.1387-7.05078Q17.1387-8.66211 16.5186-10.0879Q15.8984-11.5137 14.8047-12.6074Q13.7109-13.7012 12.2852-14.3164Q10.8594-14.9316 9.23828-14.9316Q7.62695-14.9316 6.20117-14.3164Q4.77539-13.7012 3.69141-12.6074Q2.60742-11.5137 1.9873-10.0879Q1.36719-8.66211 1.36719-7.05078Q1.36719-5.43945 1.9873-4.01367Q2.60742-2.58789 3.69629-1.49414Q4.78516-0.400391 6.21094 0.214844Q7.63672 0.830078 9.24805 0.830078ZM9.24805-0.654297Q7.91992-0.654297 6.7627-1.14746Q5.60547-1.64062 4.73145-2.51953Q3.85742-3.39844 3.36426-4.56055Q2.87109-5.72266 2.87109-7.05078Q2.87109-8.37891 3.35938-9.54102Q3.84766-10.7031 4.72168-11.582Q5.5957-12.4609 6.75293-12.9541Q7.91016-13.4473 9.23828-13.4473Q10.5762-13.4473 11.7334-12.9541Q12.8906-12.4609 13.7695-11.582Q14.6484-10.7031 15.1465-9.54102Q15.6445-8.37891 15.6445-7.05078Q15.6445-5.72266 15.1514-4.56055Q14.6582-3.39844 13.7842-2.51953Q12.9102-1.64062 11.748-1.14746Q10.5859-0.654297 9.24805-0.654297ZM5.6543-7.05078Q5.6543-6.72852 5.85938-6.52832Q6.06445-6.32812 6.40625-6.32812L8.51562-6.32812L8.51562-4.20898Q8.51562-3.88672 8.71094-3.67676Q8.90625-3.4668 9.23828-3.4668Q9.56055-3.4668 9.77051-3.67676Q9.98047-3.88672 9.98047-4.20898L9.98047-6.32812L12.0898-6.32812Q12.4219-6.32812 12.627-6.52832Q12.832-6.72852 12.832-7.05078Q12.832-7.38281 12.627-7.58789Q12.4219-7.79297 12.0898-7.79297L9.98047-7.79297L9.98047-9.90234Q9.98047-10.2344 9.77051-10.4443Q9.56055-10.6543 9.23828-10.6543Q8.90625-10.6543 8.71094-10.4443Q8.51562-10.2344 8.51562-9.90234L8.51562-7.79297L6.40625-7.79297Q6.06445-7.79297 5.85938-7.58789Q5.6543-7.38281 5.6543-7.05078Z"/>
  </g>
  <g transform="matrix(1 0 0 1 281.867 1933)">
   <path d="M11.709 2.91016Q13.75 2.91016 15.5518 2.12891Q17.3535 1.34766 18.7305-0.0292969Q20.1074-1.40625 20.8887-3.20801Q21.6699-5.00977 21.6699-7.05078Q21.6699-9.0918 20.8887-10.8936Q20.1074-12.6953 18.7305-14.0723Q17.3535-15.4492 15.5469-16.2305Q13.7402-17.0117 11.6992-17.0117Q9.6582-17.0117 7.85645-16.2305Q6.05469-15.4492 4.68262-14.0723Q3.31055-12.6953 2.5293-10.8936Q1.74805-9.0918 1.74805-7.05078Q1.74805-5.00977 2.5293-3.20801Q3.31055-1.40625 4.6875-0.0292969Q6.06445 1.34766 7.86621 2.12891Q9.66797 2.91016 11.709 2.91016ZM11.709 1.25Q9.98047 1.25 8.47656 0.605469Q6.97266-0.0390625 5.83496-1.17676Q4.69727-2.31445 4.05762-3.81836Q3.41797-5.32227 3.41797-7.05078Q3.41797-8.7793 4.05762-10.2832Q4.69727-11.7871 5.83008-12.9297Q6.96289-14.0723 8.4668-14.7119Q9.9707-15.3516 11.6992-15.3516Q13.4277-15.3516 14.9316-14.7119Q16.4355-14.0723 17.5781-12.9297Q18.7207-11.7871 19.3652-10.2832Q20.0098-8.7793 20.0098-7.05078Q20.0098-5.32227 19.3701-3.81836Q18.7305-2.31445 17.5928-1.17676Q16.4551-0.0390625 14.9463 0.605469Q13.4375 1.25 11.709 1.25ZM7.17773-7.05078Q7.17773-6.69922 7.41211-6.47461Q7.64648-6.25 8.01758-6.25L10.8887-6.25L10.8887-3.36914Q10.8887-2.99805 11.1133-2.76855Q11.3379-2.53906 11.6895-2.53906Q12.0605-2.53906 12.29-2.76855Q12.5195-2.99805 12.5195-3.36914L12.5195-6.25L15.4004-6.25Q15.7715-6.25 16.001-6.47461Q16.2305-6.69922 16.2305-7.05078Q16.2305-7.42188 16.001-7.65137Q15.7715-7.88086 15.4004-7.88086L12.5195-7.88086L12.5195-10.752Q12.5195-11.1328 12.29-11.3623Q12.0605-11.5918 11.6895-11.5918Q11.3379-11.5918 11.1133-11.3574Q10.8887-11.123 10.8887-10.752L10.8887-7.88086L8.01758-7.88086Q7.63672-7.88086 7.40723-7.65137Q7.17773-7.42188 7.17773-7.05078Z"/>
  </g>
  <g transform="matrix(1 0 0 1 305.646 1933)">
   <path d="M14.9707 5.66406Q17.0605 5.66406 18.96 5.01465Q20.8594 4.36523 22.4512 3.19336Q24.043 2.02148 25.2197 0.429688Q26.3965-1.16211 27.0459-3.06641Q27.6953-4.9707 27.6953-7.05078Q27.6953-9.14062 27.0459-11.04Q26.3965-12.9395 25.2197-14.5312Q24.043-16.123 22.4512-17.2998Q20.8594-18.4766 18.9551-19.126Q17.0508-19.7754 14.9609-19.7754Q12.8711-19.7754 10.9717-19.126Q9.07227-18.4766 7.48535-17.2998Q5.89844-16.123 4.72168-14.5312Q3.54492-12.9395 2.90039-11.04Q2.25586-9.14062 2.25586-7.05078Q2.25586-4.9707 2.90527-3.06641Q3.55469-1.16211 4.72656 0.429688Q5.89844 2.02148 7.49023 3.19336Q9.08203 4.36523 10.9814 5.01465Q12.8809 5.66406 14.9707 5.66406ZM14.9707 3.84766Q13.1641 3.84766 11.5283 3.2959Q9.89258 2.74414 8.53516 1.74805Q7.17773 0.751953 6.17676-0.610352Q5.17578-1.97266 4.62891-3.6084Q4.08203-5.24414 4.08203-7.05078Q4.08203-8.86719 4.62891-10.5029Q5.17578-12.1387 6.17188-13.501Q7.16797-14.8633 8.52539-15.8594Q9.88281-16.8555 11.5186-17.4023Q13.1543-17.9492 14.9609-17.9492Q16.7773-17.9492 18.4131-17.4023Q20.0488-16.8555 21.4111-15.8594Q22.7734-14.8633 23.7695-13.501Q24.7656-12.1387 25.3174-10.5029Q25.8691-8.86719 25.8691-7.05078Q25.8789-5.24414 25.332-3.6084Q24.7852-1.97266 23.7842-0.610352Q22.7832 0.751953 21.4209 1.74805Q20.0586 2.74414 18.4229 3.2959Q16.7871 3.84766 14.9707 3.84766ZM9.19922-7.05078Q9.19922-6.66992 9.45801-6.4209Q9.7168-6.17188 10.1172-6.17188L14.0625-6.17188L14.0625-2.2168Q14.0625-1.81641 14.3115-1.55762Q14.5605-1.29883 14.9512-1.29883Q15.3516-1.29883 15.6104-1.55273Q15.8691-1.80664 15.8691-2.2168L15.8691-6.17188L19.8242-6.17188Q20.2246-6.17188 20.4785-6.4209Q20.7324-6.66992 20.7324-7.05078Q20.7324-7.46094 20.4785-7.71484Q20.2246-7.96875 19.8242-7.96875L15.8691-7.96875L15.8691-11.9141Q15.8691-12.3242 15.6104-12.583Q15.3516-12.8418 14.9512-12.8418Q14.5605-12.8418 14.3115-12.583Q14.0625-12.3242 14.0625-11.9141L14.0625-7.96875L10.1172-7.96875Q9.70703-7.96875 9.45312-7.71484Q9.19922-7.46094 9.19922-7.05078Z"/>
  </g>
  <text style="stroke:none;fill:black;font-family:sans-serif;font-size:13;font-weight:bold;" transform="matrix(1 0 0 1 263 1953)">Design Variations</text>
  <text style="stroke:none;fill:black;font-family:sans-serif;font-size:13;" transform="matrix(1 0 0 1 263 1971)">Symbols are supported in up to nine weights and three scales.</text>
  <text style="stroke:none;fill:black;font-family:sans-serif;font-size:13;" transform="matrix(1 0 0 1 263 1989)">For optimal layout with text and other symbols, vertically align</text>
  <text style="stroke:none;fill:black;font-family:sans-serif;font-size:13;" transform="matrix(1 0 0 1 263 2007)">symbols with the adjacent text.</text>
  <line style="fill:none;stroke:#00AEEF;stroke-width:0.5;opacity:1.0;" x1="776" x2="776" y1="1919" y2="1933"/>
  <g transform="matrix(1 0 0 1 776 1933)">
   <path d="M3.31055 0.15625Q3.70117 0.15625 3.91602-0.00976562Q4.13086-0.175781 4.26758-0.585938L5.52734-4.0332L11.2891-4.0332L12.5488-0.585938Q12.6855-0.175781 12.9004-0.00976562Q13.1152 0.15625 13.4961 0.15625Q13.8867 0.15625 14.1162-0.0585938Q14.3457-0.273438 14.3457-0.644531Q14.3457-0.869141 14.2383-1.17188L9.6582-13.3691Q9.48242-13.8184 9.17969-14.043Q8.87695-14.2676 8.4082-14.2676Q7.5-14.2676 7.17773-13.3789L2.59766-1.16211Q2.49023-0.859375 2.49023-0.634766Q2.49023-0.263672 2.70996-0.0537109Q2.92969 0.15625 3.31055 0.15625ZM6.00586-5.51758L8.37891-12.0898L8.42773-12.0898L10.8008-5.51758Z"/>
  </g>
  <line style="fill:none;stroke:#00AEEF;stroke-width:0.5;opacity:1.0;" x1="793.197" x2="793.197" y1="1919" y2="1933"/>
  <text style="stroke:none;fill:black;font-family:sans-serif;font-size:13;font-weight:bold;" transform="matrix(1 0 0 1 776 1953)">Margins</text>
  <text style="stroke:none;fill:black;font-family:sans-serif;font-size:13;" transform="matrix(1 0 0 1 776 1971)">Leading and trailing margins on the left and right side of each symbol</text>
  <text style="stroke:none;fill:black;font-family:sans-serif;font-size:13;" transform="matrix(1 0 0 1 776 1989)">can be adjusted by modifying the x-location of the margin guidelines.</text>
  <text style="stroke:none;fill:black;font-family:sans-serif;font-size:13;" transform="matrix(1 0 0 1 776 2007)">Modifications are automatically applied proportionally to all</text>
  <text style="stroke:none;fill:black;font-family:sans-serif;font-size:13;" transform="matrix(1 0 0 1 776 2025)">scales and weights.</text>
  <g transform="matrix(1 0 0 1 1289 1933)">
   <path d="M2.8418 1.86523L4.54102 3.57422Q5.18555 4.22852 5.90332 4.17969Q6.62109 4.13086 7.31445 3.35938L18.0078-8.42773L17.041-9.4043L6.42578 2.27539Q6.16211 2.57812 5.89355 2.61719Q5.625 2.65625 5.27344 2.30469L4.10156 1.14258Q3.75 0.791016 3.79395 0.522461Q3.83789 0.253906 4.14062-0.0195312L15.6152-10.8203L14.6387-11.7871L3.04688-0.898438Q2.30469-0.214844 2.25098 0.498047Q2.19727 1.21094 2.8418 1.86523ZM9.25781-16.3281Q8.94531-16.0254 8.90625-15.6348Q8.86719-15.2441 9.04297-14.9512Q9.21875-14.6777 9.55566-14.541Q9.89258-14.4043 10.3809-14.5215Q11.4746-14.7754 12.5977-14.7314Q13.7207-14.6875 14.7949-13.9844L14.209-12.5293Q13.9551-11.9043 14.0674-11.4404Q14.1797-10.9766 14.5801-10.5664L16.875-8.25195Q17.2363-7.88086 17.5781-7.82227Q17.9199-7.76367 18.3398-7.8418L19.4043-8.03711L20.0684-7.36328L20.0293-6.80664Q20-6.43555 20.1221-6.12305Q20.2441-5.81055 20.6055-5.44922L21.3672-4.70703Q21.7285-4.3457 22.1533-4.33105Q22.5781-4.31641 22.9297-4.66797L25.8398-7.58789Q26.1914-7.93945 26.1816-8.35449Q26.1719-8.76953 25.8105-9.13086L25.0391-9.89258Q24.6875-10.2539 24.3799-10.3857Q24.0723-10.5176 23.7109-10.4883L23.1348-10.4395L22.4902-11.0742L22.7344-12.1973Q22.832-12.6172 22.6953-12.9834Q22.5586-13.3496 22.1191-13.7891L19.9219-15.9766Q18.6719-17.2168 17.2607-17.8369Q15.8496-18.457 14.4189-18.4814Q12.9883-18.5059 11.665-17.959Q10.3418-17.4121 9.25781-16.3281ZM10.752-15.957Q11.6602-16.6211 12.7002-16.9043Q13.7402-17.1875 14.8047-17.085Q15.8691-16.9824 16.8701-16.5137Q17.8711-16.0449 18.7012-15.2051L21.1328-12.793Q21.3086-12.6172 21.3525-12.4512Q21.3965-12.2852 21.3379-12.0312L21.0156-10.5469L22.5195-9.0625L23.5059-9.12109Q23.6914-9.13086 23.7891-9.09668Q23.8867-9.0625 24.0332-8.91602L24.6094-8.33984L22.168-5.89844L21.5918-6.47461Q21.4453-6.62109 21.4062-6.71875Q21.3672-6.81641 21.377-7.01172L21.4453-7.98828L19.9512-9.47266L18.4277-9.21875Q18.1836-9.16992 18.042-9.2041Q17.9004-9.23828 17.7148-9.41406L15.7129-11.416Q15.5176-11.5918 15.4932-11.7529Q15.4688-11.9141 15.5859-12.1875L16.4648-14.2773Q15.293-15.3711 13.8281-15.791Q12.3633-16.2109 10.8398-15.7617Q10.7227-15.7324 10.6885-15.8057Q10.6543-15.8789 10.752-15.957Z"/>
  </g>
  <text style="stroke:none;fill:black;font-family:sans-serif;font-size:13;font-weight:bold;" transform="matrix(1 0 0 1 1289 1953)">Exporting</text>
  <text style="stroke:none;fill:black;font-family:sans-serif;font-size:13;" transform="matrix(1 0 0 1 1289 1971)">Symbols should be outlined when exporting to ensure the</text>
  <text style="stroke:none;fill:black;font-family:sans-serif;font-size:13;" transform="matrix(1 0 0 1 1289 1989)">design is preserved when submitting to Xcode.</text>
  <text id="template-version" style="stroke:none;fill:black;font-family:sans-serif;font-size:13;text-anchor:end;" transform="matrix(1 0 0 1 3036 1933)">Template v.3.0</text>
  <text style="stroke:none;fill:black;font-family:sans-serif;font-size:13;text-anchor:end;" transform="matrix(1 0 0 1 3036 1951)">Requires Xcode 13 or greater</text>
  <text id="descriptive-name" style="stroke:none;fill:black;font-family:sans-serif;font-size:13;text-anchor:end;" transform="matrix(1 0 0 1 3036 1969)">Generated from custom.bubble.left.and.bubble.right.fill</text>
  <text style="stroke:none;fill:black;font-family:sans-serif;font-size:13;text-anchor:end;" transform="matrix(1 0 0 1 3036 1987)">Typeset at 100 points</text>
  <text style="stroke:none;fill:black;font-family:sans-serif;font-size:13;" transform="matrix(1 0 0 1 263 726)">Small</text>
  <text style="stroke:none;fill:black;font-family:sans-serif;font-size:13;" transform="matrix(1 0 0 1 263 1156)">Medium</text>
  <text style="stroke:none;fill:black;font-family:sans-serif;font-size:13;" transform="matrix(1 0 0 1 263 1586)">Large</text>
 </g>
 <g id="Guides">
  <g id="H-reference" style="fill:#27AAE1;stroke:none;" transform="matrix(1 0 0 1 339 696)">
   <path d="M0.993347 0L3.6377 0L29.3282-67.1326L30.0301-67.1326L30.0301-70.459L28.1227-70.459ZM11.6882-24.4797L46.9818-24.4797L46.2311-26.7288L12.4382-26.7288ZM55.1193 0L57.7637 0L30.6381-70.459L29.4327-70.459L29.4327-67.1326Z"/>
  </g>
  <line id="Baseline-S" style="fill:none;stroke:#27AAE1;opacity:1;stroke-width:0.5;" x1="263" x2="3036" y1="696" y2="696"/>
  <line id="Capline-S" style="fill:none;stroke:#27AAE1;opacity:1;stroke-width:0.5;" x1="263" x2="3036" y1="625.541" y2="625.541"/>
  <g id="H-reference" style="fill:#27AAE1;stroke:none;" transform="matrix(1 0 0 1 339 1126)">
   <path d="M0.993347 0L3.6377 0L29.3282-67.1326L30.0301-67.1326L30.0301-70.459L28.1227-70.459ZM11.6882-24.4797L46.9818-24.4797L46.2311-26.7288L12.4382-26.7288ZM55.1193 0L57.7637 0L30.6381-70.459L29.4327-70.459L29.4327-67.1326Z"/>
  </g>
  <line id="Baseline-M" style="fill:none;stroke:#27AAE1;opacity:1;stroke-width:0.5;" x1="263" x2="3036" y1="1126" y2="1126"/>
  <line id="Capline-M" style="fill:none;stroke:#27AAE1;opacity:1;stroke-width:0.5;" x1="263" x2="3036" y1="1055.54" y2="1055.54"/>
  <g id="H-reference" style="fill:#27AAE1;stroke:none;" transform="matrix(1 0 0 1 339 1556)">
   <path d="M0.993347 0L3.6377 0L29.3282-67.1326L30.0301-67.1326L30.0301-70.459L28.1227-70.459ZM11.6882-24.4797L46.9818-24.4797L46.2311-26.7288L12.4382-26.7288ZM55.1193 0L57.7637 0L30.6381-70.459L29.4327-70.459L29.4327-67.1326Z"/>
  </g>
  <line id="Baseline-L" style="fill:none;stroke:#27AAE1;opacity:1;stroke-width:0.5;" x1="263" x2="3036" y1="1556" y2="1556"/>
  <line id="Capline-L" style="fill:none;stroke:#27AAE1;opacity:1;stroke-width:0.5;" x1="263" x2="3036" y1="1485.54" y2="1485.54"/>
  <line id="left-margin-Regular-M" style="fill:none;stroke:#00AEEF;stroke-width:0.5;opacity:1.0;" x1="1368.41" x2="1368.41" y1="1030.78" y2="1150.12"/>
  <line id="right-margin-Regular-M" style="fill:none;stroke:#00AEEF;stroke-width:0.5;opacity:1.0;" x1="1531.27" x2="1531.27" y1="1030.78" y2="1150.12"/>
 </g>
 <g id="Symbols">
  <g id="Black-L" transform="matrix(1 0 0 1 2817.78 1556)">
   <path d="M57.5849 31.5388Q59.9488 31.5388 62.1393 30.5217Q64.3299 29.5046 67.1666 26.9651L83.2959 12.749Q80.7635 10.5092 78.5544 6.18482Q76.3453 1.86042 76.3453-4.59261L76.3453-56.6737Q76.3453-72.7741 85.8113-82.2088Q95.2773-91.6435 111.379-91.6435L160.416-91.6435L160.395-92.1523Q159.057-100.581 152.779-106.278Q146.501-111.975 133.979-111.975L42.9093-111.975Q30.0007-111.975 23.0424-105.248Q16.084-98.5205 16.084-86.1683L16.084-19.0314Q16.084-7.2038 22.5752-0.875994Q29.0662 5.45173 41.0988 5.45173L50.2039 5.45173L50.2039 23.4555Q50.2039 27.168 52.188 29.3534Q54.1721 31.5388 57.5849 31.5388ZM176.389 41.4984Q179.823 41.4984 181.808 39.3026Q183.792 37.1068 183.792 33.3942L183.792 15.3905L190.119 15.3905Q202.152 15.3905 208.643 9.06277Q215.134 2.73506 215.134-9.09151L215.134-54.5711Q215.134-66.9443 208.176-73.6609Q201.218-80.3776 188.308-80.3776L114.378-80.3776Q101.245-80.3776 94.4182-73.6025Q87.5916-66.8274 87.5916-53.6939L87.5916-9.09151Q87.5916 3.14391 94.4474 9.2672Q101.303 15.3905 114.378 15.3905L142.315 15.3905L166.829 36.905Q169.723 39.4434 171.875 40.4708Q174.026 41.4984 176.389 41.4984Z"/>
  </g>
  <g id="Heavy-L" transform="matrix(1 0 0 1 2523.79 1556)">
   <path d="M56.9935 30.45Q59.2178 30.45 61.2431 29.4567Q63.2685 28.4634 65.9303 26.0762L82.6447 11.1315Q80.1153 8.93588 78.0302 4.76001Q75.945 0.584119 75.945-6.04826L75.945-55.5871Q75.945-71.249 85.0811-80.3398Q94.2172-89.4305 109.885-89.4305L157.801-89.4305L157.77-90.5082Q156.591-99.2439 150.361-104.954Q144.131-110.663 132.02-110.663L42.1465-110.663Q29.7596-110.663 22.9218-104.081Q16.084-97.4985 16.084-85.4413L16.084-19.6641Q16.084-8.00304 22.5648-1.62077Q29.0456 4.76146 40.7633 4.76146L50.109 4.76146L50.109 22.8484Q50.109 26.3265 51.9552 28.3883Q53.8014 30.45 56.9935 30.45ZM171.815 40.2154Q175.037 40.2154 176.886 38.1385Q178.735 36.0616 178.735 32.5835L178.735 14.4966L185.029 14.4966Q196.752 14.4966 203.23 8.11438Q209.708 1.73218 209.708-9.92337L209.708-53.6577Q209.708-65.7451 202.873-72.3126Q196.038-78.88 183.646-78.88L112.513-78.88Q99.8404-78.88 93.1557-72.268Q86.4709-65.6558 86.4709-52.9829L86.4709-9.92337Q86.4709 2.04454 93.178 8.27056Q99.885 14.4966 112.513 14.4966L138.8 14.4966L162.909 35.8169Q165.615 38.1985 167.605 39.2069Q169.596 40.2154 171.815 40.2154Z"/>
  </g>
  <g id="Bold-L" transform="matrix(1 0 0 1 2230.53 1556)">
   <path d="M55.8983 28.8146Q57.9237 28.8146 59.7266 27.8706Q61.5297 26.9266 63.9317 24.7686L81.4131 8.90998Q78.9808 6.79047 77.1052 2.86236Q75.2295-1.06576 75.2295-7.69L75.2295-54.1976Q75.2295-69.2618 83.9136-77.8889Q92.5977-86.5161 107.675-86.5161L154.409-86.5161L154.371-88.4495Q153.398-97.5395 147.26-103.242Q141.121-108.945 129.503-108.945L41.1567-108.945Q29.3854-108.945 22.7347-102.562Q16.084-96.1786 16.084-84.505L16.084-20.4628Q16.084-9.03899 22.5011-2.65465Q28.9182 3.72968 40.2515 3.72968L49.7031 3.72968L49.7031 21.9016Q49.7031 25.0505 51.3615 26.9326Q53.02 28.8146 55.8983 28.8146ZM166.323 38.5206Q169.24 38.5206 170.905 36.6195Q172.57 34.7184 172.57 31.5695L172.57 13.3975L178.631 13.3975Q189.977 13.3975 196.388 7.01332Q202.798 0.62908 202.798-10.7817L202.798-52.4834Q202.798-64.1949 196.154-70.5593Q189.51-76.9237 177.726-76.9237L109.865-76.9237Q97.7609-76.9237 91.279-70.5301Q84.797-64.1365 84.797-52.0322L84.797-10.7817Q84.797 0.833505 91.2936 7.11553Q97.79 13.3975 109.865 13.3975L134.667 13.3975L158.328 34.4498Q160.759 36.5945 162.535 37.5575Q164.311 38.5206 166.323 38.5206Z"/>
  </g>
  <g id="Semibold-L" transform="matrix(1 0 0 1 1936.2 1556)">
   <path d="M55.1433 27.6871Q57.0315 27.6871 58.6812 26.7772Q60.331 25.8672 62.5539 23.8672L80.564 7.37845Q78.1987 5.31143 76.4675 1.55413Q74.7363-2.20318 74.7363-8.82181L74.7363-53.2397Q74.7363-67.8918 83.1088-76.1994Q91.4813-84.5068 106.152-84.5068L152.071-84.5068L152.027-87.0302Q151.198-96.3645 145.122-102.063Q139.046-107.761 127.767-107.761L40.4744-107.761Q29.1275-107.761 22.6057-101.515Q16.084-95.2686 16.084-83.8595L16.084-21.0134Q16.084-9.75317 22.4572-3.3674Q28.8304 3.01837 39.8987 3.01837L49.4232 3.01837L49.4232 21.249Q49.4232 24.1709 50.9522 25.929Q52.4813 27.6871 55.1433 27.6871ZM162.537 37.3522Q165.243 37.3522 166.781 35.5723Q168.319 33.7924 168.319 30.8704L168.319 12.6399L174.221 12.6399Q185.307 12.6399 191.671 6.25426Q198.035-0.131393 198.035-11.3733L198.035-51.6738Q198.035-63.1262 191.523-69.3506Q185.01-75.575 173.645-75.575L108.04-75.575Q96.3273-75.575 89.9852-69.3321Q83.643-63.0891 83.643-51.3769L83.643-11.3733Q83.643-0.00137837 89.9945 6.31927Q96.3458 12.6399 108.04 12.6399L131.817 12.6399L155.17 33.5073Q157.412 35.4887 159.04 36.4204Q160.668 37.3522 162.537 37.3522Z"/>
  </g>
  <g id="Medium-L" transform="matrix(1 0 0 1 1641.3 1556)">
   <path d="M54.5708 26.8323Q56.355 26.8323 57.8885 25.9481Q59.4222 25.0639 61.5092 23.1837L79.9202 6.21718Q77.6056 4.18996 75.984 0.562177Q74.3623-3.06562 74.3623-9.68L74.3623-52.5134Q74.3623-66.8531 82.4985-74.9183Q90.6348-82.9834 104.997-82.9834L150.298-82.9834L150.251-85.9541Q149.529-95.4736 143.501-101.168Q137.473-106.862 126.451-106.862L39.957-106.862Q28.9319-106.862 22.508-100.721Q16.084-94.5786 16.084-83.37L16.084-21.4309Q16.084-10.2947 22.4239-3.90784Q28.7637 2.47903 39.6311 2.47903L49.211 2.47903L49.211 20.7541Q49.211 23.5039 50.6419 25.1681Q52.0728 26.8323 54.5708 26.8323ZM159.667 36.4662Q162.212 36.4662 163.654 34.7782Q165.096 33.0902 165.096 30.3404L165.096 12.0654L170.876 12.0654Q181.766 12.0654 188.095 5.67871Q194.423-0.708015 194.423-11.822L194.423-51.0599Q194.423-62.3159 188.01-68.4341Q181.597-74.5524 170.55-74.5524L106.655-74.5524Q95.2403-74.5524 89.0042-68.4236Q82.768-62.2949 82.768-50.88L82.768-11.822Q82.768-0.634422 89.0094 5.71551Q95.2508 12.0654 106.655 12.0654L129.657 12.0654L152.776 32.7926Q154.874 34.6502 156.389 35.5582Q157.905 36.4662 159.667 36.4662Z"/>
  </g>
  <g id="Regular-L" transform="matrix(1 0 0 1 1346.94 1556)">
   <path d="M53.8241 25.7172Q55.4726 25.7172 56.8546 24.8666Q58.2366 24.0161 60.1465 22.2922L79.0805 4.70248Q76.8321 2.72717 75.3533-0.731677Q73.8745-4.19054 73.8745-10.7994L73.8745-51.566Q73.8745-65.4982 81.7025-73.2472Q89.5306-80.9962 103.491-80.9962L147.986-80.9962L147.933-84.5505Q147.352-94.3115 141.386-100.001Q135.42-105.691 124.735-105.691L39.2822-105.691Q28.6769-105.691 22.3804-99.6848Q16.084-93.6787 16.084-82.7316L16.084-21.9755Q16.084-11.001 22.3804-4.61276Q28.6769 1.77554 39.2822 1.77554L48.9342 1.77554L48.9342 20.1085Q48.9342 22.6339 50.2372 24.1755Q51.5401 25.7172 53.8241 25.7172ZM155.922 35.3107Q158.259 35.3107 159.576 33.7425Q160.893 32.1744 160.893 29.649L160.893 11.316L166.514 11.316Q177.147 11.316 183.43 4.92799Q189.712-1.46013 189.712-12.4072L189.712-50.2592Q189.712-61.2589 183.43-67.2387Q177.147-73.2185 166.514-73.2185L104.85-73.2185Q93.8224-73.2185 87.7246-67.2387Q81.6266-61.2589 81.6266-50.2318L81.6266-12.4072Q81.6266-1.46013 87.7246 4.92799Q93.8224 11.316 104.85 11.316L126.839 11.316L149.653 31.8605Q151.563 33.5566 152.932 34.4336Q154.302 35.3107 155.922 35.3107Z"/>
  </g>
  <g id="Light-L" transform="matrix(1 0 0 1 1053.23 1556)">
   <path d="M50.7324 22.7399Q52.0756 22.7399 53.1904 22.0516Q54.3051 21.3633 55.7571 20.0591L75.4924 1.76337Q73.9122-0.0211804 72.9391-2.89789Q71.966-5.77462 71.966-10.8949L71.966-50.3254Q71.966-63.4941 79.2024-70.6802Q86.4388-77.8663 99.6546-77.8663L144.665-77.8663L144.631-82.9853Q144.261-92.8227 138.562-98.3598Q132.863-103.897 122.407-103.897L38.309-103.897Q27.9326-103.897 22.0083-98.158Q16.084-92.4191 16.084-81.8536L16.084-22.6245Q16.084-12.0127 22.0083-6.04414Q27.9326-0.0756226 38.309-0.0756226L46.7967-0.0756226L46.7967 18.2Q46.7967 20.2482 47.8611 21.4941Q48.9254 22.7399 50.7324 22.7399ZM153.25 33.4595Q155.091 33.4595 156.179 32.1966Q157.266 30.9338 157.266 28.8855L157.266 10.6099L161.494 10.6099Q171.917 10.6099 177.818 4.64182Q183.719-1.32639 183.719-11.8919L183.719-49.1712Q183.719-59.7701 177.818-65.4923Q171.917-71.2144 161.494-71.2144L100.842-71.2144Q90.1961-71.2144 84.4132-65.4923Q78.6301-59.7701 78.6301-49.1249L78.6301-11.8919Q78.6301-1.32639 84.4132 4.64182Q90.1961 10.6099 100.842 10.6099L125.407 10.6099L148.26 30.7918Q149.712 32.0488 150.833 32.7542Q151.954 33.4595 153.25 33.4595Z"/>
  </g>
  <g id="Thin-L" transform="matrix(1 0 0 1 760.483 1556)">
   <path d="M46.6432 18.8022Q47.5828 18.8022 48.3441 18.3285Q49.1053 17.8548 49.9516 17.1057L70.7468-2.12384Q70.0503-3.6561 69.746-5.76289Q69.4418-7.86968 69.4418-11.0214L69.4418-48.6846Q69.4418-60.8435 75.8957-67.2852Q82.3497-73.7267 94.5812-73.7267L140.273-73.7267L140.264-80.9153Q140.172-90.8537 134.826-96.1888Q129.48-101.524 119.327-101.524L37.0219-101.524Q26.9483-101.524 21.5161-96.1387Q16.084-90.7532 16.084-80.6924L16.084-23.4829Q16.084-13.3507 21.5161-7.93726Q26.9483-2.52394 37.0219-2.52394L43.9697-2.52394L43.9697 15.6758Q43.9697 17.093 44.7186 17.9476Q45.4673 18.8022 46.6432 18.8022ZM149.716 31.0112Q150.901 31.0112 151.686 30.1521Q152.47 29.293 152.47 27.8758L152.47 9.67609L154.855 9.67609Q165.001 9.67609 170.397 4.26333Q175.793-1.14952 175.793-11.2103L175.793-47.7323Q175.793-57.801 170.397-63.1824Q165.001-68.5638 154.855-68.5638L95.5413-68.5638Q85.4001-68.5638 80.0335-63.1824Q74.6669-57.801 74.6669-47.6609L74.6669-11.2103Q74.6669-1.14952 80.0335 4.26333Q85.4001 9.67609 95.5413 9.67609L123.514 9.67609L146.417 29.3783Q147.263 30.0548 148.056 30.533Q148.849 31.0112 149.716 31.0112Z"/>
  </g>
  <g id="Ultralight-L" transform="matrix(1 0 0 1 465.803 1556)">
   <path d="M44.5488 16.7853Q45.2815 16.7853 45.8619 16.4215Q46.442 16.0577 46.9781 15.593L68.3161-4.11485Q68.0723-5.51788 68.1106-7.23032Q68.1489-8.94276 68.1489-11.0861L68.1489-47.8442Q68.1489-59.4859 74.2021-65.5462Q80.2553-71.6064 91.9826-71.6064L138.024-71.6064L138.027-79.8551Q138.077-89.8451 132.912-95.0769Q127.748-100.309 117.75-100.309L36.3626-100.309Q26.4441-100.309 21.264-95.1044Q16.084-89.9 16.084-80.0977L16.084-23.9225Q16.084-14.0361 21.264-8.9069Q26.4441-3.77796 36.3626-3.77796L42.5217-3.77796L42.5217 14.3829Q42.5217 15.4769 43.109 16.1311Q43.6961 16.7853 44.5488 16.7853ZM147.906 29.7572Q148.755 29.7572 149.385 29.1049Q150.014 28.4525 150.014 27.3586L150.014 9.19777L151.455 9.19777Q161.459 9.19777 166.596 4.06947Q171.733-1.05892 171.733-10.8612L171.733-46.9952Q171.733-56.7924 166.596-61.9993Q161.459-67.2062 151.455-67.2062L92.8263-67.2062Q82.9436-67.2062 77.7903-61.9993Q72.637-56.7924 72.637-46.9111L72.637-10.8612Q72.637-1.05892 77.7903 4.06947Q82.9436 9.19777 92.8263 9.19777L122.545 9.19777L145.473 28.6543Q146.009 29.0334 146.634 29.3953Q147.259 29.7572 147.906 29.7572Z"/>
  </g>
  <g id="Black-M" transform="matrix(1 0 0 1 2841.9 1126)">
   <path d="M44.7028 17.0309Q46.6128 17.0309 48.4157 16.2444Q50.2186 15.458 52.5046 13.4166L64.6063 2.93322Q62.7323 1.18586 60.9828-2.21318Q59.2334-5.61223 59.2334-10.2559L59.2334-52.6091Q59.2334-65.3562 66.7705-72.885Q74.3075-80.4137 87.0543-80.4137L126.079-80.4137L126.074-80.531Q124.928-86.8073 120.059-91.1892Q115.19-95.5711 105.167-95.5711L33.7673-95.5711Q23.3492-95.5711 17.9051-90.2713Q12.4609-84.9715 12.4609-75.1998L12.4609-22.2245Q12.4609-12.9671 17.4484-8.16836Q22.4357-3.36973 31.9974-3.36973L38.6871-3.36973L38.6871 10.4992Q38.6871 13.5124 40.3104 15.2716Q41.9338 17.0309 44.7028 17.0309ZM140.226 25.0665Q143 25.0665 144.623 23.3046Q146.246 21.5425 146.246 18.5294L146.246 4.66044L150.988 4.66044Q160.549 4.66044 165.537-0.138222Q170.524-4.93686 170.524-14.1947L170.524-50.852Q170.524-60.6292 165.079-65.9262Q159.635-71.2232 149.217-71.2232L89.6732-71.2232Q79.1541-71.2232 73.7862-65.8692Q68.4181-60.515 68.4181-49.9958L68.4181-14.1947Q68.4181-4.53718 73.8147 0.0616169Q79.2112 4.66044 89.6732 4.66044L113.085 4.66044L132.429 21.4464Q134.772 23.4882 136.543 24.2773Q138.315 25.0665 140.226 25.0665Z"/>
  </g>
  <g id="Heavy-M" transform="matrix(1 0 0 1 2547.57 1126)">
   <path d="M44.4099 16.2412Q46.2116 16.2412 47.8776 15.4631Q49.5437 14.6849 51.701 12.7536L64.3007 1.62319Q62.368-0.0986174 60.6931-3.40618Q59.0181-6.71376 59.0181-11.67L59.0181-51.6613Q59.0181-64.0502 66.2873-71.2947Q73.5564-78.5392 85.9475-78.5392L123.829-78.5392L123.812-79.0682Q122.803-85.6377 117.956-90.0463Q113.11-94.4548 103.467-94.4548L33.1114-94.4548Q23.1821-94.4548 17.8216-89.2717Q12.4609-84.0886 12.4609-74.5702L12.4609-22.7831Q12.4609-13.6551 17.4726-8.76438Q22.4842-3.87374 31.7592-3.87374L38.7915-3.87374L38.7915 10.0819Q38.7915 12.9098 40.302 14.5755Q41.8126 16.2412 44.4099 16.2412ZM136 23.9831Q138.614 23.9831 140.126 22.3092Q141.637 20.6352 141.637 17.8073L141.637 3.85169L146.475 3.85169Q155.752 3.85169 160.763-1.03894Q165.773-5.92957 165.773-15.0554L165.773-50.0594Q165.773-59.5943 160.413-64.7692Q155.054-69.9441 145.123-69.9441L88.22-69.9441Q78.1158-69.9441 72.8574-64.7256Q67.599-59.5071 67.599-49.4029L67.599-15.0554Q67.599-5.62422 72.8792-0.886267Q78.1594 3.85169 88.22 3.85169L109.78 3.85169L128.726 20.4813Q130.926 22.4104 132.564 23.1967Q134.201 23.9831 136 23.9831Z"/>
  </g>
  <g id="Bold-M" transform="matrix(1 0 0 1 2253.51 1126)">
   <path d="M44.0823 15.3579Q45.7628 15.3579 47.2757 14.589Q48.7887 13.8201 50.802 12.012L63.959 0.157722Q61.9606-1.53549 60.369-4.74073Q58.7773-7.94599 58.7773-13.252L58.7773-50.6011Q58.7773-62.5892 65.7468-69.5157Q72.7162-76.4422 84.7094-76.4422L121.311-76.4422L121.282-77.4318Q120.425-84.3293 115.604-88.7678Q110.782-93.2062 101.566-93.2062L32.3777-93.2062Q22.9952-93.2062 17.7281-88.1536Q12.4609-83.101 12.4609-73.8658L12.4609-23.4079Q12.4609-14.4247 17.4997-9.43112Q22.5385-4.43755 31.4928-4.43755L38.9083-4.43755L38.9083 9.61496Q38.9083 12.2357 40.2926 13.7968Q41.677 15.3579 44.0823 15.3579ZM131.274 22.7711Q133.708 22.7711 135.095 21.1957Q136.482 19.6203 136.482 16.9995L136.482 2.94698L141.427 2.94698Q150.386 2.94698 155.422-2.04653Q160.458-7.04007 160.458-16.0183L160.458-49.1729Q160.458-58.4367 155.194-63.475Q149.929-68.5133 140.542-68.5133L86.5944-68.5133Q76.9543-68.5133 71.8185-63.4464Q66.6826-58.3795 66.6826-48.7396L66.6826-16.0183Q66.6826-6.84023 71.8328-1.94661Q76.9829 2.94698 86.5944 2.94698L106.084 2.94698L124.583 19.4016Q126.625 21.2046 128.111 21.9878Q129.598 22.7711 131.274 22.7711Z"/>
  </g>
  <g id="Semibold-M" transform="matrix(1 0 0 1 1958.64 1126)">
   <path d="M43.8564 14.7489Q45.4534 14.7489 46.8608 13.9864Q48.2682 13.2238 50.1822 11.5007L63.7234-0.85256Q61.6797-2.52606 60.1455-5.66076Q58.6113-8.79548 58.6113-14.3426L58.6113-49.8702Q58.6113-61.582 65.3741-68.2892Q72.137-74.9965 83.8558-74.9965L119.575-74.9965L119.538-76.3036Q118.786-83.4273 113.982-87.8864Q109.177-92.3454 100.255-92.3454L31.8719-92.3454Q22.8664-92.3454 17.6637-87.3827Q12.4609-82.4201 12.4609-73.3802L12.4609-23.8387Q12.4609-14.9553 17.5184-9.89076Q22.5759-4.82623 31.3091-4.82623L38.9888-4.82623L38.9888 9.29308Q38.9888 11.771 40.2861 13.26Q41.5835 14.7489 43.8564 14.7489ZM128.015 21.9356Q130.325 21.9356 131.626 20.4281Q132.927 18.9205 132.927 16.4426L132.927 2.32328L137.947 2.32328Q146.686 2.32328 151.741-2.74116Q156.794-7.80563 156.794-16.6821L156.794-48.5617Q156.794-57.6386 151.595-62.5827Q146.396-67.5269 137.384-67.5269L85.4737-67.5269Q76.1536-67.5269 71.1023-62.5646Q66.0509-57.6023 66.0509-48.2823L66.0509-16.6821Q66.0509-7.67854 71.1114-2.67761Q76.1718 2.32328 85.4737 2.32328L103.536 2.32328L121.727 18.6573Q123.659 20.3734 125.042 21.1545Q126.425 21.9356 128.015 21.9356Z"/>
  </g>
  <g id="Medium-M" transform="matrix(1 0 0 1 1663.31 1126)">
   <path d="M43.6851 14.2872Q45.2188 14.2872 46.5461 13.5295Q47.8735 12.7718 49.7123 11.113L63.5447-1.6186Q61.4667-3.27715 59.9761-6.35836Q58.4854-9.43959 58.4854-15.1695L58.4854-49.316Q58.4854-60.8182 65.0916-67.3593Q71.6978-73.9004 83.2086-73.9004L118.26-73.9004L118.216-75.4482Q117.543-82.7434 112.752-87.2181Q107.96-91.6926 99.2607-91.6926L31.4884-91.6926Q22.7687-91.6926 17.6148-86.7982Q12.4609-81.9038 12.4609-73.0121L12.4609-24.1653Q12.4609-15.3576 17.5326-10.2393Q22.6043-5.12095 31.1698-5.12095L39.0498-5.12095L39.0498 9.04902Q39.0498 11.4187 40.2812 12.8529Q41.5127 14.2872 43.6851 14.2872ZM125.545 21.302Q127.761 21.302 128.996 19.846Q130.232 18.39 130.232 16.0203L130.232 1.85036L135.308 1.85036Q143.881 1.85036 148.949-3.26785Q154.016-8.38612 154.016-17.1854L154.016-48.0983Q154.016-57.0334 148.867-61.9062Q143.717-66.7789 134.989-66.7789L84.6239-66.7789Q75.5465-66.7789 70.5593-61.8959Q65.5719-57.0129 65.5719-47.9356L65.5719-17.1854Q65.5719-8.31418 70.5644-3.23188Q75.5568 1.85036 84.6239 1.85036L101.603 1.85036L119.561 18.093Q121.41 19.7431 122.715 20.5226Q124.02 21.302 125.545 21.302Z"/>
  </g>
  <g id="Regular-M" transform="matrix(1 0 0 1 1368.41 1126)">
   <path d="M43.4617 13.6849Q44.9128 13.6849 46.1357 12.9335Q47.3588 12.1821 49.0994 10.6073L63.3117-2.61778Q61.1889-4.25684 59.7551-7.26828Q58.3213-10.2797 58.3213-16.2481L58.3213-48.5932Q58.3213-59.8221 64.7231-66.1464Q71.125-72.4706 82.3644-72.4706L116.543-72.4706L116.491-74.3325Q115.922-81.8513 111.148-86.3463Q106.373-90.8413 97.9642-90.8413L30.9881-90.8413Q22.6413-90.8413 17.5511-86.0359Q12.4609-81.2304 12.4609-72.5318L12.4609-24.5913Q12.4609-15.8823 17.5511-10.6939Q22.6413-5.50537 30.9881-5.50537L39.1294-5.50537L39.1294 8.73067Q39.1294 10.9591 40.2748 12.322Q41.4202 13.6849 43.4617 13.6849ZM122.322 20.4757Q124.416 20.4757 125.566 19.0868Q126.717 17.698 126.717 15.4696L126.717 1.23352L131.866 1.23352Q140.223 1.23352 145.308-3.95484Q150.393-9.14327 150.393-17.8419L150.393-47.4938Q150.393-56.2441 145.308-61.0237Q140.223-65.8033 131.866-65.8033L83.5155-65.8033Q74.7546-65.8033 69.8509-61.0237Q64.9472-56.2441 64.9472-47.4833L64.9472-17.8419Q64.9472-9.14327 69.8509-3.95484Q74.7546 1.23352 83.5155 1.23352L99.0831 1.23352L116.736 17.3569Q118.477 18.921 119.679 19.6983Q120.882 20.4757 122.322 20.4757Z"/>
  </g>
  <g id="Light-M" transform="matrix(1 0 0 1 1074.39 1126)">
   <path d="M40.6897 11.0157Q41.8672 11.0157 42.8505 10.4097Q43.8339 9.80376 45.164 8.60529L60.0947-5.25284Q58.5711-6.72088 57.5906-9.21041Q56.6102-11.7 56.6102-16.3338L56.6102-47.4809Q56.6102-58.0253 62.4816-63.8449Q68.353-69.6645 78.9253-69.6645L113.566-69.6645L113.531-72.9293Q113.15-80.5165 108.615-84.8747Q104.08-89.2328 95.8768-89.2328L30.1156-89.2328Q21.974-89.2328 17.2175-84.667Q12.4609-80.1012 12.4609-71.7447L12.4609-25.1732Q12.4609-16.7893 17.2175-11.9772Q21.974-7.16503 30.1156-7.16503L37.2131-7.16503L37.2131 7.01956Q37.2131 8.82019 38.1446 9.91792Q39.076 11.0157 40.6897 11.0157ZM119.927 18.816Q121.575 18.816 122.52 17.7009Q123.466 16.5857 123.466 14.7851L123.466 0.600478L127.365 0.600478Q135.535 0.600478 140.277-4.21141Q145.02-9.02337 145.02-17.3799L145.02-46.5183Q145.02-54.9093 140.277-59.4579Q135.535-64.0066 127.365-64.0066L79.9223-64.0066Q71.5035-64.0066 66.8821-59.4579Q62.2606-54.9093 62.2606-46.4909L62.2606-17.3799Q62.2606-9.02337 66.8821-4.21141Q71.5035 0.600478 79.9223 0.600478L97.7997 0.600478L115.487 16.3987Q116.817 17.5693 117.797 18.1926Q118.777 18.816 119.927 18.816Z"/>
  </g>
  <g id="Thin-M" transform="matrix(1 0 0 1 781.234 1126)">
   <path d="M37.0236 7.4853Q37.8391 7.4853 38.5056 7.07175Q39.172 6.65818 39.9591 5.95743L55.8401-8.73793Q55.1088-9.97977 54.7279-11.779Q54.3471-13.5783 54.3471-16.4471L54.3471-46.0098Q54.3471-55.6489 59.517-60.8011Q64.6869-65.9531 74.3767-65.9531L109.628-65.9531L109.616-71.0734Q109.484-78.7512 105.266-82.9283Q101.048-87.1055 93.116-87.1055L28.9617-87.1055Q21.0915-87.1055 16.7762-82.8566Q12.4609-78.6076 12.4609-70.7036L12.4609-25.9428Q12.4609-17.9889 16.7762-13.6745Q21.0915-9.36007 28.9617-9.36007L34.6785-9.36007L34.6785 4.75649Q34.6785 5.99135 35.3271 6.73832Q35.9757 7.4853 37.0236 7.4853ZM116.758 16.621Q117.819 16.621 118.492 15.8678Q119.166 15.1146 119.166 13.8798L119.166-0.236768L121.413-0.236768Q129.334-0.236768 133.624-4.55075Q137.913-8.86479 137.913-16.7688L137.913-45.2282Q137.913-53.1439 133.624-57.387Q129.334-61.6302 121.413-61.6302L75.1699-61.6302Q67.2036-61.6302 62.9555-57.387Q58.7074-53.1439 58.7074-45.1784L58.7074-16.7688Q58.7074-8.86479 62.9555-4.55075Q67.2036-0.236768 75.1699-0.236768L96.1024-0.236768L113.835 15.1314Q114.622 15.7815 115.308 16.2012Q115.993 16.621 116.758 16.621Z"/>
  </g>
  <g id="Ultralight-M" transform="matrix(1 0 0 1 486.344 1126)">
   <path d="M35.1458 5.67707Q35.7759 5.67707 36.2802 5.36206Q36.7842 5.04704 37.2932 4.60121L53.6608-10.523Q53.3354-11.649 53.2617-13.0947Q53.188-14.5404 53.188-16.5052L53.188-45.2563Q53.188-54.4317 57.9986-59.242Q62.8091-64.0521 72.047-64.0521L107.611-64.0521L107.611-70.1229Q107.606-77.847 103.55-81.9314Q99.4943-86.0159 91.7019-86.0159L28.3706-86.0159Q20.6395-86.0159 16.5502-81.9293Q12.4609-77.8426 12.4609-70.1703L12.4609-26.337Q12.4609-18.6034 16.5502-14.5438Q20.6395-10.4844 28.3706-10.4844L33.3803-10.4844L33.3803 3.59735Q33.3803 4.54242 33.884 5.10975Q34.3877 5.67707 35.1458 5.67707ZM115.135 15.4967Q115.895 15.4967 116.429 14.9289Q116.963 14.3611 116.963 13.4161L116.963-0.665602L118.365-0.665602Q126.158-0.665602 130.216-4.72455Q134.274-8.78357 134.274-16.4558L134.274-44.5674Q134.274-52.2397 130.216-56.3263Q126.158-60.413 118.365-60.413L72.7357-60.413Q65.0012-60.413 60.9443-56.3263Q56.8875-52.2397 56.8875-44.5061L56.8875-16.4558Q56.8875-8.78357 60.9443-4.72455Q65.0012-0.665602 72.7357-0.665602L95.2331-0.665602L112.989 14.4823Q113.498 14.8658 114.033 15.1813Q114.568 15.4967 115.135 15.4967Z"/>
  </g>
  <g id="Black-S" transform="matrix(1 0 0 1 2861.13 696)">
   <path d="M34.9609 5.81055Q36.4746 5.81055 37.915 5.2002Q39.3555 4.58984 41.1621 2.97852L50.5371-5.07812Q49.1211-6.44531 47.7539-9.10645Q46.3867-11.7676 46.3867-15.2344L46.3867-49.0723Q46.3867-59.1309 52.3438-65.0879Q58.3008-71.0449 68.3594-71.0449L99.3164-71.0449L99.3164-71.0938Q98.3887-75.9277 94.5801-79.3457Q90.7715-82.7637 82.8125-82.7637L26.6113-82.7637Q18.3105-82.7637 14.0381-78.5889Q9.76562-74.4141 9.76562-66.6992L9.76562-24.9023Q9.76562-17.627 13.6475-13.916Q17.5293-10.2051 25.0977-10.2051L30.1758-10.2051L30.1758 0.634766Q30.1758 3.02734 31.4697 4.41895Q32.7637 5.81055 34.9609 5.81055ZM111.035 12.2559Q113.232 12.2559 114.526 10.8643Q115.82 9.47266 115.82 7.08008L115.82-3.75977L119.434-3.75977Q127.002-3.75977 130.884-7.4707Q134.766-11.1816 134.766-18.457L134.766-47.6562Q134.766-55.3711 130.493-59.5459Q126.221-63.7207 117.92-63.7207L70.5078-63.7207Q62.1582-63.7207 57.9346-59.4971Q53.7109-55.2734 53.7109-46.9238L53.7109-18.457Q53.7109-10.8398 57.959-7.2998Q62.207-3.75977 70.5078-3.75977L89.5508-3.75977L104.834 9.42383Q106.689 11.0352 108.105 11.6455Q109.521 12.2559 111.035 12.2559Z"/>
  </g>
  <g id="Heavy-S" transform="matrix(1 0 0 1 2566.11 696)">
   <path d="M35.0646 5.47634Q36.5207 5.47634 37.8747 4.85446Q39.2287 4.23258 40.9777 2.66736L50.6869-5.86179Q49.1442-7.22897 47.7827-9.87858Q46.4213-12.5282 46.4213-16.4329L46.4213-48.4039Q46.4213-58.2435 52.217-64.0219Q58.0127-69.8003 67.8523-69.8003L97.7721-69.8003L97.7606-70.022Q96.9251-75.0979 93.105-78.5563Q89.2849-82.0146 81.6255-82.0146L26.1618-82.0146Q18.2529-82.0146 14.0093-77.9089Q9.76562-73.8033 9.76562-66.2613L9.76562-25.3057Q9.76562-18.0995 13.7109-14.2617Q17.6561-10.4241 25.0055-10.4241L30.51-10.4241L30.51 0.496472Q30.51 2.78533 31.7348 4.13084Q32.9596 5.47634 35.0646 5.47634ZM107.728 11.5414Q109.844 11.5414 111.069 10.1901Q112.294 8.83881 112.294 6.54995L112.294-4.37057L116.15-4.37057Q123.499-4.37057 127.444-8.20827Q131.389-12.046 131.389-19.2522L131.389-47.103Q131.389-54.6566 127.145-58.7565Q122.902-62.8564 114.993-62.8564L69.7241-62.8564Q61.6857-62.8564 57.5197-58.7192Q53.3537-54.582 53.3537-46.5435L53.3537-19.2522Q53.3537-11.7848 57.5384-8.0777Q61.723-4.37057 69.7241-4.37057L86.8886-4.37057L101.826 8.72084Q103.612 10.2861 104.942 10.9137Q106.271 11.5414 107.728 11.5414Z"/>
  </g>
  <g id="Bold-S" transform="matrix(1 0 0 1 2271.29 696)">
   <path d="M35.1807 5.10254Q36.5723 5.10254 37.8295 4.46778Q39.087 3.83301 40.7715 2.31934L50.8545-6.73828Q49.1699-8.10546 47.815-10.7422Q46.46-13.3789 46.46-17.7735L46.46-47.6562Q46.46-57.251 52.0752-62.8296Q57.6904-68.4082 67.2851-68.4082L96.0449-68.4082L96.0205-68.8232Q95.2881-74.1699 91.4551-77.6733Q87.6221-81.1767 80.2979-81.1767L25.6592-81.1767Q18.1884-81.1767 13.9771-77.1484Q9.76562-73.1201 9.76562-65.7715L9.76562-25.7568Q9.76562-18.6279 13.7817-14.6485Q17.7979-10.6689 24.9023-10.6689L30.8838-10.6689L30.8838 0.341797Q30.8838 2.51464 32.0312 3.8086Q33.1788 5.10254 35.1807 5.10254ZM104.028 10.7422Q106.054 10.7422 107.202 9.43605Q108.35 8.12989 108.35 5.95703L108.35-5.05372L112.476-5.05372Q119.58-5.05372 123.596-9.0332Q127.613-13.0127 127.613-20.1416L127.613-46.4844Q127.613-53.8574 123.401-57.8735Q119.189-61.8896 111.719-61.8896L68.8476-61.8896Q61.1572-61.8896 57.0557-57.8492Q52.9541-53.8086 52.9541-46.1182L52.9541-20.1416Q52.9541-12.8418 57.0679-8.94775Q61.1816-5.05372 68.8476-5.05372L83.9112-5.05372L98.4619 7.93457Q100.171 9.44826 101.404 10.0952Q102.637 10.7422 104.028 10.7422Z"/>
  </g>
  <g id="Semibold-S" transform="matrix(1 0 0 1 1975.88 696)">
   <path d="M35.2606 4.84482Q36.6078 4.84482 37.7984 4.20117Q38.9892 3.55752 40.6293 2.0794L50.97-7.34258Q49.1877-8.70976 47.8372-11.3376Q46.4866-13.9654 46.4866-18.6977L46.4866-47.1408Q46.4866-56.5667 51.9774-62.0076Q57.4683-67.4484 66.8941-67.4484L94.8541-67.4484L94.8208-67.9968Q94.1595-73.5301 90.3176-77.0646Q86.4757-80.5991 79.3825-80.5991L25.3126-80.5991Q18.144-80.5991 13.9548-76.6241Q9.76562-72.6492 9.76562-65.4338L9.76562-26.0678Q9.76562-18.9923 13.8306-14.9151Q17.8956-10.8378 24.8312-10.8378L31.1415-10.8378L31.1415 0.235156Q31.1415 2.32802 32.2357 3.58643Q33.3298 4.84482 35.2606 4.84482ZM101.478 10.1912Q103.442 10.1912 104.536 8.91617Q105.63 7.64111 105.63 5.54824L105.63-5.52471L109.943-5.52471Q116.878-5.52471 120.944-9.60195Q125.009-13.6792 125.009-20.7548L125.009-46.0578Q125.009-53.3065 120.82-57.2648Q116.63-61.2231 109.462-61.2231L68.2434-61.2231Q60.7928-61.2231 56.7358-57.2493Q52.6786-53.2754 52.6786-45.8249L52.6786-20.7548Q52.6786-13.5705 56.7435-9.5476Q60.8084-5.52471 68.2434-5.52471L81.8583-5.52471L96.1425 7.39248Q97.798 8.87062 98.9642 9.5309Q100.131 10.1912 101.478 10.1912Z"/>
  </g>
  <g id="Medium-S" transform="matrix(1 0 0 1 1680.15 696)">
   <path d="M35.3213 4.64941Q36.6347 4.64941 37.7749 3.99902Q38.9151 3.34863 40.5215 1.89746L51.0576-7.80078Q49.2012-9.16796 47.854-11.789Q46.5068-14.4101 46.5068-19.3984L46.5068-46.75Q46.5068-56.0479 51.9033-61.3843Q57.2998-66.7207 66.5976-66.7207L93.9511-66.7207L93.9111-67.3701Q93.3037-73.0449 89.4551-76.603Q85.6065-80.1611 78.6885-80.1611L25.0498-80.1611Q18.1103-80.1611 13.938-76.2266Q9.76562-72.292 9.76562-65.1778L9.76562-26.3037Q9.76562-19.2686 13.8677-15.1172Q17.9697-10.9658 24.7773-10.9658L31.3369-10.9658L31.3369 0.154297Q31.3369 2.18652 32.3906 3.41797Q33.4444 4.64941 35.3213 4.64941ZM99.5439 9.77345Q101.461 9.77345 102.515 8.52198Q103.568 7.27051 103.568 5.23828L103.568-5.88184L108.023-5.88184Q114.83-5.88184 118.932-10.0332Q123.034-14.1846 123.034-21.2197L123.034-45.7344Q123.034-52.8887 118.862-56.8032Q114.689-60.7178 107.75-60.7178L67.7852-60.7178Q60.5166-60.7178 56.4932-56.7945Q52.4697-52.8711 52.4697-45.6025L52.4697-21.2197Q52.4697-14.1231 56.4976-10.0024Q60.5253-5.88184 67.7852-5.88184L80.3018-5.88184L94.3838 6.98144Q95.9989 8.43263 97.1146 9.10302Q98.2304 9.77345 99.5439 9.77345Z"/>
  </g>
  <g id="Regular-S" transform="matrix(1 0 0 1 1384.73 696)">
   <path d="M35.4004 4.39453Q36.6699 4.39453 37.7441 3.73535Q38.8184 3.07617 40.3809 1.66016L51.1719-8.39844Q49.2188-9.76562 47.876-12.3779Q46.5332-14.9902 46.5332-20.3125L46.5332-46.2402Q46.5332-55.3711 51.8066-60.5713Q57.0801-65.7715 66.2109-65.7715L92.7734-65.7715L92.7246-66.5527Q92.1875-72.4121 88.3301-76.001Q84.4727-79.5898 77.7832-79.5898L24.707-79.5898Q18.0664-79.5898 13.916-75.708Q9.76562-71.8262 9.76562-64.8438L9.76562-26.6113Q9.76562-19.6289 13.916-15.3809Q18.0664-11.1328 24.707-11.1328L31.5918-11.1328L31.5918 0.0488281Q31.5918 2.00195 32.5928 3.19824Q33.5938 4.39453 35.4004 4.39453ZM97.0215 9.22852Q98.877 9.22852 99.8779 8.00781Q100.879 6.78711 100.879 4.83398L100.879-6.34766L105.518-6.34766Q112.158-6.34766 116.309-10.5957Q120.459-14.8438 120.459-21.8262L120.459-45.3125Q120.459-52.3438 116.309-56.2012Q112.158-60.0586 105.518-60.0586L67.1875-60.0586Q60.1562-60.0586 56.1768-56.2012Q52.1973-52.3438 52.1973-45.3125L52.1973-21.8262Q52.1973-14.8438 56.1768-10.5957Q60.1562-6.34766 67.1875-6.34766L78.2715-6.34766L92.0898 6.44531Q93.6523 7.86133 94.7021 8.54492Q95.752 9.22852 97.0215 9.22852Z"/>
  </g>
  <g id="Light-S" transform="matrix(1 0 0 1 1090.4 696)">
   <path d="M32.9483 2.03323Q33.9757 2.03323 34.838 1.50274Q35.7003 0.972237 36.8996-0.110877L48.3261-10.7295Q46.903-11.9453 45.9613-14.0959Q45.0195-16.2465 45.0195-20.3883L45.0195-45.2563Q45.0195-53.7816 49.8237-58.5354Q54.628-63.2891 63.1686-63.2891L90.1397-63.2891L90.1059-65.3114Q89.7354-71.2313 86.0898-74.6992Q82.4443-78.1669 75.9366-78.1669L23.9352-78.1669Q17.4761-78.1669 13.6209-74.4971Q9.76562-70.8272 9.76562-64.1475L9.76562-27.126Q9.76562-20.4313 13.6209-16.5161Q17.4761-12.601 23.9352-12.601L29.8965-12.601L29.8965-1.46484Q29.8965 0.10986 30.7083 1.07155Q31.5201 2.03323 32.9483 2.03323ZM94.9023 7.76037Q96.3644 7.76037 97.1836 6.78177Q98.0029 5.80317 98.0029 4.22846L98.0029-6.90766L101.537-6.90766Q108.011-6.90766 111.859-10.8227Q115.706-14.7377 115.706-21.4175L115.706-44.4496Q115.706-51.163 111.859-54.8161Q108.011-58.4691 101.537-58.4691L64.0088-58.4691Q57.2802-58.4691 53.5505-54.8161Q49.8207-51.163 49.8207-44.4346L49.8207-21.4175Q49.8207-14.7377 53.5505-10.8227Q57.2802-6.90766 64.0088-6.90766L77.1362-6.90766L90.9848 5.59769Q92.1842 6.66555 93.0371 7.21296Q93.8902 7.76037 94.9023 7.76037Z"/>
  </g>
  <g id="Thin-S" transform="matrix(1 0 0 1 796.829 696)">
   <path d="M29.7052-1.08977Q30.4124-1.08977 30.9944-1.45007Q31.5763-1.81038 32.2953-2.45322L44.5624-13.8124Q43.8402-14.8282 43.4289-16.3682Q43.0176-17.9081 43.0176-20.4886L43.0176-43.9549Q43.0176-51.6794 47.2012-55.8428Q51.3849-60.006 59.1448-60.006L86.6565-60.006L86.6425-63.6697Q86.4923-69.6697 83.1269-72.9774Q79.7616-76.2851 73.4944-76.2851L22.9144-76.2851Q16.6955-76.2851 13.2305-72.8956Q9.76562-69.506 9.76562-63.2265L9.76562-27.8068Q9.76562-21.4925 13.2305-18.0176Q16.6955-14.5427 22.9144-14.5427L27.6544-14.5427L27.6544-3.4668Q27.6544-2.39258 28.216-1.74118Q28.7775-1.08977 29.7052-1.08977ZM92.0995 5.81862Q93.0412 5.81862 93.6202 5.16023Q94.1991 4.50184 94.1991 3.42762L94.1991-7.6483L96.2714-7.6483Q102.526-7.6483 105.973-11.1228Q109.42-14.5975 109.42-20.877L109.42-43.3083Q109.42-49.6013 105.973-52.9841Q102.526-56.3669 96.2714-56.3669L59.8048-56.3669Q53.4765-56.3669 50.077-52.9841Q46.6775-49.6013 46.6775-43.2735L46.6775-20.877Q46.6775-14.5975 50.077-11.1228Q53.4765-7.6483 59.8048-7.6483L75.6348-7.6483L89.5234 4.47664Q90.2424 5.08403 90.8351 5.45133Q91.4277 5.81862 92.0995 5.81862Z"/>
  </g>
  <g id="Ultralight-S" transform="matrix(1 0 0 1 501.728 696)">
   <path d="M28.0441-2.68936Q28.5873-2.68936 29.0257-2.96249Q29.464-3.23563 29.937-3.65295L42.6346-15.3915Q42.2714-16.3048 42.1318-17.532Q41.9922-18.7592 41.9922-20.5399L41.9922-43.2884Q41.9922-50.6027 45.858-54.4636Q49.7238-58.3244 57.0839-58.3244L84.8724-58.3244L84.8686-62.8288Q84.8312-68.8698 81.6093-72.0955Q78.3875-75.3212 72.2435-75.3212L22.3915-75.3212Q16.2956-75.3212 13.0306-72.0753Q9.76562-68.8293 9.76562-62.7548L9.76562-28.1555Q9.76562-22.036 13.0306-18.7866Q16.2956-15.5373 22.3915-15.5373L26.506-15.5373L26.506-4.49219Q26.506-3.67432 26.9394-3.18184Q27.3727-2.68936 28.0441-2.68936ZM90.6639 4.82407Q91.3391 4.82407 91.795 4.32968Q92.2508 3.8353 92.2508 3.01743L92.2508-8.02765L93.5745-8.02765Q99.7162-8.02765 102.958-11.2766Q106.2-14.5256 106.2-20.6001L106.2-42.7238Q106.2-48.8014 102.958-52.0458Q99.7162-55.2902 93.5745-55.2902L57.6515-55.2902Q51.5282-55.2902 48.2979-52.0458Q45.0676-48.8014 45.0676-42.6788L45.0676-20.6001Q45.0676-14.5256 48.2979-11.2766Q51.5282-8.02765 57.6515-8.02765L74.8657-8.02765L88.7749 3.90244Q89.2479 4.27399 89.7072 4.54903Q90.1665 4.82407 90.6639 4.82407Z"/>
  </g>
 </g>
</svg>
