<?xml version="1.0" encoding="UTF-8"?>
<!--Generator: Apple Native CoreSVG 175-->
<!DOCTYPE svg
PUBLIC "-//W3C//DTD SVG 1.1//EN"
       "http://www.w3.org/Graphics/SVG/1.1/DTD/svg11.dtd">
<svg version="1.1" xmlns="http://www.w3.org/2000/svg" xmlns:xlink="http://www.w3.org/1999/xlink" width="3300" height="2200">
 <!--glyph: "uni1005A8.medium", point size: 100.0, font version: "17.1d1e1", template writer version: "65.1"-->
 <g id="Notes">
  <rect height="2200" id="artboard" style="fill:white;opacity:1" width="3300" x="0" y="0"/>
  <line style="fill:none;stroke:black;opacity:1;stroke-width:0.5;" x1="263" x2="3036" y1="292" y2="292"/>
  <text style="stroke:none;fill:black;font-family:sans-serif;font-size:13;font-weight:bold;" transform="matrix(1 0 0 1 263 322)">Weight/Scale Variations</text>
  <text style="stroke:none;fill:black;font-family:sans-serif;font-size:13;text-anchor:middle;" transform="matrix(1 0 0 1 559.711 322)">Ultralight</text>
  <text style="stroke:none;fill:black;font-family:sans-serif;font-size:13;text-anchor:middle;" transform="matrix(1 0 0 1 856.422 322)">Thin</text>
  <text style="stroke:none;fill:black;font-family:sans-serif;font-size:13;text-anchor:middle;" transform="matrix(1 0 0 1 1153.13 322)">Light</text>
  <text style="stroke:none;fill:black;font-family:sans-serif;font-size:13;text-anchor:middle;" transform="matrix(1 0 0 1 1449.84 322)">Regular</text>
  <text style="stroke:none;fill:black;font-family:sans-serif;font-size:13;text-anchor:middle;" transform="matrix(1 0 0 1 1746.56 322)">Medium</text>
  <text style="stroke:none;fill:black;font-family:sans-serif;font-size:13;text-anchor:middle;" transform="matrix(1 0 0 1 2043.27 322)">Semibold</text>
  <text style="stroke:none;fill:black;font-family:sans-serif;font-size:13;text-anchor:middle;" transform="matrix(1 0 0 1 2339.98 322)">Bold</text>
  <text style="stroke:none;fill:black;font-family:sans-serif;font-size:13;text-anchor:middle;" transform="matrix(1 0 0 1 2636.69 322)">Heavy</text>
  <text style="stroke:none;fill:black;font-family:sans-serif;font-size:13;text-anchor:middle;" transform="matrix(1 0 0 1 2933.4 322)">Black</text>
  <line style="fill:none;stroke:black;opacity:1;stroke-width:0.5;" x1="263" x2="3036" y1="1903" y2="1903"/>
  <g transform="matrix(1 0 0 1 263 1933)">
   <path d="M9.24805 0.830078Q10.8691 0.830078 12.2949 0.214844Q13.7207-0.400391 14.8096-1.49414Q15.8984-2.58789 16.5186-4.01367Q17.1387-5.43945 17.1387-7.05078Q17.1387-8.66211 16.5186-10.0879Q15.8984-11.5137 14.8047-12.6074Q13.7109-13.7012 12.2852-14.3164Q10.8594-14.9316 9.23828-14.9316Q7.62695-14.9316 6.20117-14.3164Q4.77539-13.7012 3.69141-12.6074Q2.60742-11.5137 1.9873-10.0879Q1.36719-8.66211 1.36719-7.05078Q1.36719-5.43945 1.9873-4.01367Q2.60742-2.58789 3.69629-1.49414Q4.78516-0.400391 6.21094 0.214844Q7.63672 0.830078 9.24805 0.830078ZM9.24805-0.654297Q7.91992-0.654297 6.7627-1.14746Q5.60547-1.64062 4.73145-2.51953Q3.85742-3.39844 3.36426-4.56055Q2.87109-5.72266 2.87109-7.05078Q2.87109-8.37891 3.35938-9.54102Q3.84766-10.7031 4.72168-11.582Q5.5957-12.4609 6.75293-12.9541Q7.91016-13.4473 9.23828-13.4473Q10.5762-13.4473 11.7334-12.9541Q12.8906-12.4609 13.7695-11.582Q14.6484-10.7031 15.1465-9.54102Q15.6445-8.37891 15.6445-7.05078Q15.6445-5.72266 15.1514-4.56055Q14.6582-3.39844 13.7842-2.51953Q12.9102-1.64062 11.748-1.14746Q10.5859-0.654297 9.24805-0.654297ZM5.6543-7.05078Q5.6543-6.72852 5.85938-6.52832Q6.06445-6.32812 6.40625-6.32812L8.51562-6.32812L8.51562-4.20898Q8.51562-3.88672 8.71094-3.67676Q8.90625-3.4668 9.23828-3.4668Q9.56055-3.4668 9.77051-3.67676Q9.98047-3.88672 9.98047-4.20898L9.98047-6.32812L12.0898-6.32812Q12.4219-6.32812 12.627-6.52832Q12.832-6.72852 12.832-7.05078Q12.832-7.38281 12.627-7.58789Q12.4219-7.79297 12.0898-7.79297L9.98047-7.79297L9.98047-9.90234Q9.98047-10.2344 9.77051-10.4443Q9.56055-10.6543 9.23828-10.6543Q8.90625-10.6543 8.71094-10.4443Q8.51562-10.2344 8.51562-9.90234L8.51562-7.79297L6.40625-7.79297Q6.06445-7.79297 5.85938-7.58789Q5.6543-7.38281 5.6543-7.05078Z"/>
  </g>
  <g transform="matrix(1 0 0 1 281.867 1933)">
   <path d="M11.709 2.91016Q13.75 2.91016 15.5518 2.12891Q17.3535 1.34766 18.7305-0.0292969Q20.1074-1.40625 20.8887-3.20801Q21.6699-5.00977 21.6699-7.05078Q21.6699-9.0918 20.8887-10.8936Q20.1074-12.6953 18.7305-14.0723Q17.3535-15.4492 15.5469-16.2305Q13.7402-17.0117 11.6992-17.0117Q9.6582-17.0117 7.85645-16.2305Q6.05469-15.4492 4.68262-14.0723Q3.31055-12.6953 2.5293-10.8936Q1.74805-9.0918 1.74805-7.05078Q1.74805-5.00977 2.5293-3.20801Q3.31055-1.40625 4.6875-0.0292969Q6.06445 1.34766 7.86621 2.12891Q9.66797 2.91016 11.709 2.91016ZM11.709 1.25Q9.98047 1.25 8.47656 0.605469Q6.97266-0.0390625 5.83496-1.17676Q4.69727-2.31445 4.05762-3.81836Q3.41797-5.32227 3.41797-7.05078Q3.41797-8.7793 4.05762-10.2832Q4.69727-11.7871 5.83008-12.9297Q6.96289-14.0723 8.4668-14.7119Q9.9707-15.3516 11.6992-15.3516Q13.4277-15.3516 14.9316-14.7119Q16.4355-14.0723 17.5781-12.9297Q18.7207-11.7871 19.3652-10.2832Q20.0098-8.7793 20.0098-7.05078Q20.0098-5.32227 19.3701-3.81836Q18.7305-2.31445 17.5928-1.17676Q16.4551-0.0390625 14.9463 0.605469Q13.4375 1.25 11.709 1.25ZM7.17773-7.05078Q7.17773-6.69922 7.41211-6.47461Q7.64648-6.25 8.01758-6.25L10.8887-6.25L10.8887-3.36914Q10.8887-2.99805 11.1133-2.76855Q11.3379-2.53906 11.6895-2.53906Q12.0605-2.53906 12.29-2.76855Q12.5195-2.99805 12.5195-3.36914L12.5195-6.25L15.4004-6.25Q15.7715-6.25 16.001-6.47461Q16.2305-6.69922 16.2305-7.05078Q16.2305-7.42188 16.001-7.65137Q15.7715-7.88086 15.4004-7.88086L12.5195-7.88086L12.5195-10.752Q12.5195-11.1328 12.29-11.3623Q12.0605-11.5918 11.6895-11.5918Q11.3379-11.5918 11.1133-11.3574Q10.8887-11.123 10.8887-10.752L10.8887-7.88086L8.01758-7.88086Q7.63672-7.88086 7.40723-7.65137Q7.17773-7.42188 7.17773-7.05078Z"/>
  </g>
  <g transform="matrix(1 0 0 1 305.646 1933)">
   <path d="M14.9707 5.66406Q17.0605 5.66406 18.96 5.01465Q20.8594 4.36523 22.4512 3.19336Q24.043 2.02148 25.2197 0.429688Q26.3965-1.16211 27.0459-3.06641Q27.6953-4.9707 27.6953-7.05078Q27.6953-9.14062 27.0459-11.04Q26.3965-12.9395 25.2197-14.5312Q24.043-16.123 22.4512-17.2998Q20.8594-18.4766 18.9551-19.126Q17.0508-19.7754 14.9609-19.7754Q12.8711-19.7754 10.9717-19.126Q9.07227-18.4766 7.48535-17.2998Q5.89844-16.123 4.72168-14.5312Q3.54492-12.9395 2.90039-11.04Q2.25586-9.14062 2.25586-7.05078Q2.25586-4.9707 2.90527-3.06641Q3.55469-1.16211 4.72656 0.429688Q5.89844 2.02148 7.49023 3.19336Q9.08203 4.36523 10.9814 5.01465Q12.8809 5.66406 14.9707 5.66406ZM14.9707 3.84766Q13.1641 3.84766 11.5283 3.2959Q9.89258 2.74414 8.53516 1.74805Q7.17773 0.751953 6.17676-0.610352Q5.17578-1.97266 4.62891-3.6084Q4.08203-5.24414 4.08203-7.05078Q4.08203-8.86719 4.62891-10.5029Q5.17578-12.1387 6.17188-13.501Q7.16797-14.8633 8.52539-15.8594Q9.88281-16.8555 11.5186-17.4023Q13.1543-17.9492 14.9609-17.9492Q16.7773-17.9492 18.4131-17.4023Q20.0488-16.8555 21.4111-15.8594Q22.7734-14.8633 23.7695-13.501Q24.7656-12.1387 25.3174-10.5029Q25.8691-8.86719 25.8691-7.05078Q25.8789-5.24414 25.332-3.6084Q24.7852-1.97266 23.7842-0.610352Q22.7832 0.751953 21.4209 1.74805Q20.0586 2.74414 18.4229 3.2959Q16.7871 3.84766 14.9707 3.84766ZM9.19922-7.05078Q9.19922-6.66992 9.45801-6.4209Q9.7168-6.17188 10.1172-6.17188L14.0625-6.17188L14.0625-2.2168Q14.0625-1.81641 14.3115-1.55762Q14.5605-1.29883 14.9512-1.29883Q15.3516-1.29883 15.6104-1.55273Q15.8691-1.80664 15.8691-2.2168L15.8691-6.17188L19.8242-6.17188Q20.2246-6.17188 20.4785-6.4209Q20.7324-6.66992 20.7324-7.05078Q20.7324-7.46094 20.4785-7.71484Q20.2246-7.96875 19.8242-7.96875L15.8691-7.96875L15.8691-11.9141Q15.8691-12.3242 15.6104-12.583Q15.3516-12.8418 14.9512-12.8418Q14.5605-12.8418 14.3115-12.583Q14.0625-12.3242 14.0625-11.9141L14.0625-7.96875L10.1172-7.96875Q9.70703-7.96875 9.45312-7.71484Q9.19922-7.46094 9.19922-7.05078Z"/>
  </g>
  <text style="stroke:none;fill:black;font-family:sans-serif;font-size:13;font-weight:bold;" transform="matrix(1 0 0 1 263 1953)">Design Variations</text>
  <text style="stroke:none;fill:black;font-family:sans-serif;font-size:13;" transform="matrix(1 0 0 1 263 1971)">Symbols are supported in up to nine weights and three scales.</text>
  <text style="stroke:none;fill:black;font-family:sans-serif;font-size:13;" transform="matrix(1 0 0 1 263 1989)">For optimal layout with text and other symbols, vertically align</text>
  <text style="stroke:none;fill:black;font-family:sans-serif;font-size:13;" transform="matrix(1 0 0 1 263 2007)">symbols with the adjacent text.</text>
  <line style="fill:none;stroke:#00AEEF;stroke-width:0.5;opacity:1.0;" x1="776" x2="776" y1="1919" y2="1933"/>
  <g transform="matrix(1 0 0 1 776 1933)">
   <path d="M3.31055 0.15625Q3.70117 0.15625 3.91602-0.00976562Q4.13086-0.175781 4.26758-0.585938L5.52734-4.0332L11.2891-4.0332L12.5488-0.585938Q12.6855-0.175781 12.9004-0.00976562Q13.1152 0.15625 13.4961 0.15625Q13.8867 0.15625 14.1162-0.0585938Q14.3457-0.273438 14.3457-0.644531Q14.3457-0.869141 14.2383-1.17188L9.6582-13.3691Q9.48242-13.8184 9.17969-14.043Q8.87695-14.2676 8.4082-14.2676Q7.5-14.2676 7.17773-13.3789L2.59766-1.16211Q2.49023-0.859375 2.49023-0.634766Q2.49023-0.263672 2.70996-0.0537109Q2.92969 0.15625 3.31055 0.15625ZM6.00586-5.51758L8.37891-12.0898L8.42773-12.0898L10.8008-5.51758Z"/>
  </g>
  <line style="fill:none;stroke:#00AEEF;stroke-width:0.5;opacity:1.0;" x1="793.197" x2="793.197" y1="1919" y2="1933"/>
  <text style="stroke:none;fill:black;font-family:sans-serif;font-size:13;font-weight:bold;" transform="matrix(1 0 0 1 776 1953)">Margins</text>
  <text style="stroke:none;fill:black;font-family:sans-serif;font-size:13;" transform="matrix(1 0 0 1 776 1971)">Leading and trailing margins on the left and right side of each symbol</text>
  <text style="stroke:none;fill:black;font-family:sans-serif;font-size:13;" transform="matrix(1 0 0 1 776 1989)">can be adjusted by modifying the x-location of the margin guidelines.</text>
  <text style="stroke:none;fill:black;font-family:sans-serif;font-size:13;" transform="matrix(1 0 0 1 776 2007)">Modifications are automatically applied proportionally to all</text>
  <text style="stroke:none;fill:black;font-family:sans-serif;font-size:13;" transform="matrix(1 0 0 1 776 2025)">scales and weights.</text>
  <g transform="matrix(1 0 0 1 1289 1933)">
   <path d="M2.8418 1.86523L4.54102 3.57422Q5.18555 4.22852 5.90332 4.17969Q6.62109 4.13086 7.31445 3.35938L18.0078-8.42773L17.041-9.4043L6.42578 2.27539Q6.16211 2.57812 5.89355 2.61719Q5.625 2.65625 5.27344 2.30469L4.10156 1.14258Q3.75 0.791016 3.79395 0.522461Q3.83789 0.253906 4.14062-0.0195312L15.6152-10.8203L14.6387-11.7871L3.04688-0.898438Q2.30469-0.214844 2.25098 0.498047Q2.19727 1.21094 2.8418 1.86523ZM9.25781-16.3281Q8.94531-16.0254 8.90625-15.6348Q8.86719-15.2441 9.04297-14.9512Q9.21875-14.6777 9.55566-14.541Q9.89258-14.4043 10.3809-14.5215Q11.4746-14.7754 12.5977-14.7314Q13.7207-14.6875 14.7949-13.9844L14.209-12.5293Q13.9551-11.9043 14.0674-11.4404Q14.1797-10.9766 14.5801-10.5664L16.875-8.25195Q17.2363-7.88086 17.5781-7.82227Q17.9199-7.76367 18.3398-7.8418L19.4043-8.03711L20.0684-7.36328L20.0293-6.80664Q20-6.43555 20.1221-6.12305Q20.2441-5.81055 20.6055-5.44922L21.3672-4.70703Q21.7285-4.3457 22.1533-4.33105Q22.5781-4.31641 22.9297-4.66797L25.8398-7.58789Q26.1914-7.93945 26.1816-8.35449Q26.1719-8.76953 25.8105-9.13086L25.0391-9.89258Q24.6875-10.2539 24.3799-10.3857Q24.0723-10.5176 23.7109-10.4883L23.1348-10.4395L22.4902-11.0742L22.7344-12.1973Q22.832-12.6172 22.6953-12.9834Q22.5586-13.3496 22.1191-13.7891L19.9219-15.9766Q18.6719-17.2168 17.2607-17.8369Q15.8496-18.457 14.4189-18.4814Q12.9883-18.5059 11.665-17.959Q10.3418-17.4121 9.25781-16.3281ZM10.752-15.957Q11.6602-16.6211 12.7002-16.9043Q13.7402-17.1875 14.8047-17.085Q15.8691-16.9824 16.8701-16.5137Q17.8711-16.0449 18.7012-15.2051L21.1328-12.793Q21.3086-12.6172 21.3525-12.4512Q21.3965-12.2852 21.3379-12.0312L21.0156-10.5469L22.5195-9.0625L23.5059-9.12109Q23.6914-9.13086 23.7891-9.09668Q23.8867-9.0625 24.0332-8.91602L24.6094-8.33984L22.168-5.89844L21.5918-6.47461Q21.4453-6.62109 21.4062-6.71875Q21.3672-6.81641 21.377-7.01172L21.4453-7.98828L19.9512-9.47266L18.4277-9.21875Q18.1836-9.16992 18.042-9.2041Q17.9004-9.23828 17.7148-9.41406L15.7129-11.416Q15.5176-11.5918 15.4932-11.7529Q15.4688-11.9141 15.5859-12.1875L16.4648-14.2773Q15.293-15.3711 13.8281-15.791Q12.3633-16.2109 10.8398-15.7617Q10.7227-15.7324 10.6885-15.8057Q10.6543-15.8789 10.752-15.957Z"/>
  </g>
  <text style="stroke:none;fill:black;font-family:sans-serif;font-size:13;font-weight:bold;" transform="matrix(1 0 0 1 1289 1953)">Exporting</text>
  <text style="stroke:none;fill:black;font-family:sans-serif;font-size:13;" transform="matrix(1 0 0 1 1289 1971)">Symbols should be outlined when exporting to ensure the</text>
  <text style="stroke:none;fill:black;font-family:sans-serif;font-size:13;" transform="matrix(1 0 0 1 1289 1989)">design is preserved when submitting to Xcode.</text>
  <text id="template-version" style="stroke:none;fill:black;font-family:sans-serif;font-size:13;text-anchor:end;" transform="matrix(1 0 0 1 3036 1933)">Template v.3.0</text>
  <text style="stroke:none;fill:black;font-family:sans-serif;font-size:13;text-anchor:end;" transform="matrix(1 0 0 1 3036 1951)">Requires Xcode 13 or greater</text>
  <text id="descriptive-name" style="stroke:none;fill:black;font-family:sans-serif;font-size:13;text-anchor:end;" transform="matrix(1 0 0 1 3036 1969)">Generated from eurosign.circle.fill</text>
  <text style="stroke:none;fill:black;font-family:sans-serif;font-size:13;text-anchor:end;" transform="matrix(1 0 0 1 3036 1987)">Typeset at 100 points</text>
  <text style="stroke:none;fill:black;font-family:sans-serif;font-size:13;" transform="matrix(1 0 0 1 263 726)">Small</text>
  <text style="stroke:none;fill:black;font-family:sans-serif;font-size:13;" transform="matrix(1 0 0 1 263 1156)">Medium</text>
  <text style="stroke:none;fill:black;font-family:sans-serif;font-size:13;" transform="matrix(1 0 0 1 263 1586)">Large</text>
 </g>
 <g id="Guides">
  <g id="H-reference" style="fill:#27AAE1;stroke:none;" transform="matrix(1 0 0 1 339 696)">
   <path d="M0.993347 0L3.6377 0L29.3282-67.1326L30.0301-67.1326L30.0301-70.459L28.1227-70.459ZM11.6882-24.4797L46.9818-24.4797L46.2311-26.7288L12.4382-26.7288ZM55.1193 0L57.7637 0L30.6381-70.459L29.4327-70.459L29.4327-67.1326Z"/>
  </g>
  <line id="Baseline-S" style="fill:none;stroke:#27AAE1;opacity:1;stroke-width:0.5;" x1="263" x2="3036" y1="696" y2="696"/>
  <line id="Capline-S" style="fill:none;stroke:#27AAE1;opacity:1;stroke-width:0.5;" x1="263" x2="3036" y1="625.541" y2="625.541"/>
  <g id="H-reference" style="fill:#27AAE1;stroke:none;" transform="matrix(1 0 0 1 339 1126)">
   <path d="M0.993347 0L3.6377 0L29.3282-67.1326L30.0301-67.1326L30.0301-70.459L28.1227-70.459ZM11.6882-24.4797L46.9818-24.4797L46.2311-26.7288L12.4382-26.7288ZM55.1193 0L57.7637 0L30.6381-70.459L29.4327-70.459L29.4327-67.1326Z"/>
  </g>
  <line id="Baseline-M" style="fill:none;stroke:#27AAE1;opacity:1;stroke-width:0.5;" x1="263" x2="3036" y1="1126" y2="1126"/>
  <line id="Capline-M" style="fill:none;stroke:#27AAE1;opacity:1;stroke-width:0.5;" x1="263" x2="3036" y1="1055.54" y2="1055.54"/>
  <g id="H-reference" style="fill:#27AAE1;stroke:none;" transform="matrix(1 0 0 1 339 1556)">
   <path d="M0.993347 0L3.6377 0L29.3282-67.1326L30.0301-67.1326L30.0301-70.459L28.1227-70.459ZM11.6882-24.4797L46.9818-24.4797L46.2311-26.7288L12.4382-26.7288ZM55.1193 0L57.7637 0L30.6381-70.459L29.4327-70.459L29.4327-67.1326Z"/>
  </g>
  <line id="Baseline-L" style="fill:none;stroke:#27AAE1;opacity:1;stroke-width:0.5;" x1="263" x2="3036" y1="1556" y2="1556"/>
  <line id="Capline-L" style="fill:none;stroke:#27AAE1;opacity:1;stroke-width:0.5;" x1="263" x2="3036" y1="1485.54" y2="1485.54"/>
  <line id="left-margin-Regular-M" style="fill:none;stroke:#00AEEF;stroke-width:0.5;opacity:1.0;" x1="1391.32" x2="1391.32" y1="1030.79" y2="1150.12"/>
  <line id="right-margin-Regular-M" style="fill:none;stroke:#00AEEF;stroke-width:0.5;opacity:1.0;" x1="1508.37" x2="1508.37" y1="1030.79" y2="1150.12"/>
 </g>
 <g id="Symbols">
  <g id="Black-L" transform="matrix(1 0 0 1 2854.19 1556)">
   <path d="M79.1953 32.7252Q93.2356 32.7252 105.521 27.4303Q117.806 22.1354 127.174 12.7571Q136.542 3.37874 141.848-8.90649Q147.154-21.1917 147.154-35.2113Q147.154-49.2309 141.848-61.5161Q136.542-73.8013 127.164-83.1796Q117.785-92.558 105.5-97.8529Q93.2149-103.148 79.1746-103.148Q65.1563-103.148 52.8704-97.8529Q40.5846-92.558 31.2276-83.1796Q21.8707-73.8013 16.5647-61.5161Q11.2588-49.2309 11.2588-35.2113Q11.2588-21.1917 16.5647-8.90649Q21.8707 3.37874 31.238 12.7571Q40.6053 22.1354 52.8912 27.4303Q65.177 32.7252 79.1953 32.7252ZM87.6975-5.31924Q75.2777-5.31924 67.1092-10.9695Q58.9407-16.6197 56.5113-26.7533L51.6307-26.7533Q50.2531-26.7533 49.4905-27.5373Q48.7279-28.3213 48.7279-29.5821Q48.7279-30.8064 49.4905-31.5697Q50.2531-32.333 51.6307-32.333L55.6137-32.333Q55.6124-32.8947 55.6014-33.6503Q55.5904-34.4058 55.5904-35.1529Q55.5904-35.9558 55.5904-36.6004Q55.5904-37.2451 55.6124-37.6548L51.6307-37.6548Q50.2531-37.6548 49.4905-38.4285Q48.7279-39.2021 48.7279-40.4252Q48.7279-41.7066 49.4905-42.4699Q50.2531-43.2332 51.6307-43.2332L56.2971-43.2332Q58.6279-53.642 66.8561-59.4201Q75.0843-65.1982 87.8143-65.1982Q90.9291-65.1982 93.1449-64.6571Q95.3607-64.116 96.5813-63.1142Q97.873-62.1438 98.4457-60.864Q99.0183-59.5842 99.0183-58.1326Q99.0183-54.6149 96.5287-53.3883Q95.2535-52.5122 92.8072-52.3804Q90.3609-52.2485 88.0843-52.1317Q82.6181-51.8981 78.3196-49.6835Q74.0211-47.469 72.5948-43.2332L91.2955-43.2332Q94.219-43.2332 94.219-40.4252Q94.219-39.2021 93.4557-38.4285Q92.6925-37.6548 91.2955-37.6548L71.0835-37.6548Q71.0031-37.2451 70.9739-36.6089Q70.9447-35.9728 70.9447-35.249Q70.9447-34.3681 71.0031-33.5171Q71.0615-32.6661 71.142-32.333L91.2955-32.333Q94.219-32.333 94.219-29.5821Q94.219-28.3213 93.4557-27.5373Q92.6925-26.7533 91.2955-26.7533L72.7883-26.7533Q74.334-22.7136 78.456-20.597Q82.5779-18.4805 87.8507-18.3052Q90.3025-18.2468 92.6891-18.0676Q95.0757-17.8884 96.3535-17.0707Q99.1935-15.6689 99.1935-12.307Q99.1935-9.18314 96.624-7.3862Q95.323-6.42213 93.1449-5.87068Q90.9668-5.31924 87.6975-5.31924Z"/>
  </g>
  <g id="Heavy-L" transform="matrix(1 0 0 1 2558.42 1556)">
   <path d="M78.2511 31.7672Q92.088 31.7672 104.202 26.5464Q116.316 21.3256 125.559 12.0677Q134.802 2.8099 140.04-9.30402Q145.279-21.4179 145.279-35.2251Q145.279-49.0322 140.04-61.1461Q134.802-73.2601 125.544-82.5179Q116.286-91.7758 104.172-96.9966Q92.0582-102.217 78.2213-102.217Q64.4202-102.217 52.3033-96.9966Q40.1863-91.7758 30.9613-82.5179Q21.7362-73.2601 16.4975-61.1461Q11.2588-49.0322 11.2588-35.2251Q11.2588-21.4179 16.4975-9.30402Q21.7362 2.8099 30.9761 12.0677Q40.2161 21.3256 52.333 26.5464Q64.45 31.7672 78.2511 31.7672ZM86.846-5.08514Q74.9443-5.08514 66.808-10.6976Q58.6718-16.3101 56.2209-26.6486L50.731-26.6486Q49.3824-26.6486 48.5979-27.4659Q47.8134-28.2832 47.8134-29.5426Q47.8134-30.7931 48.5979-31.5806Q49.3824-32.3682 50.731-32.3682L55.3428-32.3682Q55.3367-32.8985 55.3188-33.6567Q55.3009-34.4148 55.3009-35.1805Q55.3009-35.9786 55.3009-36.628Q55.3009-37.2774 55.3367-37.7423L50.731-37.7423Q49.3824-37.7423 48.5979-38.5447Q47.8134-39.3471 47.8134-40.5916Q47.8134-41.8807 48.5979-42.6683Q49.3824-43.4558 50.731-43.4558L56.0662-43.4558Q58.4454-54.0058 66.6323-59.7121Q74.8193-65.4185 86.9353-65.4185Q89.8491-65.4185 91.9254-64.9513Q94.0018-64.4841 95.2077-63.6302Q96.5716-62.7343 97.1464-61.5408Q97.7212-60.3472 97.7212-58.9749Q97.7212-55.4799 94.961-54.5428Q93.7552-53.8735 91.542-53.8082Q89.3288-53.7429 87.1226-53.6536Q81.2737-53.4752 76.6866-50.9324Q72.0994-48.3897 70.5086-43.4558L89.5305-43.4558Q92.4779-43.4558 92.4779-40.5916Q92.4779-39.3471 91.6904-38.5447Q90.9029-37.7423 89.5305-37.7423L69.059-37.7423Q68.9786-37.2774 68.9563-36.6206Q68.934-35.9637 68.934-35.2399Q68.934-34.4 68.9786-33.5854Q69.0232-32.7707 69.1037-32.3682L89.5305-32.3682Q92.4779-32.3682 92.4779-29.5426Q92.4779-28.2832 91.6904-27.4659Q90.9029-26.6486 89.5305-26.6486L70.6336-26.6486Q72.3257-21.8518 76.773-19.3776Q81.2203-16.9034 86.9441-16.7695Q89.2842-16.7249 91.4467-16.6329Q93.6093-16.5409 94.8272-15.9162Q97.8551-14.8452 97.8551-11.4603Q97.8551-8.50425 95.2732-6.88835Q93.9869-6.04926 91.9254-5.5672Q89.864-5.08514 86.846-5.08514Z"/>
  </g>
  <g id="Bold-L" transform="matrix(1 0 0 1 2262.89 1556)">
   <path d="M77.0653 30.566Q90.6516 30.566 102.549 25.4396Q114.447 20.3133 123.533 11.2089Q132.619 2.10448 137.771-9.79333Q142.923-21.6912 142.923-35.2405Q142.923-48.7898 137.771-60.6877Q132.619-72.5855 123.515-81.6899Q114.41-90.7942 102.512-95.9206Q90.6146-101.047 77.0283-101.047Q63.4932-101.047 51.5882-95.9206Q39.6833-90.7942 30.623-81.6899Q21.5627-72.5855 16.4108-60.6877Q11.2588-48.7898 11.2588-35.2405Q11.2588-21.6912 16.4108-9.79333Q21.5627 2.10448 30.6415 11.2089Q39.7203 20.3133 51.6252 25.4396Q63.5301 30.566 77.0653 30.566ZM85.6949-4.99883Q74.4359-4.99883 66.3804-10.5504Q58.3248-16.1019 55.8788-26.6351L49.6555-26.6351Q48.3652-26.6351 47.5764-27.4681Q46.7875-28.301 46.7875-29.5329Q46.7875-30.7869 47.5764-31.5828Q48.3652-32.3788 49.6555-32.3788L55.0426-32.3788Q55.0284-32.8884 55.0027-33.6552Q54.9771-34.4221 54.9771-35.2113Q54.9771-36.0013 54.9771-36.6589Q54.9771-37.3164 55.0284-37.843L49.6555-37.843Q48.3652-37.843 47.5764-38.6574Q46.7875-39.4719 46.7875-40.7116Q46.7875-41.9805 47.5764-42.7765Q48.3652-43.5724 49.6555-43.5724L55.7848-43.5724Q58.1809-54.2574 66.2799-59.8734Q74.3789-65.4894 85.7533-65.4894Q88.3791-65.4894 90.2692-65.112Q92.1593-64.7347 93.3314-64.0605Q94.7532-63.2683 95.3276-62.1942Q95.9019-61.1201 95.9019-59.8596Q95.9019-56.4706 92.934-55.8573Q91.8144-55.4193 89.8821-55.427Q87.9498-55.4347 85.8481-55.3763Q79.5483-55.2595 74.6094-52.3137Q69.6705-49.3679 67.9129-43.5724L87.2885-43.5724Q90.1936-43.5724 90.1936-40.7116Q90.1936-39.4719 89.3976-38.6574Q88.6016-37.843 87.2885-37.843L66.5699-37.843Q66.4894-37.3164 66.4748-36.6365Q66.4602-35.9565 66.4602-35.2327Q66.4602-34.4299 66.4894-33.6487Q66.5186-32.8676 66.5991-32.3788L87.2885-32.3788Q90.1936-32.3788 90.1936-29.5329Q90.1936-28.301 89.3976-27.4681Q88.6016-26.6351 87.2885-26.6351L67.97-26.6351Q69.8144-20.9252 74.6515-18.0221Q79.4885-15.1191 85.7313-15.0315Q87.9206-15.0023 89.8095-15.0064Q91.6983-15.0105 92.8463-14.6017Q95.9895-13.9008 95.9895-10.5766Q95.9895-7.8513 93.4196-6.47246Q92.1671-5.79046 90.2692-5.39464Q88.3713-4.99883 85.6949-4.99883Z"/>
  </g>
  <g id="Semibold-L" transform="matrix(1 0 0 1 1966.99 1556)">
   <path d="M76.2478 29.7379Q89.6614 29.7379 101.41 24.6766Q113.159 19.6153 122.137 10.6168Q131.114 1.61818 136.206-10.1307Q141.299-21.8795 141.299-35.2511Q141.299-48.6228 136.206-60.3716Q131.114-72.1204 122.116-81.119Q113.117-90.1176 101.368-95.1789Q89.6194-100.24 76.2058-100.24Q62.854-100.24 51.0953-95.1789Q39.3365-90.1176 30.3898-81.119Q21.4432-72.1204 16.351-60.3716Q11.2588-48.6228 11.2588-35.2511Q11.2588-21.8795 16.351-10.1307Q21.4432 1.61818 30.4108 10.6168Q39.3785 19.6153 51.1372 24.6766Q62.896 29.7379 76.2478 29.7379ZM84.9014-4.93933Q74.0855-4.93933 66.0856-10.4488Q58.0857-15.9583 55.643-26.6258L48.9141-26.6258Q47.664-26.6258 46.8721-27.4695Q46.0803-28.3133 46.0803-29.5263Q46.0803-30.7825 46.8721-31.5843Q47.664-32.3861 48.9141-32.3861L54.8356-32.3861Q54.8158-32.8814 54.7848-33.6542Q54.7539-34.4271 54.7539-35.2326Q54.7539-36.0169 54.7539-36.6801Q54.7539-37.3433 54.8158-37.9124L48.9141-37.9124Q47.664-37.9124 46.8721-38.7352Q46.0803-39.558 46.0803-40.7943Q46.0803-42.0493 46.8721-42.8511Q47.664-43.6529 48.9141-43.6529L55.5908-43.6529Q57.9986-54.4308 66.0369-59.9845Q74.0753-65.5382 84.9385-65.5382Q87.3656-65.5382 89.1273-65.2229Q90.8891-64.9075 92.038-64.3572Q93.4996-63.6364 94.0736-62.6447Q94.6476-61.653 94.6476-60.4695Q94.6476-57.1535 91.5365-56.7635Q90.4764-56.4849 88.7378-56.5429Q86.9992-56.601 84.9695-56.5638Q78.3588-56.4895 73.1774-53.2659Q67.996-50.0422 66.1235-43.6529L85.7429-43.6529Q88.6187-43.6529 88.6187-40.7943Q88.6187-39.558 87.817-38.7352Q87.0152-37.9124 85.7429-37.9124L64.8538-37.9124Q64.7734-37.3433 64.7641-36.6474Q64.7548-35.9515 64.7548-35.2277Q64.7548-34.4505 64.7734-33.6924Q64.792-32.9344 64.8724-32.3861L85.7429-32.3861Q88.6187-32.3861 88.6187-29.5263Q88.6187-28.3133 87.817-27.4695Q87.0152-26.6258 85.7429-26.6258L66.1337-26.6258Q68.0831-20.2864 73.1889-17.0877Q78.2947-13.889 84.8952-13.8333Q86.9806-13.8147 88.6808-13.8851Q90.3809-13.9555 91.4808-13.6955Q94.7033-13.2497 94.7033-9.96736Q94.7033-7.40116 92.1418-6.18576Q90.9125-5.61204 89.1273-5.27568Q87.3422-4.93933 84.9014-4.93933Z"/>
  </g>
  <g id="Medium-L" transform="matrix(1 0 0 1 1670.9 1556)">
   <path d="M75.6279 29.11Q88.9106 29.11 100.546 24.0981Q112.182 19.0862 121.078 10.1678Q129.973 1.24944 135.02-10.3864Q140.067-22.0223 140.067-35.2592Q140.067-48.4961 135.02-60.1319Q129.973-71.7678 121.055-80.6862Q112.137-89.6045 100.501-94.6164Q88.8648-99.6283 75.5822-99.6283Q62.3695-99.6283 50.7215-94.6164Q39.0736-89.6045 30.213-80.6862Q21.3525-71.7678 16.3056-60.1319Q11.2588-48.4961 11.2588-35.2592Q11.2588-22.0223 16.3056-10.3864Q21.3525 1.24944 30.2359 10.1678Q39.1193 19.0862 50.7673 24.0981Q62.4152 29.11 75.6279 29.11ZM84.2997-4.89421Q73.8198-4.89421 65.8621-10.3719Q57.9043-15.8495 55.4642-26.6187L48.3519-26.6187Q47.1323-26.6187 46.3382-27.4706Q45.544-28.3226 45.544-29.5212Q45.544-30.7793 46.3382-31.5854Q47.1323-32.3916 48.3519-32.3916L54.6787-32.3916Q54.6546-32.8761 54.6196-33.6535Q54.5846-34.4308 54.5846-35.2487Q54.5846-36.0287 54.5846-36.6962Q54.5846-37.3637 54.6546-37.9651L48.3519-37.9651Q47.1323-37.9651 46.3382-38.7941Q45.544-39.6232 45.544-40.8571Q45.544-42.1015 46.3382-42.9076Q47.1323-43.7138 48.3519-43.7138L55.4437-43.7138Q57.8603-54.5623 65.8527-60.0688Q73.8451-65.5753 84.3207-65.5753Q86.5972-65.5753 88.2615-65.3069Q89.9259-65.0385 91.0572-64.5821Q92.5491-63.9155 93.1228-62.9862Q93.6966-62.057 93.6966-60.932Q93.6966-57.6714 90.4769-57.4506Q89.4619-57.2929 87.8701-57.3891Q86.2783-57.4853 84.3034-57.4643Q77.4568-57.4222 72.0916-53.9879Q66.7263-50.5536 64.7666-43.7138L84.571-43.7138Q87.4246-43.7138 87.4246-40.8571Q87.4246-39.6232 86.6184-38.7941Q85.8122-37.9651 84.571-37.9651L63.5527-37.9651Q63.4722-37.3637 63.467-36.6557Q63.4617-35.9477 63.4617-35.2239Q63.4617-34.4661 63.4722-33.7255Q63.4828-32.985 63.5632-32.3916L84.571-32.3916Q87.4246-32.3916 87.4246-29.5212Q87.4246-28.3226 86.6184-27.4706Q85.8122-26.6187 84.571-26.6187L64.7413-26.6187Q66.7703-19.802 72.0799-16.3792Q77.3895-12.9563 84.2613-12.9248Q86.2678-12.9143 87.8249-13.0349Q89.382-13.1555 90.4454-13.0084Q93.7281-12.756 93.7281-9.50541Q93.7281-7.05985 91.1729-5.96836Q89.9612-5.47675 88.2615-5.18548Q86.5619-4.89421 84.2997-4.89421Z"/>
  </g>
  <g id="Regular-L" transform="matrix(1 0 0 1 1374.99 1556)">
   <path d="M74.8194 28.2909Q87.9312 28.2909 99.4198 23.3434Q110.908 18.3959 119.697 9.58221Q128.485 0.768476 133.473-10.7201Q138.46-22.2086 138.46-35.2697Q138.46-48.3308 133.473-59.8193Q128.485-71.3079 119.671-80.1216Q110.858-88.9353 99.3691-93.8828Q87.8805-98.8303 74.7687-98.8303Q61.7374-98.8303 50.234-93.8828Q38.7306-88.9353 29.9824-80.1216Q21.2342-71.3079 16.2465-59.8193Q11.2588-48.3308 11.2588-35.2697Q11.2588-22.2086 16.2465-10.7201Q21.2342 0.768476 30.0077 9.58221Q38.7813 18.3959 50.2847 23.3434Q61.7881 28.2909 74.8194 28.2909ZM83.5148-4.83537Q73.4732-4.83537 65.5705-10.2715Q57.6678-15.7076 55.2309-26.6095L47.6186-26.6095Q46.4387-26.6095 45.6417-27.4721Q44.8446-28.3347 44.8446-29.5147Q44.8446-30.775 45.6417-31.5869Q46.4387-32.3989 47.6186-32.3989L54.474-32.3989Q54.4443-32.8693 54.4041-33.6525Q54.3639-34.4358 54.3639-35.2697Q54.3639-36.0442 54.3639-36.7173Q54.3639-37.3904 54.4443-38.0337L47.6186-38.0337Q46.4387-38.0337 45.6417-38.871Q44.8446-39.7083 44.8446-40.9389Q44.8446-42.1695 45.6417-42.9814Q46.4387-43.7934 47.6186-43.7934L55.2518-43.7934Q57.6799-54.7338 65.6124-60.1787Q73.5449-65.6236 83.5148-65.6236Q85.5949-65.6236 87.1323-65.4165Q88.6697-65.2094 89.778-64.8755Q91.3093-64.2795 91.8827-63.4318Q92.4561-62.584 92.4561-61.5352Q92.4561-58.3469 89.0948-58.3469Q88.1386-58.3469 86.7383-58.4928Q85.3381-58.6388 83.4344-58.6388Q76.2804-58.6388 70.6753-54.9297Q65.0702-51.2205 62.9969-43.7934L83.0424-43.7934Q85.8671-43.7934 85.8671-40.9389Q85.8671-39.7083 85.0552-38.871Q84.2432-38.0337 83.0424-38.0337L61.8555-38.0337Q61.7751-37.3904 61.7751-36.6666Q61.7751-35.9428 61.7751-35.219Q61.7751-34.4864 61.7751-33.7687Q61.7751-33.051 61.8555-32.3989L83.0424-32.3989Q85.8671-32.3989 85.8671-29.5147Q85.8671-28.3347 85.0552-27.4721Q84.2432-26.6095 83.0424-26.6095L62.9252-26.6095Q65.058-19.1702 70.6334-15.455Q76.2088-11.7398 83.4344-11.7398Q85.3381-11.7398 86.7086-11.9259Q88.0791-12.1121 89.0948-12.1121Q92.4561-12.1121 92.4561-8.90286Q92.4561-6.61466 89.9091-5.6848Q88.7204-5.3003 87.1323-5.06783Q85.5442-4.83537 83.5148-4.83537Z"/>
  </g>
  <g id="Light-L" transform="matrix(1 0 0 1 1079.2 1556)">
   <path d="M73.8959 27.3674Q86.8436 27.3674 98.1577 22.502Q109.472 17.6366 118.137 8.95629Q126.802 0.275949 131.708-11.0381Q136.614-22.3522 136.614-35.2697Q136.614-48.1872 131.708-59.5013Q126.802-70.8154 118.122-79.4957Q109.442-88.176 98.1275-93.0414Q86.8134-97.9069 73.8658-97.9069Q60.9986-97.9069 49.6594-93.0414Q38.3201-88.176 29.6951-79.4957Q21.07-70.8154 16.1644-59.5013Q11.2588-48.1872 11.2588-35.2697Q11.2588-22.3522 16.1644-11.0381Q21.07 0.275949 29.7102 8.95629Q38.3503 17.6366 49.6895 22.502Q61.0287 27.3674 73.8959 27.3674ZM82.0988-6.08721Q72.5087-6.08721 64.9241-11.3899Q57.3394-16.6926 55.1078-27.3483L47.1261-27.3483Q46.1309-27.3483 45.4775-28.057Q44.8241-28.7657 44.8241-29.7609Q44.8241-30.8365 45.4775-31.5151Q46.1309-32.1937 47.1261-32.1937L54.4945-32.1937Q54.4443-32.7666 54.4041-33.5909Q54.3639-34.4152 54.3639-35.2697Q54.3639-36.0236 54.3639-36.7173Q54.3639-37.4109 54.4443-38.0542L47.1261-38.0542Q46.1309-38.0542 45.4775-38.7479Q44.8241-39.4415 44.8241-40.4669Q44.8241-41.4923 45.4775-42.1708Q46.1309-42.8494 47.1261-42.8494L55.0877-42.8494Q57.249-53.6257 64.8839-58.9987Q72.5188-64.3718 82.0988-64.3718Q83.7274-64.3718 85.0493-64.216Q86.3712-64.0601 87.3564-63.8289Q88.7235-63.3765 89.2764-62.693Q89.8293-62.0094 89.8293-61.1247Q89.8293-58.511 87.1452-58.511Q86.2505-58.511 84.994-58.6468Q83.7374-58.7825 82.0184-58.7825Q74.7002-58.7825 68.8899-54.8168Q63.0796-50.8511 61.1294-42.8494L81.1338-42.8494Q83.466-42.8494 83.466-40.4669Q83.466-39.4415 82.7875-38.7479Q82.1089-38.0542 81.1338-38.0542L60.2548-38.0542Q60.1744-37.4109 60.1744-36.6871Q60.1744-35.9633 60.1744-35.2395Q60.1744-34.4454 60.1744-33.6764Q60.1744-32.9074 60.2548-32.1937L81.1338-32.1937Q83.466-32.1937 83.466-29.7609Q83.466-28.7657 82.7875-28.057Q82.1089-27.3483 81.1338-27.3483L61.1193-27.3483Q63.17-19.437 68.9301-15.5166Q74.6901-11.5961 82.0184-11.5961Q83.7374-11.5961 84.9437-11.772Q86.15-11.9479 87.1452-11.9479Q89.8293-11.9479 89.8293-9.35434Q89.8293-7.37397 87.4669-6.69038Q86.4014-6.429 85.0493-6.25811Q83.6972-6.08721 82.0988-6.08721Z"/>
  </g>
  <g id="Thin-L" transform="matrix(1 0 0 1 783.716 1556)">
   <path d="M72.6746 26.1461Q85.405 26.1461 96.4884 21.3892Q107.572 16.6324 116.074 8.12846Q124.577-0.375458 129.374-11.4588Q134.171-22.5422 134.171-35.2697Q134.171-47.9972 129.374-59.0806Q124.577-70.1639 116.073-78.6679Q107.569-87.1718 96.4854-91.9286Q85.402-96.6855 72.6715-96.6855Q60.0215-96.6855 48.8994-91.9286Q37.7773-87.1718 29.3151-78.6679Q20.8529-70.1639 16.0558-59.0806Q11.2588-47.9972 11.2588-35.2697Q11.2588-22.5422 16.0558-11.4588Q20.8529-0.375458 29.3166 8.12846Q37.7803 16.6324 48.9024 21.3892Q60.0245 26.1461 72.6746 26.1461ZM80.226-7.74287Q71.233-7.74287 64.0691-12.8691Q56.9052-17.9954 54.9449-28.3254L46.4747-28.3254Q45.7238-28.3254 45.2603-28.8305Q44.7969-29.3357 44.7969-30.0866Q44.7969-30.918 45.2603-31.4201Q45.7238-31.9222 46.4747-31.9222L54.5217-31.9222Q54.4443-32.6309 54.4041-33.5095Q54.3639-34.3881 54.3639-35.2697Q54.3639-35.9965 54.3639-36.7173Q54.3639-37.438 54.4443-38.0814L46.4747-38.0814Q45.7238-38.0814 45.2603-38.585Q44.7969-39.0887 44.7969-39.8426Q44.7969-40.5966 45.2603-41.0987Q45.7238-41.6008 46.4747-41.6008L54.8705-41.6008Q56.679-52.16 63.9203-57.4381Q71.1617-62.7161 80.226-62.7161Q81.2574-62.7161 82.2944-62.6282Q83.3313-62.5402 84.1536-62.4447Q85.3036-62.1823 85.8294-61.7159Q86.3551-61.2494 86.3551-60.5819Q86.3551-58.7282 84.5667-58.7282Q83.7535-58.7282 82.6869-58.8503Q81.6203-58.9725 80.1456-58.9725Q72.6103-58.9725 66.5285-54.6675Q60.4468-50.3625 58.6594-41.6008L78.6096-41.6008Q80.2904-41.6008 80.2904-39.8426Q80.2904-39.0887 79.7883-38.585Q79.2862-38.0814 78.6096-38.0814L58.1377-38.0814Q58.0573-37.438 58.0573-36.7142Q58.0573-35.9905 58.0573-35.2667Q58.0573-34.3911 58.0573-33.5543Q58.0573-32.7174 58.1377-31.9222L78.6096-31.9222Q80.2904-31.9222 80.2904-30.0866Q80.2904-29.3357 79.7883-28.8305Q79.2862-28.3254 78.6096-28.3254L58.7308-28.3254Q60.673-19.7899 66.6773-15.598Q72.6816-11.4061 80.1456-11.4061Q81.6203-11.4061 82.6095-11.5685Q83.5987-11.7308 84.5667-11.7308Q86.3551-11.7308 86.3551-9.95146Q86.3551-8.37822 84.2371-8.02034Q83.3343-7.92181 82.2944-7.83234Q81.2544-7.74287 80.226-7.74287Z"/>
  </g>
  <g id="Ultralight-L" transform="matrix(1 0 0 1 487.631 1556)">
   <path d="M72.049 25.5205Q84.6682 25.5205 95.6335 20.8192Q106.599 16.118 115.018 7.70445Q123.437-0.709105 128.178-11.6743Q132.92-22.6395 132.92-35.2697Q132.92-47.8999 128.178-58.8651Q123.437-69.8303 115.023-78.2439Q106.61-86.6574 95.6443-91.3586Q84.6791-96.0599 72.0598-96.0599Q59.521-96.0599 48.5101-91.3586Q37.4993-86.6574 29.1205-78.2439Q20.7417-69.8303 16.0002-58.8651Q11.2588-47.8999 11.2588-35.2697Q11.2588-22.6395 16.0002-11.6743Q20.7417-0.709105 29.115 7.70445Q37.4884 16.118 48.4992 20.8192Q59.5101 25.5205 72.049 25.5205ZM79.2668-8.59089Q70.5796-8.59089 63.6312-13.6268Q56.6827-18.6627 54.8615-28.8259L46.1411-28.8259Q45.5152-28.8259 45.1491-29.2267Q44.783-29.6276 44.783-30.2534Q44.783-30.9597 45.1491-31.3714Q45.5152-31.7832 46.1411-31.7832L54.5356-31.7832Q54.4443-32.5614 54.4041-33.4678Q54.3639-34.3742 54.3639-35.2697Q54.3639-35.9826 54.3639-36.7173Q54.3639-37.4519 54.4443-38.0953L46.1411-38.0953Q45.5152-38.0953 45.1491-38.5016Q44.783-38.9079 44.783-39.5229Q44.783-40.1378 45.1491-40.5496Q45.5152-40.9613 46.1411-40.9613L54.7593-40.9613Q56.387-51.4093 63.4268-56.6387Q70.4666-61.8681 79.2668-61.8681Q79.9924-61.8681 80.8833-61.8149Q81.7743-61.7617 82.5132-61.7357Q83.552-61.5706 84.0638-61.2154Q84.5757-60.8601 84.5757-60.3039Q84.5757-58.8394 83.246-58.8394Q82.4745-58.8394 81.5052-58.9546Q80.536-59.0698 79.1864-59.0698Q71.5398-59.0698 65.3191-54.591Q59.0983-50.1123 57.3944-40.9613L77.3167-40.9613Q78.6639-40.9613 78.6639-39.5229Q78.6639-38.9079 78.2521-38.5016Q77.8404-38.0953 77.3167-38.0953L57.0533-38.0953Q56.9729-37.4519 56.9729-36.7281Q56.9729-36.0044 56.9729-35.2806Q56.9729-34.3633 56.9729-33.4917Q56.9729-32.6201 57.0533-31.7832L77.3167-31.7832Q78.6639-31.7832 78.6639-30.2534Q78.6639-29.6276 78.2521-29.2267Q77.8404-28.8259 77.3167-28.8259L57.5074-28.8259Q59.394-19.9706 65.5234-15.6397Q71.6529-11.3088 79.1864-11.3088Q80.536-11.3088 81.4139-11.4642Q82.2919-11.6196 83.246-11.6196Q84.5757-11.6196 84.5757-10.2573Q84.5757-8.8926 82.5827-8.70153Q81.7634-8.68642 80.8833-8.63865Q80.0033-8.59089 79.2668-8.59089Z"/>
  </g>
  <g id="Black-M" transform="matrix(1 0 0 1 2871.36 1126)">
   <path d="M62.0423 18.1161Q73.0725 18.1161 82.714 13.9613Q92.3555 9.80654 99.704 2.45531Q107.052-4.89592 111.21-14.5374Q115.367-24.1789 115.367-35.2035Q115.367-46.2282 111.21-55.8697Q107.052-65.5112 99.7012-72.8624Q92.35-80.2136 82.7085-84.3684Q73.067-88.5232 62.0368-88.5232Q51.0119-88.5232 41.3705-84.3684Q31.7292-80.2136 24.3833-72.8624Q17.0375-65.5112 12.8801-55.8697Q8.72266-46.2282 8.72266-35.2035Q8.72266-24.1789 12.8801-14.5374Q17.0375-4.89592 24.3861 2.45531Q31.7347 9.80654 41.376 13.9613Q51.0174 18.1161 62.0423 18.1161ZM68.4829-12.4276Q58.4767-12.4276 52.1636-16.8194Q45.8505-21.2113 44.0146-28.8527L40.7069-28.8527Q39.6398-28.8527 39.0872-29.4107Q38.5347-29.9686 38.5347-30.9215Q38.5347-31.8226 39.0872-32.375Q39.6398-32.9274 40.7069-32.9274L43.3219-32.9274Q43.3222-33.4034 43.3196-33.9921Q43.317-34.5808 43.317-35.1465Q43.317-35.7698 43.317-36.2679Q43.317-36.7661 43.3222-37.0361L40.7069-37.0361Q39.6398-37.0361 39.0872-37.5913Q38.5347-38.1464 38.5347-39.0478Q38.5347-40.0062 39.0872-40.5586Q39.6398-41.111 40.7069-41.111L43.792-41.111Q45.5199-49.0316 51.8898-53.56Q58.2597-58.0885 68.597-58.0885Q71.1218-58.0885 72.9291-57.6128Q74.7364-57.137 75.678-56.2478Q76.5944-55.4513 77.0334-54.4079Q77.4725-53.3645 77.4725-52.1939Q77.4725-49.527 75.868-48.3279Q74.8287-47.4715 72.7526-47.3108Q70.6765-47.1501 68.8773-47.0359Q64.949-46.8075 61.8391-45.339Q58.7292-43.8706 57.7822-41.111L71.9887-41.111Q74.1664-41.111 74.1664-39.0478Q74.1664-38.1464 73.614-37.5913Q73.0616-37.0361 71.9887-37.0361L56.5944-37.0361Q56.5321-36.7661 56.5036-36.291Q56.475-35.8159 56.475-35.2551Q56.475-34.5292 56.5321-33.8317Q56.5892-33.1342 56.6515-32.9274L71.9887-32.9274Q74.1664-32.9274 74.1664-30.9215Q74.1664-29.9686 73.614-29.4107Q73.0616-28.8527 71.9887-28.8527L57.9992-28.8527Q59.0598-26.3097 61.9987-24.9494Q64.9376-23.5892 68.6489-23.4179Q70.6194-23.3608 72.6387-23.1456Q74.658-22.9304 75.6967-22.131Q77.6438-20.7607 77.6438-18.2592Q77.6438-15.7366 75.6888-14.2222Q74.6848-13.3846 72.9291-12.9061Q71.1734-12.4276 68.4829-12.4276Z"/>
  </g>
  <g id="Heavy-M" transform="matrix(1 0 0 1 2575.48 1126)">
   <path d="M61.2045 17.2648Q72.0509 17.2648 81.541 13.1749Q91.0312 9.08498 98.2688 1.83921Q105.506-5.40657 109.606-14.8967Q113.705-24.3868 113.705-35.217Q113.705-46.0473 109.606-55.5374Q105.506-65.0275 98.2607-72.2733Q91.0149-79.519 81.5248-83.6089Q72.0347-87.6988 61.1882-87.6988Q50.3604-87.6988 40.8691-83.6089Q31.3778-79.519 24.1495-72.2733Q16.9211-65.0275 12.8219-55.5374Q8.72266-46.0473 8.72266-35.217Q8.72266-24.3868 12.8219-14.8967Q16.9211-5.40657 24.1576 1.83921Q31.394 9.08498 40.8853 13.1749Q50.3767 17.2648 61.2045 17.2648ZM67.7811-12.0832Q58.2397-12.0832 51.9288-16.4505Q45.6179-20.8177 43.7421-28.6822L39.8729-28.6822Q38.817-28.6822 38.2298-29.2869Q37.6426-29.8916 37.6426-30.8602Q37.6426-31.8039 38.2298-32.3923Q38.817-32.9807 39.8729-32.9807L43.0552-32.9807Q43.0527-33.4166 43.0434-34.0041Q43.034-34.5915 43.034-35.1734Q43.034-35.794 43.034-36.2949Q43.034-36.7958 43.0527-37.1197L39.8729-37.1197Q38.817-37.1197 38.2298-37.7163Q37.6426-38.3128 37.6426-39.254Q37.6426-40.2389 38.2298-40.8273Q38.817-41.4158 39.8729-41.4158L43.5814-41.4158Q45.3813-49.4895 51.7383-53.9544Q58.0953-58.4194 67.8684-58.4194Q70.2383-58.4194 71.9291-58.0111Q73.62-57.6029 74.5586-56.8487Q75.5608-56.1119 76.0038-55.1377Q76.4468-54.1634 76.4468-53.0552Q76.4468-50.3574 74.5153-49.4414Q73.5382-48.7871 71.6767-48.6923Q69.8152-48.5976 68.0678-48.5104Q63.7806-48.3359 60.4074-46.5703Q57.0342-44.8047 55.915-41.4158L70.4394-41.4158Q72.6859-41.4158 72.6859-39.254Q72.6859-38.3128 72.0975-37.7163Q71.509-37.1197 70.4394-37.1197L54.763-37.1197Q54.7007-36.7958 54.6789-36.3005Q54.6571-35.8051 54.6571-35.2444Q54.6571-34.5641 54.7007-33.9069Q54.7443-33.2497 54.8066-32.9807L70.4394-32.9807Q72.6859-32.9807 72.6859-30.8602Q72.6859-29.8916 72.0975-29.2869Q71.509-28.6822 70.4394-28.6822L56.0595-28.6822Q57.2708-25.4426 60.5107-23.7517Q63.7505-22.0608 67.8933-21.9299Q69.7716-21.8863 71.587-21.7573Q73.4025-21.6283 74.3845-21.0176Q76.5777-19.9707 76.5777-17.3899Q76.5777-15.0029 74.5935-13.6428Q73.5926-12.916 71.9291-12.4996Q70.2657-12.0832 67.7811-12.0832Z"/>
  </g>
  <g id="Bold-M" transform="matrix(1 0 0 1 2279.69 1126)">
   <path d="M60.2672 16.3124Q70.9082 16.3124 80.2289 12.2951Q89.5497 8.27781 96.6634 1.15Q103.777-5.9778 107.811-15.2986Q111.845-24.6193 111.845-35.2321Q111.845-45.8449 107.811-55.1656Q103.777-64.4864 96.6493-71.6142Q89.5215-78.742 80.2007-82.7593Q70.8799-86.7766 60.2389-86.7766Q49.6317-86.7766 40.3082-82.7593Q30.9846-78.742 23.8878-71.6142Q16.791-64.4864 12.7568-55.1656Q8.72266-45.8449 8.72266-35.2321Q8.72266-24.6193 12.7568-15.2986Q16.791-5.9778 23.902 1.15Q31.0129 8.27781 40.3364 12.2951Q49.6599 16.3124 60.2672 16.3124ZM66.9961-11.698Q57.9746-11.698 51.6661-16.0378Q45.3576-20.3775 43.4372-28.4915L38.9399-28.4915Q37.8966-28.4915 37.2706-29.1484Q36.6447-29.8054 36.6447-30.7916Q36.6447-31.7829 37.2706-32.4117Q37.8966-33.0404 38.9399-33.0404L42.7568-33.0404Q42.7512-33.4314 42.7344-34.0175Q42.7175-34.6035 42.7175-35.2035Q42.7175-35.8211 42.7175-36.325Q42.7175-36.829 42.7512-37.2132L38.9399-37.2132Q37.8966-37.2132 37.2706-37.8561Q36.6447-38.4989 36.6447-39.4848Q36.6447-40.4992 37.2706-41.1279Q37.8966-41.7566 38.9399-41.7566L43.3457-41.7566Q45.2263-50.0017 51.5688-54.3956Q57.9113-58.7895 67.0532-58.7895Q69.2499-58.7895 70.8106-58.4568Q72.3712-58.124 73.3064-57.5209Q74.4045-56.8508 74.852-55.9539Q75.2995-55.0571 75.2995-54.0187Q75.2995-51.2864 73.0022-50.6869Q72.0946-50.2587 70.4732-50.2378Q68.8518-50.2169 67.1622-50.1598Q62.4735-50.0456 58.8058-47.9477Q55.1381-45.8497 53.8263-41.7566L68.7063-41.7566Q71.0298-41.7566 71.0298-39.4848Q71.0298-38.4989 70.401-37.8561Q69.7723-37.2132 68.7063-37.2132L52.7143-37.2132Q52.652-36.829 52.6377-36.3111Q52.6235-35.7932 52.6235-35.2324Q52.6235-34.6032 52.652-33.9911Q52.6806-33.3789 52.7429-33.0404L68.7063-33.0404Q71.0298-33.0404 71.0298-30.7916Q71.0298-29.8054 70.401-29.1484Q69.7723-28.4915 68.7063-28.4915L53.8896-28.4915Q55.2695-24.4727 58.846-22.4119Q62.4226-20.351 67.048-20.2654Q68.8233-20.2368 70.4106-20.2043Q71.9979-20.1717 72.9166-19.772Q75.3851-19.0869 75.3851-16.4175Q75.3851-14.1822 73.3684-12.9946Q72.3708-12.3917 70.8106-12.0449Q69.2503-11.698 66.9961-11.698Z"/>
  </g>
  <g id="Semibold-M" transform="matrix(1 0 0 1 1983.62 1126)">
   <path d="M59.621 15.6559Q70.1203 15.6559 79.3244 11.6886Q88.5284 7.72135 95.5566 0.674869Q102.585-6.37161 106.574-15.5756Q110.564-24.7797 110.564-35.2425Q110.564-45.7053 106.574-54.9093Q102.585-64.1134 95.5384-71.1598Q88.4919-78.2063 79.2879-82.1736Q70.0838-86.1408 59.5845-86.1408Q49.1293-86.1408 39.9215-82.1736Q30.7136-78.2063 23.7075-71.1598Q16.7013-64.1134 12.712-54.9093Q8.72266-45.7053 8.72266-35.2425Q8.72266-24.7797 12.712-15.5756Q16.7013-6.37161 23.7257 0.674869Q30.7501 7.72135 39.958 11.6886Q49.1658 15.6559 59.621 15.6559ZM66.4549-11.4325Q57.7918-11.4325 51.485-15.7532Q45.1782-20.074 43.2271-28.36L38.2967-28.36Q37.2621-28.36 36.6094-29.053Q35.9567-29.746 35.9567-30.7443Q35.9567-31.7685 36.6094-32.425Q37.2621-33.0815 38.2967-33.0815L42.551-33.0815Q42.5434-33.4416 42.5213-34.0267Q42.4993-34.6118 42.4993-35.2243Q42.4993-35.8397 42.4993-36.3458Q42.4993-36.8519 42.5434-37.2777L38.2967-37.2777Q37.2621-37.2777 36.6094-37.9525Q35.9567-38.6272 35.9567-39.6438Q35.9567-40.6786 36.6094-41.3351Q37.2621-41.9916 38.2967-41.9916L43.1833-41.9916Q45.1194-50.3548 51.452-54.6997Q57.7846-59.0446 66.4912-59.0446Q68.5686-59.0446 70.0394-58.764Q71.5102-58.4833 72.4431-57.9843Q73.6074-57.3602 74.058-56.5167Q74.5085-55.6732 74.5085-54.6829Q74.5085-51.9269 71.9591-51.5456Q71.0994-51.2733 69.6435-51.3033Q68.1877-51.3333 66.5379-51.297Q61.5725-51.2243 57.7017-48.8972Q53.8309-46.5701 52.3864-41.9916L67.5116-41.9916Q69.888-41.9916 69.888-39.6438Q69.888-38.6272 69.2315-37.9525Q68.575-37.2777 67.5116-37.2777L51.302-37.2777Q51.2397-36.8519 51.2306-36.3184Q51.2215-35.7849 51.2215-35.2241Q51.2215-34.6302 51.2397-34.0491Q51.2578-33.468 51.3201-33.0815L67.5116-33.0815Q69.888-33.0815 69.888-30.7443Q69.888-29.746 69.2315-29.053Q68.575-28.36 67.5116-28.36L52.3937-28.36Q53.8898-23.804 57.6984-21.4882Q61.5071-19.1723 66.4653-19.1179Q68.1695-19.0997 69.5996-19.1336Q71.0297-19.1676 71.9046-18.9134Q74.563-18.4776 74.563-15.7472Q74.563-13.6163 72.5237-12.5477Q71.5286-12.0303 70.0394-11.7314Q68.5503-11.4325 66.4549-11.4325Z"/>
  </g>
  <g id="Medium-M" transform="matrix(1 0 0 1 1687.4 1126)">
   <path d="M59.1311 15.158Q69.523 15.158 78.6385 11.2287Q87.754 7.29942 94.7174 0.314603Q101.681-6.67021 105.636-15.7857Q109.591-24.9012 109.591-35.2504Q109.591-45.5995 105.636-54.715Q101.681-63.8305 94.696-70.8153Q87.7112-77.8002 78.5957-81.7295Q69.4802-85.6588 59.0883-85.6588Q48.7484-85.6588 39.6283-81.7295Q30.5081-77.8002 23.5707-70.8153Q16.6333-63.8305 12.678-54.715Q8.72266-45.5995 8.72266-35.2504Q8.72266-24.9012 12.678-15.7857Q16.6333-6.67021 23.5921 0.314603Q30.5509 7.29942 39.671 11.2287Q48.7912 15.158 59.1311 15.158ZM66.0446-11.2312Q57.6532-11.2312 51.3477-15.5375Q45.0422-19.8439 43.0677-28.2603L37.809-28.2603Q36.781-28.2603 36.108-28.9806Q35.4351-29.701 35.4351-30.7084Q35.4351-31.7576 36.108-32.4352Q36.781-33.1127 37.809-33.1127L42.3951-33.1127Q42.3858-33.4493 42.3598-34.0337Q42.3338-34.6181 42.3338-35.2401Q42.3338-35.8539 42.3338-36.3616Q42.3338-36.8693 42.3858-37.3266L37.809-37.3266Q36.781-37.3266 36.108-38.0256Q35.4351-38.7245 35.4351-39.7645Q35.4351-40.8147 36.108-41.4922Q36.781-42.1698 37.809-42.1698L43.0601-42.1698Q45.0383-50.6226 51.3634-54.9303Q57.6884-59.2381 66.0651-59.2381Q68.052-59.2381 69.4547-58.9969Q70.8574-58.7557 71.7885-58.3356Q73.003-57.7465 73.4559-56.9434Q73.9088-56.1403 73.9088-55.1866Q73.9088-52.4125 71.1681-52.1967Q70.3448-52.0425 69.0144-52.1111Q67.6841-52.1797 66.0645-52.1592Q60.8892-52.1181 56.8645-49.6172Q52.8398-47.1164 51.2946-42.1698L66.6056-42.1698Q69.0223-42.1698 69.0223-39.7645Q69.0223-38.7245 68.3447-38.0256Q67.6671-37.3266 66.6056-37.3266L50.2311-37.3266Q50.1687-36.8693 50.1636-36.3239Q50.1585-35.7786 50.1585-35.2179Q50.1585-34.6506 50.1687-34.093Q50.179-33.5355 50.2413-33.1127L66.6056-33.1127Q69.0223-33.1127 69.0223-30.7084Q69.0223-29.701 68.3447-28.9806Q67.6671-28.2603 66.6056-28.2603L51.2594-28.2603Q52.8436-23.297 56.8283-20.7878Q60.8129-18.2786 66.0234-18.2478Q67.6738-18.2375 68.9846-18.3218Q70.2955-18.4062 71.1373-18.2623Q73.9396-18.0156 73.9396-15.2389Q73.9396-13.1873 71.8833-12.2089Q70.8899-11.7563 69.4547-11.4937Q68.0195-11.2312 66.0446-11.2312Z"/>
  </g>
  <g id="Regular-M" transform="matrix(1 0 0 1 1391.32 1126)">
   <path d="M58.492 14.5087Q68.7438 14.5087 77.7439 10.6289Q86.7439 6.74907 93.6228-0.155309Q100.502-7.05969 104.413-16.0597Q108.324-25.0598 108.324-35.2606Q108.324-45.4615 104.413-54.4616Q100.502-63.4616 93.5973-70.366Q86.693-77.2704 77.6929-81.1502Q68.6929-85.03 58.441-85.03Q48.2515-85.03 39.2458-81.1502Q30.2401-77.2704 23.3923-70.366Q16.5446-63.4616 12.6336-54.4616Q8.72266-45.4615 8.72266-35.2606Q8.72266-25.0598 12.6336-16.0597Q16.5446-7.05969 23.4178-0.155309Q30.291 6.74907 39.2968 10.6289Q48.3025 14.5087 58.492 14.5087ZM65.5094-10.9685Q57.4724-10.9685 51.1686-15.2561Q44.8648-19.5437 42.8599-28.1302L37.1728-28.1302Q36.1535-28.1302 35.4541-28.8862Q34.7547-29.6423 34.7547-30.6616Q34.7547-31.7433 35.4541-32.4484Q36.1535-33.1534 37.1728-33.1534L42.1916-33.1534Q42.1803-33.4594 42.1491-34.0428Q42.118-34.6263 42.118-35.2606Q42.118-35.8723 42.118-36.3821Q42.118-36.8919 42.1803-37.3903L37.1728-37.3903Q36.1535-37.3903 35.4541-38.1209Q34.7547-38.8514 34.7547-39.9218Q34.7547-40.9921 35.4541-41.6972Q36.1535-42.4022 37.1728-42.4022L42.8995-42.4022Q44.9326-50.9718 51.2478-55.2311Q57.563-59.4905 65.5094-59.4905Q67.3781-59.4905 68.692-59.3008Q70.0059-59.1111 70.9347-58.7939Q72.2146-58.2503 72.6706-57.5Q73.1265-56.7496 73.1265-55.8435Q73.1265-53.0459 70.1365-53.0459Q69.3605-53.0459 68.1939-53.1649Q67.0272-53.2838 65.4471-53.2838Q59.9981-53.2838 55.7725-50.5564Q51.547-47.8289 49.8705-42.4022L65.424-42.4022Q67.8931-42.4022 67.8931-39.9218Q67.8931-38.8514 67.188-38.1209Q66.483-37.3903 65.424-37.3903L48.8342-37.3903Q48.7719-36.8919 48.7719-36.3312Q48.7719-35.7704 48.7719-35.2097Q48.7719-34.6772 48.7719-34.1504Q48.7719-33.6236 48.8342-33.1534L65.424-33.1534Q67.8931-33.1534 67.8931-30.6616Q67.8931-29.6423 67.188-28.8862Q66.483-28.1302 65.424-28.1302L49.7799-28.1302Q51.4791-22.6357 55.6933-19.8743Q59.9075-17.1129 65.4471-17.1129Q67.0272-17.1129 68.1825-17.263Q69.3378-17.413 70.1365-17.413Q73.1265-17.413 73.1265-14.5759Q73.1265-12.6277 71.048-11.767Q70.0568-11.3989 68.692-11.1837Q67.3272-10.9685 65.5094-10.9685Z"/>
  </g>
  <g id="Light-M" transform="matrix(1 0 0 1 1095.44 1126)">
   <path d="M57.664 13.6807Q67.7687 13.6807 76.6123 9.87453Q85.456 6.06831 92.2245-0.716478Q98.993-7.50127 102.83-16.3449Q106.668-25.1886 106.668-35.2606Q106.668-45.3327 102.83-54.1764Q98.993-63.02 92.2082-69.8048Q85.4234-76.5896 76.5798-80.3958Q67.7361-84.202 57.6315-84.202Q47.5892-84.202 38.7306-80.3958Q29.8721-76.5896 23.1348-69.8048Q16.3974-63.02 12.56-54.1764Q8.72266-45.3327 8.72266-35.2606Q8.72266-25.1886 12.56-16.3449Q16.3974-7.50127 23.151-0.716478Q29.9047 6.06831 38.7632 9.87453Q47.6217 13.6807 57.664 13.6807ZM64.2398-12.0909Q56.6077-12.0909 50.589-16.2589Q44.5704-20.4268 42.7495-28.7926L36.7313-28.7926Q35.8775-28.7926 35.3069-29.4106Q34.7363-30.0286 34.7363-30.8824Q34.7363-31.7985 35.3069-32.384Q35.8775-32.9695 36.7313-32.9695L42.21-32.9695Q42.1803-33.3674 42.1491-33.9876Q42.118-34.6079 42.118-35.2606Q42.118-35.8539 42.118-36.3821Q42.118-36.9103 42.1803-37.4087L36.7313-37.4087Q35.8775-37.4087 35.3069-38.0105Q34.7363-38.6122 34.7363-39.4986Q34.7363-40.3849 35.3069-40.9704Q35.8775-41.5559 36.7313-41.5559L42.7523-41.5559Q44.5463-49.9783 50.5947-54.1732Q56.6431-58.3681 64.2398-58.3681Q65.7038-58.3681 66.8245-58.2244Q67.9452-58.0807 68.7636-57.8556Q69.8964-57.4408 70.3339-56.8376Q70.7714-56.2344 70.7714-55.4755Q70.7714-53.1931 68.3885-53.1931Q67.6678-53.1931 66.6299-53.3029Q65.5921-53.4126 64.1775-53.4126Q58.5814-53.4126 54.1718-50.4552Q49.7623-47.4977 48.1962-41.5559L63.7129-41.5559Q65.7404-41.5559 65.7404-39.4986Q65.7404-38.6122 65.155-38.0105Q64.5695-37.4087 63.7129-37.4087L47.3991-37.4087Q47.3368-36.9103 47.3368-36.3496Q47.3368-35.7888 47.3368-35.2281Q47.3368-34.6404 47.3368-34.0676Q47.3368-33.4948 47.3991-32.9695L63.7129-32.9695Q65.7404-32.9695 65.7404-30.8824Q65.7404-30.0286 65.155-29.4106Q64.5695-28.7926 63.7129-28.7926L48.1608-28.7926Q49.7864-22.8749 54.1662-19.9295Q58.546-16.9841 64.1775-16.9841Q65.5921-16.9841 66.6002-17.125Q67.6083-17.2659 68.3885-17.2659Q70.7714-17.2659 70.7714-14.9806Q70.7714-13.3084 68.8585-12.6685Q67.9778-12.4108 66.8245-12.2509Q65.6713-12.0909 64.2398-12.0909Z"/>
  </g>
  <g id="Thin-M" transform="matrix(1 0 0 1 799.828 1126)">
   <path d="M56.569 12.5857Q66.479 12.5857 75.1158 8.87683Q83.7526 5.16794 90.3751-1.45867Q96.9976-8.08529 100.738-16.7221Q104.478-25.3589 104.478-35.2606Q104.478-45.1624 100.738-53.7992Q96.9976-62.436 90.371-69.0626Q83.7444-75.6892 75.1076-79.3981Q66.4707-83.107 56.5608-83.107Q46.7131-83.107 38.0493-79.3981Q29.3854-75.6892 22.7941-69.0626Q16.2027-62.436 12.4627-53.7992Q8.72266-45.1624 8.72266-35.2606Q8.72266-25.3589 12.4627-16.7221Q16.2027-8.08529 22.7982-1.45867Q29.3936 5.16794 38.0575 8.87683Q46.7214 12.5857 56.569 12.5857ZM62.5608-13.5753Q55.464-13.5753 49.8225-17.5851Q44.181-21.5949 42.6035-29.6686L36.1472-29.6686Q35.5125-29.6686 35.1122-30.1041Q34.7119-30.5397 34.7119-31.1744Q34.7119-31.8715 35.1122-32.2988Q35.5125-32.7261 36.1472-32.7261L42.2344-32.7261Q42.1803-33.2457 42.1491-33.9146Q42.118-34.5835 42.118-35.2606Q42.118-35.8296 42.118-36.3821Q42.118-36.9346 42.1803-37.4331L36.1472-37.4331Q35.5125-37.4331 35.1122-37.8645Q34.7119-38.2959 34.7119-38.9389Q34.7119-39.5819 35.1122-40.0092Q35.5125-40.4365 36.1472-40.4365L42.5576-40.4365Q44.0353-48.6642 49.7308-52.774Q55.4264-56.8837 62.5608-56.8837Q63.4894-56.8837 64.3546-56.8009Q65.2198-56.718 65.8922-56.6146Q66.8303-56.3701 67.2435-55.9616Q67.6567-55.5531 67.6567-54.9888Q67.6567-53.3878 66.0768-53.3878Q65.4291-53.3878 64.5615-53.4854Q63.694-53.5829 62.4985-53.5829Q56.7076-53.5829 52.0547-50.3213Q47.4019-47.0597 45.9818-40.4365L61.4498-40.4365Q62.8933-40.4365 62.8933-38.9389Q62.8933-38.2959 62.466-37.8645Q62.0387-37.4331 61.4498-37.4331L45.501-37.4331Q45.4387-36.9346 45.4387-36.3739Q45.4387-35.8132 45.4387-35.2524Q45.4387-34.5917 45.4387-33.9581Q45.4387-33.3245 45.501-32.7261L61.4498-32.7261Q62.8933-32.7261 62.8933-31.1744Q62.8933-30.5397 62.466-30.1041Q62.0387-29.6686 61.4498-29.6686L46.0194-29.6686Q47.5476-23.1912 52.1464-20.0025Q56.7453-16.8137 62.4985-16.8137Q63.694-16.8137 64.5075-16.9425Q65.3209-17.0712 66.0768-17.0712Q67.6567-17.0712 67.6567-15.516Q67.6567-14.2088 65.9627-13.8609Q65.228-13.7492 64.3546-13.6622Q63.4812-13.5753 62.5608-13.5753Z"/>
  </g>
  <g id="Ultralight-M" transform="matrix(1 0 0 1 503.679 1126)">
   <path d="M56.0081 12.0248Q65.8184 12.0248 74.3492 8.36581Q82.8801 4.70678 89.4278-1.83882Q95.9756-8.38442 99.6657-16.9153Q103.356-25.4462 103.356-35.2606Q103.356-45.0751 99.6657-53.606Q95.9756-62.1369 89.43-68.6825Q82.8844-75.2281 74.3535-78.8871Q65.8226-82.5461 56.0124-82.5461Q46.2644-82.5461 37.7003-78.8871Q29.1361-75.2281 22.6196-68.6825Q16.103-62.1369 12.4128-53.606Q8.72266-45.0751 8.72266-35.2606Q8.72266-25.4462 12.4128-16.9153Q16.103-8.38442 22.6175-1.83882Q29.1319 4.70678 37.6961 8.36581Q46.2602 12.0248 56.0081 12.0248ZM61.7008-14.3355Q54.8782-14.3355 49.4299-18.2643Q43.9816-22.1932 42.5287-30.1173L35.8481-30.1173Q35.3255-30.1173 35.0125-30.4593Q34.6995-30.8014 34.6995-31.324Q34.6995-31.9089 35.0125-32.2552Q35.3255-32.6015 35.8481-32.6015L42.2468-32.6015Q42.1803-33.1834 42.1491-33.8772Q42.118-34.5711 42.118-35.2606Q42.118-35.8171 42.118-36.3821Q42.118-36.9471 42.1803-37.4455L35.8481-37.4455Q35.3255-37.4455 35.0125-37.7897Q34.6995-38.1339 34.6995-38.6522Q34.6995-39.1706 35.0125-39.5169Q35.3255-39.8632 35.8481-39.8632L42.4579-39.8632Q43.7735-47.9912 49.2883-52.0573Q54.8032-56.1234 61.7008-56.1234Q62.3552-56.1234 63.0895-56.0717Q63.8238-56.02 64.4214-55.9789Q65.2598-55.8217 65.6606-55.5129Q66.0613-55.2041 66.0613-54.7396Q66.0613-53.4875 64.8927-53.4875Q64.2824-53.4875 63.5021-53.5789Q62.7218-53.6702 61.6385-53.6702Q55.7479-53.6702 50.9704-50.2528Q46.1929-46.8353 44.8476-39.8632L60.2907-39.8632Q61.4351-39.8632 61.4351-38.6522Q61.4351-38.1339 61.0888-37.7897Q60.7425-37.4455 60.2907-37.4455L44.5288-37.4455Q44.4665-36.9471 44.4665-36.3864Q44.4665-35.8256 44.4665-35.2649Q44.4665-34.5668 44.4665-33.902Q44.4665-33.2372 44.5288-32.6015L60.2907-32.6015Q61.4351-32.6015 61.4351-31.324Q61.4351-30.8014 61.0888-30.4593Q60.7425-30.1173 60.2907-30.1173L44.9226-30.1173Q46.401-23.3532 51.1119-20.0399Q55.8229-16.7265 61.6385-16.7265Q62.7218-16.7265 63.4356-16.849Q64.1493-16.9715 64.8927-16.9715Q66.0613-16.9715 66.0613-15.7902Q66.0613-14.67 64.4795-14.4716Q63.8196-14.4347 63.0895-14.3851Q62.3594-14.3355 61.7008-14.3355Z"/>
  </g>
  <g id="Black-S" transform="matrix(1 0 0 1 2884.57 696)">
   <path d="M48.8281 6.78711Q57.5195 6.78711 65.1123 3.51562Q72.7051 0.244141 78.4912-5.54199Q84.2773-11.3281 87.5488-18.9209Q90.8203-26.5137 90.8203-35.2051Q90.8203-43.8965 87.5488-51.4893Q84.2773-59.082 78.4912-64.8682Q72.7051-70.6543 65.1123-73.9258Q57.5195-77.1973 48.8281-77.1973Q40.1367-77.1973 32.5439-73.9258Q24.9512-70.6543 19.165-64.8682Q13.3789-59.082 10.1074-51.4893Q6.83594-43.8965 6.83594-35.2051Q6.83594-26.5137 10.1074-18.9209Q13.3789-11.3281 19.165-5.54199Q24.9512 0.244141 32.5439 3.51562Q40.1367 6.78711 48.8281 6.78711ZM53.8086-17.5293Q45.8496-17.5293 40.918-20.9717Q35.9863-24.4141 34.5703-30.3223L32.1289-30.3223Q31.2988-30.3223 30.8838-30.7373Q30.4688-31.1523 30.4688-31.8848Q30.4688-32.5684 30.8838-32.9834Q31.2988-33.3984 32.1289-33.3984L34.0332-33.3984Q34.0332-33.7891 34.0332-34.2529Q34.0332-34.7168 34.0332-35.1562Q34.0332-35.6445 34.0332-36.0352Q34.0332-36.4258 34.0332-36.6211L32.1289-36.6211Q31.2988-36.6211 30.8838-37.0361Q30.4688-37.4512 30.4688-38.1348Q30.4688-38.8672 30.8838-39.2822Q31.2988-39.6973 32.1289-39.6973L34.375-39.6973Q35.6934-45.8496 40.6738-49.4141Q45.6543-52.9785 53.9062-52.9785Q55.9082-52.9785 57.3486-52.5879Q58.7891-52.1973 59.5215-51.4648Q60.2051-50.8301 60.5469-50Q60.8887-49.1699 60.8887-48.2422Q60.8887-46.1914 59.7656-45.166Q58.9355-44.4336 57.251-44.2871Q55.5664-44.1406 54.1504-44.043Q51.1719-43.8477 48.8037-42.7734Q46.4355-41.6992 45.752-39.6973L56.7871-39.6973Q58.4473-39.6973 58.4473-38.1348Q58.4473-37.4512 58.0322-37.0361Q57.6172-36.6211 56.7871-36.6211L44.8242-36.6211Q44.7754-36.4258 44.751-36.0596Q44.7266-35.6934 44.7266-35.2539Q44.7266-34.668 44.7754-34.1064Q44.8242-33.5449 44.873-33.3984L56.7871-33.3984Q58.4473-33.3984 58.4473-31.8848Q58.4473-31.1523 58.0322-30.7373Q57.6172-30.3223 56.7871-30.3223L45.9473-30.3223Q46.7285-28.5156 48.9502-27.5391Q51.1719-26.5625 53.9551-26.416Q55.5176-26.3672 57.1533-26.1719Q58.7891-25.9766 59.6191-25.293Q61.0352-24.1211 61.0352-22.2168Q61.0352-20.2148 59.5215-18.9941Q58.7402-18.3105 57.3486-17.9199Q55.957-17.5293 53.8086-17.5293Z"/>
  </g>
  <g id="Heavy-S" transform="matrix(1 0 0 1 2588.47 696)">
   <path d="M48.2173 6.16479Q56.7704 6.16479 64.2537 2.9394Q71.737-0.285985 77.4425-5.99721Q83.1479-11.7084 86.3791-19.1917Q89.6102-26.675 89.6102-35.2166Q89.6102-43.7582 86.3791-51.2415Q83.1479-58.7248 77.4367-64.436Q71.7255-70.1472 64.2422-73.3726Q56.7589-76.598 48.2058-76.598Q39.6642-76.598 32.1809-73.3726Q24.6976-70.1472 18.9979-64.436Q13.2982-58.7248 10.0671-51.2415Q6.83594-43.7582 6.83594-35.2166Q6.83594-26.675 10.0671-19.1917Q13.2982-11.7084 19.0037-5.99721Q24.7092-0.285985 32.1924 2.9394Q39.6757 6.16479 48.2173 6.16479ZM53.3707-17.0914Q45.7574-17.0914 40.7912-20.528Q35.825-23.9646 34.3513-30.0918L31.472-30.0918Q30.6304-30.0918 30.1693-30.5644Q29.7081-31.0371 29.7081-31.8041Q29.7081-32.5453 30.1693-33.0064Q30.6304-33.4676 31.472-33.4676L33.8027-33.4676Q33.8027-33.8121 33.797-34.2702Q33.7912-34.7283 33.7912-35.1793Q33.7912-35.6676 33.7912-36.0582Q33.7912-36.4488 33.8027-36.6902L31.472-36.6902Q30.6304-36.6902 30.1693-37.1571Q29.7081-37.624 29.7081-38.3653Q29.7081-39.1438 30.1693-39.6049Q30.6304-40.066 31.472-40.066L34.2137-40.066Q35.6242-46.3682 40.6277-49.8866Q45.6312-53.4049 53.4453-53.4049Q55.3666-53.4049 56.7321-53.0662Q58.0976-52.7274 58.8415-52.0987Q59.6173-51.4985 59.9649-50.7088Q60.3124-49.919 60.3124-49.0259Q60.3124-46.8829 58.8321-46.0995Q58.0482-45.5399 56.5307-45.4511Q55.0132-45.3622 53.6203-45.2876Q50.3536-45.1384 47.7838-43.8395Q45.214-42.5405 44.369-40.066L55.6808-40.066Q57.4562-40.066 57.4562-38.3653Q57.4562-37.624 56.995-37.1571Q56.5339-36.6902 55.6808-36.6902L43.4413-36.6902Q43.3925-36.4488 43.3738-36.0653Q43.3552-35.6818 43.3552-35.2424Q43.3552-34.7025 43.3925-34.1814Q43.4298-33.6602 43.4786-33.4676L55.6808-33.4676Q57.4562-33.4676 57.4562-31.8041Q57.4562-31.0371 56.995-30.5644Q56.5339-30.0918 55.6808-30.0918L44.4952-30.0918Q45.4147-27.7435 47.8727-26.5076Q50.3306-25.2718 53.4711-25.1598Q54.9759-25.1225 56.4561-25.0021Q57.9363-24.8817 58.7202-24.3595Q60.4244-23.4642 60.4244-21.4216Q60.4244-19.5003 58.8646-18.3833Q58.0718-17.7804 56.7321-17.4359Q55.3923-17.0914 53.3707-17.0914Z"/>
  </g>
  <g id="Bold-S" transform="matrix(1 0 0 1 2292.43 696)">
   <path d="M47.5342 5.46875Q55.9326 5.46875 63.2935 2.29492Q70.6543-0.878906 76.2695-6.50635Q81.8848-12.1338 85.0708-19.4946Q88.2568-26.8555 88.2568-35.2295Q88.2568-43.6035 85.0708-50.9644Q81.8848-58.3252 76.2573-63.9526Q70.6299-69.5801 63.269-72.7539Q55.9082-75.9277 47.5098-75.9277Q39.1357-75.9277 31.7749-72.7539Q24.4141-69.5801 18.811-63.9526Q13.208-58.3252 10.022-50.9644Q6.83594-43.6035 6.83594-35.2295Q6.83594-26.8555 10.022-19.4946Q13.208-12.1338 18.8232-6.50635Q24.4385-0.878906 31.7993 2.29492Q39.1602 5.46875 47.5342 5.46875ZM52.8809-16.6016Q45.6543-16.6016 40.6494-20.0317Q35.6445-23.4619 34.1064-29.834L30.7373-29.834Q29.8828-29.834 29.3701-30.3711Q28.8574-30.9082 28.8574-31.7139Q28.8574-32.5195 29.3701-33.0322Q29.8828-33.5449 30.7373-33.5449L33.5449-33.5449Q33.5449-33.8379 33.5327-34.2896Q33.5205-34.7412 33.5205-35.2051Q33.5205-35.6934 33.5205-36.084Q33.5205-36.4746 33.5449-36.7676L30.7373-36.7676Q29.8828-36.7676 29.3701-37.2925Q28.8574-37.8174 28.8574-38.623Q28.8574-39.4531 29.3701-39.9658Q29.8828-40.4785 30.7373-40.4785L34.0332-40.4785Q35.5469-46.9482 40.5762-50.415Q45.6055-53.8818 52.9297-53.8818Q54.7607-53.8818 56.0425-53.6011Q57.3242-53.3203 58.0811-52.8076Q58.96-52.2461 59.314-51.5015Q59.668-50.7568 59.668-49.9023Q59.668-47.6562 57.7881-47.1436Q57.0557-46.7773 55.7251-46.7529Q54.3945-46.7285 53.0273-46.6797Q49.4385-46.582 46.6431-45.0317Q43.8477-43.4814 42.8223-40.4785L54.4434-40.4785Q56.3477-40.4785 56.3477-38.623Q56.3477-37.8174 55.835-37.2925Q55.3223-36.7676 54.4434-36.7676L41.8945-36.7676Q41.8457-36.4746 41.8335-36.0718Q41.8213-35.6689 41.8213-35.2295Q41.8213-34.7412 41.8457-34.2651Q41.8701-33.7891 41.9189-33.5449L54.4434-33.5449Q56.3477-33.5449 56.3477-31.7139Q56.3477-30.9082 55.835-30.3711Q55.3223-29.834 54.4434-29.834L42.8711-29.834Q43.9453-26.8799 46.6675-25.354Q49.3896-23.8281 52.9297-23.7549Q54.3701-23.7305 55.6763-23.6938Q56.9824-23.6572 57.7148-23.3154Q59.7412-22.7295 59.7412-20.5322Q59.7412-18.7012 58.1299-17.7002Q57.3242-17.1875 56.0425-16.8945Q54.7607-16.6016 52.8809-16.6016Z"/>
  </g>
  <g id="Semibold-S" transform="matrix(1 0 0 1 1996.19 696)">
   <path d="M47.0632 4.98887Q55.355 4.98887 62.6314 1.85059Q69.9078-1.2877 75.4608-6.85737Q81.0139-12.4271 84.1688-19.7035Q87.3237-26.9799 87.3237-35.2384Q87.3237-43.4969 84.1688-50.7733Q81.0139-58.0497 75.4442-63.6194Q69.8745-69.1891 62.5981-72.3273Q55.3217-75.4656 47.0299-75.4656Q38.7714-75.4656 31.495-72.3273Q24.2186-69.1891 18.6822-63.6194Q13.1458-58.0497 9.99087-50.7733Q6.83594-43.4969 6.83594-35.2384Q6.83594-26.9799 9.99087-19.7035Q13.1458-12.4271 18.6988-6.85737Q24.2519-1.2877 31.5283 1.85059Q38.8047 4.98887 47.0632 4.98887ZM52.5432-16.2639Q45.5832-16.2639 40.5517-19.6896Q35.5201-23.1153 33.9376-29.6562L30.2308-29.6562Q29.3674-29.6562 28.8191-30.2378Q28.2709-30.8193 28.2709-31.6517Q28.2709-32.5018 28.8191-33.05Q29.3674-33.5982 30.2308-33.5982L33.3672-33.5982Q33.3672-33.8557 33.3505-34.3029Q33.3339-34.7501 33.3339-35.2229Q33.3339-35.7111 33.3339-36.1018Q33.3339-36.4924 33.3672-36.8209L30.2308-36.8209Q29.3674-36.8209 28.8191-37.3858Q28.2709-37.9507 28.2709-38.8008Q28.2709-39.6664 28.8191-40.2146Q29.3674-40.7629 30.2308-40.7629L33.9088-40.7629Q35.4936-47.3481 40.5406-50.7794Q45.5877-54.2106 52.5742-54.2106Q54.3431-54.2106 55.567-53.9699Q56.791-53.7291 57.5567-53.2964Q58.5067-52.7615 58.8652-52.048Q59.2236-51.3345 59.2236-50.5066Q59.2236-48.1895 57.0683-47.8634Q56.3714-47.6305 55.1697-47.6505Q53.968-47.6705 52.6186-47.6395Q48.8075-47.5773 45.8566-45.8538Q42.9057-44.1302 41.7559-40.7629L53.5902-40.7629Q55.5834-40.7629 55.5834-38.8008Q55.5834-37.9507 55.0352-37.3858Q54.4869-36.8209 53.5902-36.8209L40.8281-36.8209Q40.7793-36.4924 40.7715-36.0762Q40.7638-35.6601 40.7638-35.2206Q40.7638-34.7679 40.7793-34.3229Q40.7948-33.8779 40.8437-33.5982L53.5902-33.5982Q55.5834-33.5982 55.5834-31.6517Q55.5834-30.8193 55.0352-30.2378Q54.4869-29.6562 53.5902-29.6562L41.7514-29.6562Q42.9322-26.2845 45.8366-24.5586Q48.7409-22.8328 52.5564-22.7862Q53.9524-22.7707 55.1386-22.7918Q56.3248-22.813 57.0217-22.5956Q59.2702-22.2229 59.2702-19.919Q59.2702-18.1502 57.6233-17.2292Q56.8088-16.7787 55.567-16.5213Q54.3253-16.2639 52.5432-16.2639Z"/>
  </g>
  <g id="Medium-S" transform="matrix(1 0 0 1 1699.83 696)">
   <path d="M46.7061 4.625Q54.917 4.625 62.1294 1.51367Q69.3418-1.59766 74.8477-7.12354Q80.3535-12.6494 83.4849-19.8618Q86.6162-27.0742 86.6162-35.2451Q86.6162-43.416 83.4849-50.6284Q80.3535-57.8408 74.8276-63.3667Q69.3018-68.8926 62.0894-72.0039Q54.877-75.1152 46.666-75.1152Q38.4951-75.1152 31.2827-72.0039Q24.0703-68.8926 18.5845-63.3667Q13.0986-57.8408 9.96729-50.6284Q6.83594-43.416 6.83594-35.2451Q6.83594-27.0742 9.96729-19.8618Q13.0986-12.6494 18.6045-7.12354Q24.1104-1.59766 31.3228 1.51367Q38.5352 4.625 46.7061 4.625ZM52.2871-16.0078Q45.5293-16.0078 40.4775-19.4302Q35.4258-22.8525 33.8096-29.5215L29.8467-29.5215Q28.9766-29.5215 28.4014-30.1367Q27.8262-30.752 27.8262-31.6045Q27.8262-32.4883 28.4014-33.0635Q28.9766-33.6387 29.8467-33.6387L33.2324-33.6387Q33.2324-33.8691 33.2124-34.313Q33.1924-34.7568 33.1924-35.2363Q33.1924-35.7246 33.1924-36.1152Q33.1924-36.5059 33.2324-36.8613L29.8467-36.8613Q28.9766-36.8613 28.4014-37.4565Q27.8262-38.0518 27.8262-38.9355Q27.8262-39.8281 28.4014-40.4033Q28.9766-40.9785 29.8467-40.9785L33.8145-40.9785Q35.4531-47.6514 40.5137-51.0557Q45.5742-54.46 52.3047-54.46Q54.0264-54.46 55.2065-54.2495Q56.3867-54.0391 57.1592-53.667Q58.1631-53.1523 58.5249-52.4624Q58.8867-51.7725 58.8867-50.9648Q58.8867-48.5938 56.5225-48.4092Q55.8525-48.2773 54.7485-48.3311Q53.6445-48.3848 52.3086-48.3672Q48.3291-48.332 45.2603-46.4771Q42.1914-44.6221 40.9473-40.9785L52.9434-40.9785Q55.0039-40.9785 55.0039-38.9355Q55.0039-38.0518 54.4287-37.4565Q53.8535-36.8613 52.9434-36.8613L40.0195-36.8613Q39.9707-36.5059 39.9663-36.0796Q39.9619-35.6533 39.9619-35.2139Q39.9619-34.7881 39.9707-34.3667Q39.9795-33.9453 40.0283-33.6387L52.9434-33.6387Q55.0039-33.6387 55.0039-31.6045Q55.0039-30.752 54.4287-30.1367Q53.8535-29.5215 52.9434-29.5215L40.9023-29.5215Q42.1641-25.833 45.2065-23.9556Q48.249-22.0781 52.2734-22.0518Q53.6357-22.043 54.731-22.1079Q55.8262-22.1729 56.4961-22.0498Q58.9131-21.8389 58.9131-19.4541Q58.9131-17.7324 57.2393-16.8721Q56.418-16.4688 55.2065-16.2383Q53.9951-16.0078 52.2871-16.0078Z"/>
  </g>
  <g id="Regular-S" transform="matrix(1 0 0 1 1403.58 696)">
   <path d="M46.2402 4.15039Q54.3457 4.15039 61.4746 1.07422Q68.6035-2.00195 74.0479-7.4707Q79.4922-12.9395 82.5928-20.0684Q85.6934-27.1973 85.6934-35.2539Q85.6934-43.3105 82.5928-50.4395Q79.4922-57.5684 74.0234-63.0371Q68.5547-68.5059 61.4258-71.582Q54.2969-74.6582 46.1914-74.6582Q38.1348-74.6582 31.0059-71.582Q23.877-68.5059 18.457-63.0371Q13.0371-57.5684 9.93652-50.4395Q6.83594-43.3105 6.83594-35.2539Q6.83594-27.1973 9.93652-20.0684Q13.0371-12.9395 18.4814-7.4707Q23.9258-2.00195 31.0547 1.07422Q38.1836 4.15039 46.2402 4.15039ZM51.9531-15.6738Q45.459-15.6738 40.3809-19.0918Q35.3027-22.5098 33.6426-29.3457L29.3457-29.3457Q28.4668-29.3457 27.8564-30.0049Q27.2461-30.6641 27.2461-31.543Q27.2461-32.4707 27.8564-33.0811Q28.4668-33.6914 29.3457-33.6914L33.0566-33.6914Q33.0566-33.8867 33.0322-34.3262Q33.0078-34.7656 33.0078-35.2539Q33.0078-35.7422 33.0078-36.1328Q33.0078-36.5234 33.0566-36.9141L29.3457-36.9141Q28.4668-36.9141 27.8564-37.5488Q27.2461-38.1836 27.2461-39.1113Q27.2461-40.0391 27.8564-40.6494Q28.4668-41.2598 29.3457-41.2598L33.6914-41.2598Q35.4004-48.0469 40.4785-51.416Q45.5566-54.7852 51.9531-54.7852Q53.6133-54.7852 54.7363-54.6143Q55.8594-54.4434 56.6406-54.1504Q57.7148-53.6621 58.0811-53.0029Q58.4473-52.3438 58.4473-51.5625Q58.4473-49.1211 55.8105-49.1211Q55.1758-49.1211 54.1992-49.2188Q53.2227-49.3164 51.9043-49.3164Q47.7051-49.3164 44.4824-47.29Q41.2598-45.2637 39.8926-41.2598L52.0996-41.2598Q54.248-41.2598 54.248-39.1113Q54.248-38.1836 53.6377-37.5488Q53.0273-36.9141 52.0996-36.9141L38.9648-36.9141Q38.916-36.5234 38.916-36.084Q38.916-35.6445 38.916-35.2051Q38.916-34.8145 38.916-34.4238Q38.916-34.0332 38.9648-33.6914L52.0996-33.6914Q54.248-33.6914 54.248-31.543Q54.248-30.6641 53.6377-30.0049Q53.0273-29.3457 52.0996-29.3457L39.7949-29.3457Q41.1621-25.2441 44.3848-23.1689Q47.6074-21.0938 51.9043-21.0938Q53.2227-21.0938 54.1992-21.2158Q55.1758-21.3379 55.8105-21.3379Q58.4473-21.3379 58.4473-18.8477Q58.4473-17.1875 56.7383-16.4062Q55.9082-16.0645 54.7363-15.8691Q53.5645-15.6738 51.9531-15.6738Z"/>
  </g>
  <g id="Light-S" transform="matrix(1 0 0 1 1107.6 696)">
   <path d="M45.5078 3.41797Q53.4831 3.41797 60.4736 0.406901Q67.4642-2.60417 72.8109-7.96712Q78.1576-13.3301 81.193-20.3206Q84.2285-27.3112 84.2285-35.2539Q84.2285-43.1966 81.193-50.1872Q78.1576-57.1777 72.7946-62.5407Q67.4316-67.9036 60.4411-70.9147Q53.4505-73.9258 45.4753-73.9258Q37.5488-73.9258 30.5501-70.9147Q23.5514-67.9036 18.2292-62.5407Q12.9069-57.1777 9.87142-50.1872Q6.83594-43.1966 6.83594-35.2539Q6.83594-27.3112 9.87142-20.3206Q12.9069-13.3301 18.2454-7.96712Q23.584-2.60417 30.5827 0.406901Q37.5814 3.41797 45.5078 3.41797ZM50.8301-16.6667Q44.694-16.6667 39.8682-19.9788Q35.0423-23.291 33.5449-29.9316L28.9551-29.9316Q28.2227-29.9316 27.7262-30.4688Q27.2298-31.0059 27.2298-31.7383Q27.2298-32.5195 27.7262-33.0241Q28.2227-33.5286 28.9551-33.5286L33.0729-33.5286Q33.0566-33.8053 33.0322-34.2773Q33.0078-34.7493 33.0078-35.2539Q33.0078-35.7259 33.0078-36.1328Q33.0078-36.5397 33.0566-36.9303L28.9551-36.9303Q28.2227-36.9303 27.7262-37.4512Q27.2298-37.972 27.2298-38.737Q27.2298-39.502 27.7262-40.0065Q28.2227-40.5111 28.9551-40.5111L33.5612-40.5111Q35.0586-47.168 39.9007-50.4801Q44.7428-53.7923 50.8301-53.7923Q52.1322-53.7923 53.0843-53.6621Q54.0365-53.5319 54.7201-53.3203Q55.6641-52.946 56.014-52.417Q56.3639-51.888 56.3639-51.237Q56.3639-49.2513 54.2643-49.2513Q53.6784-49.2513 52.8158-49.3408Q51.9531-49.4303 50.7812-49.4303Q46.4518-49.4303 43.0664-47.2005Q39.681-44.9707 38.4115-40.5111L50.5859-40.5111Q52.3438-40.5111 52.3438-38.737Q52.3438-37.972 51.8392-37.4512Q51.3346-36.9303 50.5859-36.9303L37.6953-36.9303Q37.6465-36.5397 37.6465-36.1003Q37.6465-35.6608 37.6465-35.2214Q37.6465-34.7819 37.6465-34.3506Q37.6465-33.9193 37.6953-33.5286L50.5859-33.5286Q52.3438-33.5286 52.3438-31.7383Q52.3438-31.0059 51.8392-30.4688Q51.3346-29.9316 50.5859-29.9316L38.3626-29.9316Q39.6647-25.4557 43.0339-23.2178Q46.403-20.9798 50.7812-20.9798Q51.9531-20.9798 52.7995-21.0938Q53.6458-21.2077 54.2643-21.2077Q56.3639-21.2077 56.3639-19.2057Q56.3639-17.7897 54.8014-17.2038Q54.069-16.9596 53.0843-16.8132Q52.0996-16.6667 50.8301-16.6667Z"/>
  </g>
  <g id="Thin-S" transform="matrix(1 0 0 1 811.863 696)">
   <path d="M44.5391 2.44928Q52.3422 2.44928 59.1498-0.47568Q65.9573-3.40064 71.1749-8.62368Q76.3924-13.8467 79.3418-20.6543Q82.2911-27.4619 82.2911-35.2539Q82.2911-43.0459 79.3418-49.8535Q76.3924-56.6611 71.1694-61.8841Q65.9463-67.1072 59.1387-70.0321Q52.3311-72.9571 44.5281-72.9571Q36.7739-72.9571 29.9474-70.0321Q23.1209-67.1072 17.9278-61.8841Q12.7347-56.6611 9.78531-49.8535Q6.83594-43.0459 6.83594-35.2539Q6.83594-27.4619 9.78531-20.6543Q12.7347-13.8467 17.9333-8.62368Q23.1319-3.40064 29.9584-0.47568Q36.7849 2.44928 44.5391 2.44928ZM49.3448-17.9798Q43.6823-17.9798 39.1901-21.152Q34.6979-24.3243 33.4158-30.7066L28.4384-30.7066Q27.8998-30.7066 27.554-31.0823Q27.2083-31.4579 27.2083-31.9966Q27.2083-32.5841 27.554-32.9487Q27.8998-33.3134 28.4384-33.3134L33.0944-33.3134Q33.0566-33.6977 33.0322-34.2128Q33.0078-34.7278 33.0078-35.2539Q33.0078-35.7044 33.0078-36.1328Q33.0078-36.5612 33.0566-36.9519L28.4384-36.9519Q27.8998-36.9519 27.554-37.322Q27.2083-37.6922 27.2083-38.2419Q27.2083-38.7916 27.554-39.1562Q27.8998-39.5209 28.4384-39.5209L33.389-39.5209Q34.6065-46.0055 39.1365-49.2424Q43.6665-52.4792 49.3448-52.4792Q50.1733-52.4792 50.8994-52.4028Q51.6255-52.3264 52.1799-52.2225Q52.9517-51.9988 53.2801-51.642Q53.6086-51.2853 53.6086-50.8065Q53.6086-49.4235 52.2193-49.4235Q51.698-49.4235 50.986-49.5023Q50.2741-49.581 49.2959-49.581Q44.7943-49.581 41.1936-47.0821Q37.5929-44.5832 36.4526-39.5209L48.584-39.5209Q49.8252-39.5209 49.8252-38.2419Q49.8252-37.6922 49.4605-37.322Q49.0959-36.9519 48.584-36.9519L36.0163-36.9519Q35.9674-36.5612 35.9674-36.1218Q35.9674-35.6823 35.9674-35.2429Q35.9674-34.7388 35.9674-34.2537Q35.9674-33.7686 36.0163-33.3134L48.584-33.3134Q49.8252-33.3134 49.8252-31.9966Q49.8252-31.4579 49.4605-31.0823Q49.0959-30.7066 48.584-30.7066L36.4683-30.7066Q37.6843-25.7356 41.2472-23.2824Q44.81-20.8291 49.2959-20.8291Q50.2741-20.8291 50.9482-20.9323Q51.6224-21.0355 52.2193-21.0355Q53.6086-21.0355 53.6086-19.6793Q53.6086-18.5862 52.2398-18.2586Q51.6365-18.1436 50.8994-18.0617Q50.1622-17.9798 49.3448-17.9798Z"/>
  </g>
  <g id="Ultralight-S" transform="matrix(1 0 0 1 515.649 696)">
   <path d="M44.043 1.95312Q51.7578 1.95312 58.4717-0.927734Q65.1855-3.80859 70.3369-8.95996Q75.4883-14.1113 78.3936-20.8252Q81.2988-27.5391 81.2988-35.2539Q81.2988-42.9688 78.3936-49.6826Q75.4883-56.3965 70.3369-61.5479Q65.1855-66.6992 58.4717-69.5801Q51.7578-72.4609 44.043-72.4609Q36.377-72.4609 29.6387-69.5801Q22.9004-66.6992 17.7734-61.5479Q12.6465-56.3965 9.74121-49.6826Q6.83594-42.9688 6.83594-35.2539Q6.83594-27.5391 9.74121-20.8252Q12.6465-14.1113 17.7734-8.95996Q22.9004-3.80859 29.6387-0.927734Q36.377 1.95312 44.043 1.95312ZM48.584-18.6523Q43.1641-18.6523 38.8428-21.7529Q34.5215-24.8535 33.3496-31.1035L28.1738-31.1035Q27.7344-31.1035 27.4658-31.3965Q27.1973-31.6895 27.1973-32.1289Q27.1973-32.6172 27.4658-32.9102Q27.7344-33.2031 28.1738-33.2031L33.1055-33.2031Q33.0566-33.6426 33.0322-34.1797Q33.0078-34.7168 33.0078-35.2539Q33.0078-35.6934 33.0078-36.1328Q33.0078-36.5723 33.0566-36.9629L28.1738-36.9629Q27.7344-36.9629 27.4658-37.2559Q27.1973-37.5488 27.1973-37.9883Q27.1973-38.4277 27.4658-38.7207Q27.7344-39.0137 28.1738-39.0137L33.3008-39.0137Q34.375-45.4102 38.7451-48.6084Q43.1152-51.8066 48.584-51.8066Q49.1699-51.8066 49.7803-51.7578Q50.3906-51.709 50.8789-51.6602Q51.5625-51.5137 51.8799-51.2451Q52.1973-50.9766 52.1973-50.5859Q52.1973-49.5117 51.1719-49.5117Q50.6836-49.5117 50.0488-49.585Q49.4141-49.6582 48.5352-49.6582Q43.9453-49.6582 40.2344-47.0215Q36.5234-44.3848 35.4492-39.0137L47.5586-39.0137Q48.5352-39.0137 48.5352-37.9883Q48.5352-37.5488 48.2422-37.2559Q47.9492-36.9629 47.5586-36.9629L35.1562-36.9629Q35.1074-36.5723 35.1074-36.1328Q35.1074-35.6934 35.1074-35.2539Q35.1074-34.7168 35.1074-34.2041Q35.1074-33.6914 35.1562-33.2031L47.5586-33.2031Q48.5352-33.2031 48.5352-32.1289Q48.5352-31.6895 48.2422-31.3965Q47.9492-31.1035 47.5586-31.1035L35.498-31.1035Q36.6699-25.8789 40.332-23.3154Q43.9941-20.752 48.5352-20.752Q49.4141-20.752 50-20.8496Q50.5859-20.9473 51.1719-20.9473Q52.1973-20.9473 52.1973-19.9219Q52.1973-18.9941 50.9277-18.7988Q50.3906-18.75 49.7803-18.7012Q49.1699-18.6523 48.584-18.6523Z"/>
  </g>
 </g>
</svg>
