<?xml version="1.0" encoding="UTF-8"?>
<!--Generator: Apple Native CoreSVG 175-->
<!DOCTYPE svg
PUBLIC "-//W3C//DTD SVG 1.1//EN"
       "http://www.w3.org/Graphics/SVG/1.1/DTD/svg11.dtd">
<svg version="1.1" xmlns="http://www.w3.org/2000/svg" xmlns:xlink="http://www.w3.org/1999/xlink" width="3300" height="2200">
 <!--glyph: "uni1005A7.medium", point size: 100.0, font version: "17.1d1e1", template writer version: "65.1"-->
 <g id="Notes">
  <rect height="2200" id="artboard" style="fill:white;opacity:1" width="3300" x="0" y="0"/>
  <line style="fill:none;stroke:black;opacity:1;stroke-width:0.5;" x1="263" x2="3036" y1="292" y2="292"/>
  <text style="stroke:none;fill:black;font-family:sans-serif;font-size:13;font-weight:bold;" transform="matrix(1 0 0 1 263 322)">Weight/Scale Variations</text>
  <text style="stroke:none;fill:black;font-family:sans-serif;font-size:13;text-anchor:middle;" transform="matrix(1 0 0 1 559.711 322)">Ultralight</text>
  <text style="stroke:none;fill:black;font-family:sans-serif;font-size:13;text-anchor:middle;" transform="matrix(1 0 0 1 856.422 322)">Thin</text>
  <text style="stroke:none;fill:black;font-family:sans-serif;font-size:13;text-anchor:middle;" transform="matrix(1 0 0 1 1153.13 322)">Light</text>
  <text style="stroke:none;fill:black;font-family:sans-serif;font-size:13;text-anchor:middle;" transform="matrix(1 0 0 1 1449.84 322)">Regular</text>
  <text style="stroke:none;fill:black;font-family:sans-serif;font-size:13;text-anchor:middle;" transform="matrix(1 0 0 1 1746.56 322)">Medium</text>
  <text style="stroke:none;fill:black;font-family:sans-serif;font-size:13;text-anchor:middle;" transform="matrix(1 0 0 1 2043.27 322)">Semibold</text>
  <text style="stroke:none;fill:black;font-family:sans-serif;font-size:13;text-anchor:middle;" transform="matrix(1 0 0 1 2339.98 322)">Bold</text>
  <text style="stroke:none;fill:black;font-family:sans-serif;font-size:13;text-anchor:middle;" transform="matrix(1 0 0 1 2636.69 322)">Heavy</text>
  <text style="stroke:none;fill:black;font-family:sans-serif;font-size:13;text-anchor:middle;" transform="matrix(1 0 0 1 2933.4 322)">Black</text>
  <line style="fill:none;stroke:black;opacity:1;stroke-width:0.5;" x1="263" x2="3036" y1="1903" y2="1903"/>
  <g transform="matrix(1 0 0 1 263 1933)">
   <path d="M9.24805 0.830078Q10.8691 0.830078 12.2949 0.214844Q13.7207-0.400391 14.8096-1.49414Q15.8984-2.58789 16.5186-4.01367Q17.1387-5.43945 17.1387-7.05078Q17.1387-8.66211 16.5186-10.0879Q15.8984-11.5137 14.8047-12.6074Q13.7109-13.7012 12.2852-14.3164Q10.8594-14.9316 9.23828-14.9316Q7.62695-14.9316 6.20117-14.3164Q4.77539-13.7012 3.69141-12.6074Q2.60742-11.5137 1.9873-10.0879Q1.36719-8.66211 1.36719-7.05078Q1.36719-5.43945 1.9873-4.01367Q2.60742-2.58789 3.69629-1.49414Q4.78516-0.400391 6.21094 0.214844Q7.63672 0.830078 9.24805 0.830078ZM9.24805-0.654297Q7.91992-0.654297 6.7627-1.14746Q5.60547-1.64062 4.73145-2.51953Q3.85742-3.39844 3.36426-4.56055Q2.87109-5.72266 2.87109-7.05078Q2.87109-8.37891 3.35938-9.54102Q3.84766-10.7031 4.72168-11.582Q5.5957-12.4609 6.75293-12.9541Q7.91016-13.4473 9.23828-13.4473Q10.5762-13.4473 11.7334-12.9541Q12.8906-12.4609 13.7695-11.582Q14.6484-10.7031 15.1465-9.54102Q15.6445-8.37891 15.6445-7.05078Q15.6445-5.72266 15.1514-4.56055Q14.6582-3.39844 13.7842-2.51953Q12.9102-1.64062 11.748-1.14746Q10.5859-0.654297 9.24805-0.654297ZM5.6543-7.05078Q5.6543-6.72852 5.85938-6.52832Q6.06445-6.32812 6.40625-6.32812L8.51562-6.32812L8.51562-4.20898Q8.51562-3.88672 8.71094-3.67676Q8.90625-3.4668 9.23828-3.4668Q9.56055-3.4668 9.77051-3.67676Q9.98047-3.88672 9.98047-4.20898L9.98047-6.32812L12.0898-6.32812Q12.4219-6.32812 12.627-6.52832Q12.832-6.72852 12.832-7.05078Q12.832-7.38281 12.627-7.58789Q12.4219-7.79297 12.0898-7.79297L9.98047-7.79297L9.98047-9.90234Q9.98047-10.2344 9.77051-10.4443Q9.56055-10.6543 9.23828-10.6543Q8.90625-10.6543 8.71094-10.4443Q8.51562-10.2344 8.51562-9.90234L8.51562-7.79297L6.40625-7.79297Q6.06445-7.79297 5.85938-7.58789Q5.6543-7.38281 5.6543-7.05078Z"/>
  </g>
  <g transform="matrix(1 0 0 1 281.867 1933)">
   <path d="M11.709 2.91016Q13.75 2.91016 15.5518 2.12891Q17.3535 1.34766 18.7305-0.0292969Q20.1074-1.40625 20.8887-3.20801Q21.6699-5.00977 21.6699-7.05078Q21.6699-9.0918 20.8887-10.8936Q20.1074-12.6953 18.7305-14.0723Q17.3535-15.4492 15.5469-16.2305Q13.7402-17.0117 11.6992-17.0117Q9.6582-17.0117 7.85645-16.2305Q6.05469-15.4492 4.68262-14.0723Q3.31055-12.6953 2.5293-10.8936Q1.74805-9.0918 1.74805-7.05078Q1.74805-5.00977 2.5293-3.20801Q3.31055-1.40625 4.6875-0.0292969Q6.06445 1.34766 7.86621 2.12891Q9.66797 2.91016 11.709 2.91016ZM11.709 1.25Q9.98047 1.25 8.47656 0.605469Q6.97266-0.0390625 5.83496-1.17676Q4.69727-2.31445 4.05762-3.81836Q3.41797-5.32227 3.41797-7.05078Q3.41797-8.7793 4.05762-10.2832Q4.69727-11.7871 5.83008-12.9297Q6.96289-14.0723 8.4668-14.7119Q9.9707-15.3516 11.6992-15.3516Q13.4277-15.3516 14.9316-14.7119Q16.4355-14.0723 17.5781-12.9297Q18.7207-11.7871 19.3652-10.2832Q20.0098-8.7793 20.0098-7.05078Q20.0098-5.32227 19.3701-3.81836Q18.7305-2.31445 17.5928-1.17676Q16.4551-0.0390625 14.9463 0.605469Q13.4375 1.25 11.709 1.25ZM7.17773-7.05078Q7.17773-6.69922 7.41211-6.47461Q7.64648-6.25 8.01758-6.25L10.8887-6.25L10.8887-3.36914Q10.8887-2.99805 11.1133-2.76855Q11.3379-2.53906 11.6895-2.53906Q12.0605-2.53906 12.29-2.76855Q12.5195-2.99805 12.5195-3.36914L12.5195-6.25L15.4004-6.25Q15.7715-6.25 16.001-6.47461Q16.2305-6.69922 16.2305-7.05078Q16.2305-7.42188 16.001-7.65137Q15.7715-7.88086 15.4004-7.88086L12.5195-7.88086L12.5195-10.752Q12.5195-11.1328 12.29-11.3623Q12.0605-11.5918 11.6895-11.5918Q11.3379-11.5918 11.1133-11.3574Q10.8887-11.123 10.8887-10.752L10.8887-7.88086L8.01758-7.88086Q7.63672-7.88086 7.40723-7.65137Q7.17773-7.42188 7.17773-7.05078Z"/>
  </g>
  <g transform="matrix(1 0 0 1 305.646 1933)">
   <path d="M14.9707 5.66406Q17.0605 5.66406 18.96 5.01465Q20.8594 4.36523 22.4512 3.19336Q24.043 2.02148 25.2197 0.429688Q26.3965-1.16211 27.0459-3.06641Q27.6953-4.9707 27.6953-7.05078Q27.6953-9.14062 27.0459-11.04Q26.3965-12.9395 25.2197-14.5312Q24.043-16.123 22.4512-17.2998Q20.8594-18.4766 18.9551-19.126Q17.0508-19.7754 14.9609-19.7754Q12.8711-19.7754 10.9717-19.126Q9.07227-18.4766 7.48535-17.2998Q5.89844-16.123 4.72168-14.5312Q3.54492-12.9395 2.90039-11.04Q2.25586-9.14062 2.25586-7.05078Q2.25586-4.9707 2.90527-3.06641Q3.55469-1.16211 4.72656 0.429688Q5.89844 2.02148 7.49023 3.19336Q9.08203 4.36523 10.9814 5.01465Q12.8809 5.66406 14.9707 5.66406ZM14.9707 3.84766Q13.1641 3.84766 11.5283 3.2959Q9.89258 2.74414 8.53516 1.74805Q7.17773 0.751953 6.17676-0.610352Q5.17578-1.97266 4.62891-3.6084Q4.08203-5.24414 4.08203-7.05078Q4.08203-8.86719 4.62891-10.5029Q5.17578-12.1387 6.17188-13.501Q7.16797-14.8633 8.52539-15.8594Q9.88281-16.8555 11.5186-17.4023Q13.1543-17.9492 14.9609-17.9492Q16.7773-17.9492 18.4131-17.4023Q20.0488-16.8555 21.4111-15.8594Q22.7734-14.8633 23.7695-13.501Q24.7656-12.1387 25.3174-10.5029Q25.8691-8.86719 25.8691-7.05078Q25.8789-5.24414 25.332-3.6084Q24.7852-1.97266 23.7842-0.610352Q22.7832 0.751953 21.4209 1.74805Q20.0586 2.74414 18.4229 3.2959Q16.7871 3.84766 14.9707 3.84766ZM9.19922-7.05078Q9.19922-6.66992 9.45801-6.4209Q9.7168-6.17188 10.1172-6.17188L14.0625-6.17188L14.0625-2.2168Q14.0625-1.81641 14.3115-1.55762Q14.5605-1.29883 14.9512-1.29883Q15.3516-1.29883 15.6104-1.55273Q15.8691-1.80664 15.8691-2.2168L15.8691-6.17188L19.8242-6.17188Q20.2246-6.17188 20.4785-6.4209Q20.7324-6.66992 20.7324-7.05078Q20.7324-7.46094 20.4785-7.71484Q20.2246-7.96875 19.8242-7.96875L15.8691-7.96875L15.8691-11.9141Q15.8691-12.3242 15.6104-12.583Q15.3516-12.8418 14.9512-12.8418Q14.5605-12.8418 14.3115-12.583Q14.0625-12.3242 14.0625-11.9141L14.0625-7.96875L10.1172-7.96875Q9.70703-7.96875 9.45312-7.71484Q9.19922-7.46094 9.19922-7.05078Z"/>
  </g>
  <text style="stroke:none;fill:black;font-family:sans-serif;font-size:13;font-weight:bold;" transform="matrix(1 0 0 1 263 1953)">Design Variations</text>
  <text style="stroke:none;fill:black;font-family:sans-serif;font-size:13;" transform="matrix(1 0 0 1 263 1971)">Symbols are supported in up to nine weights and three scales.</text>
  <text style="stroke:none;fill:black;font-family:sans-serif;font-size:13;" transform="matrix(1 0 0 1 263 1989)">For optimal layout with text and other symbols, vertically align</text>
  <text style="stroke:none;fill:black;font-family:sans-serif;font-size:13;" transform="matrix(1 0 0 1 263 2007)">symbols with the adjacent text.</text>
  <line style="fill:none;stroke:#00AEEF;stroke-width:0.5;opacity:1.0;" x1="776" x2="776" y1="1919" y2="1933"/>
  <g transform="matrix(1 0 0 1 776 1933)">
   <path d="M3.31055 0.15625Q3.70117 0.15625 3.91602-0.00976562Q4.13086-0.175781 4.26758-0.585938L5.52734-4.0332L11.2891-4.0332L12.5488-0.585938Q12.6855-0.175781 12.9004-0.00976562Q13.1152 0.15625 13.4961 0.15625Q13.8867 0.15625 14.1162-0.0585938Q14.3457-0.273438 14.3457-0.644531Q14.3457-0.869141 14.2383-1.17188L9.6582-13.3691Q9.48242-13.8184 9.17969-14.043Q8.87695-14.2676 8.4082-14.2676Q7.5-14.2676 7.17773-13.3789L2.59766-1.16211Q2.49023-0.859375 2.49023-0.634766Q2.49023-0.263672 2.70996-0.0537109Q2.92969 0.15625 3.31055 0.15625ZM6.00586-5.51758L8.37891-12.0898L8.42773-12.0898L10.8008-5.51758Z"/>
  </g>
  <line style="fill:none;stroke:#00AEEF;stroke-width:0.5;opacity:1.0;" x1="793.197" x2="793.197" y1="1919" y2="1933"/>
  <text style="stroke:none;fill:black;font-family:sans-serif;font-size:13;font-weight:bold;" transform="matrix(1 0 0 1 776 1953)">Margins</text>
  <text style="stroke:none;fill:black;font-family:sans-serif;font-size:13;" transform="matrix(1 0 0 1 776 1971)">Leading and trailing margins on the left and right side of each symbol</text>
  <text style="stroke:none;fill:black;font-family:sans-serif;font-size:13;" transform="matrix(1 0 0 1 776 1989)">can be adjusted by modifying the x-location of the margin guidelines.</text>
  <text style="stroke:none;fill:black;font-family:sans-serif;font-size:13;" transform="matrix(1 0 0 1 776 2007)">Modifications are automatically applied proportionally to all</text>
  <text style="stroke:none;fill:black;font-family:sans-serif;font-size:13;" transform="matrix(1 0 0 1 776 2025)">scales and weights.</text>
  <g transform="matrix(1 0 0 1 1289 1933)">
   <path d="M2.8418 1.86523L4.54102 3.57422Q5.18555 4.22852 5.90332 4.17969Q6.62109 4.13086 7.31445 3.35938L18.0078-8.42773L17.041-9.4043L6.42578 2.27539Q6.16211 2.57812 5.89355 2.61719Q5.625 2.65625 5.27344 2.30469L4.10156 1.14258Q3.75 0.791016 3.79395 0.522461Q3.83789 0.253906 4.14062-0.0195312L15.6152-10.8203L14.6387-11.7871L3.04688-0.898438Q2.30469-0.214844 2.25098 0.498047Q2.19727 1.21094 2.8418 1.86523ZM9.25781-16.3281Q8.94531-16.0254 8.90625-15.6348Q8.86719-15.2441 9.04297-14.9512Q9.21875-14.6777 9.55566-14.541Q9.89258-14.4043 10.3809-14.5215Q11.4746-14.7754 12.5977-14.7314Q13.7207-14.6875 14.7949-13.9844L14.209-12.5293Q13.9551-11.9043 14.0674-11.4404Q14.1797-10.9766 14.5801-10.5664L16.875-8.25195Q17.2363-7.88086 17.5781-7.82227Q17.9199-7.76367 18.3398-7.8418L19.4043-8.03711L20.0684-7.36328L20.0293-6.80664Q20-6.43555 20.1221-6.12305Q20.2441-5.81055 20.6055-5.44922L21.3672-4.70703Q21.7285-4.3457 22.1533-4.33105Q22.5781-4.31641 22.9297-4.66797L25.8398-7.58789Q26.1914-7.93945 26.1816-8.35449Q26.1719-8.76953 25.8105-9.13086L25.0391-9.89258Q24.6875-10.2539 24.3799-10.3857Q24.0723-10.5176 23.7109-10.4883L23.1348-10.4395L22.4902-11.0742L22.7344-12.1973Q22.832-12.6172 22.6953-12.9834Q22.5586-13.3496 22.1191-13.7891L19.9219-15.9766Q18.6719-17.2168 17.2607-17.8369Q15.8496-18.457 14.4189-18.4814Q12.9883-18.5059 11.665-17.959Q10.3418-17.4121 9.25781-16.3281ZM10.752-15.957Q11.6602-16.6211 12.7002-16.9043Q13.7402-17.1875 14.8047-17.085Q15.8691-16.9824 16.8701-16.5137Q17.8711-16.0449 18.7012-15.2051L21.1328-12.793Q21.3086-12.6172 21.3525-12.4512Q21.3965-12.2852 21.3379-12.0312L21.0156-10.5469L22.5195-9.0625L23.5059-9.12109Q23.6914-9.13086 23.7891-9.09668Q23.8867-9.0625 24.0332-8.91602L24.6094-8.33984L22.168-5.89844L21.5918-6.47461Q21.4453-6.62109 21.4062-6.71875Q21.3672-6.81641 21.377-7.01172L21.4453-7.98828L19.9512-9.47266L18.4277-9.21875Q18.1836-9.16992 18.042-9.2041Q17.9004-9.23828 17.7148-9.41406L15.7129-11.416Q15.5176-11.5918 15.4932-11.7529Q15.4688-11.9141 15.5859-12.1875L16.4648-14.2773Q15.293-15.3711 13.8281-15.791Q12.3633-16.2109 10.8398-15.7617Q10.7227-15.7324 10.6885-15.8057Q10.6543-15.8789 10.752-15.957Z"/>
  </g>
  <text style="stroke:none;fill:black;font-family:sans-serif;font-size:13;font-weight:bold;" transform="matrix(1 0 0 1 1289 1953)">Exporting</text>
  <text style="stroke:none;fill:black;font-family:sans-serif;font-size:13;" transform="matrix(1 0 0 1 1289 1971)">Symbols should be outlined when exporting to ensure the</text>
  <text style="stroke:none;fill:black;font-family:sans-serif;font-size:13;" transform="matrix(1 0 0 1 1289 1989)">design is preserved when submitting to Xcode.</text>
  <text id="template-version" style="stroke:none;fill:black;font-family:sans-serif;font-size:13;text-anchor:end;" transform="matrix(1 0 0 1 3036 1933)">Template v.3.0</text>
  <text style="stroke:none;fill:black;font-family:sans-serif;font-size:13;text-anchor:end;" transform="matrix(1 0 0 1 3036 1951)">Requires Xcode 13 or greater</text>
  <text id="descriptive-name" style="stroke:none;fill:black;font-family:sans-serif;font-size:13;text-anchor:end;" transform="matrix(1 0 0 1 3036 1969)">Generated from eurosign.circle</text>
  <text style="stroke:none;fill:black;font-family:sans-serif;font-size:13;text-anchor:end;" transform="matrix(1 0 0 1 3036 1987)">Typeset at 100 points</text>
  <text style="stroke:none;fill:black;font-family:sans-serif;font-size:13;" transform="matrix(1 0 0 1 263 726)">Small</text>
  <text style="stroke:none;fill:black;font-family:sans-serif;font-size:13;" transform="matrix(1 0 0 1 263 1156)">Medium</text>
  <text style="stroke:none;fill:black;font-family:sans-serif;font-size:13;" transform="matrix(1 0 0 1 263 1586)">Large</text>
 </g>
 <g id="Guides">
  <g id="H-reference" style="fill:#27AAE1;stroke:none;" transform="matrix(1 0 0 1 339 696)">
   <path d="M0.993347 0L3.6377 0L29.3282-67.1326L30.0301-67.1326L30.0301-70.459L28.1227-70.459ZM11.6882-24.4797L46.9818-24.4797L46.2311-26.7288L12.4382-26.7288ZM55.1193 0L57.7637 0L30.6381-70.459L29.4327-70.459L29.4327-67.1326Z"/>
  </g>
  <line id="Baseline-S" style="fill:none;stroke:#27AAE1;opacity:1;stroke-width:0.5;" x1="263" x2="3036" y1="696" y2="696"/>
  <line id="Capline-S" style="fill:none;stroke:#27AAE1;opacity:1;stroke-width:0.5;" x1="263" x2="3036" y1="625.541" y2="625.541"/>
  <g id="H-reference" style="fill:#27AAE1;stroke:none;" transform="matrix(1 0 0 1 339 1126)">
   <path d="M0.993347 0L3.6377 0L29.3282-67.1326L30.0301-67.1326L30.0301-70.459L28.1227-70.459ZM11.6882-24.4797L46.9818-24.4797L46.2311-26.7288L12.4382-26.7288ZM55.1193 0L57.7637 0L30.6381-70.459L29.4327-70.459L29.4327-67.1326Z"/>
  </g>
  <line id="Baseline-M" style="fill:none;stroke:#27AAE1;opacity:1;stroke-width:0.5;" x1="263" x2="3036" y1="1126" y2="1126"/>
  <line id="Capline-M" style="fill:none;stroke:#27AAE1;opacity:1;stroke-width:0.5;" x1="263" x2="3036" y1="1055.54" y2="1055.54"/>
  <g id="H-reference" style="fill:#27AAE1;stroke:none;" transform="matrix(1 0 0 1 339 1556)">
   <path d="M0.993347 0L3.6377 0L29.3282-67.1326L30.0301-67.1326L30.0301-70.459L28.1227-70.459ZM11.6882-24.4797L46.9818-24.4797L46.2311-26.7288L12.4382-26.7288ZM55.1193 0L57.7637 0L30.6381-70.459L29.4327-70.459L29.4327-67.1326Z"/>
  </g>
  <line id="Baseline-L" style="fill:none;stroke:#27AAE1;opacity:1;stroke-width:0.5;" x1="263" x2="3036" y1="1556" y2="1556"/>
  <line id="Capline-L" style="fill:none;stroke:#27AAE1;opacity:1;stroke-width:0.5;" x1="263" x2="3036" y1="1485.54" y2="1485.54"/>
  <line id="left-margin-Regular-M" style="fill:none;stroke:#00AEEF;stroke-width:0.5;opacity:1.0;" x1="1391.32" x2="1391.32" y1="1030.79" y2="1150.12"/>
  <line id="right-margin-Regular-M" style="fill:none;stroke:#00AEEF;stroke-width:0.5;opacity:1.0;" x1="1508.37" x2="1508.37" y1="1030.79" y2="1150.12"/>
 </g>
 <g id="Symbols">
  <g id="Black-L" transform="matrix(1 0 0 1 2854.19 1556)">
   <path d="M79.1953 32.7252Q93.2356 32.7252 105.521 27.4303Q117.806 22.1354 127.174 12.7571Q136.542 3.37874 141.848-8.90649Q147.154-21.1917 147.154-35.2113Q147.154-49.2309 141.848-61.5161Q136.542-73.8013 127.164-83.1796Q117.785-92.558 105.5-97.8529Q93.2149-103.148 79.1746-103.148Q65.1563-103.148 52.8704-97.8529Q40.5846-92.558 31.2276-83.1796Q21.8707-73.8013 16.5647-61.5161Q11.2588-49.2309 11.2588-35.2113Q11.2588-21.1917 16.5647-8.90649Q21.8707 3.37874 31.238 12.7571Q40.6053 22.1354 52.8912 27.4303Q65.177 32.7252 79.1953 32.7252ZM79.1953 12.5777Q69.2941 12.5777 60.6256 8.86047Q51.9572 5.14327 45.4197-1.40458Q38.8822-7.95243 35.1644-16.6312Q31.4465-25.3101 31.4465-35.2113Q31.4465-45.1125 35.154-53.7913Q38.8615-62.4702 45.399-69.018Q51.9365-75.5659 60.6049-79.2831Q69.2734-83.0003 79.1746-83.0003Q89.0966-83.0003 97.7657-79.2831Q106.435-75.5659 112.982-69.018Q119.529-62.4702 123.257-53.7913Q126.986-45.1125 126.986-35.2113Q126.986-25.3101 123.268-16.6312Q119.551-7.95243 113.014-1.40458Q106.476 5.14327 97.7974 8.86047Q89.1186 12.5777 79.1953 12.5777ZM87.3225-7.2084Q90.3752-7.2084 92.3677-7.71964Q94.3602-8.23088 95.6405-9.13782Q98.0141-10.8764 98.0141-13.7445Q98.0141-15.3828 97.3262-16.4764Q96.6383-17.57 95.3894-18.154Q94.1713-18.9133 91.9411-19.0932Q89.7109-19.2731 87.4173-19.3315Q82.4988-19.4483 78.6039-21.4754Q74.7089-23.5024 73.302-27.3255L90.6272-27.3255Q91.9476-27.3255 92.6421-28.0589Q93.3366-28.7923 93.3366-29.9363Q93.3366-32.5289 90.6272-32.5289L71.7141-32.5289Q71.6544-32.8621 71.6142-33.6443Q71.574-34.4265 71.574-35.249Q71.574-35.9143 71.5844-36.511Q71.5947-37.1076 71.6544-37.5173L90.6272-37.5173Q91.9476-37.5173 92.6421-38.2513Q93.3366-38.9854 93.3366-40.1293Q93.3366-42.7414 90.6272-42.7414L73.1086-42.7414Q74.5129-46.7411 78.5156-48.8363Q82.5182-50.9316 87.651-51.1068Q89.7109-51.2236 92.0001-51.3451Q94.2894-51.4665 95.5062-52.2842Q96.6383-52.8683 97.2678-53.9619Q97.8973-55.0554 97.8973-56.6937Q97.8973-58.0298 97.3642-59.2409Q96.8311-60.4519 95.5991-61.3626Q94.4563-62.3072 92.3677-62.8081Q90.2791-63.309 87.3809-63.309Q75.4554-63.309 67.7969-57.8747Q60.1383-52.4405 57.9451-42.7414L53.5368-42.7414Q52.2384-42.7414 51.5341-42.0469Q50.8299-41.3524 50.8299-40.1293Q50.8299-38.9854 51.5341-38.2513Q52.2384-37.5173 53.5368-37.5173L57.2799-37.5173Q57.2578-37.1076 57.2578-36.5025Q57.2578-35.8974 57.2578-35.1529Q57.2578-34.4642 57.2688-33.7774Q57.2799-33.0906 57.2811-32.5289L53.5368-32.5289Q52.2384-32.5289 51.5341-31.8448Q50.8299-31.1607 50.8299-29.9363Q50.8299-28.7923 51.5341-28.0589Q52.2384-27.3255 53.5368-27.3255L58.1009-27.3255Q60.4135-17.8212 68.061-12.5148Q75.7086-7.2084 87.3225-7.2084Z"/>
  </g>
  <g id="Heavy-L" transform="matrix(1 0 0 1 2558.42 1556)">
   <path d="M78.2511 31.7672Q92.088 31.7672 104.202 26.5464Q116.316 21.3256 125.559 12.0677Q134.802 2.8099 140.04-9.30402Q145.279-21.4179 145.279-35.2251Q145.279-49.0322 140.04-61.1461Q134.802-73.2601 125.544-82.5179Q116.286-91.7758 104.172-96.9966Q92.0582-102.217 78.2213-102.217Q64.4202-102.217 52.3033-96.9966Q40.1863-91.7758 30.9613-82.5179Q21.7362-73.2601 16.4975-61.1461Q11.2588-49.0322 11.2588-35.2251Q11.2588-21.4179 16.4975-9.30402Q21.7362 2.8099 30.9761 12.0677Q40.2161 21.3256 52.333 26.5464Q64.45 31.7672 78.2511 31.7672ZM78.2511 14.0252Q68.0447 14.0252 59.1149 10.2016Q50.1851 6.37791 43.4463-0.375708Q36.7076-7.12933 32.8809-16.074Q29.0543-25.0188 29.0543-35.2251Q29.0543-45.4314 32.8661-54.3761Q36.6778-63.3208 43.4166-70.0745Q50.1553-76.8281 59.0851-80.6517Q68.015-84.4754 78.2213-84.4754Q88.4574-84.4754 97.3902-80.6517Q106.323-76.8281 113.074-70.0745Q119.824-63.3208 123.666-54.3761Q127.507-45.4314 127.507-35.2251Q127.507-25.0188 123.684-16.074Q119.86-7.12933 113.121-0.375708Q106.383 6.37791 97.4379 10.2016Q88.4932 14.0252 78.2511 14.0252ZM86.5038-6.74241Q89.3284-6.74241 91.2411-7.18426Q93.1539-7.62612 94.4104-8.42662Q96.8287-9.99789 96.8287-12.7397Q96.8287-14.3533 96.0709-15.3951Q95.3131-16.4369 93.9881-16.8831Q92.8208-17.4632 90.7847-17.5583Q88.7487-17.6533 86.5573-17.6979Q81.1459-17.7872 76.9069-20.1721Q72.6679-22.557 71.1008-27.1604L88.9592-27.1604Q90.2692-27.1604 90.9973-27.9226Q91.7253-28.6848 91.7253-29.855Q91.7253-32.5318 88.9592-32.5318L69.6155-32.5318Q69.5648-32.9344 69.5246-33.6895Q69.4844-34.4446 69.4844-35.2399Q69.4844-35.9191 69.4993-36.5388Q69.5142-37.1584 69.5648-37.6233L88.9592-37.6233Q90.2692-37.6233 90.9973-38.3885Q91.7253-39.1537 91.7253-40.3238Q91.7253-43.0244 88.9592-43.0244L70.9758-43.0244Q72.5308-47.7412 76.8502-50.1693Q81.1696-52.5974 86.7358-52.7313Q88.7487-52.8206 90.8324-52.871Q92.9161-52.9214 94.0773-53.5461Q95.3131-53.9923 96.0262-55.0341Q96.7394-56.0759 96.7394-57.6895Q96.7394-58.9786 96.2018-60.1127Q95.6642-61.2467 94.3509-62.0919Q93.2133-62.9073 91.2411-63.3342Q89.2689-63.7612 86.5485-63.7612Q75.1168-63.7612 67.4163-58.3524Q59.7159-52.9435 57.4556-43.0244L52.3734-43.0244Q51.0992-43.0244 50.3593-42.2964Q49.6194-41.5683 49.6194-40.3238Q49.6194-39.1537 50.3593-38.3885Q51.0992-37.6233 52.3734-37.6233L56.7499-37.6233Q56.7141-37.1584 56.7141-36.5462Q56.7141-35.934 56.7141-35.1805Q56.7141-34.4595 56.732-33.7608Q56.7499-33.0622 56.756-32.5318L52.3734-32.5318Q51.0992-32.5318 50.3593-31.8187Q49.6194-31.1055 49.6194-29.855Q49.6194-28.6848 50.3593-27.9226Q51.0992-27.1604 52.3734-27.1604L57.5658-27.1604Q59.9273-17.3723 67.6099-12.0574Q75.2924-6.74241 86.5038-6.74241Z"/>
  </g>
  <g id="Bold-L" transform="matrix(1 0 0 1 2262.89 1556)">
   <path d="M77.0653 30.566Q90.6516 30.566 102.549 25.4396Q114.447 20.3133 123.533 11.2089Q132.619 2.10448 137.771-9.79333Q142.923-21.6912 142.923-35.2405Q142.923-48.7898 137.771-60.6877Q132.619-72.5855 123.515-81.6899Q114.41-90.7942 102.512-95.9206Q90.6146-101.047 77.0283-101.047Q63.4932-101.047 51.5882-95.9206Q39.6833-90.7942 30.623-81.6899Q21.5627-72.5855 16.4108-60.6877Q11.2588-48.7898 11.2588-35.2405Q11.2588-21.6912 16.4108-9.79333Q21.5627 2.10448 30.6415 11.2089Q39.7203 20.3133 51.6252 25.4396Q63.5301 30.566 77.0653 30.566ZM77.0653 15.8201Q66.4831 15.8201 57.2278 11.8629Q47.9725 7.90583 40.9827 0.897553Q33.9929-6.11072 30.0287-15.3845Q26.0645-24.6583 26.0645-35.2405Q26.0645-45.8227 30.0102-55.0965Q33.9559-64.3703 40.9457-71.3786Q47.9355-78.3868 57.1908-82.3439Q66.4461-86.3011 77.0283-86.3011Q87.6474-86.3011 96.9099-82.3439Q106.172-78.3868 113.173-71.3786Q120.175-64.3703 124.157-55.0965Q128.14-45.8227 128.14-35.2405Q128.14-24.6583 124.183-15.3845Q120.226-6.11072 113.236 0.897553Q106.246 7.90583 96.9725 11.8629Q87.6986 15.8201 77.0653 15.8201ZM85.4009-6.3564Q87.9157-6.3564 89.7075-6.71201Q91.4993-7.06761 92.7149-7.73464Q95.1601-9.08427 95.1601-11.6416Q95.1601-13.1959 94.3486-14.1568Q93.537-15.1176 92.1643-15.4096Q91.0597-15.7893 89.2624-15.7923Q87.4651-15.7953 85.4081-15.8245Q79.4223-15.8829 74.7653-18.7012Q70.1083-21.5196 68.3736-27.0679L86.8343-27.0679Q88.1097-27.0679 88.8579-27.8422Q89.6062-28.6164 89.6062-29.7899Q89.6062-32.5034 86.8343-32.5034L67.0319-32.5034Q66.9884-32.9922 66.9482-33.7256Q66.908-34.4591 66.908-35.2327Q66.908-35.9273 66.9265-36.5742Q66.945-37.221 66.9884-37.7476L86.8343-37.7476Q88.1097-37.7476 88.8579-38.529Q89.6062-39.3103 89.6062-40.4838Q89.6062-43.2201 86.8343-43.2201L68.3165-43.2201Q70.0228-48.8311 74.734-51.6705Q79.4451-54.5099 85.5249-54.5975Q87.4651-54.6559 89.2987-54.6297Q91.1324-54.6035 92.2228-55.0124Q93.537-55.3044 94.3194-56.2652Q95.1017-57.2261 95.1017-58.7804Q95.1017-59.9968 94.5605-61.0232Q94.0193-62.0495 92.6409-62.7983Q91.5207-63.4576 89.7075-63.7947Q87.8943-64.1318 85.4301-64.1318Q74.5911-64.1318 66.8769-58.7543Q59.1627-53.3768 56.862-43.2201L50.9683-43.2201Q49.7442-43.2201 48.9846-42.4718Q48.2249-41.7235 48.2249-40.4838Q48.2249-39.3103 48.9846-38.529Q49.7442-37.7476 50.9683-37.7476L56.1283-37.7476Q56.0771-37.221 56.0771-36.5966Q56.0771-35.9721 56.0771-35.2113Q56.0771-34.4513 56.1027-33.7321Q56.1283-33.013 56.1426-32.5034L50.9683-32.5034Q49.7442-32.5034 48.9846-31.7736Q48.2249-31.0438 48.2249-29.7899Q48.2249-28.6164 48.9846-27.8422Q49.7442-27.0679 50.9683-27.0679L56.9269-27.0679Q59.3144-16.9825 67.003-11.6694Q74.6916-6.3564 85.4009-6.3564Z"/>
  </g>
  <g id="Semibold-L" transform="matrix(1 0 0 1 1966.99 1556)">
   <path d="M76.2478 29.7379Q89.6614 29.7379 101.41 24.6766Q113.159 19.6153 122.137 10.6168Q131.114 1.61818 136.206-10.1307Q141.299-21.8795 141.299-35.2511Q141.299-48.6228 136.206-60.3716Q131.114-72.1204 122.116-81.119Q113.117-90.1176 101.368-95.1789Q89.6194-100.24 76.2058-100.24Q62.854-100.24 51.0953-95.1789Q39.3365-90.1176 30.3898-81.119Q21.4432-72.1204 16.351-60.3716Q11.2588-48.6228 11.2588-35.2511Q11.2588-21.8795 16.351-10.1307Q21.4432 1.61818 30.4108 10.6168Q39.3785 19.6153 51.1372 24.6766Q62.896 29.7379 76.2478 29.7379ZM76.2478 17.0574Q65.4065 17.0574 55.9268 13.0083Q46.4471 8.95916 39.2843 1.77533Q32.1214-5.4085 28.0624-14.9092Q24.0033-24.4099 24.0033-35.2511Q24.0033-46.0924 28.0414-55.5931Q32.0795-65.0938 39.2423-72.2776Q46.4052-79.4614 55.8848-83.5105Q65.3645-87.5597 76.2058-87.5597Q87.089-87.5597 96.5787-83.5105Q106.068-79.4614 113.242-72.2776Q120.416-65.0938 124.496-55.5931Q128.576-46.0924 128.576-35.2511Q128.576-24.4099 124.527-14.9092Q120.478-5.4085 113.315 1.77533Q106.152 8.95916 96.6516 13.0083Q87.1509 17.0574 76.2478 17.0574ZM84.6406-6.09029Q86.9418-6.09029 88.6502-6.38644Q90.3586-6.68258 91.546-7.2576Q94.0098-8.45443 94.0098-10.8845Q94.0098-12.398 93.1612-13.303Q92.3127-14.2081 90.9071-14.3938Q89.8456-14.6353 88.2129-14.5748Q86.5802-14.5144 84.6159-14.5329Q78.2342-14.5701 73.289-17.6872Q68.3438-20.8044 66.4934-27.0041L85.3694-27.0041Q86.6209-27.0041 87.3831-27.7867Q88.1453-28.5692 88.1453-29.7451Q88.1453-32.4838 85.3694-32.4838L65.2507-32.4838Q65.2123-33.0321 65.1721-33.7505Q65.1319-34.469 65.1319-35.2277Q65.1319-35.9329 65.1529-36.5986Q65.1738-37.2642 65.2123-37.8333L85.3694-37.8333Q86.6209-37.8333 87.3831-38.6258Q88.1453-39.4183 88.1453-40.5941Q88.1453-43.355 85.3694-43.355L66.4832-43.355Q68.2939-49.5826 73.2751-52.7054Q78.2563-55.8283 84.6902-55.8841Q86.5802-55.9212 88.2414-55.8422Q89.9027-55.7632 90.9442-56.0232Q92.3127-56.2089 93.1427-57.114Q93.9727-58.019 93.9727-59.5325Q93.9727-60.6987 93.429-61.6508Q92.8852-62.603 91.462-63.2853Q90.3538-63.837 88.6502-64.1121Q86.9466-64.3873 84.6592-64.3873Q74.2287-64.3873 66.5051-59.0314Q58.7814-53.6754 56.4528-43.355L49.9997-43.355Q48.8101-43.355 48.0368-42.5927Q47.2636-41.8305 47.2636-40.5941Q47.2636-39.4183 48.0368-38.6258Q48.8101-37.8333 49.9997-37.8333L55.6998-37.8333Q55.638-37.2642 55.638-36.6313Q55.638-35.9983 55.638-35.2326Q55.638-34.4456 55.6689-33.7124Q55.6998-32.9791 55.7197-32.4838L49.9997-32.4838Q48.8101-32.4838 48.0368-31.7426Q47.2636-31.0013 47.2636-29.7451Q47.2636-28.5692 48.0368-27.7867Q48.8101-27.0041 49.9997-27.0041L56.4864-27.0041Q58.8919-16.7137 66.5846-11.402Q74.2774-6.09029 84.6406-6.09029Z"/>
  </g>
  <g id="Medium-L" transform="matrix(1 0 0 1 1670.9 1556)">
   <path d="M75.6279 29.11Q88.9106 29.11 100.546 24.0981Q112.182 19.0862 121.078 10.1678Q129.973 1.24944 135.02-10.3864Q140.067-22.0223 140.067-35.2592Q140.067-48.4961 135.02-60.1319Q129.973-71.7678 121.055-80.6862Q112.137-89.6045 100.501-94.6164Q88.8648-99.6283 75.5822-99.6283Q62.3695-99.6283 50.7215-94.6164Q39.0736-89.6045 30.213-80.6862Q21.3525-71.7678 16.3056-60.1319Q11.2588-48.4961 11.2588-35.2592Q11.2588-22.0223 16.3056-10.3864Q21.3525 1.24944 30.2359 10.1678Q39.1193 19.0862 50.7673 24.0981Q62.4152 29.11 75.6279 29.11ZM75.6279 17.9956Q64.5902 17.9956 54.9404 13.8767Q45.2905 9.75784 37.9965 2.4409Q30.7024-4.87605 26.5714-14.5488Q22.4405-24.2215 22.4405-35.2592Q22.4405-46.2969 26.5486-55.9696Q30.6567-65.6423 37.9507-72.9593Q45.2448-80.2762 54.8946-84.3951Q64.5445-88.514 75.5822-88.514Q86.6657-88.514 96.3276-84.3951Q105.989-80.2762 113.294-72.9593Q120.599-65.6423 124.753-55.9696Q128.907-46.2969 128.907-35.2592Q128.907-24.2215 124.788-14.5488Q120.669-4.87605 113.375 2.4409Q106.081 9.75784 96.4083 13.8767Q86.7356 17.9956 75.6279 17.9956ZM84.0641-5.88851Q86.2033-5.88851 87.8485-6.13957Q89.4937-6.39063 90.6597-6.89588Q93.1376-7.97686 93.1376-10.3105Q93.1376-11.793 92.261-12.6557Q91.3843-13.5185 89.9538-13.6236Q88.9251-13.7603 87.4171-13.6517Q85.9092-13.5431 84.0152-13.5536Q77.3332-13.5747 72.1696-16.9184Q67.0059-20.2621 65.0678-26.9557L84.2587-26.9557Q85.492-26.9557 86.2648-27.7446Q87.0376-28.5334 87.0376-29.7111Q87.0376-32.4689 84.2587-32.4689L63.9002-32.4689Q63.8655-33.0623 63.8253-33.7694Q63.7851-34.4766 63.7851-35.2239Q63.7851-35.9372 63.808-36.6171Q63.8309-37.297 63.8655-37.8983L84.2587-37.8983Q85.492-37.8983 86.2648-38.6992Q87.0376-39.5002 87.0376-40.6778Q87.0376-43.4572 84.2587-43.4572L65.0931-43.4572Q66.9829-50.1523 72.1689-53.4902Q77.3548-56.828 84.0573-56.8596Q85.9092-56.8806 87.4397-56.7615Q88.9702-56.6425 89.9748-56.7896Q91.3843-56.8948 92.2504-57.7575Q93.1166-58.6203 93.1166-60.1028Q93.1166-61.2309 92.571-62.1268Q92.0254-63.0226 90.5682-63.6546Q89.469-64.1246 87.8485-64.3528Q86.228-64.581 84.0746-64.581Q73.9539-64.581 66.2231-59.2414Q58.4923-53.9019 56.1425-43.4572L49.2652-43.4572Q48.1018-43.4572 47.3182-42.6844Q46.5346-41.9116 46.5346-40.6778Q46.5346-39.5002 47.3182-38.6992Q48.1018-37.8983 49.2652-37.8983L55.3749-37.8983Q55.305-37.297 55.305-36.6576Q55.305-36.0182 55.305-35.2487Q55.305-34.4413 55.34-33.6974Q55.3749-32.9534 55.3991-32.4689L49.2652-32.4689Q48.1018-32.4689 47.3182-31.719Q46.5346-30.9691 46.5346-29.7111Q46.5346-28.5334 47.3182-27.7446Q48.1018-26.9557 49.2652-26.9557L56.1524-26.9557Q58.5715-16.5099 66.2674-11.1992Q73.9633-5.88851 84.0641-5.88851Z"/>
  </g>
  <g id="Regular-L" transform="matrix(1 0 0 1 1374.99 1556)">
   <path d="M74.8194 28.2909Q87.9312 28.2909 99.4198 23.3434Q110.908 18.3959 119.697 9.58221Q128.485 0.768476 133.473-10.7201Q138.46-22.2086 138.46-35.2697Q138.46-48.3308 133.473-59.8193Q128.485-71.3079 119.671-80.1216Q110.858-88.9353 99.3691-93.8828Q87.8805-98.8303 74.7687-98.8303Q61.7374-98.8303 50.234-93.8828Q38.7306-88.9353 29.9824-80.1216Q21.2342-71.3079 16.2465-59.8193Q11.2588-48.3308 11.2588-35.2697Q11.2588-22.2086 16.2465-10.7201Q21.2342 0.768476 30.0077 9.58221Q38.7813 18.3959 50.2847 23.3434Q61.7881 28.2909 74.8194 28.2909ZM74.8194 19.2194Q63.5255 19.2194 53.6537 15.0095Q43.7819 10.7996 36.3167 3.30903Q28.8515-4.18154 24.6267-14.0786Q20.402-23.9757 20.402-35.2697Q20.402-46.5637 24.6014-56.4608Q28.8008-66.3579 36.266-73.8484Q43.7313-81.339 53.603-85.5489Q63.4748-89.7588 74.7687-89.7588Q86.1134-89.7588 96-85.5489Q105.887-81.339 113.362-73.8484Q120.838-66.3579 125.088-56.4608Q129.338-46.5637 129.338-35.2697Q129.338-23.9757 125.128-14.0786Q120.918-4.18154 113.453 3.30903Q105.988 10.7996 96.0909 15.0095Q86.1938 19.2194 74.8194 19.2194ZM83.3121-5.62533Q85.2401-5.62533 86.8028-5.81758Q88.3656-6.00983 89.5036-6.42408Q92-7.35394 92-9.56171Q92-11.0038 91.0867-11.8114Q90.1734-12.6189 88.7103-12.6189Q87.7243-12.6189 86.3792-12.4476Q85.034-12.2763 83.2317-12.2763Q76.1581-12.2763 70.7094-15.9155Q65.2608-19.5547 63.2084-26.8926L82.8099-26.8926Q84.0196-26.8926 84.8062-27.6897Q85.5928-28.4868 85.5928-29.6667Q85.5928-32.4496 82.8099-32.4496L62.1386-32.4496Q62.1089-33.1017 62.0687-33.7941Q62.0285-34.4864 62.0285-35.219Q62.0285-35.9428 62.0538-36.6412Q62.0792-37.3397 62.1089-37.983L82.8099-37.983Q84.0196-37.983 84.8062-38.795Q85.5928-39.6069 85.5928-40.7868Q85.5928-43.5907 82.8099-43.5907L63.28-43.5907Q65.2729-50.8955 70.726-54.5137Q76.179-58.132 83.2317-58.132Q85.034-58.132 86.394-57.9607Q87.7541-57.7894 88.7103-57.7894Q90.1734-57.7894 91.0867-58.5969Q92-59.4045 92-60.8466Q92-61.9251 91.4519-62.7476Q90.9038-63.57 89.4022-64.1363Q88.3149-64.4998 86.8028-64.6667Q85.2908-64.8337 83.3121-64.8337Q73.5955-64.8337 65.8553-59.5155Q58.1151-54.1973 55.7377-43.5907L48.3072-43.5907Q47.178-43.5907 46.3809-42.804Q45.5839-42.0174 45.5839-40.7868Q45.5839-39.6069 46.3809-38.795Q47.178-37.983 48.3072-37.983L54.9511-37.983Q54.8707-37.3397 54.8707-36.6919Q54.8707-36.0442 54.8707-35.2697Q54.8707-34.4358 54.9109-33.6778Q54.9511-32.9199 54.9808-32.4496L48.3072-32.4496Q47.178-32.4496 46.3809-31.6883Q45.5839-30.927 45.5839-29.6667Q45.5839-28.4868 46.3809-27.6897Q47.178-26.8926 48.3072-26.8926L55.7168-26.8926Q58.1537-16.2441 65.8537-10.9347Q73.5537-5.62533 83.3121-5.62533Z"/>
  </g>
  <g id="Light-L" transform="matrix(1 0 0 1 1079.2 1556)">
   <path d="M73.8959 27.3674Q86.8436 27.3674 98.1577 22.502Q109.472 17.6366 118.137 8.95629Q126.802 0.275949 131.708-11.0381Q136.614-22.3522 136.614-35.2697Q136.614-48.1872 131.708-59.5013Q126.802-70.8154 118.122-79.4957Q109.442-88.176 98.1275-93.0414Q86.8134-97.9069 73.8658-97.9069Q60.9986-97.9069 49.6594-93.0414Q38.3201-88.176 29.6951-79.4957Q21.07-70.8154 16.1644-59.5013Q11.2588-48.1872 11.2588-35.2697Q11.2588-22.3522 16.1644-11.0381Q21.07 0.275949 29.7102 8.95629Q38.3503 17.6366 49.6895 22.502Q61.0287 27.3674 73.8959 27.3674ZM73.8959 20.4712Q62.3557 20.4712 52.2479 16.1587Q42.1402 11.8462 34.4903 4.18122Q26.8403-3.48379 22.5027-13.6066Q18.1651-23.7295 18.1651-35.2697Q18.1651-46.8099 22.4876-56.9328Q26.8102-67.0556 34.4601-74.7206Q42.11-82.3856 52.2178-86.6981Q62.3255-91.0106 73.8658-91.0106Q85.4362-91.0106 95.5691-86.6981Q105.702-82.3856 113.342-74.7206Q120.982-67.0556 125.334-56.9328Q129.687-46.8099 129.687-35.2697Q129.687-23.7295 125.375-13.6066Q121.062-3.48379 113.412 4.18122Q105.762 11.8462 95.6394 16.1587Q85.5166 20.4712 73.8959 20.4712ZM81.9782-6.58986Q83.5162-6.58986 84.8533-6.72055Q86.1903-6.85123 87.2257-7.16287Q89.5579-7.84646 89.5579-9.74641Q89.5579-10.9628 88.819-11.6062Q88.0801-12.2495 86.8838-12.2495Q85.9389-12.2495 84.7477-12.0987Q83.5564-11.948 81.8978-11.948Q74.66-11.948 68.9753-15.8232Q63.2907-19.6984 61.3204-27.5493L80.9629-27.5493Q82.0084-27.5493 82.6719-28.2028Q83.3354-28.8562 83.3354-29.8514Q83.3354-32.2238 80.9629-32.2238L60.4558-32.2238Q60.4056-32.9375 60.3654-33.6915Q60.3252-34.4454 60.3252-35.2395Q60.3252-35.9633 60.3402-36.672Q60.3553-37.3807 60.4056-38.0241L80.9629-38.0241Q82.0084-38.0241 82.6719-38.7026Q83.3354-39.3812 83.3354-40.3764Q83.3354-42.7287 80.9629-42.7287L61.3304-42.7287Q63.2002-50.6902 68.92-54.5856Q74.6399-58.4809 81.8978-58.4809Q83.5564-58.4809 84.7728-58.3301Q85.9892-58.1793 86.8838-58.1793Q88.0801-58.1793 88.819-58.8227Q89.5579-59.466 89.5579-60.6824Q89.5579-61.6173 89.0201-62.2858Q88.4822-62.9543 87.1653-63.3564Q86.1601-63.6379 84.8533-63.7535Q83.5464-63.8691 81.9782-63.8691Q72.5489-63.8691 65.0447-58.5715Q57.5405-53.2738 55.4094-42.7287L47.5685-42.7287Q46.6034-42.7287 45.95-42.0653Q45.2965-41.4018 45.2965-40.3764Q45.2965-39.3812 45.95-38.7026Q46.6034-38.0241 47.5685-38.0241L54.7459-38.0241Q54.6655-37.3807 54.6655-36.7022Q54.6655-36.0236 54.6655-35.2697Q54.6655-34.4152 54.7057-33.606Q54.7459-32.7968 54.7961-32.2238L47.5685-32.2238Q46.6034-32.2238 45.95-31.5754Q45.2965-30.927 45.2965-29.8514Q45.2965-28.8562 45.95-28.2028Q46.6034-27.5493 47.5685-27.5493L55.4295-27.5493Q57.6611-17.0445 65.1251-11.8172Q72.5891-6.58986 81.9782-6.58986Z"/>
  </g>
  <g id="Thin-L" transform="matrix(1 0 0 1 783.716 1556)">
   <path d="M72.6746 26.1461Q85.405 26.1461 96.4884 21.3892Q107.572 16.6324 116.074 8.12846Q124.577-0.375458 129.374-11.4588Q134.171-22.5422 134.171-35.2697Q134.171-47.9972 129.374-59.0806Q124.577-70.1639 116.073-78.6679Q107.569-87.1718 96.4854-91.9286Q85.402-96.6855 72.6715-96.6855Q60.0215-96.6855 48.8994-91.9286Q37.7773-87.1718 29.3151-78.6679Q20.8529-70.1639 16.0558-59.0806Q11.2588-47.9972 11.2588-35.2697Q11.2588-22.5422 16.0558-11.4588Q20.8529-0.375458 29.3166 8.12846Q37.7803 16.6324 48.9024 21.3892Q60.0245 26.1461 72.6746 26.1461ZM72.6746 22.1269Q60.8086 22.1269 50.3887 17.6787Q39.9688 13.2305 32.0746 5.33475Q24.1804-2.56097 19.6935-12.9824Q15.2066-23.4038 15.2066-35.2697Q15.2066-47.1356 19.692-57.557Q24.1774-67.9784 32.0716-75.8742Q39.9658-83.7699 50.3857-88.2181Q60.8056-92.6663 72.6715-92.6663Q84.5405-92.6663 94.9991-88.2181Q105.458-83.7699 113.315-75.8742Q121.172-67.9784 125.66-57.557Q130.149-47.1356 130.149-35.2697Q130.149-23.4038 125.7-12.9824Q121.252-2.56097 113.358 5.33475Q105.464 13.2305 95.0423 17.6787Q84.6209 22.1269 72.6746 22.1269ZM80.214-7.86553Q81.2363-7.86553 82.2748-7.91479Q83.3132-7.96405 84.2129-8.13998Q86.328-8.49787 86.328-9.99069Q86.328-10.9085 85.8198-11.3347Q85.3116-11.761 84.4682-11.761Q83.5776-11.761 82.5899-11.6373Q81.6022-11.5137 80.1335-11.5137Q72.6786-11.5137 66.6818-15.701Q60.685-19.8884 58.8233-28.4179L78.5202-28.4179Q79.3485-28.4179 79.8491-28.8813Q80.3497-29.3447 80.3497-30.0957Q80.3497-31.9253 78.5202-31.9253L58.2302-31.9253Q58.1528-32.7204 58.1126-33.5558Q58.0724-34.3911 58.0724-35.2667Q58.0724-35.9905 58.0739-36.7127Q58.0754-37.435 58.1528-38.0784L78.5202-38.0784Q79.3485-38.0784 79.8491-38.5805Q80.3497-39.0826 80.3497-39.8336Q80.3497-41.5888 78.5202-41.5888L58.7519-41.5888Q60.4589-50.4188 66.5315-54.6806Q72.6042-58.9423 80.1335-58.9423Q81.6022-58.9423 82.6286-58.8186Q83.655-58.695 84.4682-58.695Q85.3116-58.695 85.8198-59.1212Q86.328-59.5475 86.328-60.4653Q86.328-61.2102 85.8037-61.6751Q85.2795-62.1401 84.2069-62.325Q83.3102-62.4979 82.2748-62.5457Q81.2393-62.5935 80.214-62.5935Q71.1647-62.5935 63.9726-57.3229Q56.7805-52.0524 54.9751-41.5888L46.5913-41.5888Q45.8434-41.5888 45.38-41.0881Q44.9166-40.5875 44.9166-39.8336Q44.9166-39.0826 45.38-38.5805Q45.8434-38.0784 46.5913-38.0784L54.4745-38.0784Q54.394-37.435 54.394-36.7158Q54.394-35.9965 54.394-35.2697Q54.394-34.3881 54.4343-33.511Q54.4745-32.6339 54.5519-31.9253L46.5913-31.9253Q45.8434-31.9253 45.38-31.4261Q44.9166-30.927 44.9166-30.0957Q44.9166-29.3447 45.38-28.8813Q45.8434-28.4179 46.5913-28.4179L55.0495-28.4179Q57.0097-18.103 64.1616-12.9843Q71.3134-7.86553 80.214-7.86553Z"/>
  </g>
  <g id="Ultralight-L" transform="matrix(1 0 0 1 487.631 1556)">
   <path d="M72.049 25.5205Q84.6682 25.5205 95.6335 20.8192Q106.599 16.118 115.018 7.70445Q123.437-0.709105 128.178-11.6743Q132.92-22.6395 132.92-35.2697Q132.92-47.8999 128.178-58.8651Q123.437-69.8303 115.023-78.2439Q106.61-86.6574 95.6443-91.3586Q84.6791-96.0599 72.0598-96.0599Q59.521-96.0599 48.5101-91.3586Q37.4993-86.6574 29.1205-78.2439Q20.7417-69.8303 16.0002-58.8651Q11.2588-47.8999 11.2588-35.2697Q11.2588-22.6395 16.0002-11.6743Q20.7417-0.709105 29.115 7.70445Q37.4884 16.118 48.4992 20.8192Q59.5101 25.5205 72.049 25.5205ZM72.049 22.9749Q60.0162 22.9749 49.4364 18.4572Q38.8567 13.9395 30.8374 5.92558Q22.818-2.0883 18.2546-12.6626Q13.6913-23.2369 13.6913-35.2697Q13.6913-47.3025 18.2601-57.8768Q22.8289-68.4511 30.8482-76.465Q38.8676-84.4789 49.4473-88.9966Q60.0271-93.5143 72.0598-93.5143Q84.0817-93.5143 94.7071-88.9966Q105.333-84.4789 113.301-76.465Q121.269-68.4511 125.827-57.8768Q130.385-47.3025 130.385-35.2697Q130.385-23.2369 125.867-12.6626Q121.349-2.0883 113.33 5.92558Q105.311 13.9395 94.7365 18.4572Q84.1621 22.9749 72.049 22.9749ZM79.3103-8.51892Q80.0686-8.51892 80.9541-8.52648Q81.8396-8.53404 82.6698-8.64045Q84.6736-8.83152 84.6736-10.1158Q84.6736-10.8807 84.2836-11.1957Q83.8936-11.5107 83.2309-11.5107Q82.3681-11.5107 81.4847-11.401Q80.6013-11.2913 79.2299-11.2913Q71.6638-11.2913 65.5071-15.6385Q59.3504-19.9857 57.5443-28.8627L77.269-28.8627Q77.9861-28.8627 78.4033-29.2289Q78.8205-29.595 78.8205-30.2208Q78.8205-31.7723 77.269-31.7723L57.0902-31.7723Q56.9989-32.6092 56.9587-33.4863Q56.9185-34.3633 56.9185-35.2806Q56.9185-36.0044 56.9131-36.7336Q56.9076-37.4628 56.9989-38.1062L77.269-38.1062Q77.9861-38.1062 78.4033-38.5179Q78.8205-38.9297 78.8205-39.5555Q78.8205-41.0049 77.269-41.0049L57.4312-41.0049Q59.0548-50.2798 65.3082-54.7292Q71.5616-59.1786 79.2299-59.1786Q80.6013-59.1786 81.5303-59.0689Q82.4594-58.9591 83.2309-58.9591Q83.8936-58.9591 84.2836-59.2741Q84.6736-59.5892 84.6736-60.3541Q84.6736-61.0016 84.1563-61.3623Q83.6391-61.723 82.6916-61.7968Q81.8505-61.9141 80.9541-61.9271Q80.0577-61.9401 79.3103-61.9401Q70.4557-61.9401 63.4235-56.6834Q56.3913-51.4268 54.7527-41.0049L46.0909-41.0049Q45.4542-41.0049 45.0881-40.5877Q44.7219-40.1705 44.7219-39.5555Q44.7219-38.9297 45.0881-38.5179Q45.4542-38.1062 46.0909-38.1062L54.3354-38.1062Q54.255-37.4628 54.255-36.7227Q54.255-35.9826 54.255-35.2697Q54.255-34.3742 54.2952-33.4624Q54.3354-32.5505 54.4267-31.7723L46.0909-31.7723Q45.4542-31.7723 45.0881-31.3497Q44.7219-30.927 44.7219-30.2208Q44.7219-29.595 45.0881-29.2289Q45.4542-28.8627 46.0909-28.8627L54.8548-28.8627Q56.6761-18.6452 63.6681-13.582Q70.6601-8.51892 79.3103-8.51892Z"/>
  </g>
  <g id="Black-M" transform="matrix(1 0 0 1 2871.36 1126)">
   <path d="M62.0423 18.1161Q73.0725 18.1161 82.714 13.9613Q92.3555 9.80654 99.704 2.45531Q107.052-4.89592 111.21-14.5374Q115.367-24.1789 115.367-35.2035Q115.367-46.2282 111.21-55.8697Q107.052-65.5112 99.7012-72.8624Q92.35-80.2136 82.7085-84.3684Q73.067-88.5232 62.0368-88.5232Q51.0119-88.5232 41.3705-84.3684Q31.7292-80.2136 24.3833-72.8624Q17.0375-65.5112 12.8801-55.8697Q8.72266-46.2282 8.72266-35.2035Q8.72266-24.1789 12.8801-14.5374Q17.0375-4.89592 24.3861 2.45531Q31.7347 9.80654 41.376 13.9613Q51.0174 18.1161 62.0423 18.1161ZM62.0423 0.734266Q54.6003 0.734266 48.0771-2.06802Q41.554-4.87031 36.637-9.78999Q31.7201-14.7097 28.918-21.2356Q26.1159-27.7615 26.1159-35.2035Q26.1159-42.6456 28.9152-49.1715Q31.7146-55.6974 36.6315-60.6171Q41.5485-65.5368 48.0716-68.3391Q54.5948-71.1414 62.0368-71.1414Q69.4844-71.1414 76.0074-68.3391Q82.5304-65.5368 87.4502-60.6171Q92.3701-55.6974 95.175-49.1715Q97.9799-42.6456 97.9799-35.2035Q97.9799-27.7615 95.1776-21.2356Q92.3753-14.7097 87.4584-9.78999Q82.5414-4.87031 76.0155-2.06802Q69.4896 0.734266 62.0423 0.734266ZM68.1753-14.0515Q70.6835-14.0515 72.2652-14.4989Q73.8469-14.9463 74.8453-15.7265Q76.6235-17.1838 76.6235-19.4728Q76.6235-20.7327 76.1743-21.6022Q75.7251-22.4717 74.8591-23.0426Q73.8772-23.7849 72.0034-23.9999Q70.1295-24.215 68.2843-24.2721Q64.875-24.3863 62.1212-25.6812Q59.3674-26.976 58.4262-29.3368L71.3959-29.3368Q72.4057-29.3368 72.8982-29.8608Q73.3908-30.3848 73.3908-31.2235Q73.3908-33.1042 71.3959-33.1042L57.1356-33.1042Q57.0788-33.311 57.0476-33.9487Q57.0165-34.5863 57.0165-35.2551Q57.0165-35.7588 57.0192-36.2026Q57.022-36.6464 57.0788-36.9164L71.3959-36.9164Q72.4057-36.9164 72.8982-37.4403Q73.3908-37.9641 73.3908-38.8029Q73.3908-40.6893 71.3959-40.6893L58.2091-40.6893Q59.1509-43.2607 62.0159-44.6354Q64.8808-46.0101 68.5127-46.1814Q70.1295-46.2956 72.0603-46.4535Q73.9911-46.6115 74.9732-47.4109Q75.7251-47.9818 76.1172-48.8513Q76.5093-49.7208 76.5093-50.9807Q76.5093-52.0368 76.1016-53.0203Q75.6939-54.0038 74.8343-54.7435Q73.9556-55.5753 72.2652-56.0199Q70.5748-56.4645 68.2324-56.4645Q58.6078-56.4645 52.7423-52.2353Q46.8769-48.0061 45.2687-40.6893L42.377-40.6893Q41.3725-40.6893 40.877-40.1968Q40.3815-39.7042 40.3815-38.8029Q40.3815-37.9641 40.877-37.4403Q41.3725-36.9164 42.377-36.9164L44.8047-36.9164Q44.7995-36.6464 44.7995-36.1795Q44.7995-35.7127 44.7995-35.1465Q44.7995-34.6379 44.8021-34.1091Q44.8047-33.5802 44.8044-33.1042L42.377-33.1042Q41.3725-33.1042 40.877-32.6144Q40.3815-32.1246 40.3815-31.2235Q40.3815-30.3848 40.877-29.8608Q41.3725-29.3368 42.377-29.3368L45.4342-29.3368Q47.1559-22.2367 53.0188-18.1441Q58.8816-14.0515 68.1753-14.0515Z"/>
  </g>
  <g id="Heavy-M" transform="matrix(1 0 0 1 2575.48 1126)">
   <path d="M61.2045 17.2648Q72.0509 17.2648 81.541 13.1749Q91.0312 9.08498 98.2688 1.83921Q105.506-5.40657 109.606-14.8967Q113.705-24.3868 113.705-35.217Q113.705-46.0473 109.606-55.5374Q105.506-65.0275 98.2607-72.2733Q91.0149-79.519 81.5248-83.6089Q72.0347-87.6988 61.1882-87.6988Q50.3604-87.6988 40.8691-83.6089Q31.3778-79.519 24.1495-72.2733Q16.9211-65.0275 12.8219-55.5374Q8.72266-46.0473 8.72266-35.217Q8.72266-24.3868 12.8219-14.8967Q16.9211-5.40657 24.1576 1.83921Q31.394 9.08498 40.8853 13.1749Q50.3767 17.2648 61.2045 17.2648ZM61.2045 2.03385Q53.4869 2.03385 46.73-0.86303Q39.9731-3.75991 34.8765-8.86466Q29.7798-13.9694 26.8817-20.7344Q23.9836-27.4994 23.9836-35.217Q23.9836-42.9346 26.8736-49.6996Q29.7636-56.4646 34.8602-61.5694Q39.9568-66.6741 46.7137-69.571Q53.4706-72.4679 61.1882-72.4679Q68.922-72.4679 75.6802-69.571Q82.4383-66.6741 87.5418-61.5694Q92.6453-56.4646 95.5516-49.6996Q98.4578-42.9346 98.4578-35.217Q98.4578-27.4994 95.5609-20.7344Q92.664-13.9694 87.5674-8.86466Q82.4708-3.75991 75.7057-0.86303Q68.9407 2.03385 61.2045 2.03385ZM67.498-13.507Q69.8193-13.507 71.3438-13.8922Q72.8683-14.2775 73.8529-14.9631Q75.69-16.2796 75.69-18.4735Q75.69-19.73 75.1563-20.5641Q74.6227-21.3981 73.6577-21.8343Q72.7217-22.4014 71.0235-22.5316Q69.3252-22.6618 67.5666-22.7055Q63.6907-22.7927 60.6223-24.4156Q57.5538-26.0386 56.4485-29.1148L69.9358-29.1148Q70.9505-29.1148 71.4872-29.6802Q72.0238-30.2456 72.0238-31.127Q72.0238-33.1278 69.9358-33.1278L55.2393-33.1278Q55.1932-33.3968 55.162-34.0023Q55.1309-34.6078 55.1309-35.2444Q55.1309-35.7615 55.139-36.2269Q55.1471-36.6923 55.1932-37.0162L69.9358-37.0162Q70.9505-37.0162 71.4872-37.5829Q72.0238-38.1495 72.0238-39.0308Q72.0238-41.0455 69.9358-41.0455L56.304-41.0455Q57.4045-44.2573 60.5545-45.9319Q63.7045-47.6064 67.7411-47.7373Q69.3252-47.8245 71.0683-47.9111Q72.8114-47.9977 73.7449-48.6084Q74.6227-49.0447 75.1127-49.8787Q75.6027-50.7127 75.6027-51.9693Q75.6027-52.9927 75.1896-53.9151Q74.7765-54.8376 73.8204-55.5284Q72.9393-56.2414 71.3438-56.6185Q69.7482-56.9956 67.5417-56.9956Q58.3732-56.9956 52.4451-52.7893Q46.5169-48.5831 44.8205-41.0455L41.3078-41.0455Q40.3118-41.0455 39.7682-40.5088Q39.2246-39.9721 39.2246-39.0308Q39.2246-38.1495 39.7682-37.5829Q40.3118-37.0162 41.3078-37.0162L44.3056-37.0162Q44.2869-36.6923 44.2869-36.2213Q44.2869-35.7504 44.2869-35.1734Q44.2869-34.6352 44.2963-34.0995Q44.3056-33.5637 44.3081-33.1278L41.3078-33.1278Q40.3118-33.1278 39.7682-32.5992Q39.2246-32.0707 39.2246-31.127Q39.2246-30.2456 39.7682-29.6802Q40.3118-29.1148 41.3078-29.1148L44.9376-29.1148Q46.7261-21.7241 52.6449-17.6156Q58.5638-13.507 67.498-13.507Z"/>
  </g>
  <g id="Bold-M" transform="matrix(1 0 0 1 2279.69 1126)">
   <path d="M60.2672 16.3124Q70.9082 16.3124 80.2289 12.2951Q89.5497 8.27781 96.6634 1.15Q103.777-5.9778 107.811-15.2986Q111.845-24.6193 111.845-35.2321Q111.845-45.8449 107.811-55.1656Q103.777-64.4864 96.6493-71.6142Q89.5215-78.742 80.2007-82.7593Q70.8799-86.7766 60.2389-86.7766Q49.6317-86.7766 40.3082-82.7593Q30.9846-78.742 23.8878-71.6142Q16.791-64.4864 12.7568-55.1656Q8.72266-45.8449 8.72266-35.2321Q8.72266-24.6193 12.7568-15.2986Q16.791-5.9778 23.902 1.15Q31.0129 8.27781 40.3364 12.2951Q49.6599 16.3124 60.2672 16.3124ZM60.2672 3.48763Q52.2414 3.48763 45.223 0.484927Q38.2046-2.51777 32.907-7.82954Q27.6093-13.1413 24.6039-20.1738Q21.5984-27.2063 21.5984-35.2321Q21.5984-43.2579 24.5897-50.2904Q27.5811-57.3229 32.8787-62.6347Q38.1764-67.9464 45.1948-70.9491Q52.2131-73.9518 60.2389-73.9518Q68.293-73.9518 75.3141-70.9491Q82.3352-67.9464 87.6443-62.6347Q92.9533-57.3229 95.9728-50.2904Q98.9924-43.2579 98.9924-35.2321Q98.9924-27.2063 95.9897-20.1738Q92.987-13.1413 87.6894-7.82954Q82.3917-2.51777 75.3592 0.484927Q68.3267 3.48763 60.2672 3.48763ZM66.7404-12.8979Q68.8525-12.8979 70.313-13.2136Q71.7735-13.5293 72.7428-14.1091Q74.6457-15.2681 74.6457-17.3556Q74.6457-18.6085 74.0176-19.4028Q73.3895-20.1971 72.3137-20.4826Q71.4292-20.8538 69.9273-20.8891Q68.4255-20.9244 66.7638-20.9529Q62.3658-21.01 58.9455-23Q55.5251-24.9899 54.2361-28.8666L68.3024-28.8666Q69.3226-28.8666 69.9087-29.4783Q70.4947-30.09 70.4947-31.019Q70.4947-33.1543 68.3024-33.1543L53.118-33.1543Q53.0839-33.4928 53.0527-34.0623Q53.0216-34.6318 53.0216-35.2324Q53.0216-35.7646 53.0357-36.2541Q53.0498-36.7437 53.0839-37.1279L68.3024-37.1279Q69.3226-37.1279 69.9087-37.7424Q70.4947-38.3568 70.4947-39.2859Q70.4947-41.4439 68.3024-41.4439L54.1729-41.4439Q55.4509-45.3721 58.9197-47.3821Q62.3885-49.3922 66.878-49.4778Q68.4255-49.5349 69.9586-49.5417Q71.4918-49.5484 72.3708-49.9481Q73.3895-50.2336 73.989-51.0279Q74.5886-51.8223 74.5886-53.0752Q74.5886-54.062 74.1695-54.9162Q73.7504-55.7704 72.6863-56.4063Q71.8024-56.9865 70.313-57.288Q68.8236-57.5896 66.769-57.5896Q58.1109-57.5896 52.1126-53.4091Q46.1143-49.2285 44.3191-41.4439L40.1118-41.4439Q39.1253-41.4439 38.5279-40.8578Q37.9305-40.2717 37.9305-39.2859Q37.9305-38.3568 38.5279-37.7424Q39.1253-37.1279 40.1118-37.1279L43.7473-37.1279Q43.7135-36.7437 43.7135-36.2681Q43.7135-35.7925 43.7135-35.2035Q43.7135-34.6321 43.7304-34.0887Q43.7473-33.5453 43.7528-33.1543L40.1118-33.1543Q39.1253-33.1543 38.5279-32.5823Q37.9305-32.0104 37.9305-31.019Q37.9305-30.09 38.5279-29.4783Q39.1253-28.8666 40.1118-28.8666L44.382-28.8666Q46.2453-21.1507 52.2268-17.0243Q58.2082-12.8979 66.7404-12.8979Z"/>
  </g>
  <g id="Semibold-M" transform="matrix(1 0 0 1 1983.62 1126)">
   <path d="M59.621 15.6559Q70.1203 15.6559 79.3244 11.6886Q88.5284 7.72135 95.5566 0.674869Q102.585-6.37161 106.574-15.5756Q110.564-24.7797 110.564-35.2425Q110.564-45.7053 106.574-54.9093Q102.585-64.1134 95.5384-71.1598Q88.4919-78.2063 79.2879-82.1736Q70.0838-86.1408 59.5845-86.1408Q49.1293-86.1408 39.9215-82.1736Q30.7136-78.2063 23.7075-71.1598Q16.7013-64.1134 12.712-54.9093Q8.72266-45.7053 8.72266-35.2425Q8.72266-24.7797 12.712-15.5756Q16.7013-6.37161 23.7257 0.674869Q30.7501 7.72135 39.958 11.6886Q49.1658 15.6559 59.621 15.6559ZM59.621 4.48985Q51.3827 4.48985 44.1841 1.4142Q36.9855-1.66145 31.5492-7.11594Q26.113-12.5704 23.0335-19.7873Q19.954-27.0042 19.954-35.2425Q19.954-43.4808 23.0153-50.6977Q26.0765-57.9145 31.5127-63.369Q36.9489-68.8235 44.1476-71.8992Q51.3462-74.9748 59.5845-74.9748Q67.8593-74.9748 75.0618-71.8992Q82.2642-68.8235 87.7149-63.369Q93.1655-57.9145 96.2633-50.6977Q99.361-43.4808 99.361-35.2425Q99.361-27.0042 96.2853-19.7873Q93.2097-12.5704 87.7735-7.11594Q82.3372-1.66145 75.1203 1.4142Q67.9035 4.48985 59.621 4.48985ZM66.2181-12.478Q68.186-12.478 69.6024-12.7458Q71.0188-13.0135 71.9775-13.5204Q73.9258-14.5708 73.9258-16.5849Q73.9258-17.8352 73.2326-18.6022Q72.5393-19.3692 71.3872-19.5508Q70.5381-19.7868 69.1716-19.7567Q67.8052-19.7266 66.2103-19.7448Q61.4524-19.7811 57.7895-22.024Q54.1266-24.2669 52.7109-28.6954L67.1763-28.6954Q68.2004-28.6954 68.8205-29.339Q69.4406-29.9826 69.4406-30.9446Q69.4406-33.1725 67.1763-33.1725L51.6556-33.1725Q51.6298-33.559 51.5986-34.1036Q51.5674-34.6483 51.5674-35.2241Q51.5674-35.7667 51.5857-36.2729Q51.604-36.7791 51.6298-37.2049L67.1763-37.2049Q68.2004-37.2049 68.8205-37.8523Q69.4406-38.4998 69.4406-39.4617Q69.4406-41.7185 67.1763-41.7185L52.7037-41.7185Q54.104-46.1407 57.7927-48.3819Q61.4813-50.6232 66.2829-50.6777Q67.8052-50.714 69.1936-50.6657Q70.582-50.6175 71.4235-50.8717Q72.5393-51.0532 73.2144-51.8202Q73.8895-52.5872 73.8895-53.8376Q73.8895-54.7991 73.4662-55.6062Q73.043-56.4134 71.9045-57.0116Q71.0186-57.5001 69.6024-57.7496Q68.1862-57.9992 66.2363-57.9992Q57.93-57.9992 51.8833-53.8363Q45.8367-49.6734 43.9734-41.7185L39.2873-41.7185Q38.3074-41.7185 37.6729-41.0984Q37.0383-40.4783 37.0383-39.4617Q37.0383-38.4998 37.6729-37.8523Q38.3074-37.2049 39.2873-37.2049L43.3624-37.2049Q43.3182-36.7791 43.3182-36.3003Q43.3182-35.8216 43.3182-35.2243Q43.3182-34.63 43.3403-34.0813Q43.3624-33.5326 43.37-33.1725L39.2873-33.1725Q38.3074-33.1725 37.6729-32.5707Q37.0383-31.9688 37.0383-30.9446Q37.0383-29.9826 37.6729-29.339Q38.3074-28.6954 39.2873-28.6954L43.999-28.6954Q45.9139-20.7554 51.9385-16.6167Q57.963-12.478 66.2181-12.478Z"/>
  </g>
  <g id="Medium-M" transform="matrix(1 0 0 1 1687.4 1126)">
   <path d="M59.1311 15.158Q69.523 15.158 78.6385 11.2287Q87.754 7.29942 94.7174 0.314603Q101.681-6.67021 105.636-15.7857Q109.591-24.9012 109.591-35.2504Q109.591-45.5995 105.636-54.715Q101.681-63.8305 94.696-70.8153Q87.7112-77.8002 78.5957-81.7295Q69.4802-85.6588 59.0883-85.6588Q48.7484-85.6588 39.6283-81.7295Q30.5081-77.8002 23.5707-70.8153Q16.6333-63.8305 12.678-54.715Q8.72266-45.5995 8.72266-35.2504Q8.72266-24.9012 12.678-15.7857Q16.6333-6.67021 23.5921 0.314603Q30.5509 7.29942 39.671 11.2287Q48.7912 15.158 59.1311 15.158ZM59.1311 5.24978Q50.7316 5.24978 43.3963 2.11881Q36.061-1.01215 30.5197-6.57486Q24.9784-12.1376 21.8428-19.4943Q18.7072-26.8509 18.7072-35.2504Q18.7072-43.6498 21.8214-51.0065Q24.9356-58.3632 30.4769-63.9259Q36.0183-69.4886 43.3536-72.6195Q50.6889-75.7505 59.0883-75.7505Q67.5305-75.7505 74.8704-72.6195Q82.2103-69.4886 87.7684-63.9259Q93.3265-58.3632 96.4835-51.0065Q99.6405-43.6498 99.6405-35.2504Q99.6405-26.8509 96.5095-19.4943Q93.3785-12.1376 87.8372-6.57486Q82.2959-1.01215 74.9392 2.11881Q67.5825 5.24978 59.1311 5.24978ZM65.8221-12.1596Q67.6806-12.1596 69.0636-12.391Q70.4466-12.6224 71.3972-13.074Q73.3799-14.0421 73.3799-16.0005Q73.3799-17.249 72.6373-17.9952Q71.8947-18.7415 70.6847-18.8442Q69.8624-18.9778 68.5986-18.8981Q67.3349-18.8184 65.7906-18.8287Q60.7599-18.8493 56.913-21.284Q53.0661-23.7187 51.5545-28.5656L66.3225-28.5656Q67.3494-28.5656 67.9954-29.2334Q68.6413-29.9013 68.6413-30.8881Q68.6413-33.1864 66.3225-33.1864L50.5467-33.1864Q50.5272-33.6091 50.496-34.135Q50.4649-34.6609 50.4649-35.2179Q50.4649-35.7683 50.4862-36.2871Q50.5076-36.8059 50.5272-37.2633L66.3225-37.2633Q67.3494-37.2633 67.9954-37.9357Q68.6413-38.6081 68.6413-39.595Q68.6413-41.9268 66.3225-41.9268L51.5897-41.9268Q53.0828-46.7234 56.9381-49.14Q60.7934-51.5567 65.8317-51.5875Q67.3349-51.6081 68.6136-51.5181Q69.8922-51.4281 70.7053-51.572Q71.8947-51.6747 72.627-52.421Q73.3593-53.1672 73.3593-54.4157Q73.3593-55.3581 72.933-56.1295Q72.5066-56.9009 71.3116-57.4706Q70.4243-57.8896 69.0636-58.0996Q67.7028-58.3097 65.8324-58.3097Q57.7929-58.3097 51.7095-54.1603Q45.6262-50.0108 43.7113-41.9268L38.6621-41.9268Q37.6872-41.9268 37.0245-41.2808Q36.3618-40.6349 36.3618-39.595Q36.3618-38.6081 37.0245-37.9357Q37.6872-37.2633 38.6621-37.2633L43.0705-37.2633Q43.0185-36.8059 43.0185-36.3248Q43.0185-35.8436 43.0185-35.2401Q43.0185-34.6283 43.0445-34.0756Q43.0705-33.5229 43.0798-33.1864L38.6621-33.1864Q37.6872-33.1864 37.0245-32.5618Q36.3618-31.9373 36.3618-30.8881Q36.3618-29.9013 37.0245-29.2334Q37.6872-28.5656 38.6621-28.5656L43.7086-28.5656Q45.6626-20.4556 51.7199-16.3076Q57.7772-12.1596 65.8221-12.1596Z"/>
  </g>
  <g id="Regular-M" transform="matrix(1 0 0 1 1391.32 1126)">
   <path d="M58.492 14.5087Q68.7438 14.5087 77.7439 10.6289Q86.7439 6.74907 93.6228-0.155309Q100.502-7.05969 104.413-16.0597Q108.324-25.0598 108.324-35.2606Q108.324-45.4615 104.413-54.4616Q100.502-63.4616 93.5973-70.366Q86.693-77.2704 77.6929-81.1502Q68.6929-85.03 58.441-85.03Q48.2515-85.03 39.2458-81.1502Q30.2401-77.2704 23.3923-70.366Q16.5446-63.4616 12.6336-54.4616Q8.72266-45.4615 8.72266-35.2606Q8.72266-25.0598 12.6336-16.0597Q16.5446-7.05969 23.4178-0.155309Q30.291 6.74907 39.2968 10.6289Q48.3025 14.5087 58.492 14.5087ZM58.492 6.24099Q49.8824 6.24099 42.3688 3.03788Q34.8553-0.165238 29.1769-5.86909Q23.4985-11.573 20.2897-19.112Q17.0809-26.6511 17.0809-35.2606Q17.0809-43.8702 20.2642-51.4093Q23.4476-58.9483 29.1259-64.6522Q34.8043-70.3561 42.3179-73.5592Q49.8315-76.7623 58.441-76.7623Q67.1016-76.7623 74.6208-73.5592Q82.1401-70.3561 87.8383-64.6522Q93.5364-58.9483 96.7707-51.4093Q100.005-43.8702 100.005-35.2606Q100.005-26.6511 96.8019-19.112Q93.5988-11.573 87.9204-5.86909Q82.242-0.165238 74.7029 3.03788Q67.1639 6.24099 58.492 6.24099ZM65.3055-11.7443Q67.0214-11.7443 68.3608-11.9283Q69.7001-12.1123 70.6403-12.4917Q72.6679-13.3525 72.6679-15.2383Q72.6679-16.4842 71.8609-17.2034Q71.0539-17.9226 69.7684-17.9226Q68.9811-17.9226 67.8513-17.7782Q66.7214-17.6338 65.2432-17.6338Q59.8566-17.6338 55.7697-20.3188Q51.6829-23.0037 50.0461-28.3964L65.2088-28.3964Q66.2395-28.3964 66.9191-29.0957Q67.5987-29.7951 67.5987-30.8145Q67.5987-33.2044 65.2088-33.2044L49.1004-33.2044Q49.089-33.6746 49.0579-34.1759Q49.0267-34.6772 49.0267-35.2097Q49.0267-35.7704 49.0522-36.3057Q49.0777-36.841 49.089-37.3394L65.2088-37.3394Q66.2395-37.3394 66.9191-38.0445Q67.5987-38.7495 67.5987-39.7689Q67.5987-42.1984 65.2088-42.1984L50.1367-42.1984Q51.7508-47.4835 55.8235-50.1289Q59.8962-52.7742 65.2432-52.7742Q66.7214-52.7742 67.8569-52.6298Q68.9925-52.4854 69.7684-52.4854Q71.0539-52.4854 71.8609-53.2046Q72.6679-53.9238 72.6679-55.1697Q72.6679-56.0871 72.2374-56.812Q71.807-57.5369 70.5384-58.0692Q69.6492-58.3976 68.3608-58.5562Q67.0724-58.7147 65.3055-58.7147Q57.614-58.7147 51.4828-54.5828Q45.3517-50.4509 43.3695-42.1984L37.8466-42.1984Q36.8782-42.1984 36.1788-41.5188Q35.4794-40.8392 35.4794-39.7689Q35.4794-38.7495 36.1788-38.0445Q36.8782-37.3394 37.8466-37.3394L42.6899-37.3394Q42.6276-36.841 42.6276-36.3566Q42.6276-35.8723 42.6276-35.2606Q42.6276-34.6263 42.6587-34.0683Q42.6899-33.5103 42.7012-33.2044L37.8466-33.2044Q36.8782-33.2044 36.1788-32.5503Q35.4794-31.8962 35.4794-30.8145Q35.4794-29.7951 36.1788-29.0957Q36.8782-28.3964 37.8466-28.3964L43.3298-28.3964Q45.3347-20.0646 51.4347-15.9044Q57.5347-11.7443 65.3055-11.7443Z"/>
  </g>
  <g id="Light-M" transform="matrix(1 0 0 1 1095.44 1126)">
   <path d="M57.664 13.6807Q67.7687 13.6807 76.6123 9.87453Q85.456 6.06831 92.2245-0.716478Q98.993-7.50127 102.83-16.3449Q106.668-25.1886 106.668-35.2606Q106.668-45.3327 102.83-54.1764Q98.993-63.02 92.2082-69.8048Q85.4234-76.5896 76.5798-80.3958Q67.7361-84.202 57.6315-84.202Q47.5892-84.202 38.7306-80.3958Q29.8721-76.5896 23.1348-69.8048Q16.3974-63.02 12.56-54.1764Q8.72266-45.3327 8.72266-35.2606Q8.72266-25.1886 12.56-16.3449Q16.3974-7.50127 23.151-0.716478Q29.9047 6.06831 38.7632 9.87453Q47.6217 13.6807 57.664 13.6807ZM57.664 7.36333Q48.8337 7.36333 41.1085 4.06822Q33.3833 0.773111 27.5394-5.08714Q21.6954-10.9474 18.3854-18.6888Q15.0755-26.4303 15.0755-35.2606Q15.0755-44.091 18.3692-51.8325Q21.6629-59.5739 27.5068-65.4342Q33.3508-71.2944 41.076-74.5895Q48.8011-77.8846 57.6315-77.8846Q66.4944-77.8846 74.2345-74.5895Q81.9745-71.2944 87.8199-65.4342Q93.6652-59.5739 96.9915-51.8325Q100.318-44.091 100.318-35.2606Q100.318-26.4303 97.0227-18.6888Q93.7275-10.9474 87.8836-5.08714Q82.0396 0.773111 74.2982 4.06822Q66.5567 7.36333 57.664 7.36333ZM64.1096-12.609Q65.4759-12.609 66.6129-12.7379Q67.7498-12.8667 68.598-13.1541Q70.4784-13.794 70.4784-15.4039Q70.4784-16.4474 69.8278-17.0195Q69.1772-17.5915 68.1309-17.5915Q67.3804-17.5915 66.3886-17.4654Q65.3967-17.3394 64.0473-17.3394Q58.5134-17.3394 54.215-20.236Q49.9166-23.1325 48.3534-28.9851L63.5529-28.9851Q64.4364-28.9851 65.0056-29.5557Q65.5748-30.1263 65.5748-30.9801Q65.5748-33.002 63.5529-33.002L47.5916-33.002Q47.5619-33.5274 47.5307-34.0839Q47.4996-34.6404 47.4996-35.2281Q47.4996-35.7888 47.5159-36.3333Q47.5321-36.8778 47.5619-37.3762L63.5529-37.3762Q64.4364-37.3762 65.0056-37.9617Q65.5748-38.5471 65.5748-39.4009Q65.5748-41.4256 63.5529-41.4256L48.3887-41.4256Q49.8925-47.2995 54.2044-50.1933Q58.5162-53.087 64.0473-53.087Q65.3967-53.087 66.4034-52.961Q67.4102-52.835 68.1309-52.835Q69.1772-52.835 69.8278-53.407Q70.4784-53.979 70.4784-55.0225Q70.4784-55.8112 70.0571-56.398Q69.6359-56.9849 68.5329-57.37Q67.7173-57.6249 66.6129-57.7374Q65.5085-57.85 64.1096-57.85Q56.6756-57.85 50.7561-53.7364Q44.8365-49.6229 43.0751-41.4256L37.1843-41.4256Q36.3631-41.4256 35.7925-40.8565Q35.2219-40.2873 35.2219-39.4009Q35.2219-38.5471 35.7925-37.9617Q36.3631-37.3762 37.1843-37.3762L42.5059-37.3762Q42.4436-36.8778 42.4436-36.3658Q42.4436-35.8539 42.4436-35.2606Q42.4436-34.6079 42.4747-34.0039Q42.5059-33.4 42.5356-33.002L37.1843-33.002Q36.3631-33.002 35.7925-32.4491Q35.2219-31.8962 35.2219-30.9801Q35.2219-30.1263 35.7925-29.5557Q36.3631-28.9851 37.1843-28.9851L43.0723-28.9851Q44.8932-20.7822 50.7816-16.6956Q56.67-12.609 64.1096-12.609Z"/>
  </g>
  <g id="Thin-M" transform="matrix(1 0 0 1 799.828 1126)">
   <path d="M56.569 12.5857Q66.479 12.5857 75.1158 8.87683Q83.7526 5.16794 90.3751-1.45867Q96.9976-8.08529 100.738-16.7221Q104.478-25.3589 104.478-35.2606Q104.478-45.1624 100.738-53.7992Q96.9976-62.436 90.371-69.0626Q83.7444-75.6892 75.1076-79.3981Q66.4707-83.107 56.5608-83.107Q46.7131-83.107 38.0493-79.3981Q29.3854-75.6892 22.7941-69.0626Q16.2027-62.436 12.4627-53.7992Q8.72266-45.1624 8.72266-35.2606Q8.72266-25.3589 12.4627-16.7221Q16.2027-8.08529 22.7982-1.45867Q29.3936 5.16794 38.0575 8.87683Q46.7214 12.5857 56.569 12.5857ZM56.569 8.84771Q47.4466 8.84771 39.4416 5.43093Q31.4366 2.01415 25.3736-4.05293Q19.3107-10.12 15.8668-18.1291Q12.423-26.1383 12.423-35.2606Q12.423-44.383 15.8627-52.3921Q19.3024-60.4013 25.3654-66.4684Q31.4284-72.5354 39.4334-75.9522Q47.4384-79.369 56.5608-79.369Q65.6914-79.369 73.7234-75.9522Q81.7555-72.5354 87.7955-66.4684Q93.8356-60.4013 97.2835-52.3921Q100.731-44.383 100.731-35.2606Q100.731-26.1383 97.3147-18.1291Q93.8979-10.12 87.8349-4.05293Q81.7719 2.01415 73.7628 5.43093Q65.7537 8.84771 56.569 8.84771ZM62.5279-13.7527Q63.4318-13.7527 64.3011-13.8086Q65.1704-13.8644 65.8969-14.0301Q67.5826-14.3781 67.5826-15.6229Q67.5826-16.3988 67.1389-16.7761Q66.6951-17.1534 65.9651-17.1534Q65.2633-17.1534 64.454-17.0518Q63.6446-16.9501 62.4656-16.9501Q56.737-16.9501 52.1588-20.1265Q47.5805-23.3029 46.1146-29.7638L61.3628-29.7638Q62.0517-29.7638 62.4749-30.1641Q62.898-30.5643 62.898-31.1991Q62.898-32.7343 61.3628-32.7343L45.5962-32.7343Q45.5422-33.3327 45.511-33.9622Q45.4798-34.5917 45.4798-35.2524Q45.4798-35.8132 45.484-36.3698Q45.4881-36.9264 45.5422-37.4249L61.3628-37.4249Q62.0517-37.4249 62.4749-37.8522Q62.898-38.2795 62.898-38.9142Q62.898-40.4036 61.3628-40.4036L46.077-40.4036Q47.4348-47.0562 52.063-50.2784Q56.6912-53.5007 62.4656-53.5007Q63.6446-53.5007 64.481-53.399Q65.3174-53.2973 65.9651-53.2973Q66.6951-53.2973 67.1389-53.6746Q67.5826-54.052 67.5826-54.8278Q67.5826-55.4461 67.1735-55.8505Q66.7644-56.2549 65.8804-56.4453Q65.1622-56.6028 64.3011-56.6545Q63.44-56.7063 62.5279-56.7063Q55.4346-56.7063 49.7949-52.6171Q44.1551-48.5279 42.6857-40.4036L36.3083-40.4036Q35.6817-40.4036 35.2814-39.9804Q34.8812-39.5572 34.8812-38.9142Q34.8812-38.2795 35.2814-37.8522Q35.6817-37.4249 36.3083-37.4249L42.2625-37.4249Q42.2002-36.9264 42.2002-36.378Q42.2002-35.8296 42.2002-35.2606Q42.2002-34.5835 42.2314-33.9187Q42.2625-33.2539 42.3166-32.7343L36.3083-32.7343Q35.6817-32.7343 35.2814-32.3153Q34.8812-31.8962 34.8812-31.1991Q34.8812-30.5643 35.2814-30.1641Q35.6817-29.7638 36.3083-29.7638L42.7316-29.7638Q44.3091-21.7312 49.9177-17.742Q55.5263-13.7527 62.5279-13.7527Z"/>
  </g>
  <g id="Ultralight-M" transform="matrix(1 0 0 1 503.679 1126)">
   <path d="M56.0081 12.0248Q65.8184 12.0248 74.3492 8.36581Q82.8801 4.70678 89.4278-1.83882Q95.9756-8.38442 99.6657-16.9153Q103.356-25.4462 103.356-35.2606Q103.356-45.0751 99.6657-53.606Q95.9756-62.1369 89.43-68.6825Q82.8844-75.2281 74.3535-78.8871Q65.8226-82.5461 56.0124-82.5461Q46.2644-82.5461 37.7003-78.8871Q29.1361-75.2281 22.6196-68.6825Q16.103-62.1369 12.4128-53.606Q8.72266-45.0751 8.72266-35.2606Q8.72266-25.4462 12.4128-16.9153Q16.103-8.38442 22.6175-1.83882Q29.1319 4.70678 37.6961 8.36581Q46.2602 12.0248 56.0081 12.0248ZM56.0081 9.60801Q46.7362 9.60801 38.5878 6.12891Q30.4395 2.64981 24.2644-3.52322Q18.0892-9.69625 14.5768-17.8425Q11.0645-25.9887 11.0645-35.2606Q11.0645-44.5326 14.579-52.6788Q18.0934-60.825 24.2686-66.9981Q30.4437-73.1711 38.5921-76.6502Q46.7404-80.1293 56.0124-80.1293Q65.2801-80.1293 73.4617-76.6502Q81.6433-73.1711 87.7831-66.9981Q93.9228-60.825 97.4331-52.6788Q100.943-44.5326 100.943-35.2606Q100.943-25.9887 97.4642-17.8425Q93.9851-9.69625 87.81-3.52322Q81.6348 2.64981 73.4886 6.12891Q65.3424 9.60801 56.0081 9.60801ZM61.7177-14.3385Q62.3849-14.3385 63.1171-14.357Q63.8493-14.3754 64.5134-14.4788Q66.0994-14.6772 66.0994-15.7351Q66.0994-16.3738 65.7616-16.6515Q65.4238-16.9291 64.8559-16.9291Q64.179-16.9291 63.4631-16.8399Q62.7472-16.7507 61.6554-16.7507Q55.8272-16.7507 51.1056-20.0704Q46.384-23.3901 44.968-30.1627L60.2411-30.1627Q60.8302-30.1627 61.1786-30.4757Q61.527-30.7887 61.527-31.3113Q61.527-32.5972 60.2411-32.5972L44.5742-32.5972Q44.5077-33.233 44.4765-33.8999Q44.4453-34.5668 44.4453-35.2649Q44.4453-35.8256 44.4432-36.3885Q44.4411-36.9513 44.5077-37.4498L60.2411-37.4498Q60.8302-37.4498 61.1786-37.7961Q61.527-38.1424 61.527-38.665Q61.527-39.8801 60.2411-39.8801L44.8929-39.8801Q46.1759-46.9315 50.9662-50.3221Q55.7564-53.7126 61.6554-53.7126Q62.7472-53.7126 63.4964-53.6233Q64.2455-53.5341 64.8559-53.5341Q65.4238-53.5341 65.7616-53.8118Q66.0994-54.0894 66.0994-54.7281Q66.0994-55.2592 65.6966-55.5701Q65.2937-55.881 64.5219-55.9717Q63.8535-56.0793 63.1171-56.0999Q62.3806-56.1205 61.7177-56.1205Q54.7989-56.1205 49.3025-52.0437Q43.8062-47.967 42.4863-39.8801L35.8596-39.8801Q35.3327-39.8801 35.0197-39.5317Q34.7067-39.1833 34.7067-38.665Q34.7067-38.1424 35.0197-37.7961Q35.3327-37.4498 35.8596-37.4498L42.1379-37.4498Q42.0756-36.9513 42.0756-36.3842Q42.0756-35.8171 42.0756-35.2606Q42.0756-34.5711 42.1067-33.8751Q42.1379-33.1792 42.2044-32.5972L35.8596-32.5972Q35.3327-32.5972 35.0197-32.2467Q34.7067-31.8962 34.7067-31.3113Q34.7067-30.7887 35.0197-30.4757Q35.3327-30.1627 35.8596-30.1627L42.5571-30.1627Q44.01-22.2173 49.4752-18.2779Q54.9405-14.3385 61.7177-14.3385Z"/>
  </g>
  <g id="Black-S" transform="matrix(1 0 0 1 2884.57 696)">
   <path d="M48.8281 6.78711Q57.5195 6.78711 65.1123 3.51562Q72.7051 0.244141 78.4912-5.54199Q84.2773-11.3281 87.5488-18.9209Q90.8203-26.5137 90.8203-35.2051Q90.8203-43.8965 87.5488-51.4893Q84.2773-59.082 78.4912-64.8682Q72.7051-70.6543 65.1123-73.9258Q57.5195-77.1973 48.8281-77.1973Q40.1367-77.1973 32.5439-73.9258Q24.9512-70.6543 19.165-64.8682Q13.3789-59.082 10.1074-51.4893Q6.83594-43.8965 6.83594-35.2051Q6.83594-26.5137 10.1074-18.9209Q13.3789-11.3281 19.165-5.54199Q24.9512 0.244141 32.5439 3.51562Q40.1367 6.78711 48.8281 6.78711ZM48.8281-7.37305Q43.0664-7.37305 38.0127-9.5459Q32.959-11.7188 29.1504-15.5273Q25.3418-19.3359 23.1689-24.3896Q20.9961-29.4434 20.9961-35.2051Q20.9961-40.9668 23.1689-46.0205Q25.3418-51.0742 29.1504-54.8828Q32.959-58.6914 38.0127-60.8643Q43.0664-63.0371 48.8281-63.0371Q54.5898-63.0371 59.6436-60.8643Q64.6973-58.6914 68.5059-54.8828Q72.3145-51.0742 74.4873-46.0205Q76.6602-40.9668 76.6602-35.2051Q76.6602-29.4434 74.4873-24.3896Q72.3145-19.3359 68.5059-15.5273Q64.6973-11.7188 59.6436-9.5459Q54.5898-7.37305 48.8281-7.37305ZM53.5645-18.8477Q55.5664-18.8477 56.8115-19.2139Q58.0566-19.5801 58.8379-20.2148Q60.2051-21.3867 60.2051-23.1934Q60.2051-24.1699 59.8877-24.8535Q59.5703-25.5371 58.9355-26.0254Q58.1543-26.6602 56.6406-26.8555Q55.127-27.0508 53.6621-27.0996Q51.123-27.1973 49.0479-28.125Q46.9727-29.0527 46.2891-30.7129L56.2988-30.7129Q57.0801-30.7129 57.4463-31.1035Q57.8125-31.4941 57.8125-32.1289Q57.8125-33.5449 56.2988-33.5449L45.2637-33.5449Q45.2148-33.6914 45.1904-34.2041Q45.166-34.7168 45.166-35.2539Q45.166-35.6445 45.166-35.9863Q45.166-36.3281 45.2148-36.5234L56.2988-36.5234Q57.0801-36.5234 57.4463-36.9141Q57.8125-37.3047 57.8125-37.9395Q57.8125-39.3555 56.2988-39.3555L46.0938-39.3555Q46.7773-41.2109 48.9502-42.2119Q51.123-43.2129 53.8574-43.3594Q55.127-43.457 56.6895-43.6035Q58.252-43.75 59.0332-44.4336Q59.5703-44.9219 59.8389-45.6055Q60.1074-46.2891 60.1074-47.2656Q60.1074-48.0957 59.79-48.877Q59.4727-49.6582 58.8379-50.2441Q58.1543-50.9277 56.8115-51.2939Q55.4688-51.6602 53.6133-51.6602Q45.9473-51.6602 41.3818-48.3398Q36.8164-45.0195 35.5957-39.3555L33.4961-39.3555Q32.7148-39.3555 32.3486-38.9893Q31.9824-38.623 31.9824-37.9395Q31.9824-37.3047 32.3486-36.9141Q32.7148-36.5234 33.4961-36.5234L35.2539-36.5234Q35.2539-36.3281 35.2539-35.9619Q35.2539-35.5957 35.2539-35.1562Q35.2539-34.7656 35.2539-34.3506Q35.2539-33.9355 35.2539-33.5449L33.4961-33.5449Q32.7148-33.5449 32.3486-33.1787Q31.9824-32.8125 31.9824-32.1289Q31.9824-31.4941 32.3486-31.1035Q32.7148-30.7129 33.4961-30.7129L35.7422-30.7129Q37.0605-25.2441 41.626-22.0459Q46.1914-18.8477 53.5645-18.8477Z"/>
  </g>
  <g id="Heavy-S" transform="matrix(1 0 0 1 2588.47 696)">
   <path d="M48.2173 6.16479Q56.7704 6.16479 64.2537 2.9394Q71.737-0.285985 77.4425-5.99721Q83.1479-11.7084 86.3791-19.1917Q89.6102-26.675 89.6102-35.2166Q89.6102-43.7582 86.3791-51.2415Q83.1479-58.7248 77.4367-64.436Q71.7255-70.1472 64.2422-73.3726Q56.7589-76.598 48.2058-76.598Q39.6642-76.598 32.1809-73.3726Q24.6976-70.1472 18.9979-64.436Q13.2982-58.7248 10.0671-51.2415Q6.83594-43.7582 6.83594-35.2166Q6.83594-26.675 10.0671-19.1917Q13.2982-11.7084 19.0037-5.99721Q24.7092-0.285985 32.1924 2.9394Q39.6757 6.16479 48.2173 6.16479ZM48.2173-6.40499Q42.2482-6.40499 37.0216-8.64699Q31.795-10.889 27.8539-14.8359Q23.9128-18.7828 21.6708-24.0151Q19.4288-29.2474 19.4288-35.2166Q19.4288-41.1858 21.665-46.4181Q23.9012-51.6504 27.8424-55.5973Q31.7835-59.5442 37.0101-61.7862Q42.2366-64.0282 48.2058-64.0282Q54.1865-64.0282 59.4131-61.7862Q64.6396-59.5442 68.5865-55.5973Q72.5334-51.6504 74.7812-46.4181Q77.0289-41.1858 77.0289-35.2166Q77.0289-29.2474 74.7869-24.0151Q72.5449-18.7828 68.6038-14.8359Q64.6627-10.889 59.4304-8.64699Q54.198-6.40499 48.2173-6.40499ZM53.138-18.2714Q55.0248-18.2714 56.2468-18.5915Q57.4689-18.9117 58.2501-19.4773Q59.6865-20.557 59.6865-22.3175Q59.6865-23.3171 59.2769-23.9892Q58.8673-24.6612 58.1173-25.0343Q57.3706-25.5192 55.9895-25.6396Q54.6084-25.76 53.2011-25.7973Q50.2818-25.872 47.9646-27.0532Q45.6473-28.2345 44.8139-30.4478L55.2616-30.4478Q56.0659-30.4478 56.484-30.8903Q56.9021-31.3328 56.9021-32.0252Q56.9021-33.591 55.2616-33.591L43.8346-33.591Q43.7973-33.7836 43.7729-34.2617Q43.7485-34.7398 43.7485-35.2424Q43.7485-35.6445 43.7543-36.0036Q43.76-36.3627 43.7973-36.6041L55.2616-36.6041Q56.0659-36.6041 56.484-37.0466Q56.9021-37.4891 56.9021-38.1815Q56.9021-39.7588 55.2616-39.7588L44.6878-39.7588Q45.5212-42.0868 47.9072-43.3125Q50.2933-44.5382 53.3503-44.6501Q54.6084-44.7247 56.0268-44.8078Q57.4452-44.8909 58.1919-45.4132Q58.8673-45.7862 59.2396-46.4583Q59.6119-47.1303 59.6119-48.13Q59.6119-48.9485 59.2887-49.6952Q58.9656-50.4419 58.2271-51.0048Q57.532-51.5962 56.2468-51.9105Q54.9617-52.2249 53.1754-52.2249Q45.8666-52.2249 41.2205-48.9218Q36.5744-45.6188 35.25-39.7588L32.6663-39.7588Q31.8736-39.7588 31.4497-39.3408Q31.0259-38.9227 31.0259-38.1815Q31.0259-37.4891 31.4497-37.0466Q31.8736-36.6041 32.6663-36.6041L34.8505-36.6041Q34.839-36.3627 34.839-35.9965Q34.839-35.6303 34.839-35.1793Q34.839-34.7656 34.8448-34.3506Q34.8505-33.9355 34.8505-33.591L32.6663-33.591Q31.8736-33.591 31.4497-33.1787Q31.0259-32.7664 31.0259-32.0252Q31.0259-31.3328 31.4497-30.8903Q31.8736-30.4478 32.6663-30.4478L35.3504-30.4478Q36.7494-24.714 41.3897-21.4927Q46.0301-18.2714 53.138-18.2714Z"/>
  </g>
  <g id="Bold-S" transform="matrix(1 0 0 1 2292.43 696)">
   <path d="M47.5342 5.46875Q55.9326 5.46875 63.2935 2.29492Q70.6543-0.878906 76.2695-6.50635Q81.8848-12.1338 85.0708-19.4946Q88.2568-26.8555 88.2568-35.2295Q88.2568-43.6035 85.0708-50.9644Q81.8848-58.3252 76.2573-63.9526Q70.6299-69.5801 63.269-72.7539Q55.9082-75.9277 47.5098-75.9277Q39.1357-75.9277 31.7749-72.7539Q24.4141-69.5801 18.811-63.9526Q13.208-58.3252 10.022-50.9644Q6.83594-43.6035 6.83594-35.2295Q6.83594-26.8555 10.022-19.4946Q13.208-12.1338 18.8232-6.50635Q24.4385-0.878906 31.7993 2.29492Q39.1602 5.46875 47.5342 5.46875ZM47.5342-5.32227Q41.333-5.32227 35.9131-7.6416Q30.4932-9.96094 26.4038-14.0625Q22.3145-18.1641 19.9951-23.5962Q17.6758-29.0283 17.6758-35.2295Q17.6758-41.4307 19.9829-46.8628Q22.29-52.2949 26.3794-56.3965Q30.4688-60.498 35.8887-62.8174Q41.3086-65.1367 47.5098-65.1367Q53.7354-65.1367 59.1553-62.8174Q64.5752-60.498 68.6768-56.3965Q72.7783-52.2949 75.1099-46.8628Q77.4414-41.4307 77.4414-35.2295Q77.4414-29.0283 75.1221-23.5962Q72.8027-18.1641 68.7134-14.0625Q64.624-9.96094 59.1919-7.6416Q53.7598-5.32227 47.5342-5.32227ZM52.6611-17.627Q54.4189-17.627 55.6152-17.8955Q56.8115-18.1641 57.5928-18.6523Q59.1064-19.6289 59.1064-21.3379Q59.1064-22.3633 58.5938-23.0225Q58.0811-23.6816 57.2021-23.9258Q56.4941-24.2432 55.2612-24.2798Q54.0283-24.3164 52.6855-24.3408Q49.3408-24.3896 46.7529-25.8545Q44.165-27.3193 43.1641-30.1514L54.1016-30.1514Q54.9316-30.1514 55.4077-30.6519Q55.8838-31.1523 55.8838-31.9092Q55.8838-33.6426 54.1016-33.6426L42.2363-33.6426Q42.2119-33.8867 42.1875-34.3262Q42.1631-34.7656 42.1631-35.2295Q42.1631-35.6445 42.1753-36.0229Q42.1875-36.4014 42.2119-36.6943L54.1016-36.6943Q54.9316-36.6943 55.4077-37.1948Q55.8838-37.6953 55.8838-38.4521Q55.8838-40.21 54.1016-40.21L43.1152-40.21Q44.1162-43.0664 46.7407-44.5435Q49.3652-46.0205 52.7832-46.0938Q54.0283-46.1426 55.2856-46.1548Q56.543-46.167 57.251-46.5088Q58.0811-46.7529 58.5693-47.4121Q59.0576-48.0713 59.0576-49.0967Q59.0576-49.9023 58.728-50.6104Q58.3984-51.3184 57.5439-51.8555Q56.8359-52.3438 55.6152-52.6001Q54.3945-52.8564 52.6855-52.8564Q45.7764-52.8564 41.04-49.5728Q36.3037-46.2891 34.8633-40.21L31.7383-40.21Q30.9326-40.21 30.4443-39.7339Q29.9561-39.2578 29.9561-38.4521Q29.9561-37.6953 30.4443-37.1948Q30.9326-36.6943 31.7383-36.6943L34.3994-36.6943Q34.375-36.4014 34.375-36.0352Q34.375-35.6689 34.375-35.2051Q34.375-34.7656 34.3872-34.3506Q34.3994-33.9355 34.3994-33.6426L31.7383-33.6426Q30.9326-33.6426 30.4443-33.1787Q29.9561-32.7148 29.9561-31.9092Q29.9561-31.1523 30.4443-30.6519Q30.9326-30.1514 31.7383-30.1514L34.9121-30.1514Q36.4014-24.1211 41.1255-20.874Q45.8496-17.627 52.6611-17.627Z"/>
  </g>
  <g id="Semibold-S" transform="matrix(1 0 0 1 1996.19 696)">
   <path d="M47.0632 4.98887Q55.355 4.98887 62.6314 1.85059Q69.9078-1.2877 75.4608-6.85737Q81.0139-12.4271 84.1688-19.7035Q87.3237-26.9799 87.3237-35.2384Q87.3237-43.4969 84.1688-50.7733Q81.0139-58.0497 75.4442-63.6194Q69.8745-69.1891 62.5981-72.3273Q55.3217-75.4656 47.0299-75.4656Q38.7714-75.4656 31.495-72.3273Q24.2186-69.1891 18.6822-63.6194Q13.1458-58.0497 9.99087-50.7733Q6.83594-43.4969 6.83594-35.2384Q6.83594-26.9799 9.99087-19.7035Q13.1458-12.4271 18.6988-6.85737Q24.2519-1.2877 31.5283 1.85059Q38.8047 4.98887 47.0632 4.98887ZM47.0632-4.57578Q40.7021-4.57578 35.1488-6.94844Q29.5956-9.32109 25.4041-13.5293Q21.2125-17.7375 18.8398-23.3074Q16.4672-28.8772 16.4672-35.2384Q16.4672-41.5995 18.8232-47.1694Q21.1792-52.7393 25.3708-56.9475Q29.5623-61.1557 35.1155-63.5283Q40.6688-65.901 47.0299-65.901Q53.4243-65.901 58.9775-63.5283Q64.5308-61.1557 68.739-56.9475Q72.9472-52.7393 75.3365-47.1694Q77.7258-41.5995 77.7258-35.2384Q77.7258-28.8772 75.3531-23.3074Q72.9805-17.7375 68.7889-13.5293Q64.5974-9.32109 59.0275-6.94844Q53.4576-4.57578 47.0632-4.57578ZM52.3323-17.1826Q54.0013-17.1826 55.1798-17.4156Q56.3583-17.6486 57.1396-18.0836Q58.7065-18.9891 58.7065-20.6625Q58.7065-21.7057 58.1228-22.356Q57.539-23.0063 56.5712-23.1615Q55.8898-23.3634 54.7591-23.3422Q53.6284-23.3211 52.3301-23.3366Q48.6921-23.3677 45.9176-25.028Q43.1431-26.6884 42.0266-29.947L53.3018-29.947Q54.1496-29.947 54.6657-30.4875Q55.1817-31.0279 55.1817-31.8292Q55.1817-33.6781 53.3018-33.6781L41.1344-33.6781Q41.1188-33.9578 41.0944-34.3706Q41.07-34.7834 41.07-35.2206Q41.07-35.6445 41.0867-36.0363Q41.1033-36.428 41.1188-36.7565L53.3018-36.7565Q54.1496-36.7565 54.6657-37.297Q55.1817-37.8375 55.1817-38.6388Q55.1817-40.521 53.3018-40.521L42.0311-40.521Q43.1476-43.7418 45.9365-45.3921Q48.7254-47.0425 52.3922-47.0891Q53.6284-47.1201 54.7747-47.0834Q55.9209-47.0468 56.6022-47.2642Q57.539-47.4194 58.1072-48.0697Q58.6755-48.72 58.6755-49.7632Q58.6755-50.56 58.3415-51.2413Q58.0074-51.9227 57.0729-52.442Q56.3561-52.8592 55.1798-53.0755Q54.0035-53.2919 52.3479-53.2919Q45.7142-53.2919 40.9156-50.0215Q36.1171-46.7512 34.5967-40.521L31.0984-40.521Q30.2839-40.521 29.7512-40.0049Q29.2185-39.4889 29.2185-38.6388Q29.2185-37.8375 29.7512-37.297Q30.2839-36.7565 31.0984-36.7565L34.0884-36.7565Q34.0551-36.428 34.0551-36.0618Q34.0551-35.6956 34.0551-35.2229Q34.0551-34.7656 34.0717-34.3506Q34.0884-33.9355 34.0884-33.6781L31.0984-33.6781Q30.2839-33.6781 29.7512-33.1787Q29.2185-32.6793 29.2185-31.8292Q29.2185-31.0279 29.7512-30.4875Q30.2839-29.947 31.0984-29.947L34.61-29.947Q36.1614-23.7123 40.9433-20.4475Q45.7252-17.1826 52.3323-17.1826Z"/>
  </g>
  <g id="Medium-S" transform="matrix(1 0 0 1 1699.83 696)">
   <path d="M46.7061 4.625Q54.917 4.625 62.1294 1.51367Q69.3418-1.59766 74.8477-7.12354Q80.3535-12.6494 83.4849-19.8618Q86.6162-27.0742 86.6162-35.2451Q86.6162-43.416 83.4849-50.6284Q80.3535-57.8408 74.8276-63.3667Q69.3018-68.8926 62.0894-72.0039Q54.877-75.1152 46.666-75.1152Q38.4951-75.1152 31.2827-72.0039Q24.0703-68.8926 18.5845-63.3667Q13.0986-57.8408 9.96729-50.6284Q6.83594-43.416 6.83594-35.2451Q6.83594-27.0742 9.96729-19.8618Q13.0986-12.6494 18.6045-7.12354Q24.1104-1.59766 31.3228 1.51367Q38.5352 4.625 46.7061 4.625ZM46.7061-4.00977Q40.2236-4.00977 34.5693-6.42285Q28.915-8.83594 24.646-13.125Q20.377-17.4141 17.9639-23.0884Q15.5508-28.7627 15.5508-35.2451Q15.5508-41.7275 17.9438-47.4019Q20.3369-53.0762 24.606-57.3652Q28.875-61.6543 34.5293-64.0674Q40.1836-66.4805 46.666-66.4805Q53.1885-66.4805 58.8428-64.0674Q64.4971-61.6543 68.7861-57.3652Q73.0752-53.0762 75.5083-47.4019Q77.9414-41.7275 77.9414-35.2451Q77.9414-28.7627 75.5283-23.0884Q73.1152-17.4141 68.8462-13.125Q64.5771-8.83594 58.9028-6.42285Q53.2285-4.00977 46.7061-4.00977ZM52.083-16.8457Q53.6846-16.8457 54.8496-17.0518Q56.0146-17.2578 56.7959-17.6523Q58.4033-18.5039 58.4033-20.1504Q58.4033-21.207 57.7656-21.8506Q57.1279-22.4941 56.0928-22.582Q55.4316-22.6963 54.3784-22.6313Q53.3252-22.5664 52.0605-22.5752Q48.2002-22.5928 45.2842-24.4014Q42.3682-26.21 41.1641-29.792L52.6953-29.792Q53.5566-29.792 54.103-30.3628Q54.6494-30.9336 54.6494-31.7686Q54.6494-33.7051 52.6953-33.7051L40.2988-33.7051Q40.29-34.0117 40.2656-34.4043Q40.2412-34.7969 40.2412-35.2139Q40.2412-35.6445 40.2612-36.0464Q40.2812-36.4482 40.29-36.8037L52.6953-36.8037Q53.5566-36.8037 54.103-37.3745Q54.6494-37.9453 54.6494-38.7803Q54.6494-40.7568 52.6953-40.7568L41.209-40.7568Q42.4131-44.2539 45.3267-46.0356Q48.2402-47.8174 52.0957-47.8438Q53.3252-47.8613 54.3872-47.7876Q55.4492-47.7139 56.1104-47.8369Q57.1279-47.9248 57.7568-48.5684Q58.3857-49.2119 58.3857-50.2686Q58.3857-51.0586 58.0483-51.7197Q57.7109-52.3809 56.7158-52.8867Q55.9922-53.25 54.8496-53.436Q53.707-53.6221 52.0918-53.6221Q45.667-53.6221 40.8213-50.3618Q35.9756-47.1016 34.3945-40.7568L30.6133-40.7568Q29.792-40.7568 29.2256-40.2104Q28.6592-39.6641 28.6592-38.7803Q28.6592-37.9453 29.2256-37.3745Q29.792-36.8037 30.6133-36.8037L33.8525-36.8037Q33.8125-36.4482 33.8125-36.082Q33.8125-35.7158 33.8125-35.2363Q33.8125-34.7656 33.8325-34.3506Q33.8525-33.9355 33.8525-33.7051L30.6133-33.7051Q29.792-33.7051 29.2256-33.1787Q28.6592-32.6523 28.6592-31.7686Q28.6592-30.9336 29.2256-30.3628Q29.792-29.792 30.6133-29.792L34.3809-29.792Q35.9795-23.4023 40.8052-20.124Q45.6309-16.8457 52.083-16.8457Z"/>
  </g>
  <g id="Regular-S" transform="matrix(1 0 0 1 1403.58 696)">
   <path d="M46.2402 4.15039Q54.3457 4.15039 61.4746 1.07422Q68.6035-2.00195 74.0479-7.4707Q79.4922-12.9395 82.5928-20.0684Q85.6934-27.1973 85.6934-35.2539Q85.6934-43.3105 82.5928-50.4395Q79.4922-57.5684 74.0234-63.0371Q68.5547-68.5059 61.4258-71.582Q54.2969-74.6582 46.1914-74.6582Q38.1348-74.6582 31.0059-71.582Q23.877-68.5059 18.457-63.0371Q13.0371-57.5684 9.93652-50.4395Q6.83594-43.3105 6.83594-35.2539Q6.83594-27.1973 9.93652-20.0684Q13.0371-12.9395 18.4814-7.4707Q23.9258-2.00195 31.0547 1.07422Q38.1836 4.15039 46.2402 4.15039ZM46.2402-3.27148Q39.5996-3.27148 33.8135-5.7373Q28.0273-8.20312 23.6572-12.5977Q19.2871-16.9922 16.8213-22.8027Q14.3555-28.6133 14.3555-35.2539Q14.3555-41.8945 16.7969-47.7051Q19.2383-53.5156 23.6084-57.9102Q27.9785-62.3047 33.7646-64.7705Q39.5508-67.2363 46.1914-67.2363Q52.8809-67.2363 58.667-64.7705Q64.4531-62.3047 68.8477-57.9102Q73.2422-53.5156 75.7324-47.7051Q78.2227-41.8945 78.2227-35.2539Q78.2227-28.6133 75.7568-22.8027Q73.291-16.9922 68.9209-12.5977Q64.5508-8.20312 58.7402-5.7373Q52.9297-3.27148 46.2402-3.27148ZM51.7578-16.4062Q53.2715-16.4062 54.4189-16.5771Q55.5664-16.748 56.3477-17.0898Q58.0078-17.8711 58.0078-19.4824Q58.0078-20.5566 57.2998-21.1914Q56.5918-21.8262 55.4688-21.8262Q54.834-21.8262 53.8818-21.7041Q52.9297-21.582 51.709-21.582Q47.5586-21.582 44.458-23.584Q41.3574-25.5859 40.0391-29.5898L51.9043-29.5898Q52.7832-29.5898 53.3691-30.2002Q53.9551-30.8105 53.9551-31.6895Q53.9551-33.7402 51.9043-33.7402L39.209-33.7402Q39.209-34.082 39.1846-34.4482Q39.1602-34.8145 39.1602-35.2051Q39.1602-35.6445 39.1846-36.0596Q39.209-36.4746 39.209-36.8652L51.9043-36.8652Q52.7832-36.8652 53.3691-37.4756Q53.9551-38.0859 53.9551-38.9648Q53.9551-41.0645 51.9043-41.0645L40.1367-41.0645Q41.4551-44.9219 44.5312-46.875Q47.6074-48.8281 51.709-48.8281Q52.9297-48.8281 53.8818-48.7061Q54.834-48.584 55.4688-48.584Q56.5918-48.584 57.2998-49.2188Q58.0078-49.8535 58.0078-50.9277Q58.0078-51.709 57.666-52.3438Q57.3242-52.9785 56.25-53.4668Q55.5176-53.7598 54.4189-53.9062Q53.3203-54.0527 51.7578-54.0527Q45.6055-54.0527 40.6982-50.8057Q35.791-47.5586 34.1309-41.0645L29.9805-41.0645Q29.1504-41.0645 28.54-40.4785Q27.9297-39.8926 27.9297-38.9648Q27.9297-38.0859 28.54-37.4756Q29.1504-36.8652 29.9805-36.8652L33.5449-36.8652Q33.4961-36.4746 33.4961-36.1084Q33.4961-35.7422 33.4961-35.2539Q33.4961-34.7656 33.5205-34.3506Q33.5449-33.9355 33.5449-33.7402L29.9805-33.7402Q29.1504-33.7402 28.54-33.1787Q27.9297-32.6172 27.9297-31.6895Q27.9297-30.8105 28.54-30.2002Q29.1504-29.5898 29.9805-29.5898L34.082-29.5898Q35.7422-22.998 40.625-19.7021Q45.5078-16.4062 51.7578-16.4062Z"/>
  </g>
  <g id="Light-S" transform="matrix(1 0 0 1 1107.6 696)">
   <path d="M45.5078 3.41797Q53.4831 3.41797 60.4736 0.406901Q67.4642-2.60417 72.8109-7.96712Q78.1576-13.3301 81.193-20.3206Q84.2285-27.3112 84.2285-35.2539Q84.2285-43.1966 81.193-50.1872Q78.1576-57.1777 72.7946-62.5407Q67.4316-67.9036 60.4411-70.9147Q53.4505-73.9258 45.4753-73.9258Q37.5488-73.9258 30.5501-70.9147Q23.5514-67.9036 18.2292-62.5407Q12.9069-57.1777 9.87142-50.1872Q6.83594-43.1966 6.83594-35.2539Q6.83594-27.3112 9.87142-20.3206Q12.9069-13.3301 18.2454-7.96712Q23.584-2.60417 30.5827 0.406901Q37.5814 3.41797 45.5078 3.41797ZM45.5078-2.27865Q38.6719-2.27865 32.6986-4.82585Q26.7253-7.37305 22.2087-11.9059Q17.6921-16.4388 15.1367-22.4284Q12.5814-28.418 12.5814-35.2539Q12.5814-42.0898 15.1204-48.0794Q17.6595-54.069 22.1761-58.6019Q26.6927-63.1348 32.666-65.682Q38.6393-68.2292 45.4753-68.2292Q52.3438-68.2292 58.3252-65.682Q64.3066-63.1348 68.8314-58.6019Q73.3561-54.069 75.9277-48.0794Q78.4993-42.0898 78.4993-35.2539Q78.4993-28.418 75.9521-22.4284Q73.4049-16.4388 68.8883-11.9059Q64.3717-7.37305 58.3822-4.82585Q52.3926-2.27865 45.5078-2.27865ZM50.6999-17.1712Q51.9043-17.1712 52.8727-17.2933Q53.8411-17.4154 54.541-17.6758Q56.071-18.2617 56.071-19.6289Q56.071-20.5241 55.5013-21.0286Q54.9316-21.5332 54.0202-21.5332Q53.418-21.5332 52.5879-21.4274Q51.7578-21.3216 50.651-21.3216Q46.3704-21.3216 43.0827-23.5107Q39.7949-25.6999 38.5417-30.1107L50.4395-30.1107Q51.1882-30.1107 51.6764-30.6071Q52.1647-31.1035 52.1647-31.8359Q52.1647-33.5612 50.4395-33.5612L37.8743-33.5612Q37.8581-33.9518 37.8337-34.3669Q37.8092-34.7819 37.8092-35.2214Q37.8092-35.6608 37.8255-36.084Q37.8418-36.5072 37.8581-36.8978L50.4395-36.8978Q51.1882-36.8978 51.6764-37.4023Q52.1647-37.9069 52.1647-38.6393Q52.1647-40.3809 50.4395-40.3809L38.5905-40.3809Q39.8112-44.7591 43.099-46.932Q46.3867-49.1048 50.651-49.1048Q51.7578-49.1048 52.596-48.999Q53.4342-48.8932 54.0202-48.8932Q54.9316-48.8932 55.5013-49.3978Q56.071-49.9023 56.071-50.7975Q56.071-51.4648 55.7373-51.9775Q55.4036-52.4902 54.4759-52.8483Q53.8086-53.0762 52.8727-53.182Q51.9368-53.2878 50.6999-53.2878Q44.7754-53.2878 40.0553-50.057Q35.3353-46.8262 33.8704-40.3809L29.3945-40.3809Q28.6947-40.3809 28.1982-39.8926Q27.7018-39.4043 27.7018-38.6393Q27.7018-37.9069 28.1982-37.4023Q28.6947-36.8978 29.3945-36.8978L33.3822-36.8978Q33.3333-36.5072 33.3333-36.1165Q33.3333-35.7259 33.3333-35.2539Q33.3333-34.7493 33.3577-34.2936Q33.3822-33.8379 33.3984-33.5612L29.3945-33.5612Q28.6947-33.5612 28.1982-33.0892Q27.7018-32.6172 27.7018-31.8359Q27.7018-31.1035 28.1982-30.6071Q28.6947-30.1107 29.3945-30.1107L33.8542-30.1107Q35.3516-23.6328 40.0472-20.402Q44.7428-17.1712 50.6999-17.1712Z"/>
  </g>
  <g id="Thin-S" transform="matrix(1 0 0 1 811.863 696)">
   <path d="M44.5391 2.44928Q52.3422 2.44928 59.1498-0.47568Q65.9573-3.40064 71.1749-8.62368Q76.3924-13.8467 79.3418-20.6543Q82.2911-27.4619 82.2911-35.2539Q82.2911-43.0459 79.3418-49.8535Q76.3924-56.6611 71.1694-61.8841Q65.9463-67.1072 59.1387-70.0321Q52.3311-72.9571 44.5281-72.9571Q36.7739-72.9571 29.9474-70.0321Q23.1209-67.1072 17.9278-61.8841Q12.7347-56.6611 9.78531-49.8535Q6.83594-43.0459 6.83594-35.2539Q6.83594-27.4619 9.78531-20.6543Q12.7347-13.8467 17.9333-8.62368Q23.1319-3.40064 29.9584-0.47568Q36.7849 2.44928 44.5391 2.44928ZM44.5391-0.965537Q37.4449-0.965537 31.224-3.62037Q25.0032-6.2752 20.2928-10.9911Q15.5825-15.7069 12.9087-21.9333Q10.235-28.1597 10.235-35.2539Q10.235-42.3482 12.9032-48.5745Q15.5714-54.8009 20.2818-59.5168Q24.9921-64.2326 31.213-66.8874Q37.4338-69.5423 44.5281-69.5423Q51.6334-69.5423 57.8731-66.8874Q64.1129-64.2326 68.8099-59.5168Q73.5068-54.8009 76.1861-48.5745Q78.8653-42.3482 78.8653-35.2539Q78.8653-28.1597 76.2105-21.9333Q73.5556-15.7069 68.8453-10.9911Q64.135-6.2752 57.9086-3.62037Q51.6822-0.965537 44.5391-0.965537ZM49.3007-18.183Q50.0961-18.183 50.8277-18.2405Q51.5593-18.2979 52.1516-18.4507Q53.5093-18.7784 53.5093-19.8226Q53.5093-20.481 53.1226-20.8134Q52.736-21.1457 52.1043-21.1457Q51.5452-21.1457 50.8765-21.0615Q50.2079-20.9772 49.2518-20.9772Q44.799-20.9772 41.2637-23.4139Q37.7284-25.8506 36.5612-30.7995L48.5021-30.7995Q49.0786-30.7995 49.4377-31.1453Q49.7968-31.491 49.7968-32.0297Q49.7968-33.3244 48.5021-33.3244L36.1092-33.3244Q36.0714-33.7796 36.047-34.2592Q36.0226-34.7388 36.0226-35.2429Q36.0226-35.6823 36.0281-36.1163Q36.0336-36.5502 36.0714-36.9408L48.5021-36.9408Q49.0786-36.9408 49.4377-37.3055Q49.7968-37.6701 49.7968-38.2088Q49.7968-39.4768 48.5021-39.4768L36.5455-39.4768Q37.637-44.5439 41.2046-47.0073Q44.7722-49.4708 49.2518-49.4708Q50.2079-49.4708 50.8954-49.3865Q51.583-49.3022 52.1043-49.3022Q52.736-49.3022 53.1226-49.6346Q53.5093-49.9669 53.5093-50.6253Q53.5093-51.1419 53.1864-51.4932Q52.8635-51.8444 52.1295-52.0303Q51.5483-52.1721 50.8277-52.224Q50.1071-52.276 49.3007-52.276Q43.6775-52.276 39.205-49.0668Q34.7325-45.8575 33.526-39.4768L28.6196-39.4768Q28.0919-39.4768 27.7462-39.1176Q27.4005-38.7585 27.4005-38.2088Q27.4005-37.6701 27.7462-37.3055Q28.0919-36.9408 28.6196-36.9408L33.1669-36.9408Q33.1181-36.5502 33.1181-36.1273Q33.1181-35.7044 33.1181-35.2539Q33.1181-34.7278 33.1425-34.2183Q33.1669-33.7087 33.2047-33.3244L28.6196-33.3244Q28.0919-33.3244 27.7462-32.9708Q27.4005-32.6172 27.4005-32.0297Q27.4005-31.491 27.7462-31.1453Q28.0919-30.7995 28.6196-30.7995L33.5528-30.7995Q34.8349-24.4723 39.283-21.3277Q43.7311-18.183 49.3007-18.183Z"/>
  </g>
  <g id="Ultralight-S" transform="matrix(1 0 0 1 515.649 696)">
   <path d="M44.043 1.95312Q51.7578 1.95312 58.4717-0.927734Q65.1855-3.80859 70.3369-8.95996Q75.4883-14.1113 78.3936-20.8252Q81.2988-27.5391 81.2988-35.2539Q81.2988-42.9688 78.3936-49.6826Q75.4883-56.3965 70.3369-61.5479Q65.1855-66.6992 58.4717-69.5801Q51.7578-72.4609 44.043-72.4609Q36.377-72.4609 29.6387-69.5801Q22.9004-66.6992 17.7734-61.5479Q12.6465-56.3965 9.74121-49.6826Q6.83594-42.9688 6.83594-35.2539Q6.83594-27.5391 9.74121-20.8252Q12.6465-14.1113 17.7734-8.95996Q22.9004-3.80859 29.6387-0.927734Q36.377 1.95312 44.043 1.95312ZM44.043-0.292969Q36.8164-0.292969 30.4688-3.00293Q24.1211-5.71289 19.3115-10.5225Q14.502-15.332 11.7676-21.6797Q9.0332-28.0273 9.0332-35.2539Q9.0332-42.4805 11.7676-48.8281Q14.502-55.1758 19.3115-59.9854Q24.1211-64.7949 30.4688-67.5049Q36.8164-70.2148 44.043-70.2148Q51.2695-70.2148 57.6416-67.5049Q64.0137-64.7949 68.7988-59.9854Q73.584-55.1758 76.3184-48.8281Q79.0527-42.4805 79.0527-35.2539Q79.0527-28.0273 76.3428-21.6797Q73.6328-15.332 68.8232-10.5225Q64.0137-5.71289 57.666-3.00293Q51.3184-0.292969 44.043-0.292969ZM48.584-18.7012Q49.1699-18.7012 49.7803-18.7256Q50.3906-18.75 50.9277-18.8477Q52.1973-19.043 52.1973-19.9219Q52.1973-20.459 51.9043-20.7031Q51.6113-20.9473 51.123-20.9473Q50.5859-20.9473 50-20.874Q49.4141-20.8008 48.5352-20.8008Q43.9941-20.8008 40.332-23.3643Q36.6699-25.9277 35.5469-31.1523L47.5098-31.1523Q47.998-31.1523 48.291-31.4209Q48.584-31.6895 48.584-32.1289Q48.584-33.2031 47.5098-33.2031L35.2051-33.2031Q35.1562-33.6914 35.1318-34.2041Q35.1074-34.7168 35.1074-35.2539Q35.1074-35.6934 35.1074-36.1328Q35.1074-36.5723 35.1562-36.9629L47.5098-36.9629Q47.998-36.9629 48.291-37.2559Q48.584-37.5488 48.584-37.9883Q48.584-39.0137 47.5098-39.0137L35.498-39.0137Q36.5234-44.4336 40.2344-47.0459Q43.9453-49.6582 48.5352-49.6582Q49.4141-49.6582 50.0244-49.585Q50.6348-49.5117 51.123-49.5117Q51.6113-49.5117 51.9043-49.7559Q52.1973-50 52.1973-50.5371Q52.1973-50.9766 51.8799-51.2451Q51.5625-51.5137 50.9277-51.6113Q50.3906-51.709 49.7803-51.7334Q49.1699-51.7578 48.584-51.7578Q43.1152-51.7578 38.7695-48.5596Q34.4238-45.3613 33.3496-39.0137L28.2227-39.0137Q27.7832-39.0137 27.5146-38.7207Q27.2461-38.4277 27.2461-37.9883Q27.2461-37.5488 27.5146-37.2559Q27.7832-36.9629 28.2227-36.9629L33.0566-36.9629Q33.0078-36.5723 33.0078-36.1328Q33.0078-35.6934 33.0078-35.2539Q33.0078-34.7168 33.0322-34.1797Q33.0566-33.6426 33.1055-33.2031L28.2227-33.2031Q27.7832-33.2031 27.5146-32.9102Q27.2461-32.6172 27.2461-32.1289Q27.2461-31.6895 27.5146-31.4209Q27.7832-31.1523 28.2227-31.1523L33.3984-31.1523Q34.5703-24.9023 38.8916-21.8018Q43.2129-18.7012 48.584-18.7012Z"/>
  </g>
 </g>
</svg>
