<?xml version="1.0" encoding="UTF-8"?>
<!--Generator: Apple Native CoreSVG 175-->
<!DOCTYPE svg
PUBLIC "-//W3C//DTD SVG 1.1//EN"
       "http://www.w3.org/Graphics/SVG/1.1/DTD/svg11.dtd">
<svg version="1.1" xmlns="http://www.w3.org/2000/svg" xmlns:xlink="http://www.w3.org/1999/xlink" width="3300" height="2200">
 <!--glyph: "uni1005E8.medium", point size: 100.0, font version: "17.1d1e1", template writer version: "65.1"-->
 <g id="Notes">
  <rect height="2200" id="artboard" style="fill:white;opacity:1" width="3300" x="0" y="0"/>
  <line style="fill:none;stroke:black;opacity:1;stroke-width:0.5;" x1="263" x2="3036" y1="292" y2="292"/>
  <text style="stroke:none;fill:black;font-family:sans-serif;font-size:13;font-weight:bold;" transform="matrix(1 0 0 1 263 322)">Weight/Scale Variations</text>
  <text style="stroke:none;fill:black;font-family:sans-serif;font-size:13;text-anchor:middle;" transform="matrix(1 0 0 1 559.711 322)">Ultralight</text>
  <text style="stroke:none;fill:black;font-family:sans-serif;font-size:13;text-anchor:middle;" transform="matrix(1 0 0 1 856.422 322)">Thin</text>
  <text style="stroke:none;fill:black;font-family:sans-serif;font-size:13;text-anchor:middle;" transform="matrix(1 0 0 1 1153.13 322)">Light</text>
  <text style="stroke:none;fill:black;font-family:sans-serif;font-size:13;text-anchor:middle;" transform="matrix(1 0 0 1 1449.84 322)">Regular</text>
  <text style="stroke:none;fill:black;font-family:sans-serif;font-size:13;text-anchor:middle;" transform="matrix(1 0 0 1 1746.56 322)">Medium</text>
  <text style="stroke:none;fill:black;font-family:sans-serif;font-size:13;text-anchor:middle;" transform="matrix(1 0 0 1 2043.27 322)">Semibold</text>
  <text style="stroke:none;fill:black;font-family:sans-serif;font-size:13;text-anchor:middle;" transform="matrix(1 0 0 1 2339.98 322)">Bold</text>
  <text style="stroke:none;fill:black;font-family:sans-serif;font-size:13;text-anchor:middle;" transform="matrix(1 0 0 1 2636.69 322)">Heavy</text>
  <text style="stroke:none;fill:black;font-family:sans-serif;font-size:13;text-anchor:middle;" transform="matrix(1 0 0 1 2933.4 322)">Black</text>
  <line style="fill:none;stroke:black;opacity:1;stroke-width:0.5;" x1="263" x2="3036" y1="1903" y2="1903"/>
  <g transform="matrix(1 0 0 1 263 1933)">
   <path d="M9.24805 0.830078Q10.8691 0.830078 12.2949 0.214844Q13.7207-0.400391 14.8096-1.49414Q15.8984-2.58789 16.5186-4.01367Q17.1387-5.43945 17.1387-7.05078Q17.1387-8.66211 16.5186-10.0879Q15.8984-11.5137 14.8047-12.6074Q13.7109-13.7012 12.2852-14.3164Q10.8594-14.9316 9.23828-14.9316Q7.62695-14.9316 6.20117-14.3164Q4.77539-13.7012 3.69141-12.6074Q2.60742-11.5137 1.9873-10.0879Q1.36719-8.66211 1.36719-7.05078Q1.36719-5.43945 1.9873-4.01367Q2.60742-2.58789 3.69629-1.49414Q4.78516-0.400391 6.21094 0.214844Q7.63672 0.830078 9.24805 0.830078ZM9.24805-0.654297Q7.91992-0.654297 6.7627-1.14746Q5.60547-1.64062 4.73145-2.51953Q3.85742-3.39844 3.36426-4.56055Q2.87109-5.72266 2.87109-7.05078Q2.87109-8.37891 3.35938-9.54102Q3.84766-10.7031 4.72168-11.582Q5.5957-12.4609 6.75293-12.9541Q7.91016-13.4473 9.23828-13.4473Q10.5762-13.4473 11.7334-12.9541Q12.8906-12.4609 13.7695-11.582Q14.6484-10.7031 15.1465-9.54102Q15.6445-8.37891 15.6445-7.05078Q15.6445-5.72266 15.1514-4.56055Q14.6582-3.39844 13.7842-2.51953Q12.9102-1.64062 11.748-1.14746Q10.5859-0.654297 9.24805-0.654297ZM5.6543-7.05078Q5.6543-6.72852 5.85938-6.52832Q6.06445-6.32812 6.40625-6.32812L8.51562-6.32812L8.51562-4.20898Q8.51562-3.88672 8.71094-3.67676Q8.90625-3.4668 9.23828-3.4668Q9.56055-3.4668 9.77051-3.67676Q9.98047-3.88672 9.98047-4.20898L9.98047-6.32812L12.0898-6.32812Q12.4219-6.32812 12.627-6.52832Q12.832-6.72852 12.832-7.05078Q12.832-7.38281 12.627-7.58789Q12.4219-7.79297 12.0898-7.79297L9.98047-7.79297L9.98047-9.90234Q9.98047-10.2344 9.77051-10.4443Q9.56055-10.6543 9.23828-10.6543Q8.90625-10.6543 8.71094-10.4443Q8.51562-10.2344 8.51562-9.90234L8.51562-7.79297L6.40625-7.79297Q6.06445-7.79297 5.85938-7.58789Q5.6543-7.38281 5.6543-7.05078Z"/>
  </g>
  <g transform="matrix(1 0 0 1 281.867 1933)">
   <path d="M11.709 2.91016Q13.75 2.91016 15.5518 2.12891Q17.3535 1.34766 18.7305-0.0292969Q20.1074-1.40625 20.8887-3.20801Q21.6699-5.00977 21.6699-7.05078Q21.6699-9.0918 20.8887-10.8936Q20.1074-12.6953 18.7305-14.0723Q17.3535-15.4492 15.5469-16.2305Q13.7402-17.0117 11.6992-17.0117Q9.6582-17.0117 7.85645-16.2305Q6.05469-15.4492 4.68262-14.0723Q3.31055-12.6953 2.5293-10.8936Q1.74805-9.0918 1.74805-7.05078Q1.74805-5.00977 2.5293-3.20801Q3.31055-1.40625 4.6875-0.0292969Q6.06445 1.34766 7.86621 2.12891Q9.66797 2.91016 11.709 2.91016ZM11.709 1.25Q9.98047 1.25 8.47656 0.605469Q6.97266-0.0390625 5.83496-1.17676Q4.69727-2.31445 4.05762-3.81836Q3.41797-5.32227 3.41797-7.05078Q3.41797-8.7793 4.05762-10.2832Q4.69727-11.7871 5.83008-12.9297Q6.96289-14.0723 8.4668-14.7119Q9.9707-15.3516 11.6992-15.3516Q13.4277-15.3516 14.9316-14.7119Q16.4355-14.0723 17.5781-12.9297Q18.7207-11.7871 19.3652-10.2832Q20.0098-8.7793 20.0098-7.05078Q20.0098-5.32227 19.3701-3.81836Q18.7305-2.31445 17.5928-1.17676Q16.4551-0.0390625 14.9463 0.605469Q13.4375 1.25 11.709 1.25ZM7.17773-7.05078Q7.17773-6.69922 7.41211-6.47461Q7.64648-6.25 8.01758-6.25L10.8887-6.25L10.8887-3.36914Q10.8887-2.99805 11.1133-2.76855Q11.3379-2.53906 11.6895-2.53906Q12.0605-2.53906 12.29-2.76855Q12.5195-2.99805 12.5195-3.36914L12.5195-6.25L15.4004-6.25Q15.7715-6.25 16.001-6.47461Q16.2305-6.69922 16.2305-7.05078Q16.2305-7.42188 16.001-7.65137Q15.7715-7.88086 15.4004-7.88086L12.5195-7.88086L12.5195-10.752Q12.5195-11.1328 12.29-11.3623Q12.0605-11.5918 11.6895-11.5918Q11.3379-11.5918 11.1133-11.3574Q10.8887-11.123 10.8887-10.752L10.8887-7.88086L8.01758-7.88086Q7.63672-7.88086 7.40723-7.65137Q7.17773-7.42188 7.17773-7.05078Z"/>
  </g>
  <g transform="matrix(1 0 0 1 305.646 1933)">
   <path d="M14.9707 5.66406Q17.0605 5.66406 18.96 5.01465Q20.8594 4.36523 22.4512 3.19336Q24.043 2.02148 25.2197 0.429688Q26.3965-1.16211 27.0459-3.06641Q27.6953-4.9707 27.6953-7.05078Q27.6953-9.14062 27.0459-11.04Q26.3965-12.9395 25.2197-14.5312Q24.043-16.123 22.4512-17.2998Q20.8594-18.4766 18.9551-19.126Q17.0508-19.7754 14.9609-19.7754Q12.8711-19.7754 10.9717-19.126Q9.07227-18.4766 7.48535-17.2998Q5.89844-16.123 4.72168-14.5312Q3.54492-12.9395 2.90039-11.04Q2.25586-9.14062 2.25586-7.05078Q2.25586-4.9707 2.90527-3.06641Q3.55469-1.16211 4.72656 0.429688Q5.89844 2.02148 7.49023 3.19336Q9.08203 4.36523 10.9814 5.01465Q12.8809 5.66406 14.9707 5.66406ZM14.9707 3.84766Q13.1641 3.84766 11.5283 3.2959Q9.89258 2.74414 8.53516 1.74805Q7.17773 0.751953 6.17676-0.610352Q5.17578-1.97266 4.62891-3.6084Q4.08203-5.24414 4.08203-7.05078Q4.08203-8.86719 4.62891-10.5029Q5.17578-12.1387 6.17188-13.501Q7.16797-14.8633 8.52539-15.8594Q9.88281-16.8555 11.5186-17.4023Q13.1543-17.9492 14.9609-17.9492Q16.7773-17.9492 18.4131-17.4023Q20.0488-16.8555 21.4111-15.8594Q22.7734-14.8633 23.7695-13.501Q24.7656-12.1387 25.3174-10.5029Q25.8691-8.86719 25.8691-7.05078Q25.8789-5.24414 25.332-3.6084Q24.7852-1.97266 23.7842-0.610352Q22.7832 0.751953 21.4209 1.74805Q20.0586 2.74414 18.4229 3.2959Q16.7871 3.84766 14.9707 3.84766ZM9.19922-7.05078Q9.19922-6.66992 9.45801-6.4209Q9.7168-6.17188 10.1172-6.17188L14.0625-6.17188L14.0625-2.2168Q14.0625-1.81641 14.3115-1.55762Q14.5605-1.29883 14.9512-1.29883Q15.3516-1.29883 15.6104-1.55273Q15.8691-1.80664 15.8691-2.2168L15.8691-6.17188L19.8242-6.17188Q20.2246-6.17188 20.4785-6.4209Q20.7324-6.66992 20.7324-7.05078Q20.7324-7.46094 20.4785-7.71484Q20.2246-7.96875 19.8242-7.96875L15.8691-7.96875L15.8691-11.9141Q15.8691-12.3242 15.6104-12.583Q15.3516-12.8418 14.9512-12.8418Q14.5605-12.8418 14.3115-12.583Q14.0625-12.3242 14.0625-11.9141L14.0625-7.96875L10.1172-7.96875Q9.70703-7.96875 9.45312-7.71484Q9.19922-7.46094 9.19922-7.05078Z"/>
  </g>
  <text style="stroke:none;fill:black;font-family:sans-serif;font-size:13;font-weight:bold;" transform="matrix(1 0 0 1 263 1953)">Design Variations</text>
  <text style="stroke:none;fill:black;font-family:sans-serif;font-size:13;" transform="matrix(1 0 0 1 263 1971)">Symbols are supported in up to nine weights and three scales.</text>
  <text style="stroke:none;fill:black;font-family:sans-serif;font-size:13;" transform="matrix(1 0 0 1 263 1989)">For optimal layout with text and other symbols, vertically align</text>
  <text style="stroke:none;fill:black;font-family:sans-serif;font-size:13;" transform="matrix(1 0 0 1 263 2007)">symbols with the adjacent text.</text>
  <line style="fill:none;stroke:#00AEEF;stroke-width:0.5;opacity:1.0;" x1="776" x2="776" y1="1919" y2="1933"/>
  <g transform="matrix(1 0 0 1 776 1933)">
   <path d="M3.31055 0.15625Q3.70117 0.15625 3.91602-0.00976562Q4.13086-0.175781 4.26758-0.585938L5.52734-4.0332L11.2891-4.0332L12.5488-0.585938Q12.6855-0.175781 12.9004-0.00976562Q13.1152 0.15625 13.4961 0.15625Q13.8867 0.15625 14.1162-0.0585938Q14.3457-0.273438 14.3457-0.644531Q14.3457-0.869141 14.2383-1.17188L9.6582-13.3691Q9.48242-13.8184 9.17969-14.043Q8.87695-14.2676 8.4082-14.2676Q7.5-14.2676 7.17773-13.3789L2.59766-1.16211Q2.49023-0.859375 2.49023-0.634766Q2.49023-0.263672 2.70996-0.0537109Q2.92969 0.15625 3.31055 0.15625ZM6.00586-5.51758L8.37891-12.0898L8.42773-12.0898L10.8008-5.51758Z"/>
  </g>
  <line style="fill:none;stroke:#00AEEF;stroke-width:0.5;opacity:1.0;" x1="793.197" x2="793.197" y1="1919" y2="1933"/>
  <text style="stroke:none;fill:black;font-family:sans-serif;font-size:13;font-weight:bold;" transform="matrix(1 0 0 1 776 1953)">Margins</text>
  <text style="stroke:none;fill:black;font-family:sans-serif;font-size:13;" transform="matrix(1 0 0 1 776 1971)">Leading and trailing margins on the left and right side of each symbol</text>
  <text style="stroke:none;fill:black;font-family:sans-serif;font-size:13;" transform="matrix(1 0 0 1 776 1989)">can be adjusted by modifying the x-location of the margin guidelines.</text>
  <text style="stroke:none;fill:black;font-family:sans-serif;font-size:13;" transform="matrix(1 0 0 1 776 2007)">Modifications are automatically applied proportionally to all</text>
  <text style="stroke:none;fill:black;font-family:sans-serif;font-size:13;" transform="matrix(1 0 0 1 776 2025)">scales and weights.</text>
  <g transform="matrix(1 0 0 1 1289 1933)">
   <path d="M2.8418 1.86523L4.54102 3.57422Q5.18555 4.22852 5.90332 4.17969Q6.62109 4.13086 7.31445 3.35938L18.0078-8.42773L17.041-9.4043L6.42578 2.27539Q6.16211 2.57812 5.89355 2.61719Q5.625 2.65625 5.27344 2.30469L4.10156 1.14258Q3.75 0.791016 3.79395 0.522461Q3.83789 0.253906 4.14062-0.0195312L15.6152-10.8203L14.6387-11.7871L3.04688-0.898438Q2.30469-0.214844 2.25098 0.498047Q2.19727 1.21094 2.8418 1.86523ZM9.25781-16.3281Q8.94531-16.0254 8.90625-15.6348Q8.86719-15.2441 9.04297-14.9512Q9.21875-14.6777 9.55566-14.541Q9.89258-14.4043 10.3809-14.5215Q11.4746-14.7754 12.5977-14.7314Q13.7207-14.6875 14.7949-13.9844L14.209-12.5293Q13.9551-11.9043 14.0674-11.4404Q14.1797-10.9766 14.5801-10.5664L16.875-8.25195Q17.2363-7.88086 17.5781-7.82227Q17.9199-7.76367 18.3398-7.8418L19.4043-8.03711L20.0684-7.36328L20.0293-6.80664Q20-6.43555 20.1221-6.12305Q20.2441-5.81055 20.6055-5.44922L21.3672-4.70703Q21.7285-4.3457 22.1533-4.33105Q22.5781-4.31641 22.9297-4.66797L25.8398-7.58789Q26.1914-7.93945 26.1816-8.35449Q26.1719-8.76953 25.8105-9.13086L25.0391-9.89258Q24.6875-10.2539 24.3799-10.3857Q24.0723-10.5176 23.7109-10.4883L23.1348-10.4395L22.4902-11.0742L22.7344-12.1973Q22.832-12.6172 22.6953-12.9834Q22.5586-13.3496 22.1191-13.7891L19.9219-15.9766Q18.6719-17.2168 17.2607-17.8369Q15.8496-18.457 14.4189-18.4814Q12.9883-18.5059 11.665-17.959Q10.3418-17.4121 9.25781-16.3281ZM10.752-15.957Q11.6602-16.6211 12.7002-16.9043Q13.7402-17.1875 14.8047-17.085Q15.8691-16.9824 16.8701-16.5137Q17.8711-16.0449 18.7012-15.2051L21.1328-12.793Q21.3086-12.6172 21.3525-12.4512Q21.3965-12.2852 21.3379-12.0312L21.0156-10.5469L22.5195-9.0625L23.5059-9.12109Q23.6914-9.13086 23.7891-9.09668Q23.8867-9.0625 24.0332-8.91602L24.6094-8.33984L22.168-5.89844L21.5918-6.47461Q21.4453-6.62109 21.4062-6.71875Q21.3672-6.81641 21.377-7.01172L21.4453-7.98828L19.9512-9.47266L18.4277-9.21875Q18.1836-9.16992 18.042-9.2041Q17.9004-9.23828 17.7148-9.41406L15.7129-11.416Q15.5176-11.5918 15.4932-11.7529Q15.4688-11.9141 15.5859-12.1875L16.4648-14.2773Q15.293-15.3711 13.8281-15.791Q12.3633-16.2109 10.8398-15.7617Q10.7227-15.7324 10.6885-15.8057Q10.6543-15.8789 10.752-15.957Z"/>
  </g>
  <text style="stroke:none;fill:black;font-family:sans-serif;font-size:13;font-weight:bold;" transform="matrix(1 0 0 1 1289 1953)">Exporting</text>
  <text style="stroke:none;fill:black;font-family:sans-serif;font-size:13;" transform="matrix(1 0 0 1 1289 1971)">Symbols should be outlined when exporting to ensure the</text>
  <text style="stroke:none;fill:black;font-family:sans-serif;font-size:13;" transform="matrix(1 0 0 1 1289 1989)">design is preserved when submitting to Xcode.</text>
  <text id="template-version" style="stroke:none;fill:black;font-family:sans-serif;font-size:13;text-anchor:end;" transform="matrix(1 0 0 1 3036 1933)">Template v.3.0</text>
  <text style="stroke:none;fill:black;font-family:sans-serif;font-size:13;text-anchor:end;" transform="matrix(1 0 0 1 3036 1951)">Requires Xcode 13 or greater</text>
  <text id="descriptive-name" style="stroke:none;fill:black;font-family:sans-serif;font-size:13;text-anchor:end;" transform="matrix(1 0 0 1 3036 1969)">Generated from eurosign.square.fill</text>
  <text style="stroke:none;fill:black;font-family:sans-serif;font-size:13;text-anchor:end;" transform="matrix(1 0 0 1 3036 1987)">Typeset at 100 points</text>
  <text style="stroke:none;fill:black;font-family:sans-serif;font-size:13;" transform="matrix(1 0 0 1 263 726)">Small</text>
  <text style="stroke:none;fill:black;font-family:sans-serif;font-size:13;" transform="matrix(1 0 0 1 263 1156)">Medium</text>
  <text style="stroke:none;fill:black;font-family:sans-serif;font-size:13;" transform="matrix(1 0 0 1 263 1586)">Large</text>
 </g>
 <g id="Guides">
  <g id="H-reference" style="fill:#27AAE1;stroke:none;" transform="matrix(1 0 0 1 339 696)">
   <path d="M0.993347 0L3.6377 0L29.3282-67.1326L30.0301-67.1326L30.0301-70.459L28.1227-70.459ZM11.6882-24.4797L46.9818-24.4797L46.2311-26.7288L12.4382-26.7288ZM55.1193 0L57.7637 0L30.6381-70.459L29.4327-70.459L29.4327-67.1326Z"/>
  </g>
  <line id="Baseline-S" style="fill:none;stroke:#27AAE1;opacity:1;stroke-width:0.5;" x1="263" x2="3036" y1="696" y2="696"/>
  <line id="Capline-S" style="fill:none;stroke:#27AAE1;opacity:1;stroke-width:0.5;" x1="263" x2="3036" y1="625.541" y2="625.541"/>
  <g id="H-reference" style="fill:#27AAE1;stroke:none;" transform="matrix(1 0 0 1 339 1126)">
   <path d="M0.993347 0L3.6377 0L29.3282-67.1326L30.0301-67.1326L30.0301-70.459L28.1227-70.459ZM11.6882-24.4797L46.9818-24.4797L46.2311-26.7288L12.4382-26.7288ZM55.1193 0L57.7637 0L30.6381-70.459L29.4327-70.459L29.4327-67.1326Z"/>
  </g>
  <line id="Baseline-M" style="fill:none;stroke:#27AAE1;opacity:1;stroke-width:0.5;" x1="263" x2="3036" y1="1126" y2="1126"/>
  <line id="Capline-M" style="fill:none;stroke:#27AAE1;opacity:1;stroke-width:0.5;" x1="263" x2="3036" y1="1055.54" y2="1055.54"/>
  <g id="H-reference" style="fill:#27AAE1;stroke:none;" transform="matrix(1 0 0 1 339 1556)">
   <path d="M0.993347 0L3.6377 0L29.3282-67.1326L30.0301-67.1326L30.0301-70.459L28.1227-70.459ZM11.6882-24.4797L46.9818-24.4797L46.2311-26.7288L12.4382-26.7288ZM55.1193 0L57.7637 0L30.6381-70.459L29.4327-70.459L29.4327-67.1326Z"/>
  </g>
  <line id="Baseline-L" style="fill:none;stroke:#27AAE1;opacity:1;stroke-width:0.5;" x1="263" x2="3036" y1="1556" y2="1556"/>
  <line id="Capline-L" style="fill:none;stroke:#27AAE1;opacity:1;stroke-width:0.5;" x1="263" x2="3036" y1="1485.54" y2="1485.54"/>
  <line id="left-margin-Regular-M" style="fill:none;stroke:#00AEEF;stroke-width:0.5;opacity:1.0;" x1="1392.45" x2="1392.45" y1="1030.79" y2="1150.12"/>
  <line id="right-margin-Regular-M" style="fill:none;stroke:#00AEEF;stroke-width:0.5;opacity:1.0;" x1="1507.24" x2="1507.24" y1="1030.79" y2="1150.12"/>
 </g>
 <g id="Symbols">
  <g id="Black-L" transform="matrix(1 0 0 1 2855.72 1556)">
   <path d="M39.8559 26.4225L115.512 26.4225Q126.881 26.4225 133.083 20.23Q139.284 14.0375 139.284 2.71277L139.284-73.0901Q139.284-84.4148 133.083-90.6066Q126.881-96.7985 115.512-96.7985L39.8559-96.7985Q28.5079-96.7985 22.2959-90.6073Q16.084-84.4161 16.084-73.0901L16.084 2.71277Q16.084 14.0401 22.2959 20.2313Q28.5079 26.4225 39.8559 26.4225ZM86.7807-5.31924Q74.361-5.31924 66.1925-10.9695Q58.024-16.6197 55.5946-26.7533L50.7139-26.7533Q49.3363-26.7533 48.5737-27.5373Q47.8111-28.3213 47.8111-29.5821Q47.8111-30.8064 48.5737-31.5697Q49.3363-32.333 50.7139-32.333L54.697-32.333Q54.6957-32.8947 54.6847-33.6503Q54.6737-34.4058 54.6737-35.1529Q54.6737-35.9558 54.6737-36.6004Q54.6737-37.2451 54.6957-37.6548L50.7139-37.6548Q49.3363-37.6548 48.5737-38.4285Q47.8111-39.2021 47.8111-40.4252Q47.8111-41.7066 48.5737-42.4699Q49.3363-43.2332 50.7139-43.2332L55.3804-43.2332Q57.7111-53.642 65.9393-59.4201Q74.1675-65.1982 86.8975-65.1982Q90.0124-65.1982 92.2282-64.6571Q94.444-64.116 95.6645-63.1142Q96.9562-62.1438 97.5289-60.864Q98.1016-59.5842 98.1016-58.1326Q98.1016-54.6149 95.6119-53.3883Q94.3367-52.5122 91.8904-52.3804Q89.4441-52.2485 87.1676-52.1317Q81.7013-51.8981 77.4029-49.6835Q73.1044-47.469 71.678-43.2332L90.3787-43.2332Q93.3022-43.2332 93.3022-40.4252Q93.3022-39.2021 92.539-38.4285Q91.7757-37.6548 90.3787-37.6548L70.1668-37.6548Q70.0864-37.2451 70.0572-36.6089Q70.028-35.9728 70.028-35.249Q70.028-34.3681 70.0864-33.5171Q70.1448-32.6661 70.2252-32.333L90.3787-32.333Q93.3022-32.333 93.3022-29.5821Q93.3022-28.3213 92.539-27.5373Q91.7757-26.7533 90.3787-26.7533L71.8715-26.7533Q73.4172-22.7136 77.5392-20.597Q81.6612-18.4805 86.9339-18.3052Q89.3857-18.2468 91.7723-18.0676Q94.1589-17.8884 95.4367-17.0707Q98.2768-15.6689 98.2768-12.307Q98.2768-9.18314 95.7073-7.3862Q94.4063-6.42213 92.2282-5.87068Q90.05-5.31924 86.7807-5.31924Z"/>
  </g>
  <g id="Heavy-L" transform="matrix(1 0 0 1 2559.92 1556)">
   <path d="M38.8328 25.5158L114.704 25.5158Q125.682 25.5158 131.567 19.6396Q137.452 13.7633 137.452 2.85629L137.452-73.2288Q137.452-84.1358 131.567-90.0091Q125.682-95.8823 114.704-95.8823L38.8328-95.8823Q27.8839-95.8823 21.984-90.0121Q16.084-84.1419 16.084-73.2288L16.084 2.85629Q16.084 13.7754 21.984 19.6456Q27.8839 25.5158 38.8328 25.5158ZM85.8242-5.08514Q73.9224-5.08514 65.7862-10.6976Q57.6499-16.3101 55.1991-26.6486L49.7092-26.6486Q48.3606-26.6486 47.5761-27.4659Q46.7916-28.2832 46.7916-29.5426Q46.7916-30.7931 47.5761-31.5806Q48.3606-32.3682 49.7092-32.3682L54.321-32.3682Q54.3149-32.8985 54.297-33.6567Q54.2791-34.4148 54.2791-35.1805Q54.2791-35.9786 54.2791-36.628Q54.2791-37.2774 54.3149-37.7423L49.7092-37.7423Q48.3606-37.7423 47.5761-38.5447Q46.7916-39.3471 46.7916-40.5916Q46.7916-41.8807 47.5761-42.6683Q48.3606-43.4558 49.7092-43.4558L55.0444-43.4558Q57.4236-54.0058 65.6105-59.7121Q73.7974-65.4185 85.9134-65.4185Q88.8273-65.4185 90.9036-64.9513Q92.98-64.4841 94.1858-63.6302Q95.5498-62.7343 96.1246-61.5408Q96.6994-60.3472 96.6994-58.9749Q96.6994-55.4799 93.9392-54.5428Q92.7334-53.8735 90.5202-53.8082Q88.307-53.7429 86.1008-53.6536Q80.2519-53.4752 75.6648-50.9324Q71.0776-48.3897 69.4867-43.4558L88.5087-43.4558Q91.4561-43.4558 91.4561-40.5916Q91.4561-39.3471 90.6686-38.5447Q89.8811-37.7423 88.5087-37.7423L68.0372-37.7423Q67.9568-37.2774 67.9345-36.6206Q67.9122-35.9637 67.9122-35.2399Q67.9122-34.4 67.9568-33.5854Q68.0014-32.7707 68.0819-32.3682L88.5087-32.3682Q91.4561-32.3682 91.4561-29.5426Q91.4561-28.2832 90.6686-27.4659Q89.8811-26.6486 88.5087-26.6486L69.6118-26.6486Q71.3039-21.8518 75.7512-19.3776Q80.1984-16.9034 85.9223-16.7695Q88.2624-16.7249 90.4249-16.6329Q92.5874-16.5409 93.8054-15.9162Q96.8333-14.8452 96.8333-11.4603Q96.8333-8.50425 94.2514-6.88835Q92.9651-6.04926 90.9036-5.5672Q88.8422-5.08514 85.8242-5.08514Z"/>
  </g>
  <g id="Bold-L" transform="matrix(1 0 0 1 2264.35 1556)">
   <path d="M37.5443 24.3864L113.709 24.3864Q124.174 24.3864 129.672 18.8927Q135.17 13.3991 135.17 3.03698L135.17-73.4013Q135.17-83.7634 129.672-89.2499Q124.174-94.7365 113.709-94.7365L37.5443-94.7365Q27.1168-94.7365 21.6004-89.257Q16.084-83.7776 16.084-73.4013L16.084 3.03698Q16.084 13.4275 21.6004 18.9069Q27.1168 24.3864 37.5443 24.3864ZM84.5671-4.99883Q73.3081-4.99883 65.2526-10.5504Q57.197-16.1019 54.751-26.6351L48.5277-26.6351Q47.2374-26.6351 46.4485-27.4681Q45.6597-28.301 45.6597-29.5329Q45.6597-30.7869 46.4485-31.5828Q47.2374-32.3788 48.5277-32.3788L53.9148-32.3788Q53.9005-32.8884 53.8749-33.6552Q53.8493-34.4221 53.8493-35.2113Q53.8493-36.0013 53.8493-36.6589Q53.8493-37.3164 53.9005-37.843L48.5277-37.843Q47.2374-37.843 46.4485-38.6574Q45.6597-39.4719 45.6597-40.7116Q45.6597-41.9805 46.4485-42.7765Q47.2374-43.5724 48.5277-43.5724L54.657-43.5724Q57.0531-54.2574 65.1521-59.8734Q73.2511-65.4894 84.6255-65.4894Q87.2512-65.4894 89.1413-65.112Q91.0314-64.7347 92.2036-64.0605Q93.6254-63.2683 94.1997-62.1942Q94.774-61.1201 94.774-59.8596Q94.774-56.4706 91.8061-55.8573Q90.6865-55.4193 88.7543-55.427Q86.822-55.4347 84.7203-55.3763Q78.4205-55.2595 73.4815-52.3137Q68.5426-49.3679 66.7851-43.5724L86.1607-43.5724Q89.0657-43.5724 89.0657-40.7116Q89.0657-39.4719 88.2698-38.6574Q87.4738-37.843 86.1607-37.843L65.442-37.843Q65.3616-37.3164 65.347-36.6365Q65.3324-35.9565 65.3324-35.2327Q65.3324-34.4299 65.3616-33.6487Q65.3908-32.8676 65.4712-32.3788L86.1607-32.3788Q89.0657-32.3788 89.0657-29.5329Q89.0657-28.301 88.2698-27.4681Q87.4738-26.6351 86.1607-26.6351L66.8421-26.6351Q68.6865-20.9252 73.5236-18.0221Q78.3607-15.1191 84.6035-15.0315Q86.7928-15.0023 88.6816-15.0064Q90.5705-15.0105 91.7185-14.6017Q94.8617-13.9008 94.8617-10.5766Q94.8617-7.8513 92.2918-6.47246Q91.0392-5.79046 89.1413-5.39464Q87.2434-4.99883 84.5671-4.99883Z"/>
  </g>
  <g id="Semibold-L" transform="matrix(1 0 0 1 1968.43 1556)">
   <path d="M36.6561 23.6077L113.024 23.6077Q123.134 23.6077 128.365 18.3778Q133.596 13.1479 133.596 3.16154L133.596-73.5202Q133.596-83.5066 128.365-88.7266Q123.134-93.9466 113.024-93.9466L36.6561-93.9466Q26.588-93.9466 21.336-88.7365Q16.084-83.5265 16.084-73.5202L16.084 3.16154Q16.084 13.1877 21.336 18.3977Q26.588 23.6077 36.6561 23.6077ZM83.7005-4.93933Q72.8846-4.93933 64.8847-10.4488Q56.8848-15.9583 54.4421-26.6258L47.7132-26.6258Q46.4631-26.6258 45.6712-27.4695Q44.8794-28.3133 44.8794-29.5263Q44.8794-30.7825 45.6712-31.5843Q46.4631-32.3861 47.7132-32.3861L53.6347-32.3861Q53.6148-32.8814 53.5839-33.6542Q53.553-34.4271 53.553-35.2326Q53.553-36.0169 53.553-36.6801Q53.553-37.3433 53.6148-37.9124L47.7132-37.9124Q46.4631-37.9124 45.6712-38.7352Q44.8794-39.558 44.8794-40.7943Q44.8794-42.0493 45.6712-42.8511Q46.4631-43.6529 47.7132-43.6529L54.3899-43.6529Q56.7976-54.4308 64.836-59.9845Q72.8744-65.5382 83.7376-65.5382Q86.1647-65.5382 87.9264-65.2229Q89.6881-64.9075 90.8371-64.3572Q92.2987-63.6364 92.8727-62.6447Q93.4467-61.653 93.4467-60.4695Q93.4467-57.1535 90.3356-56.7635Q89.2755-56.4849 87.5369-56.5429Q85.7983-56.601 83.7686-56.5638Q77.1579-56.4895 71.9765-53.2659Q66.795-50.0422 64.9226-43.6529L84.542-43.6529Q87.4178-43.6529 87.4178-40.7943Q87.4178-39.558 86.616-38.7352Q85.8143-37.9124 84.542-37.9124L63.6529-37.9124Q63.5725-37.3433 63.5632-36.6474Q63.5539-35.9515 63.5539-35.2277Q63.5539-34.4505 63.5725-33.6924Q63.5911-32.9344 63.6715-32.3861L84.542-32.3861Q87.4178-32.3861 87.4178-29.5263Q87.4178-28.3133 86.616-27.4695Q85.8143-26.6258 84.542-26.6258L64.9328-26.6258Q66.8822-20.2864 71.988-17.0877Q77.0938-13.889 83.6943-13.8333Q85.7797-13.8147 87.4798-13.8851Q89.18-13.9555 90.2799-13.6955Q93.5024-13.2497 93.5024-9.96736Q93.5024-7.40116 90.9409-6.18576Q89.7115-5.61204 87.9264-5.27568Q86.1413-4.93933 83.7005-4.93933Z"/>
  </g>
  <g id="Medium-L" transform="matrix(1 0 0 1 1672.31 1556)">
   <path d="M35.9826 23.0174L112.505 23.0174Q122.346 23.0174 127.375 17.9874Q132.403 12.9575 132.403 3.25599L132.403-73.6104Q132.403-83.3119 127.375-88.3298Q122.346-93.3476 112.505-93.3476L35.9826-93.3476Q26.187-93.3476 21.1355-88.3419Q16.084-83.3361 16.084-73.6104L16.084 3.25599Q16.084 13.0058 21.1355 18.0116Q26.187 23.0174 35.9826 23.0174ZM83.0433-4.89421Q72.5635-4.89421 64.6057-10.3719Q56.648-15.8495 54.2078-26.6187L47.0956-26.6187Q45.8759-26.6187 45.0818-27.4706Q44.2877-28.3226 44.2877-29.5212Q44.2877-30.7793 45.0818-31.5854Q45.8759-32.3916 47.0956-32.3916L53.4224-32.3916Q53.3982-32.8761 53.3633-33.6535Q53.3283-34.4308 53.3283-35.2487Q53.3283-36.0287 53.3283-36.6962Q53.3283-37.3637 53.3982-37.9651L47.0956-37.9651Q45.8759-37.9651 45.0818-38.7941Q44.2877-39.6232 44.2877-40.8571Q44.2877-42.1015 45.0818-42.9076Q45.8759-43.7138 47.0956-43.7138L54.1874-43.7138Q56.604-54.5623 64.5964-60.0688Q72.5888-65.5753 83.0644-65.5753Q85.3408-65.5753 87.0052-65.3069Q88.6696-65.0385 89.8009-64.5821Q91.2928-63.9155 91.8665-62.9862Q92.4403-62.057 92.4403-60.932Q92.4403-57.6714 89.2206-57.4506Q88.2055-57.2929 86.6138-57.3891Q85.022-57.4853 83.047-57.4643Q76.2005-57.4222 70.8352-53.9879Q65.47-50.5536 63.5103-43.7138L83.3147-43.7138Q86.1683-43.7138 86.1683-40.8571Q86.1683-39.6232 85.3621-38.7941Q84.5559-37.9651 83.3147-37.9651L62.2963-37.9651Q62.2159-37.3637 62.2107-36.6557Q62.2054-35.9477 62.2054-35.2239Q62.2054-34.4661 62.2159-33.7255Q62.2264-32.985 62.3069-32.3916L83.3147-32.3916Q86.1683-32.3916 86.1683-29.5212Q86.1683-28.3226 85.3621-27.4706Q84.5559-26.6187 83.3147-26.6187L63.485-26.6187Q65.514-19.802 70.8236-16.3792Q76.1332-12.9563 83.005-12.9248Q85.0115-12.9143 86.5686-13.0349Q88.1257-13.1555 89.189-13.0084Q92.4718-12.756 92.4718-9.50541Q92.4718-7.05985 89.9165-5.96836Q88.7048-5.47675 87.0052-5.18548Q85.3056-4.89421 83.0433-4.89421Z"/>
  </g>
  <g id="Regular-L" transform="matrix(1 0 0 1 1376.38 1556)">
   <path d="M35.1041 22.2473L111.827 22.2473Q121.318 22.2473 126.082 17.4782Q130.847 12.7092 130.847 3.37919L130.847-73.728Q130.847-83.058 126.082-87.8122Q121.318-92.5664 111.827-92.5664L35.1041-92.5664Q25.664-92.5664 20.874-87.8271Q16.084-83.0877 16.084-73.728L16.084 3.37919Q16.084 12.7686 20.874 17.508Q25.664 22.2473 35.1041 22.2473ZM82.1862-4.83537Q72.1446-4.83537 64.2419-10.2715Q56.3392-15.7076 53.9023-26.6095L46.29-26.6095Q45.1101-26.6095 44.3131-27.4721Q43.516-28.3347 43.516-29.5147Q43.516-30.775 44.3131-31.5869Q45.1101-32.3989 46.29-32.3989L53.1454-32.3989Q53.1157-32.8693 53.0755-33.6525Q53.0353-34.4358 53.0353-35.2697Q53.0353-36.0442 53.0353-36.7173Q53.0353-37.3904 53.1157-38.0337L46.29-38.0337Q45.1101-38.0337 44.3131-38.871Q43.516-39.7083 43.516-40.9389Q43.516-42.1695 44.3131-42.9814Q45.1101-43.7934 46.29-43.7934L53.9232-43.7934Q56.3513-54.7338 64.2838-60.1787Q72.2163-65.6236 82.1862-65.6236Q84.2663-65.6236 85.8037-65.4165Q87.3411-65.2094 88.4494-64.8755Q89.9807-64.2795 90.5541-63.4318Q91.1275-62.584 91.1275-61.5352Q91.1275-58.3469 87.7662-58.3469Q86.81-58.3469 85.4097-58.4928Q84.0095-58.6388 82.1058-58.6388Q74.9518-58.6388 69.3467-54.9297Q63.7416-51.2205 61.6683-43.7934L81.7138-43.7934Q84.5385-43.7934 84.5385-40.9389Q84.5385-39.7083 83.7266-38.871Q82.9146-38.0337 81.7138-38.0337L60.5269-38.0337Q60.4465-37.3904 60.4465-36.6666Q60.4465-35.9428 60.4465-35.219Q60.4465-34.4864 60.4465-33.7687Q60.4465-33.051 60.5269-32.3989L81.7138-32.3989Q84.5385-32.3989 84.5385-29.5147Q84.5385-28.3347 83.7266-27.4721Q82.9146-26.6095 81.7138-26.6095L61.5966-26.6095Q63.7294-19.1702 69.3048-15.455Q74.8802-11.7398 82.1058-11.7398Q84.0095-11.7398 85.38-11.9259Q86.7505-12.1121 87.7662-12.1121Q91.1275-12.1121 91.1275-8.90286Q91.1275-6.61466 88.5805-5.6848Q87.3917-5.3003 85.8037-5.06783Q84.2156-4.83537 82.1862-4.83537Z"/>
  </g>
  <g id="Light-L" transform="matrix(1 0 0 1 1080.5 1556)">
   <path d="M34.078 21.4264L111.191 21.4264Q120.127 21.4264 124.656 16.8626Q129.185 12.2987 129.185 3.52284L129.185-73.8511Q129.185-82.627 124.656-87.1657Q120.127-91.7045 111.191-91.7045L34.078-91.7045Q25.1715-91.7045 20.6277-87.1909Q16.084-82.6773 16.084-73.8511L16.084 3.52284Q16.084 12.3992 20.6277 16.9128Q25.1715 21.4264 34.078 21.4264ZM80.8523-6.08721Q71.2622-6.08721 63.6776-11.3899Q56.0929-16.6926 53.8612-27.3483L45.8796-27.3483Q44.8844-27.3483 44.231-28.057Q43.5775-28.7657 43.5775-29.7609Q43.5775-30.8365 44.231-31.5151Q44.8844-32.1937 45.8796-32.1937L53.248-32.1937Q53.1978-32.7666 53.1576-33.5909Q53.1174-34.4152 53.1174-35.2697Q53.1174-36.0236 53.1174-36.7173Q53.1174-37.4109 53.1978-38.0542L45.8796-38.0542Q44.8844-38.0542 44.231-38.7479Q43.5775-39.4415 43.5775-40.4669Q43.5775-41.4923 44.231-42.1708Q44.8844-42.8494 45.8796-42.8494L53.8411-42.8494Q56.0025-53.6257 63.6373-58.9987Q71.2722-64.3718 80.8523-64.3718Q82.4808-64.3718 83.8028-64.216Q85.1247-64.0601 86.1098-63.8289Q87.477-63.3765 88.0299-62.693Q88.5828-62.0094 88.5828-61.1247Q88.5828-58.511 85.8987-58.511Q85.004-58.511 83.7474-58.6468Q82.4909-58.7825 80.7719-58.7825Q73.4537-58.7825 67.6434-54.8168Q61.833-50.8511 59.8828-42.8494L79.8873-42.8494Q82.2195-42.8494 82.2195-40.4669Q82.2195-39.4415 81.541-38.7479Q80.8624-38.0542 79.8873-38.0542L59.0083-38.0542Q58.9278-37.4109 58.9278-36.6871Q58.9278-35.9633 58.9278-35.2395Q58.9278-34.4454 58.9278-33.6764Q58.9278-32.9074 59.0083-32.1937L79.8873-32.1937Q82.2195-32.1937 82.2195-29.7609Q82.2195-28.7657 81.541-28.057Q80.8624-27.3483 79.8873-27.3483L59.8728-27.3483Q61.9235-19.437 67.6836-15.5166Q73.4436-11.5961 80.7719-11.5961Q82.4909-11.5961 83.6972-11.772Q84.9035-11.9479 85.8987-11.9479Q88.5828-11.9479 88.5828-9.35434Q88.5828-7.37397 86.2204-6.69038Q85.1549-6.429 83.8028-6.25811Q82.4507-6.08721 80.8523-6.08721Z"/>
  </g>
  <g id="Thin-L" transform="matrix(1 0 0 1 784.884 1556)">
   <path d="M32.7209 20.3407L110.349 20.3407Q118.553 20.3407 122.77 16.0483Q126.986 11.7559 126.986 3.71284L126.986-74.014Q126.986-82.057 122.77-86.3108Q118.553-90.5645 110.349-90.5645L32.7209-90.5645Q24.5201-90.5645 20.302-86.3495Q16.084-82.1344 16.084-74.014L16.084 3.71284Q16.084 11.9107 20.302 16.1257Q24.5201 20.3407 32.7209 20.3407ZM79.0881-7.74287Q70.0951-7.74287 62.9311-12.8691Q55.7672-17.9954 53.807-28.3254L45.3368-28.3254Q44.5858-28.3254 44.1224-28.8305Q43.659-29.3357 43.659-30.0866Q43.659-30.918 44.1224-31.4201Q44.5858-31.9222 45.3368-31.9222L53.3837-31.9222Q53.3063-32.6309 53.2661-33.5095Q53.2259-34.3881 53.2259-35.2697Q53.2259-35.9965 53.2259-36.7173Q53.2259-37.438 53.3063-38.0814L45.3368-38.0814Q44.5858-38.0814 44.1224-38.585Q43.659-39.0887 43.659-39.8426Q43.659-40.5966 44.1224-41.0987Q44.5858-41.6008 45.3368-41.6008L53.7326-41.6008Q55.541-52.16 62.7824-57.4381Q70.0237-62.7161 79.0881-62.7161Q80.1195-62.7161 81.1564-62.6282Q82.1934-62.5402 83.0157-62.4447Q84.1657-62.1823 84.6914-61.7159Q85.2172-61.2494 85.2172-60.5819Q85.2172-58.7282 83.4288-58.7282Q82.6155-58.7282 81.549-58.8503Q80.4824-58.9725 79.0077-58.9725Q71.4723-58.9725 65.3906-54.6675Q59.3088-50.3625 57.5215-41.6008L77.4717-41.6008Q79.1525-41.6008 79.1525-39.8426Q79.1525-39.0887 78.6504-38.585Q78.1482-38.0814 77.4717-38.0814L56.9998-38.0814Q56.9193-37.438 56.9193-36.7142Q56.9193-35.9905 56.9193-35.2667Q56.9193-34.3911 56.9193-33.5543Q56.9193-32.7174 56.9998-31.9222L77.4717-31.9222Q79.1525-31.9222 79.1525-30.0866Q79.1525-29.3357 78.6504-28.8305Q78.1482-28.3254 77.4717-28.3254L57.5929-28.3254Q59.535-19.7899 65.5394-15.598Q71.5437-11.4061 79.0077-11.4061Q80.4824-11.4061 81.4715-11.5685Q82.4607-11.7308 83.4288-11.7308Q85.2172-11.7308 85.2172-9.95146Q85.2172-8.37822 83.0991-8.02034Q82.1964-7.92181 81.1564-7.83234Q80.1165-7.74287 79.0881-7.74287Z"/>
  </g>
  <g id="Ultralight-L" transform="matrix(1 0 0 1 488.735 1556)">
   <path d="M32.0258 19.7847L109.918 19.7847Q117.747 19.7847 121.803 15.6313Q125.86 11.4778 125.86 3.81015L125.86-74.0974Q125.86-81.7651 121.803-85.8729Q117.747-89.9806 109.918-89.9806L32.0258-89.9806Q24.1864-89.9806 20.1352-85.9185Q16.084-81.8564 16.084-74.0974L16.084 3.81015Q16.084 11.6604 20.1352 15.7226Q24.1864 19.7847 32.0258 19.7847ZM78.1844-8.59089Q69.4973-8.59089 62.5488-13.6268Q55.6004-18.6627 53.7792-28.8259L45.0587-28.8259Q44.4329-28.8259 44.0668-29.2267Q43.7007-29.6276 43.7007-30.2534Q43.7007-30.9597 44.0668-31.3714Q44.4329-31.7832 45.0587-31.7832L53.4533-31.7832Q53.3619-32.5614 53.3217-33.4678Q53.2815-34.3742 53.2815-35.2697Q53.2815-35.9826 53.2815-36.7173Q53.2815-37.4519 53.3619-38.0953L45.0587-38.0953Q44.4329-38.0953 44.0668-38.5016Q43.7007-38.9079 43.7007-39.5229Q43.7007-40.1378 44.0668-40.5496Q44.4329-40.9613 45.0587-40.9613L53.677-40.9613Q55.3047-51.4093 62.3445-56.6387Q69.3842-61.8681 78.1844-61.8681Q78.91-61.8681 79.801-61.8149Q80.6919-61.7617 81.4308-61.7357Q82.4696-61.5706 82.9815-61.2154Q83.4933-60.8601 83.4933-60.3039Q83.4933-58.8394 82.1637-58.8394Q81.3922-58.8394 80.4229-58.9546Q79.4536-59.0698 78.104-59.0698Q70.4575-59.0698 64.2367-54.591Q58.016-50.1123 56.312-40.9613L76.2344-40.9613Q77.5816-40.9613 77.5816-39.5229Q77.5816-38.9079 77.1698-38.5016Q76.758-38.0953 76.2344-38.0953L55.971-38.0953Q55.8906-37.4519 55.8906-36.7281Q55.8906-36.0044 55.8906-35.2806Q55.8906-34.3633 55.8906-33.4917Q55.8906-32.6201 55.971-31.7832L76.2344-31.7832Q77.5816-31.7832 77.5816-30.2534Q77.5816-29.6276 77.1698-29.2267Q76.758-28.8259 76.2344-28.8259L56.4251-28.8259Q58.3116-19.9706 64.4411-15.6397Q70.5706-11.3088 78.104-11.3088Q79.4536-11.3088 80.3316-11.4642Q81.2095-11.6196 82.1637-11.6196Q83.4933-11.6196 83.4933-10.2573Q83.4933-8.8926 81.5004-8.70153Q80.6811-8.68642 79.801-8.63865Q78.9209-8.59089 78.1844-8.59089Z"/>
  </g>
  <g id="Black-M" transform="matrix(1 0 0 1 2872.54 1126)">
   <path d="M31.6183 13.203L90.1012 13.203Q99.1693 13.203 104.214 8.16134Q109.259 3.11973 109.259-5.93791L109.259-64.4591Q109.259-73.5167 104.214-78.5585Q99.1693-83.6003 90.1012-83.6003L31.6183-83.6003Q22.5558-83.6003 17.5084-78.5583Q12.4609-73.5164 12.4609-64.4591L12.4609-5.93791Q12.4609 3.11912 17.5084 8.16104Q22.5558 13.203 31.6183 13.203ZM67.874-12.4276Q57.8679-12.4276 51.5548-16.8194Q45.2417-21.2113 43.4058-28.8527L40.0981-28.8527Q39.031-28.8527 38.4784-29.4107Q37.9258-29.9686 37.9258-30.9215Q37.9258-31.8226 38.4784-32.375Q39.031-32.9274 40.0981-32.9274L42.7131-32.9274Q42.7134-33.4034 42.7108-33.9921Q42.7082-34.5808 42.7082-35.1465Q42.7082-35.7698 42.7082-36.2679Q42.7082-36.7661 42.7134-37.0361L40.0981-37.0361Q39.031-37.0361 38.4784-37.5913Q37.9258-38.1464 37.9258-39.0478Q37.9258-40.0062 38.4784-40.5586Q39.031-41.111 40.0981-41.111L43.1832-41.111Q44.911-49.0316 51.2809-53.56Q57.6508-58.0885 67.9882-58.0885Q70.5129-58.0885 72.3203-57.6128Q74.1276-57.137 75.0692-56.2478Q75.9856-55.4513 76.4246-54.4079Q76.8637-53.3645 76.8637-52.1939Q76.8637-49.527 75.2591-48.3279Q74.2199-47.4715 72.1438-47.3108Q70.0676-47.1501 68.2685-47.0359Q64.3401-46.8075 61.2302-45.339Q58.1204-43.8706 57.1734-41.111L71.3798-41.111Q73.5576-41.111 73.5576-39.0478Q73.5576-38.1464 73.0052-37.5913Q72.4528-37.0361 71.3798-37.0361L55.9856-37.0361Q55.9233-36.7661 55.8948-36.291Q55.8662-35.8159 55.8662-35.2551Q55.8662-34.5292 55.9233-33.8317Q55.9804-33.1342 56.0427-32.9274L71.3798-32.9274Q73.5576-32.9274 73.5576-30.9215Q73.5576-29.9686 73.0052-29.4107Q72.4528-28.8527 71.3798-28.8527L57.3904-28.8527Q58.451-26.3097 61.3899-24.9494Q64.3288-23.5892 68.0401-23.4179Q70.0105-23.3608 72.0299-23.1456Q74.0492-22.9304 75.0879-22.131Q77.0349-20.7607 77.0349-18.2592Q77.0349-15.7366 75.0799-14.2222Q74.076-13.3846 72.3203-12.9061Q70.5645-12.4276 67.874-12.4276Z"/>
  </g>
  <g id="Heavy-M" transform="matrix(1 0 0 1 2576.65 1126)">
   <path d="M30.7128 12.3923L89.3692 12.3923Q98.107 12.3923 102.864 7.64094Q107.621 2.88957 107.621-5.81086L107.621-64.5834Q107.621-73.2838 102.864-78.0339Q98.107-82.7841 89.3692-82.7841L30.7128-82.7841Q21.9913-82.7841 17.2261-78.0352Q12.4609-73.2862 12.4609-64.5834L12.4609-5.81086Q12.4609 2.89446 17.2261 7.64338Q21.9913 12.3923 30.7128 12.3923ZM67.062-12.0832Q57.5206-12.0832 51.2097-16.4505Q44.8988-20.8177 43.023-28.6822L39.1538-28.6822Q38.0979-28.6822 37.5107-29.2869Q36.9235-29.8916 36.9235-30.8602Q36.9235-31.8039 37.5107-32.3923Q38.0979-32.9807 39.1538-32.9807L42.336-32.9807Q42.3336-33.4166 42.3243-34.0041Q42.3149-34.5915 42.3149-35.1734Q42.3149-35.794 42.3149-36.2949Q42.3149-36.7958 42.3336-37.1197L39.1538-37.1197Q38.0979-37.1197 37.5107-37.7163Q36.9235-38.3128 36.9235-39.254Q36.9235-40.2389 37.5107-40.8273Q38.0979-41.4158 39.1538-41.4158L42.8623-41.4158Q44.6622-49.4895 51.0192-53.9544Q57.3762-58.4194 67.1492-58.4194Q69.5192-58.4194 71.21-58.0111Q72.9009-57.6029 73.8395-56.8487Q74.8417-56.1119 75.2847-55.1377Q75.7277-54.1634 75.7277-53.0552Q75.7277-50.3574 73.7962-49.4414Q72.8191-48.7871 70.9576-48.6923Q69.0961-48.5976 67.3487-48.5104Q63.0614-48.3359 59.6883-46.5703Q56.3151-44.8047 55.1959-41.4158L69.7203-41.4158Q71.9668-41.4158 71.9668-39.254Q71.9668-38.3128 71.3784-37.7163Q70.7899-37.1197 69.7203-37.1197L54.0439-37.1197Q53.9816-36.7958 53.9598-36.3005Q53.938-35.8051 53.938-35.2444Q53.938-34.5641 53.9816-33.9069Q54.0252-33.2497 54.0875-32.9807L69.7203-32.9807Q71.9668-32.9807 71.9668-30.8602Q71.9668-29.8916 71.3784-29.2869Q70.7899-28.6822 69.7203-28.6822L55.3404-28.6822Q56.5517-25.4426 59.7915-23.7517Q63.0314-22.0608 67.1742-21.9299Q69.0525-21.8863 70.8679-21.7573Q72.6834-21.6283 73.6654-21.0176Q75.8586-19.9707 75.8586-17.3899Q75.8586-15.0029 73.8744-13.6428Q72.8735-12.916 71.21-12.4996Q69.5465-12.0832 67.062-12.0832Z"/>
  </g>
  <g id="Bold-M" transform="matrix(1 0 0 1 2280.85 1126)">
   <path d="M29.6999 11.4855L88.5504 11.4855Q96.9187 11.4855 101.354 7.05878Q105.789 2.6321 105.789-5.66875L105.789-64.7224Q105.789-73.0233 101.354-77.4472Q96.9187-81.8711 88.5504-81.8711L29.6999-81.8711Q21.3597-81.8711 16.9103-77.4499Q12.4609-73.0288 12.4609-64.7224L12.4609-5.66875Q12.4609 2.64314 16.9103 7.0643Q21.3597 11.4855 29.6999 11.4855ZM66.1536-11.698Q57.1321-11.698 50.8236-16.0378Q44.5152-20.3775 42.5948-28.4915L38.0974-28.4915Q37.0542-28.4915 36.4282-29.1484Q35.8022-29.8054 35.8022-30.7916Q35.8022-31.7829 36.4282-32.4117Q37.0542-33.0404 38.0974-33.0404L41.9143-33.0404Q41.9088-33.4314 41.8919-34.0175Q41.875-34.6035 41.875-35.2035Q41.875-35.8211 41.875-36.325Q41.875-36.829 41.9088-37.2132L38.0974-37.2132Q37.0542-37.2132 36.4282-37.8561Q35.8022-38.4989 35.8022-39.4848Q35.8022-40.4992 36.4282-41.1279Q37.0542-41.7566 38.0974-41.7566L42.5033-41.7566Q44.3838-50.0017 50.7263-54.3956Q57.0689-58.7895 66.2107-58.7895Q68.4075-58.7895 69.9681-58.4568Q71.5287-58.124 72.4639-57.5209Q73.5621-56.8508 74.0095-55.9539Q74.457-55.0571 74.457-54.0187Q74.457-51.2864 72.1597-50.6869Q71.2522-50.2587 69.6308-50.2378Q68.0094-50.2169 66.3197-50.1598Q61.6311-50.0456 57.9633-47.9477Q54.2956-45.8497 52.9839-41.7566L67.8639-41.7566Q70.1873-41.7566 70.1873-39.4848Q70.1873-38.4989 69.5586-37.8561Q68.9298-37.2132 67.8639-37.2132L51.8719-37.2132Q51.8096-36.829 51.7953-36.3111Q51.781-35.7932 51.781-35.2324Q51.781-34.6032 51.8096-33.9911Q51.8381-33.3789 51.9004-33.0404L67.8639-33.0404Q70.1873-33.0404 70.1873-30.7916Q70.1873-29.8054 69.5586-29.1484Q68.9298-28.4915 67.8639-28.4915L53.0471-28.4915Q54.427-24.4727 58.0035-22.4119Q61.5801-20.351 66.2055-20.2654Q67.9808-20.2368 69.5681-20.2043Q71.1555-20.1717 72.0741-19.772Q74.5427-19.0869 74.5427-16.4175Q74.5427-14.1822 72.5259-12.9946Q71.5284-12.3917 69.9681-12.0449Q68.4078-11.698 66.1536-11.698Z"/>
  </g>
  <g id="Semibold-M" transform="matrix(1 0 0 1 1984.77 1126)">
   <path d="M29.0015 10.8603L87.9858 10.8603Q96.0995 10.8603 100.313 6.65745Q104.526 2.45461 104.526-5.57077L104.526-64.8183Q104.526-72.8436 100.313-77.0427Q96.0995-81.2417 87.9858-81.2417L29.0015-81.2417Q20.9244-81.2417 16.6926-77.0465Q12.4609-72.8513 12.4609-64.8183L12.4609-5.57077Q12.4609 2.46989 16.6926 6.66509Q20.9244 10.8603 29.0015 10.8603ZM65.5274-11.4325Q56.8643-11.4325 50.5575-15.7532Q44.2507-20.074 42.2995-28.36L37.3692-28.36Q36.3346-28.36 35.6819-29.053Q35.0292-29.746 35.0292-30.7443Q35.0292-31.7685 35.6819-32.425Q36.3346-33.0815 37.3692-33.0815L41.6235-33.0815Q41.6159-33.4416 41.5938-34.0267Q41.5717-34.6118 41.5717-35.2243Q41.5717-35.8397 41.5717-36.3458Q41.5717-36.8519 41.6159-37.2777L37.3692-37.2777Q36.3346-37.2777 35.6819-37.9525Q35.0292-38.6272 35.0292-39.6438Q35.0292-40.6786 35.6819-41.3351Q36.3346-41.9916 37.3692-41.9916L42.2558-41.9916Q44.1919-50.3548 50.5245-54.6997Q56.857-59.0446 65.5637-59.0446Q67.6411-59.0446 69.1119-58.764Q70.5827-58.4833 71.5156-57.9843Q72.6799-57.3602 73.1305-56.5167Q73.581-55.6732 73.581-54.6829Q73.581-51.9269 71.0316-51.5456Q70.1719-51.2733 68.716-51.3033Q67.2601-51.3333 65.6104-51.297Q60.645-51.2243 56.7742-48.8972Q52.9034-46.5701 51.4589-41.9916L66.584-41.9916Q68.9605-41.9916 68.9605-39.6438Q68.9605-38.6272 68.304-37.9525Q67.6475-37.2777 66.584-37.2777L50.3745-37.2777Q50.3121-36.8519 50.3031-36.3184Q50.294-35.7849 50.294-35.2241Q50.294-34.6302 50.3121-34.0491Q50.3303-33.468 50.3926-33.0815L66.584-33.0815Q68.9605-33.0815 68.9605-30.7443Q68.9605-29.746 68.304-29.053Q67.6475-28.36 66.584-28.36L51.4662-28.36Q52.9623-23.804 56.7709-21.4882Q60.5796-19.1723 65.5377-19.1179Q67.242-19.0997 68.6721-19.1336Q70.1022-19.1676 70.9771-18.9134Q73.6355-18.4776 73.6355-15.7472Q73.6355-13.6163 71.5962-12.5477Q70.601-12.0303 69.1119-11.7314Q67.6227-11.4325 65.5274-11.4325Z"/>
  </g>
  <g id="Medium-M" transform="matrix(1 0 0 1 1688.54 1126)">
   <path d="M28.472 10.3863L87.5578 10.3863Q95.4783 10.3863 99.5236 6.35315Q103.569 2.32003 103.569-5.49648L103.569-64.8909Q103.569-72.7075 99.5236-76.736Q95.4783-80.7644 87.5578-80.7644L28.472-80.7644Q20.5942-80.7644 16.5276-76.7406Q12.4609-72.7167 12.4609-64.8909L12.4609-5.49648Q12.4609 2.33852 16.5276 6.36239Q20.5942 10.3863 28.472 10.3863ZM65.0526-11.2312Q56.6612-11.2312 50.3557-15.5375Q44.0502-19.8439 42.0757-28.2603L36.817-28.2603Q35.789-28.2603 35.116-28.9806Q34.4431-29.701 34.4431-30.7084Q34.4431-31.7576 35.116-32.4352Q35.789-33.1127 36.817-33.1127L41.4031-33.1127Q41.3938-33.4493 41.3678-34.0337Q41.3418-34.6181 41.3418-35.2401Q41.3418-35.8539 41.3418-36.3616Q41.3418-36.8693 41.3938-37.3266L36.817-37.3266Q35.789-37.3266 35.116-38.0256Q34.4431-38.7245 34.4431-39.7645Q34.4431-40.8147 35.116-41.4922Q35.789-42.1698 36.817-42.1698L42.0681-42.1698Q44.0464-50.6226 50.3714-54.9303Q56.6964-59.2381 65.0732-59.2381Q67.06-59.2381 68.4627-58.9969Q69.8654-58.7557 70.7965-58.3356Q72.011-57.7465 72.4639-56.9434Q72.9168-56.1403 72.9168-55.1866Q72.9168-52.4125 70.1761-52.1967Q69.3528-52.0425 68.0224-52.1111Q66.6921-52.1797 65.0725-52.1592Q59.8973-52.1181 55.8725-49.6172Q51.8478-47.1164 50.3026-42.1698L65.6136-42.1698Q68.0303-42.1698 68.0303-39.7645Q68.0303-38.7245 67.3527-38.0256Q66.6751-37.3266 65.6136-37.3266L49.2391-37.3266Q49.1768-36.8693 49.1716-36.3239Q49.1665-35.7786 49.1665-35.2179Q49.1665-34.6506 49.1768-34.093Q49.187-33.5355 49.2493-33.1127L65.6136-33.1127Q68.0303-33.1127 68.0303-30.7084Q68.0303-29.701 67.3527-28.9806Q66.6751-28.2603 65.6136-28.2603L50.2674-28.2603Q51.8516-23.297 55.8363-20.7878Q59.8209-18.2786 65.0314-18.2478Q66.6818-18.2375 67.9926-18.3218Q69.3035-18.4062 70.1453-18.2623Q72.9476-18.0156 72.9476-15.2389Q72.9476-13.1873 70.8913-12.2089Q69.8979-11.7563 68.4627-11.4937Q67.0275-11.2312 65.0526-11.2312Z"/>
  </g>
  <g id="Regular-M" transform="matrix(1 0 0 1 1392.45 1126)">
   <path d="M27.7814 9.76797L86.9995 9.76797Q94.6681 9.76797 98.494 5.95622Q102.32 2.14448 102.32-5.39959L102.32-64.9857Q102.32-72.5298 98.494-76.3359Q94.6681-80.142 86.9995-80.142L27.7814-80.142Q20.1637-80.142 16.3123-76.3416Q12.4609-72.5412 12.4609-64.9857L12.4609-5.39959Q12.4609 2.16717 16.3123 5.96757Q20.1637 9.76797 27.7814 9.76797ZM64.4333-10.9685Q56.3963-10.9685 50.0925-15.2561Q43.7887-19.5437 41.7838-28.1302L36.0967-28.1302Q35.0774-28.1302 34.378-28.8862Q33.6786-29.6423 33.6786-30.6616Q33.6786-31.7433 34.378-32.4484Q35.0774-33.1534 36.0967-33.1534L41.1155-33.1534Q41.1042-33.4594 41.073-34.0428Q41.0419-34.6263 41.0419-35.2606Q41.0419-35.8723 41.0419-36.3821Q41.0419-36.8919 41.1042-37.3903L36.0967-37.3903Q35.0774-37.3903 34.378-38.1209Q33.6786-38.8514 33.6786-39.9218Q33.6786-40.9921 34.378-41.6972Q35.0774-42.4022 36.0967-42.4022L41.8234-42.4022Q43.8565-50.9718 50.1717-55.2311Q56.4869-59.4905 64.4333-59.4905Q66.302-59.4905 67.6159-59.3008Q68.9298-59.1111 69.8586-58.7939Q71.1385-58.2503 71.5945-57.5Q72.0504-56.7496 72.0504-55.8435Q72.0504-53.0459 69.0604-53.0459Q68.2844-53.0459 67.1178-53.1649Q65.9511-53.2838 64.371-53.2838Q58.922-53.2838 54.6964-50.5564Q50.4709-47.8289 48.7944-42.4022L64.3479-42.4022Q66.817-42.4022 66.817-39.9218Q66.817-38.8514 66.1119-38.1209Q65.4069-37.3903 64.3479-37.3903L47.7581-37.3903Q47.6958-36.8919 47.6958-36.3312Q47.6958-35.7704 47.6958-35.2097Q47.6958-34.6772 47.6958-34.1504Q47.6958-33.6236 47.7581-33.1534L64.3479-33.1534Q66.817-33.1534 66.817-30.6616Q66.817-29.6423 66.1119-28.8862Q65.4069-28.1302 64.3479-28.1302L48.7038-28.1302Q50.403-22.6357 54.6172-19.8743Q58.8314-17.1129 64.371-17.1129Q65.9511-17.1129 67.1064-17.263Q68.2617-17.413 69.0604-17.413Q72.0504-17.413 72.0504-14.5759Q72.0504-12.6277 69.9719-11.767Q68.9807-11.3989 67.6159-11.1837Q66.2511-10.9685 64.4333-10.9685Z"/>
  </g>
  <g id="Light-M" transform="matrix(1 0 0 1 1096.49 1126)">
   <path d="M26.8614 9.03201L86.4291 9.03201Q93.601 9.03201 97.2153 5.40425Q100.83 1.7765 100.83-5.27079L100.83-65.0961Q100.83-72.1434 97.2153-75.7563Q93.601-79.3692 86.4291-79.3692L26.8614-79.3692Q19.7221-79.3692 16.0915-75.7712Q12.4609-72.1732 12.4609-65.0961L12.4609-5.27079Q12.4609 1.83599 16.0915 5.434Q19.7221 9.03201 26.8614 9.03201ZM63.2373-12.0909Q55.6052-12.0909 49.5865-16.2589Q43.5679-20.4268 41.747-28.7926L35.7287-28.7926Q34.875-28.7926 34.3044-29.4106Q33.7338-30.0286 33.7338-30.8824Q33.7338-31.7985 34.3044-32.384Q34.875-32.9695 35.7287-32.9695L41.2075-32.9695Q41.1778-33.3674 41.1466-33.9876Q41.1155-34.6079 41.1155-35.2606Q41.1155-35.8539 41.1155-36.3821Q41.1155-36.9103 41.1778-37.4087L35.7287-37.4087Q34.875-37.4087 34.3044-38.0105Q33.7338-38.6122 33.7338-39.4986Q33.7338-40.3849 34.3044-40.9704Q34.875-41.5559 35.7287-41.5559L41.7498-41.5559Q43.5438-49.9783 49.5922-54.1732Q55.6406-58.3681 63.2373-58.3681Q64.7013-58.3681 65.822-58.2244Q66.9427-58.0807 67.7611-57.8556Q68.8939-57.4408 69.3314-56.8376Q69.7689-56.2344 69.7689-55.4755Q69.7689-53.1931 67.386-53.1931Q66.6653-53.1931 65.6274-53.3029Q64.5895-53.4126 63.175-53.4126Q57.5789-53.4126 53.1693-50.4552Q48.7598-47.4977 47.1937-41.5559L62.7104-41.5559Q64.7379-41.5559 64.7379-39.4986Q64.7379-38.6122 64.1524-38.0105Q63.567-37.4087 62.7104-37.4087L46.3966-37.4087Q46.3343-36.9103 46.3343-36.3496Q46.3343-35.7888 46.3343-35.2281Q46.3343-34.6404 46.3343-34.0676Q46.3343-33.4948 46.3966-32.9695L62.7104-32.9695Q64.7379-32.9695 64.7379-30.8824Q64.7379-30.0286 64.1524-29.4106Q63.567-28.7926 62.7104-28.7926L47.1583-28.7926Q48.7839-22.8749 53.1637-19.9295Q57.5435-16.9841 63.175-16.9841Q64.5895-16.9841 65.5977-17.125Q66.6058-17.2659 67.386-17.2659Q69.7689-17.2659 69.7689-14.9806Q69.7689-13.3084 67.856-12.6685Q66.9753-12.4108 65.822-12.2509Q64.6687-12.0909 63.2373-12.0909Z"/>
  </g>
  <g id="Thin-M" transform="matrix(1 0 0 1 800.76 1126)">
   <path d="M25.6447 8.05864L85.6747 8.05864Q92.1896 8.05864 95.5241 4.67423Q98.8585 1.28982 98.8585-5.10045L98.8585-65.2421Q98.8585-71.6324 95.5241-74.9898Q92.1896-78.3472 85.6747-78.3472L25.6447-78.3472Q19.1381-78.3472 15.7995-75.0168Q12.4609-71.6865 12.4609-65.2421L12.4609-5.10045Q12.4609 1.39797 15.7995 4.72831Q19.1381 8.05864 25.6447 8.05864ZM61.6556-13.5753Q54.5588-13.5753 48.9173-17.5851Q43.2759-21.5949 41.6983-29.6686L35.2421-29.6686Q34.6073-29.6686 34.207-30.1041Q33.8068-30.5397 33.8068-31.1744Q33.8068-31.8715 34.207-32.2988Q34.6073-32.7261 35.2421-32.7261L41.3292-32.7261Q41.2751-33.2457 41.244-33.9146Q41.2128-34.5835 41.2128-35.2606Q41.2128-35.8296 41.2128-36.3821Q41.2128-36.9346 41.2751-37.4331L35.2421-37.4331Q34.6073-37.4331 34.207-37.8645Q33.8068-38.2959 33.8068-38.9389Q33.8068-39.5819 34.207-40.0092Q34.6073-40.4365 35.2421-40.4365L41.6524-40.4365Q43.1301-48.6642 48.8256-52.774Q54.5212-56.8837 61.6556-56.8837Q62.5842-56.8837 63.4494-56.8009Q64.3146-56.718 64.987-56.6146Q65.9251-56.3701 66.3383-55.9616Q66.7515-55.5531 66.7515-54.9888Q66.7515-53.3878 65.1716-53.3878Q64.5239-53.3878 63.6564-53.4854Q62.7888-53.5829 61.5933-53.5829Q55.8025-53.5829 51.1496-50.3213Q46.4967-47.0597 45.0766-40.4365L60.5446-40.4365Q61.9882-40.4365 61.9882-38.9389Q61.9882-38.2959 61.5609-37.8645Q61.1336-37.4331 60.5446-37.4331L44.5959-37.4331Q44.5335-36.9346 44.5335-36.3739Q44.5335-35.8132 44.5335-35.2524Q44.5335-34.5917 44.5335-33.9581Q44.5335-33.3245 44.5959-32.7261L60.5446-32.7261Q61.9882-32.7261 61.9882-31.1744Q61.9882-30.5397 61.5609-30.1041Q61.1336-29.6686 60.5446-29.6686L45.1142-29.6686Q46.6425-23.1912 51.2413-20.0025Q55.8401-16.8137 61.5933-16.8137Q62.7888-16.8137 63.6023-16.9425Q64.4158-17.0712 65.1716-17.0712Q66.7515-17.0712 66.7515-15.516Q66.7515-14.2088 65.0575-13.8609Q64.3228-13.7492 63.4494-13.6622Q62.576-13.5753 61.6556-13.5753Z"/>
  </g>
  <g id="Ultralight-M" transform="matrix(1 0 0 1 504.553 1126)">
   <path d="M25.0215 7.56009L85.2884 7.56009Q91.4667 7.56009 94.6578 4.30031Q97.8489 1.04054 97.8489-5.01321L97.8489-65.3169Q97.8489-71.3707 94.6578-74.5972Q91.4667-77.8237 85.2884-77.8237L25.0215-77.8237Q18.8389-77.8237 15.6499-74.6305Q12.4609-71.4372 12.4609-65.3169L12.4609-5.01321Q12.4609 1.17363 15.6499 4.36686Q18.8389 7.56009 25.0215 7.56009ZM60.8455-14.3355Q54.0229-14.3355 48.5746-18.2643Q43.1263-22.1932 41.6734-30.1173L34.9928-30.1173Q34.4702-30.1173 34.1572-30.4593Q33.8442-30.8014 33.8442-31.324Q33.8442-31.9089 34.1572-32.2552Q34.4702-32.6015 34.9928-32.6015L41.3915-32.6015Q41.325-33.1834 41.2938-33.8772Q41.2627-34.5711 41.2627-35.2606Q41.2627-35.8171 41.2627-36.3821Q41.2627-36.9471 41.325-37.4455L34.9928-37.4455Q34.4702-37.4455 34.1572-37.7897Q33.8442-38.1339 33.8442-38.6522Q33.8442-39.1706 34.1572-39.5169Q34.4702-39.8632 34.9928-39.8632L41.6026-39.8632Q42.9182-47.9912 48.433-52.0573Q53.9478-56.1234 60.8455-56.1234Q61.4999-56.1234 62.2342-56.0717Q62.9685-56.02 63.5661-55.9789Q64.4045-55.8217 64.8052-55.5129Q65.206-55.2041 65.206-54.7396Q65.206-53.4875 64.0374-53.4875Q63.4271-53.4875 62.6468-53.5789Q61.8665-53.6702 60.7831-53.6702Q54.8926-53.6702 50.1151-50.2528Q45.3375-46.8353 43.9923-39.8632L59.4354-39.8632Q60.5797-39.8632 60.5797-38.6522Q60.5797-38.1339 60.2335-37.7897Q59.8872-37.4455 59.4354-37.4455L43.6735-37.4455Q43.6112-36.9471 43.6112-36.3864Q43.6112-35.8256 43.6112-35.2649Q43.6112-34.5668 43.6112-33.902Q43.6112-33.2372 43.6735-32.6015L59.4354-32.6015Q60.5797-32.6015 60.5797-31.324Q60.5797-30.8014 60.2335-30.4593Q59.8872-30.1173 59.4354-30.1173L44.0673-30.1173Q45.5456-23.3532 50.2566-20.0399Q54.9676-16.7265 60.7831-16.7265Q61.8665-16.7265 62.5802-16.849Q63.294-16.9715 64.0374-16.9715Q65.206-16.9715 65.206-15.7902Q65.206-14.67 63.6242-14.4716Q62.9643-14.4347 62.2342-14.3851Q61.5041-14.3355 60.8455-14.3355Z"/>
  </g>
  <g id="Black-S" transform="matrix(1 0 0 1 2885.5 696)">
   <path d="M25 2.92969L70.8008 2.92969Q77.9785 2.92969 82.0068-1.09863Q86.0352-5.12695 86.0352-12.3047L86.0352-58.1055Q86.0352-65.2832 82.0068-69.3115Q77.9785-73.3398 70.8008-73.3398L25-73.3398Q17.8223-73.3398 13.7939-69.3115Q9.76562-65.2832 9.76562-58.1055L9.76562-12.3047Q9.76562-5.12695 13.7939-1.09863Q17.8223 2.92969 25 2.92969ZM53.3691-17.5293Q45.4102-17.5293 40.4785-20.9717Q35.5469-24.4141 34.1309-30.3223L31.6895-30.3223Q30.8594-30.3223 30.4443-30.7373Q30.0293-31.1523 30.0293-31.8848Q30.0293-32.5684 30.4443-32.9834Q30.8594-33.3984 31.6895-33.3984L33.5938-33.3984Q33.5938-33.7891 33.5938-34.2529Q33.5938-34.7168 33.5938-35.1562Q33.5938-35.6445 33.5938-36.0352Q33.5938-36.4258 33.5938-36.6211L31.6895-36.6211Q30.8594-36.6211 30.4443-37.0361Q30.0293-37.4512 30.0293-38.1348Q30.0293-38.8672 30.4443-39.2822Q30.8594-39.6973 31.6895-39.6973L33.9355-39.6973Q35.2539-45.8496 40.2344-49.4141Q45.2148-52.9785 53.4668-52.9785Q55.4688-52.9785 56.9092-52.5879Q58.3496-52.1973 59.082-51.4648Q59.7656-50.8301 60.1074-50Q60.4492-49.1699 60.4492-48.2422Q60.4492-46.1914 59.3262-45.166Q58.4961-44.4336 56.8115-44.2871Q55.127-44.1406 53.7109-44.043Q50.7324-43.8477 48.3643-42.7734Q45.9961-41.6992 45.3125-39.6973L56.3477-39.6973Q58.0078-39.6973 58.0078-38.1348Q58.0078-37.4512 57.5928-37.0361Q57.1777-36.6211 56.3477-36.6211L44.3848-36.6211Q44.3359-36.4258 44.3115-36.0596Q44.2871-35.6934 44.2871-35.2539Q44.2871-34.668 44.3359-34.1064Q44.3848-33.5449 44.4336-33.3984L56.3477-33.3984Q58.0078-33.3984 58.0078-31.8848Q58.0078-31.1523 57.5928-30.7373Q57.1777-30.3223 56.3477-30.3223L45.5078-30.3223Q46.2891-28.5156 48.5107-27.5391Q50.7324-26.5625 53.5156-26.416Q55.0781-26.3672 56.7139-26.1719Q58.3496-25.9766 59.1797-25.293Q60.5957-24.1211 60.5957-22.2168Q60.5957-20.2148 59.082-18.9941Q58.3008-18.3105 56.9092-17.9199Q55.5176-17.5293 53.3691-17.5293Z"/>
  </g>
  <g id="Heavy-S" transform="matrix(1 0 0 1 2589.39 696)">
   <path d="M24.3431 2.33042L70.2476 2.33042Q77.2064 2.33042 81.0157-1.47318Q84.8251-5.27677 84.8251-12.2125L84.8251-58.1977Q84.8251-65.1334 81.0157-68.937Q77.2064-72.7406 70.2476-72.7406L24.3431-72.7406Q17.3959-72.7406 13.5807-68.937Q9.76562-65.1334 9.76562-58.1977L9.76562-12.2125Q9.76562-5.27677 13.5807-1.47318Q17.3959 2.33042 24.3431 2.33042ZM52.8275-17.0914Q45.2142-17.0914 40.248-20.528Q35.2818-23.9646 33.8082-30.0918L30.9288-30.0918Q30.0872-30.0918 29.6261-30.5644Q29.165-31.0371 29.165-31.8041Q29.165-32.5453 29.6261-33.0064Q30.0872-33.4676 30.9288-33.4676L33.2595-33.4676Q33.2595-33.8121 33.2538-34.2702Q33.248-34.7283 33.248-35.1793Q33.248-35.6676 33.248-36.0582Q33.248-36.4488 33.2595-36.6902L30.9288-36.6902Q30.0872-36.6902 29.6261-37.1571Q29.165-37.624 29.165-38.3653Q29.165-39.1438 29.6261-39.6049Q30.0872-40.066 30.9288-40.066L33.6705-40.066Q35.081-46.3682 40.0846-49.8866Q45.0881-53.4049 52.9021-53.4049Q54.8234-53.4049 56.1889-53.0662Q57.5544-52.7274 58.2984-52.0987Q59.0742-51.4985 59.4217-50.7088Q59.7693-49.919 59.7693-49.0259Q59.7693-46.8829 58.289-46.0995Q57.505-45.5399 55.9875-45.4511Q54.4701-45.3622 53.0771-45.2876Q49.8105-45.1384 47.2406-43.8395Q44.6708-42.5405 43.8258-40.066L55.1376-40.066Q56.913-40.066 56.913-38.3653Q56.913-37.624 56.4519-37.1571Q55.9907-36.6902 55.1376-36.6902L42.8981-36.6902Q42.8493-36.4488 42.8306-36.0653Q42.812-35.6818 42.812-35.2424Q42.812-34.7025 42.8493-34.1814Q42.8866-33.6602 42.9354-33.4676L55.1376-33.4676Q56.913-33.4676 56.913-31.8041Q56.913-31.0371 56.4519-30.5644Q55.9907-30.0918 55.1376-30.0918L43.952-30.0918Q44.8716-27.7435 47.3295-26.5076Q49.7874-25.2718 52.9279-25.1598Q54.4328-25.1225 55.9129-25.0021Q57.3931-24.8817 58.1771-24.3595Q59.8812-23.4642 59.8812-21.4216Q59.8812-19.5003 58.3214-18.3833Q57.5286-17.7804 56.1889-17.4359Q54.8492-17.0914 52.8275-17.0914Z"/>
  </g>
  <g id="Bold-S" transform="matrix(1 0 0 1 2293.36 696)">
   <path d="M23.6084 1.66016L69.6289 1.66016Q76.3428 1.66016 79.9072-1.89209Q83.4717-5.44434 83.4717-12.1094L83.4717-58.3008Q83.4717-64.9658 79.9072-68.5181Q76.3428-72.0703 69.6289-72.0703L23.6084-72.0703Q16.9189-72.0703 13.3423-68.5181Q9.76562-64.9658 9.76562-58.3008L9.76562-12.1094Q9.76562-5.44434 13.3423-1.89209Q16.9189 1.66016 23.6084 1.66016ZM52.2217-16.6016Q44.9951-16.6016 39.9902-20.0317Q34.9854-23.4619 33.4473-29.834L30.0781-29.834Q29.2236-29.834 28.7109-30.3711Q28.1982-30.9082 28.1982-31.7139Q28.1982-32.5195 28.7109-33.0322Q29.2236-33.5449 30.0781-33.5449L32.8857-33.5449Q32.8857-33.8379 32.8735-34.2896Q32.8613-34.7412 32.8613-35.2051Q32.8613-35.6934 32.8613-36.084Q32.8613-36.4746 32.8857-36.7676L30.0781-36.7676Q29.2236-36.7676 28.7109-37.2925Q28.1982-37.8174 28.1982-38.623Q28.1982-39.4531 28.7109-39.9658Q29.2236-40.4785 30.0781-40.4785L33.374-40.4785Q34.8877-46.9482 39.917-50.415Q44.9463-53.8818 52.2705-53.8818Q54.1016-53.8818 55.3833-53.6011Q56.665-53.3203 57.4219-52.8076Q58.3008-52.2461 58.6548-51.5015Q59.0088-50.7568 59.0088-49.9023Q59.0088-47.6562 57.1289-47.1436Q56.3965-46.7773 55.0659-46.7529Q53.7354-46.7285 52.3682-46.6797Q48.7793-46.582 45.9839-45.0317Q43.1885-43.4814 42.1631-40.4785L53.7842-40.4785Q55.6885-40.4785 55.6885-38.623Q55.6885-37.8174 55.1758-37.2925Q54.6631-36.7676 53.7842-36.7676L41.2354-36.7676Q41.1865-36.4746 41.1743-36.0718Q41.1621-35.6689 41.1621-35.2295Q41.1621-34.7412 41.1865-34.2651Q41.2109-33.7891 41.2598-33.5449L53.7842-33.5449Q55.6885-33.5449 55.6885-31.7139Q55.6885-30.9082 55.1758-30.3711Q54.6631-29.834 53.7842-29.834L42.2119-29.834Q43.2861-26.8799 46.0083-25.354Q48.7305-23.8281 52.2705-23.7549Q53.7109-23.7305 55.0171-23.6938Q56.3232-23.6572 57.0557-23.3154Q59.082-22.7295 59.082-20.5322Q59.082-18.7012 57.4707-17.7002Q56.665-17.1875 55.3833-16.8945Q54.1016-16.6016 52.2217-16.6016Z"/>
  </g>
  <g id="Semibold-S" transform="matrix(1 0 0 1 1997.11 696)">
   <path d="M23.1019 1.19805L69.2023 1.19805Q75.7474 1.19805 79.143-2.18091Q82.5386-5.55986 82.5386-12.0383L82.5386-58.3719Q82.5386-64.8503 79.143-68.2292Q75.7474-71.6082 69.2023-71.6082L23.1019-71.6082Q16.5901-71.6082 13.1779-68.2292Q9.76562-64.8503 9.76562-58.3719L9.76562-12.0383Q9.76562-5.55986 13.1779-2.18091Q16.5901 1.19805 23.1019 1.19805ZM51.804-16.2639Q44.844-16.2639 39.8125-19.6896Q34.781-23.1153 33.1984-29.6562L29.4916-29.6562Q28.6282-29.6562 28.08-30.2378Q27.5317-30.8193 27.5317-31.6517Q27.5317-32.5018 28.08-33.05Q28.6282-33.5982 29.4916-33.5982L32.628-33.5982Q32.628-33.8557 32.6114-34.3029Q32.5947-34.7501 32.5947-35.2229Q32.5947-35.7111 32.5947-36.1018Q32.5947-36.4924 32.628-36.8209L29.4916-36.8209Q28.6282-36.8209 28.08-37.3858Q27.5317-37.9507 27.5317-38.8008Q27.5317-39.6664 28.08-40.2146Q28.6282-40.7629 29.4916-40.7629L33.1696-40.7629Q34.7544-47.3481 39.8015-50.7794Q44.8485-54.2106 51.8351-54.2106Q53.6039-54.2106 54.8279-53.9699Q56.0519-53.7291 56.8176-53.2964Q57.7676-52.7615 58.126-52.048Q58.4845-51.3345 58.4845-50.5066Q58.4845-48.1895 56.3291-47.8634Q55.6322-47.6305 54.4305-47.6505Q53.2288-47.6705 51.8794-47.6395Q48.0684-47.5773 45.1174-45.8538Q42.1665-44.1302 41.0167-40.7629L52.8511-40.7629Q54.8442-40.7629 54.8442-38.8008Q54.8442-37.9507 54.296-37.3858Q53.7478-36.8209 52.8511-36.8209L40.089-36.8209Q40.0401-36.4924 40.0324-36.0762Q40.0246-35.6601 40.0246-35.2206Q40.0246-34.7679 40.0401-34.3229Q40.0557-33.8779 40.1045-33.5982L52.8511-33.5982Q54.8442-33.5982 54.8442-31.6517Q54.8442-30.8193 54.296-30.2378Q53.7478-29.6562 52.8511-29.6562L41.0122-29.6562Q42.1931-26.2845 45.0974-24.5586Q48.0018-22.8328 51.8173-22.7862Q53.2133-22.7707 54.3995-22.7918Q55.5856-22.813 56.2825-22.5956Q58.5311-22.2229 58.5311-19.919Q58.5311-18.1502 56.8842-17.2292Q56.0696-16.7787 54.8279-16.5213Q53.5861-16.2639 51.804-16.2639Z"/>
  </g>
  <g id="Medium-S" transform="matrix(1 0 0 1 1700.76 696)">
   <path d="M22.7178 0.847656L68.8789 0.847656Q75.2959 0.847656 78.5635-2.3999Q81.8311-5.64746 81.8311-11.9844L81.8311-58.4258Q81.8311-64.7627 78.5635-68.0103Q75.2959-71.2578 68.8789-71.2578L22.7178-71.2578Q16.3408-71.2578 13.0532-68.0103Q9.76562-64.7627 9.76562-58.4258L9.76562-11.9844Q9.76562-5.64746 13.0532-2.3999Q16.3408 0.847656 22.7178 0.847656ZM51.4873-16.0078Q44.7295-16.0078 39.6777-19.4302Q34.626-22.8525 33.0098-29.5215L29.0469-29.5215Q28.1768-29.5215 27.6016-30.1367Q27.0264-30.752 27.0264-31.6045Q27.0264-32.4883 27.6016-33.0635Q28.1768-33.6387 29.0469-33.6387L32.4326-33.6387Q32.4326-33.8691 32.4126-34.313Q32.3926-34.7568 32.3926-35.2363Q32.3926-35.7246 32.3926-36.1152Q32.3926-36.5059 32.4326-36.8613L29.0469-36.8613Q28.1768-36.8613 27.6016-37.4565Q27.0264-38.0518 27.0264-38.9355Q27.0264-39.8281 27.6016-40.4033Q28.1768-40.9785 29.0469-40.9785L33.0146-40.9785Q34.6533-47.6514 39.7139-51.0557Q44.7744-54.46 51.5049-54.46Q53.2266-54.46 54.4067-54.2495Q55.5869-54.0391 56.3594-53.667Q57.3633-53.1523 57.7251-52.4624Q58.0869-51.7725 58.0869-50.9648Q58.0869-48.5938 55.7227-48.4092Q55.0527-48.2773 53.9487-48.3311Q52.8447-48.3848 51.5088-48.3672Q47.5293-48.332 44.4604-46.4771Q41.3916-44.6221 40.1475-40.9785L52.1436-40.9785Q54.2041-40.9785 54.2041-38.9355Q54.2041-38.0518 53.6289-37.4565Q53.0537-36.8613 52.1436-36.8613L39.2197-36.8613Q39.1709-36.5059 39.1665-36.0796Q39.1621-35.6533 39.1621-35.2139Q39.1621-34.7881 39.1709-34.3667Q39.1797-33.9453 39.2285-33.6387L52.1436-33.6387Q54.2041-33.6387 54.2041-31.6045Q54.2041-30.752 53.6289-30.1367Q53.0537-29.5215 52.1436-29.5215L40.1025-29.5215Q41.3643-25.833 44.4067-23.9556Q47.4492-22.0781 51.4736-22.0518Q52.8359-22.043 53.9312-22.1079Q55.0264-22.1729 55.6963-22.0498Q58.1133-21.8389 58.1133-19.4541Q58.1133-17.7324 56.4395-16.8721Q55.6182-16.4688 54.4067-16.2383Q53.1953-16.0078 51.4873-16.0078Z"/>
  </g>
  <g id="Regular-S" transform="matrix(1 0 0 1 1404.51 696)">
   <path d="M22.2168 0.390625L68.457 0.390625Q74.707 0.390625 77.8076-2.68555Q80.9082-5.76172 80.9082-11.9141L80.9082-58.4961Q80.9082-64.6484 77.8076-67.7246Q74.707-70.8008 68.457-70.8008L22.2168-70.8008Q16.0156-70.8008 12.8906-67.7246Q9.76562-64.6484 9.76562-58.4961L9.76562-11.9141Q9.76562-5.76172 12.8906-2.68555Q16.0156 0.390625 22.2168 0.390625ZM51.0742-15.6738Q44.5801-15.6738 39.502-19.0918Q34.4238-22.5098 32.7637-29.3457L28.4668-29.3457Q27.5879-29.3457 26.9775-30.0049Q26.3672-30.6641 26.3672-31.543Q26.3672-32.4707 26.9775-33.0811Q27.5879-33.6914 28.4668-33.6914L32.1777-33.6914Q32.1777-33.8867 32.1533-34.3262Q32.1289-34.7656 32.1289-35.2539Q32.1289-35.7422 32.1289-36.1328Q32.1289-36.5234 32.1777-36.9141L28.4668-36.9141Q27.5879-36.9141 26.9775-37.5488Q26.3672-38.1836 26.3672-39.1113Q26.3672-40.0391 26.9775-40.6494Q27.5879-41.2598 28.4668-41.2598L32.8125-41.2598Q34.5215-48.0469 39.5996-51.416Q44.6777-54.7852 51.0742-54.7852Q52.7344-54.7852 53.8574-54.6143Q54.9805-54.4434 55.7617-54.1504Q56.8359-53.6621 57.2021-53.0029Q57.5684-52.3438 57.5684-51.5625Q57.5684-49.1211 54.9316-49.1211Q54.2969-49.1211 53.3203-49.2188Q52.3438-49.3164 51.0254-49.3164Q46.8262-49.3164 43.6035-47.29Q40.3809-45.2637 39.0137-41.2598L51.2207-41.2598Q53.3691-41.2598 53.3691-39.1113Q53.3691-38.1836 52.7588-37.5488Q52.1484-36.9141 51.2207-36.9141L38.0859-36.9141Q38.0371-36.5234 38.0371-36.084Q38.0371-35.6445 38.0371-35.2051Q38.0371-34.8145 38.0371-34.4238Q38.0371-34.0332 38.0859-33.6914L51.2207-33.6914Q53.3691-33.6914 53.3691-31.543Q53.3691-30.6641 52.7588-30.0049Q52.1484-29.3457 51.2207-29.3457L38.916-29.3457Q40.2832-25.2441 43.5059-23.1689Q46.7285-21.0938 51.0254-21.0938Q52.3438-21.0938 53.3203-21.2158Q54.2969-21.3379 54.9316-21.3379Q57.5684-21.3379 57.5684-18.8477Q57.5684-17.1875 55.8594-16.4062Q55.0293-16.0645 53.8574-15.8691Q52.6855-15.6738 51.0742-15.6738Z"/>
  </g>
  <g id="Light-S" transform="matrix(1 0 0 1 1108.45 696)">
   <path d="M21.403-0.260417L67.9525-0.260417Q73.763-0.260417 76.6764-3.17383Q79.5898-6.08724 79.5898-11.8001L79.5898-58.5938Q79.5898-64.3066 76.6764-67.2119Q73.763-70.1172 67.9525-70.1172L21.403-70.1172Q15.625-70.1172 12.6953-67.2201Q9.76562-64.3229 9.76562-58.5938L9.76562-11.8001Q9.76562-6.05469 12.6953-3.15755Q15.625-0.260417 21.403-0.260417ZM50.0163-16.6667Q43.8802-16.6667 39.0544-19.9788Q34.2285-23.291 32.7311-29.9316L28.1413-29.9316Q27.4089-29.9316 26.9124-30.4688Q26.416-31.0059 26.416-31.7383Q26.416-32.5195 26.9124-33.0241Q27.4089-33.5286 28.1413-33.5286L32.2591-33.5286Q32.2428-33.8053 32.2184-34.2773Q32.194-34.7493 32.194-35.2539Q32.194-35.7259 32.194-36.1328Q32.194-36.5397 32.2428-36.9303L28.1413-36.9303Q27.4089-36.9303 26.9124-37.4512Q26.416-37.972 26.416-38.737Q26.416-39.502 26.9124-40.0065Q27.4089-40.5111 28.1413-40.5111L32.7474-40.5111Q34.2448-47.168 39.0869-50.4801Q43.929-53.7923 50.0163-53.7923Q51.3184-53.7923 52.2705-53.6621Q53.2227-53.5319 53.9062-53.3203Q54.8503-52.946 55.2002-52.417Q55.5501-51.888 55.5501-51.237Q55.5501-49.2513 53.4505-49.2513Q52.8646-49.2513 52.002-49.3408Q51.1393-49.4303 49.9674-49.4303Q45.638-49.4303 42.2526-47.2005Q38.8672-44.9707 37.5977-40.5111L49.7721-40.5111Q51.5299-40.5111 51.5299-38.737Q51.5299-37.972 51.0254-37.4512Q50.5208-36.9303 49.7721-36.9303L36.8815-36.9303Q36.8327-36.5397 36.8327-36.1003Q36.8327-35.6608 36.8327-35.2214Q36.8327-34.7819 36.8327-34.3506Q36.8327-33.9193 36.8815-33.5286L49.7721-33.5286Q51.5299-33.5286 51.5299-31.7383Q51.5299-31.0059 51.0254-30.4688Q50.5208-29.9316 49.7721-29.9316L37.5488-29.9316Q38.8509-25.4557 42.2201-23.2178Q45.5892-20.9798 49.9674-20.9798Q51.1393-20.9798 51.9857-21.0938Q52.832-21.2077 53.4505-21.2077Q55.5501-21.2077 55.5501-19.2057Q55.5501-17.7897 53.9876-17.2038Q53.2552-16.9596 52.2705-16.8132Q51.2858-16.6667 50.0163-16.6667Z"/>
  </g>
  <g id="Thin-S" transform="matrix(1 0 0 1 812.615 696)">
   <path d="M20.3267-1.12147L67.2852-1.12147Q72.5145-1.12147 75.1803-3.81962Q77.8462-6.51777 77.8462-11.6494L77.8462-58.7229Q77.8462-63.8546 75.1803-66.5338Q72.5145-69.2131 67.2852-69.2131L20.3267-69.2131Q15.1084-69.2131 12.437-66.5527Q9.76562-63.8924 9.76562-58.7229L9.76562-11.6494Q9.76562-6.44216 12.437-3.78182Q15.1084-1.12147 20.3267-1.12147ZM48.6171-17.9798Q42.9546-17.9798 38.4624-21.152Q33.9702-24.3243 32.6881-30.7066L27.7107-30.7066Q27.1721-30.7066 26.8263-31.0823Q26.4806-31.4579 26.4806-31.9966Q26.4806-32.5841 26.8263-32.9487Q27.1721-33.3134 27.7107-33.3134L32.3667-33.3134Q32.3289-33.6977 32.3045-34.2128Q32.2801-34.7278 32.2801-35.2539Q32.2801-35.7044 32.2801-36.1328Q32.2801-36.5612 32.3289-36.9519L27.7107-36.9519Q27.1721-36.9519 26.8263-37.322Q26.4806-37.6922 26.4806-38.2419Q26.4806-38.7916 26.8263-39.1562Q27.1721-39.5209 27.7107-39.5209L32.6613-39.5209Q33.8788-46.0055 38.4088-49.2424Q42.9388-52.4792 48.6171-52.4792Q49.4456-52.4792 50.1717-52.4028Q50.8978-52.3264 51.4522-52.2225Q52.224-51.9988 52.5525-51.642Q52.8809-51.2853 52.8809-50.8065Q52.8809-49.4235 51.4916-49.4235Q50.9703-49.4235 50.2583-49.5023Q49.5464-49.581 48.5682-49.581Q44.0666-49.581 40.4659-47.0821Q36.8652-44.5832 35.7249-39.5209L47.8563-39.5209Q49.0975-39.5209 49.0975-38.2419Q49.0975-37.6922 48.7328-37.322Q48.3682-36.9519 47.8563-36.9519L35.2886-36.9519Q35.2397-36.5612 35.2397-36.1218Q35.2397-35.6823 35.2397-35.2429Q35.2397-34.7388 35.2397-34.2537Q35.2397-33.7686 35.2886-33.3134L47.8563-33.3134Q49.0975-33.3134 49.0975-31.9966Q49.0975-31.4579 48.7328-31.0823Q48.3682-30.7066 47.8563-30.7066L35.7406-30.7066Q36.9566-25.7356 40.5195-23.2824Q44.0823-20.8291 48.5682-20.8291Q49.5464-20.8291 50.2205-20.9323Q50.8947-21.0355 51.4916-21.0355Q52.8809-21.0355 52.8809-19.6793Q52.8809-18.5862 51.5121-18.2586Q50.9088-18.1436 50.1717-18.0617Q49.4345-17.9798 48.6171-17.9798Z"/>
  </g>
  <g id="Ultralight-S" transform="matrix(1 0 0 1 516.35 696)">
   <path d="M19.7754-1.5625L66.9434-1.5625Q71.875-1.5625 74.4141-4.15039Q76.9531-6.73828 76.9531-11.5723L76.9531-58.7891Q76.9531-63.623 74.4141-66.1865Q71.875-68.75 66.9434-68.75L19.7754-68.75Q14.8438-68.75 12.3047-66.2109Q9.76562-63.6719 9.76562-58.7891L9.76562-11.5723Q9.76562-6.64062 12.3047-4.10156Q14.8438-1.5625 19.7754-1.5625ZM47.9004-18.6523Q42.4805-18.6523 38.1592-21.7529Q33.8379-24.8535 32.666-31.1035L27.4902-31.1035Q27.0508-31.1035 26.7822-31.3965Q26.5137-31.6895 26.5137-32.1289Q26.5137-32.6172 26.7822-32.9102Q27.0508-33.2031 27.4902-33.2031L32.4219-33.2031Q32.373-33.6426 32.3486-34.1797Q32.3242-34.7168 32.3242-35.2539Q32.3242-35.6934 32.3242-36.1328Q32.3242-36.5723 32.373-36.9629L27.4902-36.9629Q27.0508-36.9629 26.7822-37.2559Q26.5137-37.5488 26.5137-37.9883Q26.5137-38.4277 26.7822-38.7207Q27.0508-39.0137 27.4902-39.0137L32.6172-39.0137Q33.6914-45.4102 38.0615-48.6084Q42.4316-51.8066 47.9004-51.8066Q48.4863-51.8066 49.0967-51.7578Q49.707-51.709 50.1953-51.6602Q50.8789-51.5137 51.1963-51.2451Q51.5137-50.9766 51.5137-50.5859Q51.5137-49.5117 50.4883-49.5117Q50-49.5117 49.3652-49.585Q48.7305-49.6582 47.8516-49.6582Q43.2617-49.6582 39.5508-47.0215Q35.8398-44.3848 34.7656-39.0137L46.875-39.0137Q47.8516-39.0137 47.8516-37.9883Q47.8516-37.5488 47.5586-37.2559Q47.2656-36.9629 46.875-36.9629L34.4727-36.9629Q34.4238-36.5723 34.4238-36.1328Q34.4238-35.6934 34.4238-35.2539Q34.4238-34.7168 34.4238-34.2041Q34.4238-33.6914 34.4727-33.2031L46.875-33.2031Q47.8516-33.2031 47.8516-32.1289Q47.8516-31.6895 47.5586-31.3965Q47.2656-31.1035 46.875-31.1035L34.8145-31.1035Q35.9863-25.8789 39.6484-23.3154Q43.3105-20.752 47.8516-20.752Q48.7305-20.752 49.3164-20.8496Q49.9023-20.9473 50.4883-20.9473Q51.5137-20.9473 51.5137-19.9219Q51.5137-18.9941 50.2441-18.7988Q49.707-18.75 49.0967-18.7012Q48.4863-18.6523 47.9004-18.6523Z"/>
  </g>
 </g>
</svg>
